<svg width="170" height="175" viewBox="0 0 170 175" fill="none" xmlns="http://www.w3.org/2000/svg">
<path d="M145.16 157.182H144.166V160.373H145.16V157.182Z" fill="#2E57AB"/>
<path d="M145.16 163.447H144.166V166.638H145.16V163.447Z" fill="#2E57AB"/>
<path d="M143.133 161.418H139.914V162.404H143.133V161.418Z" fill="#2E57AB"/>
<path d="M149.432 161.418H146.213V162.404H149.432V161.418Z" fill="#2E57AB"/>
<path d="M25.4136 6.3374C22.9098 6.3374 20.8828 8.34694 20.8828 10.8293C20.8828 13.3117 22.9098 15.3212 25.4136 15.3212C27.9175 15.3212 29.9444 13.3117 29.9444 10.8293C29.9444 8.34694 27.8976 6.3374 25.4136 6.3374ZM25.4136 14.3362C23.4662 14.3362 21.8764 12.7601 21.8764 10.8293C21.8764 8.89858 23.4662 7.32247 25.4136 7.32247C27.3611 7.32247 28.9508 8.89858 28.9508 10.8293C28.931 12.7601 27.3611 14.3362 25.4136 14.3362Z" fill="#2E57AB"/>
<path d="M27.165 166.833C28.715 166.833 29.9669 165.592 29.9669 164.055C29.9669 162.518 28.715 161.277 27.165 161.277C25.615 161.277 24.363 162.518 24.363 164.055C24.363 165.592 25.615 166.833 27.165 166.833ZM27.165 162.262C28.1586 162.262 28.9733 163.07 28.9733 164.055C28.9733 165.04 28.1586 165.848 27.165 165.848C26.1714 165.848 25.3566 165.04 25.3566 164.055C25.3566 163.07 26.1714 162.262 27.165 162.262Z" fill="#2E57AB"/>
<path d="M74.1198 166.055L72.5301 168.951L69.6089 170.527L72.5301 172.103L74.1198 175L75.7096 172.103L78.6308 170.527L75.7096 168.951L74.1198 166.055ZM74.9743 171.394L74.1198 172.95L73.2653 171.394L71.6954 170.547L73.2653 169.7L74.1198 168.143L74.9743 169.7L76.5442 170.547L74.9743 171.394Z" fill="#2E57AB"/>
<path d="M139.253 11.9889L141.24 8.40315L144.857 6.43294L141.24 4.46273L139.253 0.876953L137.266 4.46273L133.649 6.43294L137.266 8.40315L139.253 11.9889ZM138.021 5.21141L139.273 2.94567L140.525 5.21141L142.81 6.45264L140.525 7.69387L139.273 9.95961L138.021 7.69387L135.736 6.45264L138.021 5.21141Z" fill="#2E57AB"/>
<path d="M80.2065 15.8931H79.2129V17.9997H80.2065V15.8931Z" fill="#2E57AB"/>
<path d="M80.2065 20.0305H79.2129V22.137H80.2065V20.0305Z" fill="#2E57AB"/>
<path d="M78.6964 18.531H76.5701V19.5173H78.6964V18.531Z" fill="#2E57AB"/>
<path d="M82.8695 18.531H80.7432V19.5173H82.8695V18.531Z" fill="#2E57AB"/>
<path d="M18.1993 134.388C12.9543 134.388 8.68726 130.204 8.68726 125.061V40.5773C8.68726 35.4343 12.9543 31.2502 18.1993 31.2502H151.801C157.046 31.2502 161.313 35.4343 161.313 40.5773V125.061C161.313 130.204 157.046 134.388 151.801 134.388H18.1993Z" fill="#2E57AB"/>
<path d="M155.459 40.5934V125.044C155.459 127.035 153.813 128.648 151.784 128.648H18.2164C16.1866 128.648 14.541 127.035 14.541 125.044V40.5934C14.541 38.6031 16.1866 36.9895 18.2164 36.9895H151.784C153.813 36.9895 155.459 38.6031 155.459 40.5934Z" fill="white"/>
<path d="M21.9662 125.044V40.5934C21.9662 38.6031 23.6118 36.9895 25.6416 36.9895H18.2164C16.1866 36.9895 14.541 38.6031 14.541 40.5934V125.044C14.541 127.035 16.1866 128.648 18.2164 128.648H25.6416C23.6118 128.648 21.9662 127.035 21.9662 125.044Z" fill="white"/>
<path d="M148.034 125.044V40.5934C148.034 38.6031 146.388 36.9895 144.358 36.9895H151.783C153.813 36.9895 155.459 38.6031 155.459 40.5934V125.044C155.459 127.035 153.813 128.648 151.783 128.648H144.358C146.388 128.648 148.034 127.035 148.034 125.044Z" fill="white"/>
<path d="M84.9999 134.388H1.93335L4.05851 139.182C5.97346 143.502 10.3198 146.296 15.1236 146.296H84.9999H154.877C159.681 146.296 164.027 143.502 165.942 139.182L168.067 134.388H84.9999Z" fill="#9E9E9E"/>
<path d="M11.483 139.182L9.35785 134.388H1.93335L4.05851 139.182C5.97346 143.502 10.3198 146.296 15.1236 146.296H22.5488C17.7443 146.296 13.398 143.502 11.483 139.182Z" fill="#707070"/>
<path d="M158.517 139.182L160.642 134.388H168.067L165.942 139.182C164.027 143.502 159.681 146.296 154.877 146.296H147.452C152.256 146.296 156.602 143.502 158.517 139.182Z" fill="#CECECE"/>
<path d="M53.2874 134.388L56.2249 138.065C57.3727 139.503 59.131 140.342 60.9931 140.342H109.006C110.868 140.342 112.626 139.503 113.774 138.065L116.712 134.388H53.2874Z" fill="#E83464"/>
<path d="M48.0573 75.353C54.1937 75.353 59.1683 70.4752 59.1683 64.4581C59.1683 58.441 54.1937 53.5632 48.0573 53.5632C41.9209 53.5632 36.9463 58.441 36.9463 64.4581C36.9463 70.4752 41.9209 75.353 48.0573 75.353Z" fill="#9E9E9E"/>
<path d="M63.3802 104.136H32.7349V84.4047C32.7349 79.405 36.8682 75.3521 41.9671 75.3521H54.1487C59.2475 75.3521 63.3809 79.405 63.3809 84.4047V104.136H63.3802Z" fill="#2E57AB"/>
<path d="M138.521 63.5847H73.9033V73.0503H138.521V63.5847Z" fill="#E83464"/>
<path d="M138.52 79.2119H73.9031V88.6776H138.52V79.2119Z" fill="#E83464"/>
<path d="M138.52 94.8398H73.9031V104.305H138.52V94.8398Z" fill="#E83464"/>
<path d="M156.503 125.045V40.593C156.503 38.0417 154.385 35.9653 151.783 35.9653H18.2158C15.6131 35.9653 13.4963 38.0417 13.4963 40.593V125.045C13.4963 127.596 15.6138 129.672 18.2158 129.672H151.783C154.386 129.672 156.503 127.596 156.503 125.045ZM15.5846 125.045V40.593C15.5846 39.1706 16.7652 38.013 18.2158 38.013H151.783C153.234 38.013 154.414 39.1706 154.414 40.593V125.045C154.414 126.467 153.234 127.624 151.783 127.624H18.2158C16.7652 127.624 15.5846 126.467 15.5846 125.045Z" fill="#3F3679"/>
<path d="M166.899 139.589L169.024 134.796C169.164 134.479 169.132 134.115 168.94 133.826C168.747 133.538 168.418 133.364 168.067 133.364H158.076C160.667 131.476 162.357 128.462 162.357 125.061V40.5768C162.357 34.87 157.621 30.2266 151.801 30.2266H18.1992C12.3785 30.2266 7.64303 34.87 7.64303 40.5768V125.061C7.64303 128.462 9.33244 131.476 11.9233 133.364H1.933C1.58147 133.364 1.25292 133.538 1.0601 133.826C0.867284 134.115 0.835263 134.48 0.975874 134.796L3.10104 139.589C5.18235 144.286 9.90114 147.32 15.1232 147.32H154.877C160.099 147.32 164.818 144.286 166.899 139.589ZM9.7313 125.061V40.5768C9.7313 35.9989 13.5299 32.2742 18.1992 32.2742H151.801C156.47 32.2742 160.268 35.9989 160.268 40.5768V125.061C160.268 129.639 156.47 133.364 151.801 133.364H116.713H53.2871H18.1992C13.5299 133.364 9.7313 129.639 9.7313 125.061ZM114.568 135.411L112.952 137.434C111.996 138.632 110.558 139.318 109.006 139.318H60.9935C59.4419 139.318 58.0038 138.632 57.0473 137.434L55.4317 135.411H114.568ZM154.877 145.272H15.1225C11.7903 145.272 8.70456 143.8 6.64414 141.365H26.9282C27.5053 141.365 27.9723 140.906 27.9723 140.341C27.9723 139.776 27.5053 139.318 26.9282 139.318H5.28189C5.19 139.138 5.09812 138.958 5.01598 138.773L3.52565 135.411H18.1999H52.7796L55.4039 138.696C56.7585 140.392 58.7966 141.364 60.9942 141.364H109.007C111.205 141.364 113.242 140.392 114.597 138.696L117.222 135.411H151.801H166.475L164.985 138.773C164.903 138.958 164.811 139.138 164.719 139.318H143.072C142.494 139.318 142.027 139.776 142.027 140.341C142.027 140.906 142.494 141.365 143.072 141.365H163.356C161.294 143.801 158.209 145.272 154.877 145.272Z" fill="#3F3679"/>
<path d="M41.2993 139.319H34.0773C33.5003 139.319 33.0332 139.777 33.0332 140.342C33.0332 140.907 33.5003 141.365 34.0773 141.365H41.2993C41.8763 141.365 42.3434 140.907 42.3434 140.342C42.3434 139.777 41.8756 139.319 41.2993 139.319Z" fill="#3F3679"/>
<path d="M135.922 139.319H128.7C128.123 139.319 127.656 139.777 127.656 140.342C127.656 140.907 128.123 141.365 128.7 141.365H135.922C136.499 141.365 136.966 140.907 136.966 140.342C136.966 139.777 136.499 139.319 135.922 139.319Z" fill="#3F3679"/>
<path d="M13.9218 153.295H1.04414C0.467077 153.295 0 153.754 0 154.318C0 154.883 0.467077 155.341 1.04414 155.341H13.9218C14.4989 155.341 14.9659 154.883 14.9659 154.318C14.9659 153.754 14.4982 153.295 13.9218 153.295Z" fill="#3F3679"/>
<path d="M168.955 153.295H156.077C155.5 153.295 155.033 153.754 155.033 154.318C155.033 154.883 155.5 155.341 156.077 155.341H168.955C169.532 155.341 169.999 154.883 169.999 154.318C169.999 153.754 169.532 153.295 168.955 153.295Z" fill="#3F3679"/>
<path d="M145.794 153.295H24.205C23.628 153.295 23.1609 153.754 23.1609 154.318C23.1609 154.883 23.628 155.341 24.205 155.341H145.794C146.371 155.341 146.838 154.883 146.838 154.318C146.838 153.754 146.371 153.295 145.794 153.295Z" fill="#3F3679"/>
<path d="M1.04414 147.318H6.57388C7.15094 147.318 7.61801 146.86 7.61801 146.295C7.61801 145.73 7.15094 145.272 6.57388 145.272H1.04414C0.467077 145.272 0 145.73 0 146.295C0 146.86 0.467077 147.318 1.04414 147.318Z" fill="#3F3679"/>
<path d="M163.426 145.272C162.849 145.272 162.382 145.73 162.382 146.295C162.382 146.86 162.849 147.318 163.426 147.318H168.956C169.533 147.318 170 146.86 170 146.295C170 145.73 169.533 145.272 168.956 145.272H163.426Z" fill="#3F3679"/>
<path d="M54.8095 74.3618C58.0644 72.2213 60.2125 68.582 60.2125 64.458C60.2125 57.8857 54.76 52.5386 48.0574 52.5386C41.3547 52.5386 35.9023 57.8857 35.9023 64.458C35.9023 68.582 38.0504 72.2213 41.3053 74.3618C35.9475 74.699 31.6909 79.068 31.6909 84.4049V104.135C31.6909 104.701 32.158 105.159 32.7351 105.159H63.3804C63.9575 105.159 64.4246 104.701 64.4246 104.135V84.4049C64.4239 79.068 60.1673 74.6983 54.8095 74.3618ZM37.9905 64.458C37.9905 59.0146 42.5068 54.5862 48.0574 54.5862C53.608 54.5862 58.1243 59.0146 58.1243 64.458C58.1243 69.9013 53.608 74.329 48.0574 74.329C42.5068 74.329 37.9905 69.9013 37.9905 64.458ZM62.3356 103.112H33.7792V84.4056C33.7792 79.9785 37.4525 76.3767 41.9673 76.3767H54.1489C58.6637 76.3767 62.3363 79.9778 62.3363 84.4056V103.112H62.3356Z" fill="#3F3679"/>
<path d="M63.3797 108.117H32.7351C32.158 108.117 31.6909 108.576 31.6909 109.14C31.6909 109.705 32.158 110.163 32.7351 110.163H63.3804C63.9575 110.163 64.4246 109.705 64.4246 109.14C64.4246 108.576 63.9568 108.117 63.3797 108.117Z" fill="#3F3679"/>
<path d="M63.3797 113.303H32.7351C32.158 113.303 31.6909 113.761 31.6909 114.326C31.6909 114.891 32.158 115.349 32.7351 115.349H63.3804C63.9575 115.349 64.4246 114.891 64.4246 114.326C64.4246 113.761 63.9568 113.303 63.3797 113.303Z" fill="#3F3679"/>
<path d="M138.521 62.5605H73.9025C73.3255 62.5605 72.8584 63.0192 72.8584 63.5844V73.0493C72.8584 73.6145 73.3255 74.0732 73.9025 74.0732H138.521C139.098 74.0732 139.565 73.6145 139.565 73.0493V63.5844C139.565 63.0192 139.098 62.5605 138.521 62.5605ZM137.476 72.0255H74.9467V64.6082H137.476V72.0255Z" fill="#3F3679"/>
<path d="M138.521 78.1877H73.9025C73.3255 78.1877 72.8584 78.6464 72.8584 79.2116V88.6772C72.8584 89.2424 73.3255 89.701 73.9025 89.701H138.521C139.098 89.701 139.565 89.2424 139.565 88.6772V79.2116C139.565 78.6464 139.098 78.1877 138.521 78.1877ZM137.476 87.6534H74.9467V80.2354H137.476V87.6534Z" fill="#3F3679"/>
<path d="M138.521 93.8162H73.9025C73.3255 93.8162 72.8584 94.2748 72.8584 94.84V104.306C72.8584 104.871 73.3255 105.329 73.9025 105.329H138.521C139.098 105.329 139.565 104.871 139.565 104.306V94.84C139.565 94.2748 139.098 93.8162 138.521 93.8162ZM137.476 103.282H74.9467V95.8638H137.476V103.282Z" fill="#3F3679"/>
</svg>
