<svg width="172" height="154" viewBox="0 0 172 154" fill="none" xmlns="http://www.w3.org/2000/svg">
<path d="M4.76454 44.4187H3.86206V47.223H4.76454V44.4187Z" fill="#2E57AB"/>
<path d="M4.76454 49.9272H3.86206V52.7313H4.76454V49.9272Z" fill="#2E57AB"/>
<path d="M2.9241 48.1431H0V49.0083H2.9241V48.1431Z" fill="#2E57AB"/>
<path d="M8.64528 48.1431H5.72119V49.0083H8.64528V48.1431Z" fill="#2E57AB"/>
<path d="M24.9804 120.033C22.7061 120.033 20.865 121.8 20.865 123.982C20.865 126.165 22.7061 127.932 24.9804 127.932C27.2547 127.932 29.0958 126.165 29.0958 123.982C29.0958 121.8 27.2366 120.033 24.9804 120.033ZM24.9804 127.066C23.2115 127.066 21.7675 125.68 21.7675 123.982C21.7675 122.285 23.2115 120.899 24.9804 120.899C26.7493 120.899 28.1933 122.285 28.1933 123.982C28.1752 125.68 26.7493 127.066 24.9804 127.066Z" fill="#2E57AB"/>
<path d="M127.734 12.6969C129.142 12.6969 130.279 11.6056 130.279 10.2544C130.279 8.90331 129.142 7.81201 127.734 7.81201C126.326 7.81201 125.189 8.90331 125.189 10.2544C125.189 11.6056 126.326 12.6969 127.734 12.6969ZM127.734 8.67812C128.637 8.67812 129.377 9.38833 129.377 10.2544C129.377 11.1205 128.637 11.8307 127.734 11.8307C126.832 11.8307 126.091 11.1205 126.091 10.2544C126.091 9.38833 126.832 8.67812 127.734 8.67812Z" fill="#2E57AB"/>
<path d="M69.2209 0.010498L67.7769 2.55691L65.1235 3.94272L67.7769 5.32853L69.2209 7.87495L70.6649 5.32853L73.3182 3.94272L70.6649 2.55691L69.2209 0.010498ZM69.997 4.70492L69.2209 6.0734L68.4447 4.70492L67.0188 3.96004L68.4447 3.21518L69.2209 1.84669L69.997 3.21518L71.423 3.96004L69.997 4.70492Z" fill="#2E57AB"/>
<path d="M156.834 128.003L158.639 124.85L161.924 123.118L158.639 121.385L156.834 118.233L155.029 121.385L151.744 123.118L155.029 124.85L156.834 128.003ZM155.715 122.044L156.852 120.052L157.989 122.044L160.065 123.135L157.989 124.226L156.852 126.218L155.715 124.226L153.639 123.135L155.715 122.044Z" fill="#2E57AB"/>
<path d="M163.899 38.4175H162.997V40.2697H163.899V38.4175Z" fill="#2E57AB"/>
<path d="M163.899 42.0554H162.997V43.9075H163.899V42.0554Z" fill="#2E57AB"/>
<path d="M162.527 40.7373H160.596V41.6029H162.527V40.7373Z" fill="#2E57AB"/>
<path d="M166.318 40.7373H164.386V41.6029H166.318V40.7373Z" fill="#2E57AB"/>
<path d="M92.5849 139.126C127.068 139.126 155.021 112.594 155.021 79.8648C155.021 47.1358 127.068 20.6038 92.5849 20.6038C58.1022 20.6038 30.1484 47.1358 30.1484 79.8648C30.1484 112.594 58.1022 139.126 92.5849 139.126Z" fill="#2E57AB"/>
<path d="M36.8928 79.8648C36.8928 48.2095 63.0428 22.3531 95.9574 20.6902C94.8402 20.6338 93.7166 20.6038 92.5849 20.6038C58.1023 20.6038 30.1484 47.1359 30.1484 79.8648C30.1484 112.594 58.1023 139.126 92.5849 139.126C93.7166 139.126 94.8402 139.096 95.9568 139.039C63.0428 137.376 36.8928 111.52 36.8928 79.8648Z" fill="#6377E7"/>
<path d="M73.4569 34.1995L80.42 39.2189C82.3288 40.5949 82.903 43.083 81.7737 45.0904L78.7281 50.5058C77.9548 51.8812 77.9618 53.5333 78.7471 54.9028L79.7448 56.6419C80.7172 58.3372 80.4801 60.428 79.1498 61.8881L72.4345 69.2575C71.6675 70.0994 71.2452 71.1754 71.2452 72.288V90.562C71.2452 93.7306 67.9675 95.9672 64.8049 94.9524C60.4113 93.5422 55.3696 91.8384 55.2804 91.416C55.1546 90.8189 48.3179 72.9193 45.534 65.6424C44.836 63.818 45.412 61.7783 46.9737 60.5258L52.3903 56.1822C53.1402 55.5809 53.6814 54.7792 53.9438 53.8814L58.1149 39.6053C58.5202 38.2185 59.5811 37.0897 60.986 36.549L68.6712 33.5946C70.2677 32.9819 72.0861 33.2111 73.4569 34.1995Z" fill="white"/>
<path d="M121.28 72.3387L126.308 79.3216C127.192 80.55 127.591 82.0347 127.436 83.5152L126.844 89.1304C126.581 91.6197 124.796 93.7279 122.292 94.5062L116.31 96.366C114.934 96.7938 113.741 97.6364 112.915 98.7658L103.147 112.112C99.9218 116.518 92.7436 115.346 91.2565 110.169L91.2414 110.116C90.8171 108.641 90.9714 107.069 91.6757 105.693L97.0247 95.2401C97.5002 94.3106 97.7284 93.2844 97.6892 92.251L97.2574 80.9047C97.1708 78.6285 98.3816 76.4837 100.427 75.2918L107.848 70.9668C108.693 70.4747 109.642 70.1675 110.627 70.0685L115.08 69.619C117.516 69.3741 119.898 70.4183 121.28 72.3387Z" fill="white"/>
<path d="M125.117 60.7966L130.76 59.6138C131.52 59.4542 132.147 58.9495 132.438 58.2642L134.676 52.9832C134.914 52.4239 134.903 51.798 134.647 51.2465L131.956 45.4464C131.368 44.1795 129.722 43.7181 128.504 44.4784L125.679 46.2415C124.913 46.7198 124.508 47.5756 124.642 48.4367L125.108 51.4427C125.228 52.218 124.912 52.997 124.274 53.4951L120.951 56.0924C119.559 57.1804 119.917 59.2892 121.599 59.9061L123.759 60.6988C124.192 60.8578 124.664 60.892 125.117 60.7966Z" fill="white"/>
<path d="M65.7744 102.985L69.3284 105.571C69.8146 105.925 70.1807 106.406 70.3811 106.956L73.4394 115.353C74.3195 117.769 71.7822 120.04 69.2917 119.064L56.8202 114.178C55.1668 113.53 54.422 111.699 55.1877 110.165L57.0143 106.505C57.2666 105.999 57.6643 105.572 58.1613 105.271L62.1939 102.836C63.3016 102.167 64.7324 102.226 65.7744 102.985Z" fill="white"/>
<path d="M92.585 152.218C101.379 152.218 108.507 145.452 108.507 137.105C108.507 128.759 101.379 121.992 92.585 121.992C83.7913 121.992 76.6626 128.759 76.6626 137.105C76.6626 145.452 83.7913 152.218 92.585 152.218Z" fill="#FEF6F8"/>
<path d="M83.407 137.105C83.407 129.858 88.7838 123.804 95.9569 122.336C94.8694 122.113 93.7421 121.993 92.585 121.993C83.7914 121.993 76.6626 128.759 76.6626 137.106C76.6626 145.452 83.7914 152.218 92.585 152.218C93.7427 152.218 94.87 152.098 95.9569 151.876C88.7838 150.406 83.407 144.353 83.407 137.105Z" fill="#FEF6F8"/>
<path d="M92.5848 135.853C94.938 135.853 96.8457 134.042 96.8457 131.809C96.8457 129.575 94.938 127.765 92.5848 127.765C90.2316 127.765 88.324 129.575 88.324 131.809C88.324 134.042 90.2316 135.853 92.5848 135.853Z" fill="#E83464"/>
<path d="M98.4604 146.445H86.7097V141.429C86.7097 138.35 89.34 135.853 92.5854 135.853C95.8302 135.853 98.4611 138.349 98.4611 141.429V146.445H98.4604Z" fill="#E83464"/>
<path d="M92.585 37.736C101.379 37.736 108.507 30.9698 108.507 22.6234C108.507 14.2769 101.379 7.51074 92.585 7.51074C83.7913 7.51074 76.6626 14.2769 76.6626 22.6234C76.6626 30.9698 83.7913 37.736 92.585 37.736Z" fill="#FEF6F8"/>
<path d="M83.407 22.6232C83.407 15.3751 88.7838 9.32237 95.9569 7.85389C94.8694 7.63125 93.7421 7.51123 92.585 7.51123C83.7914 7.51123 76.6626 14.2775 76.6626 22.6238C76.6626 30.9702 83.7914 37.7364 92.585 37.7364C93.7427 37.7364 94.87 37.6164 95.9569 37.3938C88.7838 35.9241 83.407 29.8714 83.407 22.6232Z" fill="#FEF6F8"/>
<path d="M92.5848 21.372C94.938 21.372 96.8457 19.5614 96.8457 17.3278C96.8457 15.0943 94.938 13.2837 92.5848 13.2837C90.2316 13.2837 88.324 15.0943 88.324 17.3278C88.324 19.5614 90.2316 21.372 92.5848 21.372Z" fill="#E83464"/>
<path d="M98.4604 31.9644H86.7097V26.9487C86.7097 23.8689 89.34 21.3718 92.5854 21.3718C95.8302 21.3718 98.4611 23.8683 98.4611 26.9487V31.9644H98.4604Z" fill="#E83464"/>
<path d="M155.021 94.9772C163.815 94.9772 170.944 88.211 170.944 79.8646C170.944 71.5181 163.815 64.752 155.021 64.752C146.228 64.752 139.099 71.5181 139.099 79.8646C139.099 88.211 146.228 94.9772 155.021 94.9772Z" fill="#FEF6F8"/>
<path d="M155.021 64.752C153.864 64.752 152.736 64.872 151.649 65.0946C158.822 66.5631 164.199 72.6164 164.199 79.864C164.199 87.1115 158.822 93.1648 151.649 94.6333C152.737 94.8559 153.864 94.976 155.021 94.976C163.815 94.976 170.944 88.2097 170.944 79.8634C170.944 71.517 163.815 64.752 155.021 64.752Z" fill="#FEF6F8"/>
<path d="M155.021 78.6125C157.375 78.6125 159.282 76.8018 159.282 74.5683C159.282 72.3348 157.375 70.5242 155.021 70.5242C152.668 70.5242 150.76 72.3348 150.76 74.5683C150.76 76.8018 152.668 78.6125 155.021 78.6125Z" fill="#E83464"/>
<path d="M160.897 89.2049H149.146V84.1891C149.146 81.1094 151.777 78.6123 155.022 78.6123C158.267 78.6123 160.898 81.1088 160.898 84.1891V89.2049H160.897Z" fill="#E83464"/>
<path d="M30.1485 94.9772C38.9422 94.9772 46.0709 88.211 46.0709 79.8646C46.0709 71.5181 38.9422 64.752 30.1485 64.752C21.3548 64.752 14.2261 71.5181 14.2261 79.8646C14.2261 88.211 21.3548 94.9772 30.1485 94.9772Z" fill="#FEF6F8"/>
<path d="M20.9705 79.8647C20.9705 72.6171 26.3473 66.5638 33.5204 65.0953C32.4329 64.8727 31.3055 64.7527 30.1485 64.7527C21.3549 64.7527 14.2261 71.5189 14.2261 79.8653C14.2261 88.2116 21.3549 94.9779 30.1485 94.9779C31.3062 94.9779 32.4335 94.8579 33.5204 94.6352C26.3473 93.1656 20.9705 87.1122 20.9705 79.8647Z" fill="#FEF6F8"/>
<path d="M30.1483 78.6125C32.5015 78.6125 34.4092 76.8018 34.4092 74.5683C34.4092 72.3348 32.5015 70.5242 30.1483 70.5242C27.7951 70.5242 25.8875 72.3348 25.8875 74.5683C25.8875 76.8018 27.7951 78.6125 30.1483 78.6125Z" fill="#E83464"/>
<path d="M36.024 89.2049H24.2727V84.1891C24.2727 81.1094 26.9029 78.6123 30.1484 78.6123C33.3932 78.6123 36.024 81.1088 36.024 84.1891V89.2049Z" fill="#E83464"/>
<path d="M64.5014 95.8054C65.1217 96.0046 65.7559 96.103 66.385 96.1024C67.5787 96.1024 68.7503 95.7484 69.7619 95.0594C71.3078 94.0068 72.1942 92.3673 72.1942 90.5622V72.2882C72.1942 71.3916 72.5344 70.5245 73.1528 69.8463L79.8674 62.477C81.4481 60.7426 81.7333 58.2252 80.5787 56.2118L79.581 54.4727C78.9462 53.3661 78.9405 52.0416 79.5658 50.9302L82.6115 45.5148C83.9671 43.1042 83.2867 40.1552 80.9941 38.5031L74.031 33.4838C72.4016 32.3094 70.2114 32.0327 68.3165 32.7618L60.6313 35.7162C58.9647 36.3571 57.6824 37.7218 57.2025 39.3661L53.0315 53.6421C52.8197 54.3683 52.3866 55.0092 51.7796 55.4959L46.3629 59.8395C44.5053 61.3284 43.8149 63.7846 44.6438 65.951C50.5485 81.3877 54.1803 90.9841 54.3516 91.5938C54.4857 92.2317 54.5672 92.6176 64.5014 95.8054ZM47.5864 61.2143L53.003 56.8707C53.9027 56.1494 54.5445 55.1988 54.8587 54.1222L59.0298 39.8462C59.3541 38.7366 60.2185 37.816 61.3433 37.3833L69.0285 34.429C70.3069 33.9363 71.7845 34.1235 72.8834 34.9162L79.8466 39.9362C81.3931 41.0506 81.8521 43.04 80.9379 44.6663L77.8922 50.0817C76.9653 51.7296 76.9742 53.6925 77.915 55.3332L78.9127 57.0724C79.6917 58.431 79.4988 60.1293 78.4328 61.299L71.7181 68.6683C70.802 69.6735 70.2974 70.959 70.2974 72.2882V90.5622C70.2974 91.7804 69.6993 92.8864 68.6561 93.597C67.6154 94.3057 66.3211 94.4893 65.109 94.0998C58.3823 91.9412 56.5867 91.1665 56.1087 90.9103C55.7629 89.9021 54.1708 85.5825 46.4262 65.3353C45.8672 63.8746 46.3339 62.2189 47.5864 61.2143Z" fill="#3F3679"/>
<path d="M96.3901 115.622C96.834 115.694 97.2765 115.73 97.7141 115.73C100.178 115.73 102.479 114.604 103.927 112.626L113.695 99.28C114.399 98.3174 115.433 97.5864 116.606 97.2216L122.588 95.3612C125.448 94.4725 127.489 92.0612 127.789 89.2197L128.38 83.6044C128.559 81.9163 128.101 80.215 127.092 78.8131L122.065 71.8302C120.483 69.6332 117.769 68.442 114.981 68.7247L110.528 69.1748C109.41 69.2876 108.312 69.6428 107.353 70.2015L99.9327 74.5266C97.6003 75.8858 96.2131 78.3427 96.3111 80.9393L96.7435 92.2857C96.777 93.1684 96.5798 94.0542 96.1739 94.8487L90.8249 105.301C90.02 106.873 89.8436 108.668 90.3437 110.407C91.1284 113.143 93.4456 115.14 96.3901 115.622ZM92.5295 106.086L97.8785 95.6343C98.4197 94.5763 98.6827 93.3959 98.6378 92.2196L98.2053 80.8733C98.1314 78.9248 99.1727 77.0806 100.923 76.0598L108.344 71.7348C109.064 71.3154 109.888 71.0489 110.727 70.9643L115.18 70.5142C115.383 70.4938 115.586 70.4836 115.787 70.4836C117.66 70.4836 119.425 71.3568 120.497 72.8456L125.524 79.8285C126.282 80.8805 126.625 82.1576 126.491 83.425L125.899 89.0402C125.675 91.1736 124.143 92.983 121.996 93.6503L116.014 95.5107C114.451 95.9961 113.074 96.9701 112.135 98.252L102.368 111.598C101.088 113.346 98.9217 114.206 96.7107 113.847C94.5009 113.486 92.7609 111.986 92.1558 109.88C91.7929 108.614 91.9257 107.267 92.5295 106.086Z" fill="#3F3679"/>
<path d="M121.256 60.7458L123.417 61.5386C123.8 61.679 124.203 61.7504 124.607 61.7504C124.846 61.7504 125.086 61.7258 125.322 61.676L130.964 60.4932C132.03 60.2693 132.91 59.5618 133.318 58.6004L135.557 53.3188C135.887 52.5399 135.872 51.6523 135.515 50.8836L132.824 45.0835C132.432 44.2367 131.67 43.6006 130.735 43.339C129.801 43.0767 128.797 43.2184 127.983 43.7266L125.158 45.4898C124.088 46.1571 123.517 47.3651 123.704 48.5677L124.17 51.5737C124.241 52.0346 124.05 52.5045 123.672 52.8003L120.348 55.3976C119.432 56.1142 118.997 57.2064 119.186 58.3196C119.374 59.4322 120.149 60.3395 121.256 60.7458ZM121.553 56.7869L124.876 54.1896C125.764 53.4953 126.212 52.3923 126.045 51.3115L125.579 48.3055C125.5 47.793 125.743 47.2781 126.199 46.9937L129.024 45.2305C129.256 45.0853 129.525 45.0103 129.797 45.0103C129.93 45.0103 130.065 45.0283 130.197 45.0649C130.595 45.1771 130.92 45.4478 131.088 45.8084L133.778 51.6085C133.931 51.9362 133.936 52.3142 133.796 52.6461L131.557 57.9277C131.383 58.3376 131.008 58.6394 130.554 58.7342L124.912 59.9171C124.64 59.9735 124.36 59.9537 124.1 59.8582L121.94 59.0655C121.468 58.8921 121.138 58.5056 121.057 58.0309C120.977 57.5586 121.162 57.0929 121.553 56.7869Z" fill="#3F3679"/>
<path d="M74.335 115.059L71.2767 106.662C71.015 105.943 70.5408 105.319 69.9053 104.856L66.3514 102.27C64.9983 101.285 63.1236 101.207 61.6852 102.076L57.6526 104.512C57.0039 104.904 56.4873 105.46 56.1579 106.119L54.3313 109.78C53.8483 110.747 53.8065 111.831 54.2124 112.829C54.6184 113.827 55.4163 114.602 56.4583 115.01L68.9297 119.897C69.4431 120.098 69.9755 120.197 70.5016 120.197C71.5144 120.197 72.5027 119.832 73.2804 119.136C74.4608 118.078 74.8655 116.516 74.335 115.059ZM71.9779 117.826C71.3368 118.401 70.4681 118.552 69.6524 118.233L57.1809 113.346C56.6239 113.128 56.1978 112.714 55.9809 112.18C55.764 111.647 55.7862 111.068 56.0441 110.551L57.8707 106.891C58.0465 106.539 58.3228 106.241 58.6699 106.032L62.7025 103.596C63.0585 103.38 63.4657 103.274 63.871 103.274C64.3407 103.274 64.8086 103.417 65.1968 103.699L68.7508 106.285C69.091 106.532 69.3439 106.866 69.4842 107.25L72.5425 115.647C72.8302 116.438 72.619 117.253 71.9779 117.826Z" fill="#3F3679"/>
<path d="M95.7761 135.708C97.0014 134.803 97.7943 133.394 97.7943 131.809C97.7943 129.083 95.4574 126.865 92.5851 126.865C89.7127 126.865 87.3758 129.083 87.3758 131.809C87.3758 133.394 88.1687 134.803 89.394 135.708C87.2354 136.798 85.761 138.952 85.761 141.429V146.445C85.761 146.943 86.1852 147.345 86.7094 147.345H98.4601C98.9842 147.345 99.4085 146.943 99.4085 146.445V141.429C99.4085 138.951 97.934 136.797 95.7761 135.708ZM89.2726 131.809C89.2726 130.076 90.7584 128.666 92.5851 128.666C94.4117 128.666 95.8975 130.076 95.8975 131.809C95.8975 133.543 94.4117 134.953 92.5851 134.953C90.7584 134.953 89.2726 133.542 89.2726 131.809ZM97.5117 145.545H87.6578V141.429C87.6578 138.851 89.8682 136.753 92.5844 136.753C95.3006 136.753 97.5111 138.851 97.5111 141.429V145.545H97.5117Z" fill="#3F3679"/>
<path d="M86.71 32.8643H98.4607C98.9849 32.8643 99.4091 32.4616 99.4091 31.9641V26.9484C99.4091 24.4711 97.9347 22.3161 95.7761 21.2269C97.0014 20.3213 97.7943 18.9123 97.7943 17.3274C97.7943 14.6011 95.4574 12.3831 92.5851 12.3831C89.7127 12.3831 87.3758 14.6011 87.3758 17.3274C87.3758 18.9123 88.1687 20.3213 89.394 21.2269C87.2354 22.3161 85.761 24.4705 85.761 26.9484V31.9641C85.7616 32.4616 86.1859 32.8643 86.71 32.8643ZM89.2726 17.328C89.2726 15.5943 90.7584 14.184 92.5851 14.184C94.4117 14.184 95.8975 15.5943 95.8975 17.328C95.8975 19.0611 94.4117 20.4714 92.5851 20.4714C90.7584 20.4714 89.2726 19.0611 89.2726 17.328ZM87.6584 26.9484C87.6584 24.3697 89.8688 22.2717 92.5851 22.2717C95.3013 22.2717 97.5117 24.3697 97.5117 26.9484V31.0639H87.6578V26.9484H87.6584Z" fill="#3F3679"/>
<path d="M149.146 90.1046H160.897C161.421 90.1046 161.845 89.702 161.845 89.2045V84.1887C161.845 81.7115 160.371 79.5565 158.212 78.4679C159.437 77.5623 160.23 76.1532 160.23 74.5683C160.23 71.842 157.893 69.624 155.021 69.624C152.149 69.624 149.812 71.842 149.812 74.5683C149.812 76.1532 150.605 77.5623 151.83 78.4679C149.671 79.5571 148.197 81.7115 148.197 84.1887V89.2045C148.198 89.702 148.622 90.1046 149.146 90.1046ZM151.709 74.5683C151.709 72.8346 153.194 71.4244 155.021 71.4244C156.848 71.4244 158.334 72.8346 158.334 74.5683C158.334 76.3021 156.848 77.7123 155.021 77.7123C153.194 77.7123 151.709 76.3015 151.709 74.5683ZM150.094 84.1887C150.094 81.6101 152.305 79.5127 155.021 79.5127C157.737 79.5127 159.948 81.6107 159.948 84.1887V88.3043H150.094V84.1887H150.094Z" fill="#3F3679"/>
<path d="M33.3396 78.4679C34.5649 77.5623 35.3578 76.1532 35.3578 74.5683C35.3578 71.842 33.0209 69.624 30.1485 69.624C27.2761 69.624 24.9393 71.842 24.9393 74.5683C24.9393 76.1532 25.7321 77.5623 26.9575 78.4679C24.7989 79.5571 23.3245 81.7115 23.3245 84.1887V89.2045C23.3245 89.702 23.7487 90.1046 24.2729 90.1046H36.0236C36.5477 90.1046 36.972 89.702 36.972 89.2045V84.1887C36.972 81.7115 35.4975 79.5565 33.3396 78.4679ZM26.8361 74.5683C26.8361 72.8346 28.3219 71.4244 30.1485 71.4244C31.9752 71.4244 33.461 72.8346 33.461 74.5683C33.461 76.3021 31.9752 77.7123 30.1485 77.7123C28.3219 77.7123 26.8361 76.3015 26.8361 74.5683ZM35.0752 88.3043H25.2219V84.1887C25.2219 81.6101 27.4323 79.5127 30.1485 79.5127C32.8648 79.5127 35.0752 81.6107 35.0752 84.1887V88.3043Z" fill="#3F3679"/>
<path d="M28.024 151.317H16.3271C15.8029 151.317 15.3787 151.719 15.3787 152.216C15.3787 152.713 15.8029 153.116 16.3271 153.116H28.024C28.5482 153.116 28.9724 152.713 28.9724 152.216C28.9724 151.719 28.5475 151.317 28.024 151.317Z" fill="#3F3679"/>
<path d="M168.843 151.317H157.146C156.622 151.317 156.198 151.719 156.198 152.216C156.198 152.713 156.622 153.116 157.146 153.116H168.843C169.367 153.116 169.791 152.713 169.791 152.216C169.791 151.719 169.367 151.317 168.843 151.317Z" fill="#3F3679"/>
<path d="M147.805 151.316H100.342C105.526 148.757 109.144 143.721 109.435 137.87C130.919 132.26 147.811 116.214 153.708 95.823C154.142 95.8548 154.579 95.8764 155.022 95.8764C164.324 95.8764 171.892 88.693 171.892 79.8636C171.892 71.0341 164.324 63.8508 155.022 63.8508C154.579 63.8508 154.142 63.8724 153.708 63.9042C147.81 43.5088 130.919 27.4678 109.435 21.8586C109.013 13.3832 101.617 6.61157 92.5851 6.61157C83.5531 6.61157 76.1581 13.3832 75.7351 21.858C54.2444 27.4696 37.359 43.5172 31.4631 63.9054C31.0288 63.8736 30.5919 63.852 30.1486 63.852C20.8461 63.852 13.2778 71.0354 13.2778 79.8648C13.2778 88.6942 20.8461 95.8776 30.1486 95.8776C30.5912 95.8776 31.0281 95.856 31.4619 95.8242C37.3565 116.209 54.2538 132.262 75.7351 137.872C76.0273 143.723 79.6445 148.758 84.8278 151.318H37.3647C36.8406 151.318 36.4163 151.72 36.4163 152.218C36.4163 152.715 36.8406 153.118 37.3647 153.118H147.805C148.33 153.118 148.754 152.715 148.754 152.218C148.754 151.72 148.33 151.316 147.805 151.316ZM169.996 79.8642C169.996 87.701 163.278 94.0766 155.022 94.0766C146.765 94.0766 140.048 87.701 140.048 79.8642C140.048 72.0273 146.765 65.6517 155.022 65.6517C163.278 65.6517 169.996 72.0273 169.996 79.8642ZM92.5851 8.41191C100.842 8.41191 107.559 14.7875 107.559 22.6243C107.559 30.4612 100.842 36.8362 92.5851 36.8362C84.3283 36.8362 77.6111 30.4606 77.6111 22.6237C77.6111 14.7869 84.3283 8.41191 92.5851 8.41191ZM15.1746 79.8642C15.1746 72.0273 21.8918 65.6517 30.1486 65.6517C38.4054 65.6517 45.1226 72.0273 45.1226 79.8642C45.1226 87.701 38.4054 94.0766 30.1486 94.0766C21.8918 94.0766 15.1746 87.701 15.1746 79.8642ZM33.3612 95.5817C41.1318 94.1534 47.0194 87.6506 47.0194 79.8642C47.0194 72.0777 41.1324 65.5749 33.3618 64.1467C39.0984 44.6322 55.2231 29.2574 75.7592 23.7238C76.3567 32.0413 83.6726 38.6365 92.5851 38.6365C101.498 38.6365 108.814 32.0419 109.412 23.7238C129.941 29.255 146.071 44.6256 151.81 64.1461C144.038 65.5743 138.151 72.0771 138.151 79.8642C138.151 87.6512 144.038 94.154 151.81 95.5817C146.072 115.098 129.941 130.472 109.412 136.005C108.814 127.687 101.498 121.092 92.5851 121.092C83.6726 121.092 76.3567 127.687 75.7585 136.005C55.2326 130.473 39.0965 115.093 33.3612 95.5817ZM77.6111 137.105C77.6111 129.268 84.3283 122.892 92.5851 122.892C100.842 122.892 107.559 129.268 107.559 137.105C107.559 144.941 100.842 151.316 92.5851 151.316C84.3283 151.316 77.6111 144.941 77.6111 137.105Z" fill="#3F3679"/>
<path d="M16.3271 146.062H21.3498C21.8739 146.062 22.2982 145.66 22.2982 145.163C22.2982 144.666 21.8739 144.263 21.3498 144.263H16.3271C15.8029 144.263 15.3787 144.666 15.3787 145.163C15.3787 145.66 15.8029 146.062 16.3271 146.062Z" fill="#3F3679"/>
<path d="M168.842 144.263H163.82C163.296 144.263 162.871 144.666 162.871 145.163C162.871 145.66 163.296 146.062 163.82 146.062H168.842C169.367 146.062 169.791 145.66 169.791 145.163C169.791 144.666 169.367 144.263 168.842 144.263Z" fill="#3F3679"/>
<path d="M69.033 146.062C69.5571 146.062 69.9814 145.66 69.9814 145.163C69.9814 144.666 69.5571 144.263 69.033 144.263H28.0241C27.4999 144.263 27.0757 144.666 27.0757 145.163C27.0757 145.66 27.4999 146.062 28.0241 146.062H69.033Z" fill="#3F3679"/>
<path d="M116.137 144.263C115.613 144.263 115.188 144.666 115.188 145.163C115.188 145.66 115.613 146.062 116.137 146.062H157.146C157.67 146.062 158.094 145.66 158.094 145.163C158.094 144.666 157.67 144.263 157.146 144.263H116.137Z" fill="#3F3679"/>
</svg>
