<svg width="169" height="142" viewBox="0 0 169 142" fill="none" xmlns="http://www.w3.org/2000/svg">
<path d="M25.8828 78.3228L24.6378 80.643L22.3501 81.9057L24.6378 83.1684L25.8828 85.4886L27.1277 83.1684L29.4154 81.9057L27.1277 80.643L25.8828 78.3228ZM26.5519 82.6002L25.8828 83.8471L25.2136 82.6002L23.9841 81.9215L25.2136 81.2428L25.8828 79.9958L26.5519 81.2428L27.7814 81.9215L26.5519 82.6002Z" fill="#2E57AB"/>
<path d="M5.19827 115.506H4.42017V118.061H5.19827V115.506Z" fill="#2E57AB"/>
<path d="M5.19827 120.524H4.42017V123.079H5.19827V120.524Z" fill="#2E57AB"/>
<path d="M3.61144 118.899H1.09033V119.687H3.61144V118.899Z" fill="#2E57AB"/>
<path d="M8.54404 118.899H6.02295V119.687H8.54404V118.899Z" fill="#2E57AB"/>
<path d="M165.452 66.293C163.491 66.293 161.904 67.9028 161.904 69.8915C161.904 71.8802 163.491 73.4901 165.452 73.4901C167.413 73.4901 169 71.8802 169 69.8915C169 67.9028 167.397 66.293 165.452 66.293ZM165.452 72.7009C163.927 72.7009 162.682 71.4383 162.682 69.8915C162.682 68.3448 163.927 67.0821 165.452 67.0821C166.977 67.0821 168.222 68.3448 168.222 69.8915C168.206 71.4383 166.977 72.7009 165.452 72.7009Z" fill="#2E57AB"/>
<path d="M2.19429 48.8713C3.40816 48.8713 4.38859 47.877 4.38859 46.6459C4.38859 45.4148 3.40816 44.4204 2.19429 44.4204C0.98043 44.4204 0 45.4148 0 46.6459C0 47.877 0.98043 48.8713 2.19429 48.8713ZM2.19429 45.2096C2.97241 45.2096 3.61047 45.8567 3.61047 46.6459C3.61047 47.4351 2.97241 48.0822 2.19429 48.0822C1.41618 48.0822 0.778118 47.4351 0.778118 46.6459C0.778118 45.8567 1.41618 45.2096 2.19429 45.2096Z" fill="#2E57AB"/>
<path d="M49.3237 9.97192L48.0787 12.2922L45.791 13.5549L48.0787 14.8176L49.3237 17.1378L50.5687 14.8176L52.8563 13.5549L50.5687 12.2922L49.3237 9.97192ZM49.9929 14.2494L49.3237 15.4963L48.6545 14.2494L47.4251 13.5706L48.6545 12.8919L49.3237 11.645L49.9929 12.8919L51.2223 13.5706L49.9929 14.2494Z" fill="#2E57AB"/>
<path d="M144.487 123.314L146.043 120.441L148.876 118.863L146.043 117.285L144.487 114.412L142.931 117.285L140.098 118.863L142.931 120.441L144.487 123.314ZM143.522 117.884L144.503 116.069L145.483 117.884L147.273 118.879L145.483 119.873L144.503 121.688L143.522 119.873L141.732 118.879L143.522 117.884Z" fill="#2E57AB"/>
<path d="M122.231 0.129395H121.453V1.81708H122.231V0.129395Z" fill="#2E57AB"/>
<path d="M122.231 3.44385H121.453V5.1314H122.231V3.44385Z" fill="#2E57AB"/>
<path d="M121.049 2.24243H119.384V3.03111H121.049V2.24243Z" fill="#2E57AB"/>
<path d="M124.317 2.24243H122.652V3.03111H124.317V2.24243Z" fill="#2E57AB"/>
<path d="M64.2702 109.241C72.5212 109.241 79.9432 105.686 85.1001 100.021C81.1468 92.5365 73.3035 87.4375 64.2702 87.4375C55.2368 87.4375 47.3935 92.537 43.4402 100.021C48.5966 105.687 56.0191 109.241 64.2702 109.241Z" fill="#5E85D4"/>
<path d="M64.27 87.4377C69.9951 87.4377 74.6362 82.7823 74.6362 77.0397C74.6362 71.297 69.9951 66.6416 64.27 66.6416C58.5449 66.6416 53.9038 71.297 53.9038 77.0397C53.9038 82.7823 58.5449 87.4377 64.27 87.4377Z" fill="#9E9E9E"/>
<path d="M49.2545 100.021C52.7766 93.3534 59.3896 88.5891 67.1773 87.6267C66.2234 87.5091 65.2552 87.4375 64.2702 87.4375C55.2368 87.4375 47.3935 92.537 43.4402 100.021C48.5971 105.686 56.0196 109.241 64.2702 109.241C65.2519 109.241 66.2212 109.187 67.1773 109.089C60.0999 108.362 53.7977 105.012 49.2545 100.021Z" fill="#2E57AB"/>
<path d="M59.7182 77.0397C59.7182 72.3103 62.8685 68.3252 67.1772 67.0637C66.2537 66.7936 65.2801 66.6416 64.27 66.6416C58.545 66.6416 53.9038 71.2971 53.9038 77.0397C53.9038 82.7822 58.545 87.4377 64.27 87.4377C65.2801 87.4377 66.2543 87.2857 67.1772 87.0156C62.8685 85.7541 59.7182 81.769 59.7182 77.0397Z" fill="#707070"/>
<path d="M105.93 109.241C114.181 109.241 121.603 105.686 126.76 100.021C122.806 92.5365 114.963 87.4375 105.93 87.4375C96.8965 87.4375 89.0531 92.537 85.0999 100.021C90.2568 105.687 97.6793 109.241 105.93 109.241Z" fill="#2E57AB"/>
<path d="M105.93 87.4377C111.655 87.4377 116.296 82.7823 116.296 77.0397C116.296 71.297 111.655 66.6416 105.93 66.6416C100.205 66.6416 95.5637 71.297 95.5637 77.0397C95.5637 82.7823 100.205 87.4377 105.93 87.4377Z" fill="#9E9E9E"/>
<path d="M105.93 87.4375C104.944 87.4375 103.976 87.5091 103.023 87.6267C110.81 88.5891 117.423 93.3534 120.945 100.021C116.402 105.012 110.1 108.362 103.023 109.089C103.979 109.188 104.948 109.241 105.93 109.241C114.181 109.241 121.603 105.686 126.76 100.021C122.807 92.537 114.964 87.4375 105.93 87.4375Z" fill="#5E85D4"/>
<path d="M105.93 66.6416C104.92 66.6416 103.946 66.7936 103.023 67.0637C107.331 68.3258 110.482 72.3103 110.482 77.0397C110.482 81.769 107.331 85.7541 103.023 87.0156C103.946 87.2857 104.92 87.4377 105.93 87.4377C111.655 87.4377 116.296 82.7822 116.296 77.0397C116.296 71.2971 111.655 66.6416 105.93 66.6416Z" fill="#CECECE"/>
<path d="M85.1002 134.151C99.2747 134.151 112.025 128.043 120.885 118.311C114.093 105.454 100.619 96.6938 85.1002 96.6938C69.5814 96.6938 56.1074 105.454 49.3157 118.311C58.1751 128.043 70.9257 134.151 85.1002 134.151Z" fill="#E83464"/>
<path d="M85.0998 96.6934C94.9351 96.6934 102.908 88.6958 102.908 78.8303C102.908 68.9648 94.9351 60.9673 85.0998 60.9673C75.2646 60.9673 67.2915 68.9648 67.2915 78.8303C67.2915 88.6958 75.2646 96.6934 85.0998 96.6934Z" fill="#9E9E9E"/>
<path d="M55.1306 118.311C61.4944 106.264 73.7255 97.8142 88.0074 96.7972C87.0468 96.7288 86.0776 96.6938 85.1002 96.6938C69.5814 96.6938 56.1074 105.454 49.3157 118.311C58.1751 128.044 70.9257 134.151 85.1002 134.151C86.0765 134.151 87.0452 134.119 88.0074 134.062C75.0033 133.289 63.3795 127.373 55.1306 118.311Z" fill="#E83464"/>
<path d="M73.1066 78.8298C73.1066 69.9579 79.556 62.6001 88.0077 61.2074C87.0614 61.0516 86.0911 60.9668 85.1005 60.9668C75.2653 60.9668 67.2922 68.9638 67.2922 78.8298C67.2922 88.6953 75.2653 96.6929 85.1005 96.6929C86.0911 96.6929 87.0614 96.6081 88.0077 96.4523C79.5555 95.0596 73.1066 87.7023 73.1066 78.8298Z" fill="#707070"/>
<path d="M142.401 29.761H113.063C111.969 29.761 111.074 30.6588 111.074 31.7563V56.2586C111.074 57.3561 111.876 57.8537 112.855 57.3648L120.694 53.453H142.402C143.496 53.453 144.391 52.5551 144.391 51.4577V31.7563C144.39 30.6588 143.495 29.761 142.401 29.761Z" fill="#2E57AB"/>
<path d="M142.401 29.761H136.586C137.68 29.761 138.575 30.6588 138.575 31.7563V51.4577C138.575 52.5551 137.68 53.453 136.586 53.453H142.401C143.495 53.453 144.39 52.5551 144.39 51.4577V31.7563C144.39 30.6588 143.495 29.761 142.401 29.761Z" fill="#5E85D4"/>
<path d="M118.395 44.5315C120.09 44.5315 121.464 43.1532 121.464 41.453C121.464 39.7528 120.09 38.3745 118.395 38.3745C116.7 38.3745 115.326 39.7528 115.326 41.453C115.326 43.1532 116.7 44.5315 118.395 44.5315Z" fill="#5E85D4"/>
<path d="M127.732 44.5315C129.427 44.5315 130.801 43.1532 130.801 41.453C130.801 39.7528 129.427 38.3745 127.732 38.3745C126.037 38.3745 124.663 39.7528 124.663 41.453C124.663 43.1532 126.037 44.5315 127.732 44.5315Z" fill="#5E85D4"/>
<path d="M137.069 44.5315C138.764 44.5315 140.138 43.1532 140.138 41.453C140.138 39.7528 138.764 38.3745 137.069 38.3745C135.374 38.3745 134 39.7528 134 41.453C134 43.1532 135.374 44.5315 137.069 44.5315Z" fill="#5E85D4"/>
<path d="M27.7995 29.761H57.1373C58.2314 29.761 59.1265 30.6588 59.1265 31.7563V56.2586C59.1265 57.3561 58.3251 57.8537 57.3455 57.3648L49.5066 53.453H27.7995C26.7054 53.453 25.8103 52.5551 25.8103 51.4577V31.7563C25.8108 30.6588 26.706 29.761 27.7995 29.761Z" fill="#5E85D4"/>
<path d="M31.6252 51.4577V31.7563C31.6252 30.6588 32.5203 29.761 33.6144 29.761H27.7995C26.7054 29.761 25.8103 30.6588 25.8103 31.7563V51.4577C25.8103 52.5551 26.7054 53.453 27.7995 53.453H33.6144C32.5203 53.453 31.6252 52.5551 31.6252 51.4577Z" fill="#2E57AB"/>
<path d="M51.8054 44.5315C53.5004 44.5315 54.8745 43.1532 54.8745 41.453C54.8745 39.7528 53.5004 38.3745 51.8054 38.3745C50.1104 38.3745 48.7363 39.7528 48.7363 41.453C48.7363 43.1532 50.1104 44.5315 51.8054 44.5315Z" fill="#E83464"/>
<path d="M42.4685 44.5315C44.1635 44.5315 45.5376 43.1532 45.5376 41.453C45.5376 39.7528 44.1635 38.3745 42.4685 38.3745C40.7735 38.3745 39.3994 39.7528 39.3994 41.453C39.3994 43.1532 40.7735 44.5315 42.4685 44.5315Z" fill="#E83464"/>
<path d="M33.1321 44.5315C34.8271 44.5315 36.2012 43.1532 36.2012 41.453C36.2012 39.7528 34.8271 38.3745 33.1321 38.3745C31.4371 38.3745 30.063 39.7528 30.063 41.453C30.063 43.1532 31.4371 44.5315 33.1321 44.5315Z" fill="#E83464"/>
<path d="M101.999 34.8513C101.999 25.0919 93.7771 17.2589 83.9021 17.9419C75.4231 18.5286 68.6161 25.5239 68.2203 34.0399C67.8365 42.295 73.3429 49.3269 80.8842 51.2703L84.1997 54.5959C84.6974 55.0952 85.5037 55.0952 86.0014 54.5959L89.3168 51.2703C96.6096 49.3914 101.999 42.7527 101.999 34.8513Z" fill="#E83464"/>
<path d="M74.0347 34.0398C74.4032 26.1078 80.3342 19.498 87.9971 18.154C86.6774 17.9254 85.3069 17.8445 83.9016 17.9413C75.4226 18.528 68.6156 25.5233 68.2198 34.0392C67.836 42.2944 73.3424 49.3268 80.8837 51.2696L84.1992 54.5953C84.6969 55.0945 85.5032 55.0945 86.0009 54.5953L88.0075 52.5825L86.6986 51.2696C79.1573 49.3274 73.6509 42.2955 74.0347 34.0398Z" fill="#E83464"/>
<path d="M94.4372 38.3746C96.1323 38.3746 97.5063 36.9963 97.5063 35.296C97.5063 33.5958 96.1323 32.2175 94.4372 32.2175C92.7422 32.2175 91.3682 33.5958 91.3682 35.296C91.3682 36.9963 92.7422 38.3746 94.4372 38.3746Z" fill="#2E57AB"/>
<path d="M85.1001 38.3746C86.7951 38.3746 88.1692 36.9963 88.1692 35.296C88.1692 33.5958 86.7951 32.2175 85.1001 32.2175C83.4051 32.2175 82.031 33.5958 82.031 35.296C82.031 36.9963 83.4051 38.3746 85.1001 38.3746Z" fill="#2E57AB"/>
<path d="M75.7632 38.3746C77.4582 38.3746 78.8323 36.9963 78.8323 35.296C78.8323 33.5958 77.4582 32.2175 75.7632 32.2175C74.0682 32.2175 72.6941 33.5958 72.6941 35.296C72.6941 36.9963 74.0682 38.3746 75.7632 38.3746Z" fill="#2E57AB"/>
<path d="M53.0859 77.0402C53.0859 81.4661 55.6611 85.2899 59.3811 87.114C52.3195 88.5571 46.1797 93.0824 42.717 99.6375C42.5551 99.9437 42.6025 100.319 42.8353 100.575C46.2358 104.311 50.52 107.082 55.2762 108.636C52.6716 111.368 50.4131 114.481 48.5929 117.927C48.431 118.233 48.4785 118.608 48.7112 118.864C55.1487 125.936 63.469 130.923 72.5503 133.331H29.4371C28.9852 133.331 28.6194 133.699 28.6194 134.151C28.6194 134.604 28.9852 134.972 29.4371 134.972H140.764C141.215 134.972 141.581 134.604 141.581 134.151C141.581 133.699 141.215 133.331 140.764 133.331H97.6492C106.731 130.923 115.051 125.936 121.488 118.864C121.721 118.608 121.768 118.233 121.607 117.927C119.786 114.481 117.527 111.366 114.921 108.635C119.678 107.082 123.96 104.313 127.364 100.575C127.597 100.319 127.644 99.9443 127.483 99.6381C124.02 93.083 117.88 88.5576 110.818 87.1146C114.539 85.2904 117.114 81.4666 117.114 77.0408C117.114 70.8553 112.096 65.822 105.93 65.822C103.791 65.822 101.737 66.4278 99.9486 67.5674C96.5448 63.0633 91.1562 60.1472 85.0998 60.1472C79.0428 60.1472 73.6542 63.0633 70.2504 67.5685C68.4613 66.4289 66.4067 65.822 64.2698 65.822C58.1033 65.8214 53.0859 70.8542 53.0859 77.0402ZM64.2703 88.2579C65.9973 88.2579 67.7177 88.4532 69.3837 88.837C71.5653 92.2731 74.8306 94.9519 78.6978 96.3764C70.3306 97.686 62.6377 101.531 56.5927 107.323C51.9678 105.97 47.7796 103.412 44.4407 99.8951C48.4741 92.7013 56.0187 88.2579 64.2703 88.2579ZM85.1003 133.331C71.9447 133.331 59.2993 127.817 50.3128 118.184C57.2921 105.418 70.5671 97.5137 85.1003 97.5137C99.6335 97.5137 112.908 105.418 119.888 118.184C110.901 127.817 98.2559 133.331 85.1003 133.331ZM125.76 99.8945C122.419 103.414 118.231 105.966 113.605 107.319C107.56 101.528 99.8684 97.6849 91.5029 96.3758C95.3678 94.9519 98.6315 92.2753 100.814 88.8425C102.481 88.4581 104.201 88.2579 105.93 88.2579C114.182 88.2579 121.727 92.7013 125.76 99.8945ZM105.93 67.4618C111.195 67.4618 115.479 71.7586 115.479 77.0402C115.479 82.3218 111.195 86.6181 105.93 86.6181C104.681 86.6181 103.477 86.3682 102.337 85.9018C103.23 83.7189 103.726 81.3327 103.726 78.8305C103.726 75.1904 102.68 71.7925 100.877 68.9174C102.391 67.9665 104.125 67.4618 105.93 67.4618ZM85.1003 61.7871C94.4689 61.7871 102.091 69.4325 102.091 78.8305C102.091 88.2284 94.4689 95.8733 85.1003 95.8733C75.7317 95.8733 68.1097 88.2284 68.1097 78.8305C68.1097 69.4325 75.7317 61.7871 85.1003 61.7871ZM64.2703 67.4618C66.0742 67.4618 67.8088 67.9676 69.3232 68.918C67.5215 71.7931 66.4748 75.1909 66.4748 78.8305C66.4748 81.3321 66.9709 83.7184 67.8638 85.9007C66.724 86.3671 65.5209 86.6175 64.2703 86.6175C59.0055 86.6175 54.7218 82.3213 54.7218 77.0397C54.7218 71.7581 59.0049 67.4618 64.2703 67.4618Z" fill="#3F3679"/>
<path d="M29.437 139.758H19.3521C18.9002 139.758 18.5344 140.125 18.5344 140.577C18.5344 141.03 18.9002 141.397 19.3521 141.397H29.437C29.8889 141.397 30.2547 141.03 30.2547 140.577C30.2547 140.125 29.8884 139.758 29.437 139.758Z" fill="#3F3679"/>
<path d="M150.848 139.758H140.763C140.311 139.758 139.946 140.125 139.946 140.577C139.946 141.03 140.311 141.397 140.763 141.397H150.848C151.3 141.397 151.666 141.03 151.666 140.577C151.666 140.125 151.3 139.758 150.848 139.758Z" fill="#3F3679"/>
<path d="M132.71 139.758H37.4901C37.0381 139.758 36.6724 140.125 36.6724 140.577C36.6724 141.03 37.0381 141.397 37.4901 141.397H132.71C133.162 141.397 133.528 141.03 133.528 140.577C133.528 140.125 133.162 139.758 132.71 139.758Z" fill="#3F3679"/>
<path d="M19.3521 134.97H23.6826C24.1345 134.97 24.5003 134.602 24.5003 134.15C24.5003 133.698 24.1345 133.33 23.6826 133.33H19.3521C18.9002 133.33 18.5344 133.698 18.5344 134.15C18.5344 134.602 18.9002 134.97 19.3521 134.97Z" fill="#3F3679"/>
<path d="M146.518 134.97H150.849C151.301 134.97 151.667 134.602 151.667 134.15C151.667 133.698 151.301 133.33 150.849 133.33H146.518C146.066 133.33 145.701 133.698 145.701 134.15C145.701 134.602 146.066 134.97 146.518 134.97Z" fill="#3F3679"/>
<path d="M111.166 58.103C111.455 58.2823 111.784 58.3715 112.133 58.3715C112.484 58.3715 112.854 58.2807 113.219 58.0986L120.885 54.2726H142.401C143.948 54.2726 145.207 53.0095 145.207 51.4576V31.7551C145.207 30.2028 143.948 28.9402 142.401 28.9402H113.063C111.515 28.9402 110.256 30.2033 110.256 31.7551V56.2581C110.256 57.0711 110.588 57.7432 111.166 58.103ZM111.892 31.7551C111.892 31.1072 112.417 30.5806 113.063 30.5806H142.401C143.047 30.5806 143.572 31.1077 143.572 31.7551V51.4571C143.572 52.1051 143.047 52.6316 142.401 52.6316H120.694C120.568 52.6316 120.443 52.6612 120.33 52.7175L112.491 56.6293C112.265 56.742 112.095 56.7507 112.028 56.7081C111.96 56.666 111.892 56.5107 111.892 56.2575V31.7551Z" fill="#3F3679"/>
<path d="M118.395 45.3517C120.539 45.3517 122.282 43.6025 122.282 41.4524C122.282 39.3024 120.539 37.5537 118.395 37.5537C116.252 37.5537 114.509 39.3024 114.509 41.4524C114.509 43.6025 116.252 45.3517 118.395 45.3517ZM118.395 39.1947C119.637 39.1947 120.647 40.2079 120.647 41.453C120.647 42.6981 119.637 43.7118 118.395 43.7118C117.154 43.7118 116.144 42.6981 116.144 41.453C116.144 40.2079 117.154 39.1947 118.395 39.1947Z" fill="#3F3679"/>
<path d="M127.732 45.3517C129.876 45.3517 131.619 43.6025 131.619 41.4524C131.619 39.3024 129.876 37.5537 127.732 37.5537C125.589 37.5537 123.845 39.3024 123.845 41.4524C123.845 43.6025 125.589 45.3517 127.732 45.3517ZM127.732 39.1947C128.974 39.1947 129.984 40.2079 129.984 41.453C129.984 42.6981 128.974 43.7118 127.732 43.7118C126.491 43.7118 125.481 42.6981 125.481 41.453C125.481 40.2079 126.49 39.1947 127.732 39.1947Z" fill="#3F3679"/>
<path d="M137.069 45.3517C139.213 45.3517 140.956 43.6025 140.956 41.4524C140.956 39.3024 139.213 37.5537 137.069 37.5537C134.926 37.5537 133.183 39.3024 133.183 41.4524C133.183 43.6025 134.926 45.3517 137.069 45.3517ZM137.069 39.1947C138.311 39.1947 139.321 40.2079 139.321 41.453C139.321 42.6981 138.311 43.7118 137.069 43.7118C135.828 43.7118 134.818 42.6981 134.818 41.453C134.818 40.2079 135.828 39.1947 137.069 39.1947Z" fill="#3F3679"/>
<path d="M27.7995 54.2726H49.3147L56.9814 58.0986C57.3455 58.2807 57.7157 58.3715 58.0673 58.3715C58.4156 58.3715 58.746 58.2823 59.0338 58.103C59.6122 57.7437 59.9436 57.0711 59.9436 56.2581V31.7551C59.9436 30.2028 58.6844 28.9402 57.1368 28.9402H27.7995C26.2519 28.9402 24.9932 30.2033 24.9932 31.7551V51.4571C24.9932 53.0095 26.2519 54.2726 27.7995 54.2726ZM26.6286 31.7551C26.6286 31.1072 27.1541 30.5806 27.7995 30.5806H57.1373C57.7833 30.5806 58.3088 31.1077 58.3088 31.7551V56.2581C58.3088 56.5112 58.2406 56.6665 58.1725 56.7086C58.106 56.7513 57.9354 56.7425 57.7097 56.6299L49.8707 52.718C49.7573 52.6612 49.633 52.6322 49.5066 52.6322H27.7995C27.1535 52.6322 26.6286 52.1051 26.6286 51.4576V31.7551Z" fill="#3F3679"/>
<path d="M51.8052 45.3517C53.9487 45.3517 55.692 43.6025 55.692 41.4524C55.692 39.3024 53.9487 37.5537 51.8052 37.5537C49.6618 37.5537 47.9185 39.3024 47.9185 41.4524C47.9185 43.6025 49.6618 45.3517 51.8052 45.3517ZM51.8052 39.1947C53.0465 39.1947 54.0566 40.2079 54.0566 41.453C54.0566 42.6981 53.0465 43.7118 51.8052 43.7118C50.564 43.7118 49.5538 42.6981 49.5538 41.453C49.5538 40.2079 50.564 39.1947 51.8052 39.1947Z" fill="#3F3679"/>
<path d="M42.4683 45.3517C44.6118 45.3517 46.3551 43.6025 46.3551 41.4524C46.3551 39.3024 44.6118 37.5537 42.4683 37.5537C40.3249 37.5537 38.5815 39.3024 38.5815 41.4524C38.5815 43.6025 40.3254 45.3517 42.4683 45.3517ZM42.4683 39.1947C43.7096 39.1947 44.7197 40.2079 44.7197 41.453C44.7197 42.6981 43.7096 43.7118 42.4683 43.7118C41.2271 43.7118 40.2169 42.6981 40.2169 41.453C40.2169 40.2079 41.2271 39.1947 42.4683 39.1947Z" fill="#3F3679"/>
<path d="M33.1314 45.3517C35.2749 45.3517 37.0182 43.6025 37.0182 41.4524C37.0182 39.3024 35.2749 37.5537 33.1314 37.5537C30.988 37.5537 29.2446 39.3024 29.2446 41.4524C29.2446 43.6025 30.9885 45.3517 33.1314 45.3517ZM33.1314 39.1947C34.3727 39.1947 35.3828 40.2079 35.3828 41.453C35.3828 42.6981 34.3727 43.7118 33.1314 43.7118C31.8901 43.7118 30.88 42.6981 30.88 41.453C30.88 40.2079 31.8901 39.1947 33.1314 39.1947Z" fill="#3F3679"/>
<path d="M80.4618 52.0068L83.6208 55.1761C84.016 55.5726 84.541 55.7907 85.0998 55.7907C85.6585 55.7907 86.184 55.5726 86.5787 55.1761L89.7377 52.0068C97.4497 49.9158 102.816 42.8943 102.816 34.8519C102.816 29.9443 100.764 25.2084 97.1864 21.8582C93.5585 18.4609 88.8197 16.78 83.8454 17.1245C74.89 17.7434 67.8213 24.9996 67.4027 34.0022C67.0173 42.3109 72.4969 49.8453 80.4618 52.0068ZM69.037 34.0793C69.4164 25.9083 75.8315 19.3232 83.9583 18.7605C84.3448 18.7337 84.7296 18.7206 85.1128 18.7206C89.2051 18.7206 93.0603 20.238 96.0716 23.0578C99.3195 26.0992 101.182 30.3976 101.182 34.8519C101.182 42.2212 96.2193 48.6462 89.1136 50.4758C88.9718 50.5124 88.8421 50.5862 88.7385 50.6907L85.4225 54.0163C85.2508 54.1891 84.9499 54.1891 84.7776 54.0163L81.4621 50.6907C81.3585 50.5868 81.2293 50.513 81.0871 50.4758C73.7512 48.586 68.6832 41.6903 69.037 34.0793Z" fill="#3F3679"/>
<path d="M94.4366 39.1947C96.58 39.1947 98.3234 37.446 98.3234 35.2959C98.3234 33.1459 96.58 31.3972 94.4366 31.3972C92.2931 31.3972 90.5498 33.1459 90.5498 35.2959C90.5498 37.446 92.2937 39.1947 94.4366 39.1947ZM94.4366 33.0376C95.6778 33.0376 96.688 34.0509 96.688 35.2959C96.688 36.541 95.6778 37.5542 94.4366 37.5542C93.1953 37.5542 92.1852 36.541 92.1852 35.2959C92.1852 34.0509 93.1953 33.0376 94.4366 33.0376Z" fill="#3F3679"/>
<path d="M85.1002 39.1947C87.2436 39.1947 88.9869 37.446 88.9869 35.2959C88.9869 33.1459 87.2436 31.3972 85.1002 31.3972C82.9567 31.3972 81.2134 33.1459 81.2134 35.2959C81.2134 37.446 82.9567 39.1947 85.1002 39.1947ZM85.1002 33.0376C86.3414 33.0376 87.3515 34.0509 87.3515 35.2959C87.3515 36.541 86.3414 37.5542 85.1002 37.5542C83.8589 37.5542 82.8488 36.541 82.8488 35.2959C82.8488 34.0509 83.8589 33.0376 85.1002 33.0376Z" fill="#3F3679"/>
<path d="M79.6503 35.2959C79.6503 33.1459 77.9069 31.3972 75.7635 31.3972C73.62 31.3972 71.8767 33.1459 71.8767 35.2959C71.8767 37.446 73.62 39.1947 75.7635 39.1947C77.9069 39.1947 79.6503 37.4454 79.6503 35.2959ZM73.5126 35.2959C73.5126 34.0509 74.5228 33.0376 75.764 33.0376C77.0053 33.0376 78.0154 34.0509 78.0154 35.2959C78.0154 36.541 77.0053 37.5542 75.764 37.5542C74.5228 37.5542 73.5126 36.541 73.5126 35.2959Z" fill="#3F3679"/>
</svg>
