<svg width="256" height="68" viewBox="0 0 256 68" fill="none" xmlns="http://www.w3.org/2000/svg">
<path d="M54.456 12.2991H60.306C62.866 12.2991 64.776 12.7891 66.036 13.7691C67.296 14.7291 67.926 16.3891 67.926 18.7491C67.926 20.2891 67.696 21.5491 67.236 22.5291C66.796 23.4891 66.026 24.1891 64.926 24.6291L68.316 36.5991H63.876L60.966 25.4691H58.866V36.5991H54.456V12.2991ZM60.276 22.7091C61.536 22.7091 62.426 22.4191 62.946 21.8391C63.486 21.2591 63.756 20.3091 63.756 18.9891C63.756 17.7091 63.516 16.7791 63.036 16.1991C62.576 15.6191 61.736 15.3291 60.516 15.3291H58.866V22.7091H60.276ZM76.2524 36.8691C74.3324 36.8691 72.9224 36.3391 72.0224 35.2791C71.1224 34.1991 70.6724 32.6091 70.6724 30.5091V25.3491C70.6724 23.2291 71.1224 21.6391 72.0224 20.5791C72.9424 19.5191 74.3524 18.9891 76.2524 18.9891C78.2124 18.9891 79.5924 19.5391 80.3924 20.6391C81.2124 21.7391 81.6224 23.3991 81.6224 25.6191V28.1091H74.7224V31.5291C74.7224 32.3691 74.8424 32.9791 75.0824 33.3591C75.3424 33.7391 75.7424 33.9291 76.2824 33.9291C76.8024 33.9291 77.1724 33.7491 77.3924 33.3891C77.6324 33.0091 77.7524 32.4391 77.7524 31.6791V30.2091H81.5924V31.4091C81.5924 33.1891 81.1424 34.5491 80.2424 35.4891C79.3424 36.4091 78.0124 36.8691 76.2524 36.8691ZM77.7524 26.0991V24.4491C77.7524 23.5491 77.6424 22.9091 77.4224 22.5291C77.2024 22.1291 76.8124 21.9291 76.2524 21.9291C75.6724 21.9291 75.2724 22.1391 75.0524 22.5591C74.8324 22.9791 74.7224 23.7591 74.7224 24.8991V26.0991H77.7524ZM84.3911 19.2591H88.3211V20.7891C89.4811 19.5691 90.8411 18.9591 92.4011 18.9591C93.1011 18.9591 93.7011 19.1391 94.2011 19.4991C94.7011 19.8391 95.0711 20.3591 95.3111 21.0591C96.5111 19.6591 97.9711 18.9591 99.6911 18.9591C100.651 18.9591 101.421 19.3091 102.001 20.0091C102.601 20.7091 102.901 21.7191 102.901 23.0391V36.5991H99.0011V23.4291C99.0011 22.7891 98.8911 22.3391 98.6711 22.0791C98.4711 21.8191 98.1611 21.6891 97.7411 21.6891C97.4211 21.6891 97.0611 21.7791 96.6611 21.9591C96.2811 22.1391 95.9311 22.3891 95.6111 22.7091V23.0391V36.5991H91.7411V23.4291C91.7411 22.7891 91.6311 22.3391 91.4111 22.0791C91.1911 21.8191 90.8711 21.6891 90.4511 21.6891C90.1311 21.6891 89.7811 21.7791 89.4011 21.9591C89.0211 22.1391 88.6611 22.3891 88.3211 22.7091V36.5991H84.3911V19.2591ZM111.174 36.8691C109.314 36.8691 107.924 36.3591 107.004 35.3391C106.084 34.2991 105.624 32.7991 105.624 30.8391V25.0191C105.624 23.0591 106.084 21.5691 107.004 20.5491C107.924 19.5091 109.314 18.9891 111.174 18.9891C113.034 18.9891 114.424 19.5091 115.344 20.5491C116.284 21.5691 116.754 23.0591 116.754 25.0191V30.8391C116.754 32.7991 116.284 34.2991 115.344 35.3391C114.424 36.3591 113.034 36.8691 111.174 36.8691ZM111.204 34.0491C111.824 34.0491 112.234 33.8091 112.434 33.3291C112.634 32.8291 112.734 32.0991 112.734 31.1391V24.7491C112.734 23.7891 112.634 23.0591 112.434 22.5591C112.234 22.0591 111.824 21.8091 111.204 21.8091C110.564 21.8091 110.144 22.0591 109.944 22.5591C109.744 23.0591 109.644 23.7891 109.644 24.7491V31.1391C109.644 32.0991 109.744 32.8291 109.944 33.3291C110.144 33.8091 110.564 34.0491 111.204 34.0491ZM124.587 36.8091C123.007 36.8091 121.887 36.4291 121.227 35.6691C120.587 34.9091 120.267 33.7791 120.267 32.2791V21.9291H118.527V19.2591H120.267V14.0691H124.377V19.2591H126.987V21.9291H124.377V31.9191C124.377 32.4991 124.497 32.9191 124.737 33.1791C124.997 33.4391 125.397 33.5691 125.937 33.5691C126.437 33.5691 126.857 33.5291 127.197 33.4491V36.5991C126.397 36.7391 125.527 36.8091 124.587 36.8091ZM129.808 12.2991H140.008V15.4191H134.218V22.4091H138.778V25.4991H134.218V33.5691H140.068V36.5991H129.808V12.2991ZM142.37 19.2591H146.3V20.7891C147.46 19.5691 148.82 18.9591 150.38 18.9591C151.08 18.9591 151.68 19.1391 152.18 19.4991C152.68 19.8391 153.05 20.3591 153.29 21.0591C154.49 19.6591 155.95 18.9591 157.67 18.9591C158.63 18.9591 159.4 19.3091 159.98 20.0091C160.58 20.7091 160.88 21.7191 160.88 23.0391V36.5991H156.98V23.4291C156.98 22.7891 156.87 22.3391 156.65 22.0791C156.45 21.8191 156.14 21.6891 155.72 21.6891C155.4 21.6891 155.04 21.7791 154.64 21.9591C154.26 22.1391 153.91 22.3891 153.59 22.7091V23.0391V36.5991H149.72V23.4291C149.72 22.7891 149.61 22.3391 149.39 22.0791C149.17 21.8191 148.85 21.6891 148.43 21.6891C148.11 21.6891 147.76 21.7791 147.38 21.9591C147 22.1391 146.64 22.3891 146.3 22.7091V36.5991H142.37V19.2591ZM163.903 19.2591H167.983V20.5791C169.083 19.5191 170.263 18.9891 171.523 18.9891C172.923 18.9891 173.913 19.5691 174.493 20.7291C175.073 21.8891 175.363 23.2391 175.363 24.7791V30.6591C175.363 32.5191 175.033 34.0191 174.373 35.1591C173.733 36.2991 172.713 36.8691 171.313 36.8691C170.193 36.8691 169.083 36.3491 167.983 35.3091V42.2991H163.903V19.2591ZM169.783 34.0191C170.363 34.0191 170.753 33.7391 170.953 33.1791C171.173 32.6191 171.283 31.8291 171.283 30.8091V24.5691C171.283 23.6691 171.173 22.9691 170.953 22.4691C170.733 21.9691 170.333 21.7191 169.753 21.7191C169.153 21.7191 168.563 21.9691 167.983 22.4691V33.4191C168.543 33.8191 169.143 34.0191 169.783 34.0191ZM178.44 12.2991H182.49V36.5991H178.44V12.2991ZM190.979 36.8691C189.119 36.8691 187.729 36.3591 186.809 35.3391C185.889 34.2991 185.429 32.7991 185.429 30.8391V25.0191C185.429 23.0591 185.889 21.5691 186.809 20.5491C187.729 19.5091 189.119 18.9891 190.979 18.9891C192.839 18.9891 194.229 19.5091 195.149 20.5491C196.089 21.5691 196.559 23.0591 196.559 25.0191V30.8391C196.559 32.7991 196.089 34.2991 195.149 35.3391C194.229 36.3591 192.839 36.8691 190.979 36.8691ZM191.009 34.0491C191.629 34.0491 192.039 33.8091 192.239 33.3291C192.439 32.8291 192.539 32.0991 192.539 31.1391V24.7491C192.539 23.7891 192.439 23.0591 192.239 22.5591C192.039 22.0591 191.629 21.8091 191.009 21.8091C190.369 21.8091 189.949 22.0591 189.749 22.5591C189.549 23.0591 189.449 23.7891 189.449 24.7491V31.1391C189.449 32.0991 189.549 32.8291 189.749 33.3291C189.949 33.8091 190.369 34.0491 191.009 34.0491ZM199.501 38.3691C200.581 38.3691 201.341 38.2691 201.781 38.0691C202.241 37.8891 202.471 37.5291 202.471 36.9891C202.471 36.6291 202.261 35.6091 201.841 33.9291L198.031 19.2591H201.991L204.241 30.7191L206.191 19.2591H210.121L206.071 37.2891C205.731 38.7491 205.081 39.7791 204.121 40.3791C203.181 40.9991 201.901 41.3091 200.281 41.3091H199.501V38.3691ZM217.258 36.8691C215.338 36.8691 213.928 36.3391 213.028 35.2791C212.128 34.1991 211.678 32.6091 211.678 30.5091V25.3491C211.678 23.2291 212.128 21.6391 213.028 20.5791C213.948 19.5191 215.358 18.9891 217.258 18.9891C219.218 18.9891 220.598 19.5391 221.398 20.6391C222.218 21.7391 222.628 23.3991 222.628 25.6191V28.1091H215.728V31.5291C215.728 32.3691 215.848 32.9791 216.088 33.3591C216.348 33.7391 216.748 33.9291 217.288 33.9291C217.808 33.9291 218.178 33.7491 218.398 33.3891C218.638 33.0091 218.758 32.4391 218.758 31.6791V30.2091H222.598V31.4091C222.598 33.1891 222.148 34.5491 221.248 35.4891C220.348 36.4091 219.018 36.8691 217.258 36.8691ZM218.758 26.0991V24.4491C218.758 23.5491 218.648 22.9091 218.428 22.5291C218.208 22.1291 217.818 21.9291 217.258 21.9291C216.678 21.9291 216.278 22.1391 216.058 22.5591C215.838 22.9791 215.728 23.7591 215.728 24.8991V26.0991H218.758ZM230.647 36.8691C228.727 36.8691 227.317 36.3391 226.417 35.2791C225.517 34.1991 225.067 32.6091 225.067 30.5091V25.3491C225.067 23.2291 225.517 21.6391 226.417 20.5791C227.337 19.5191 228.747 18.9891 230.647 18.9891C232.607 18.9891 233.987 19.5391 234.787 20.6391C235.607 21.7391 236.017 23.3991 236.017 25.6191V28.1091H229.117V31.5291C229.117 32.3691 229.237 32.9791 229.477 33.3591C229.737 33.7391 230.137 33.9291 230.677 33.9291C231.197 33.9291 231.567 33.7491 231.787 33.3891C232.027 33.0091 232.147 32.4391 232.147 31.6791V30.2091H235.987V31.4091C235.987 33.1891 235.537 34.5491 234.637 35.4891C233.737 36.4091 232.407 36.8691 230.647 36.8691ZM232.147 26.0991V24.4491C232.147 23.5491 232.037 22.9091 231.817 22.5291C231.597 22.1291 231.207 21.9291 230.647 21.9291C230.067 21.9291 229.667 22.1391 229.447 22.5591C229.227 22.9791 229.117 23.7591 229.117 24.8991V26.0991H232.147ZM243.496 36.8691C242.036 36.8691 240.836 36.4791 239.896 35.6991C238.956 34.9191 238.286 33.7791 237.886 32.2791L240.916 31.1091C241.376 33.0491 242.216 34.0191 243.436 34.0191C243.896 34.0191 244.246 33.8991 244.486 33.6591C244.746 33.4191 244.876 33.0891 244.876 32.6691C244.876 32.2091 244.736 31.7891 244.456 31.4091C244.176 31.0091 243.676 30.5091 242.956 29.9091L240.886 28.1091C240.006 27.3891 239.356 26.6891 238.936 26.0091C238.516 25.3291 238.306 24.4991 238.306 23.5191C238.306 22.1591 238.766 21.0691 239.686 20.2491C240.626 19.4091 241.806 18.9891 243.226 18.9891C244.586 18.9891 245.696 19.3991 246.556 20.2191C247.416 21.0191 247.976 22.1091 248.236 23.4891L245.566 24.6291C245.406 23.8291 245.136 23.1791 244.756 22.6791C244.396 22.1591 243.926 21.8991 243.346 21.8991C242.926 21.8991 242.586 22.0291 242.326 22.2891C242.086 22.5491 241.966 22.8791 241.966 23.2791C241.966 23.5991 242.106 23.9391 242.386 24.2991C242.666 24.6591 243.086 25.0791 243.646 25.5591L245.746 27.4791C246.646 28.2591 247.336 29.0091 247.816 29.7291C248.316 30.4291 248.566 31.2791 248.566 32.2791C248.566 33.7391 248.086 34.8691 247.126 35.6691C246.186 36.4691 244.976 36.8691 243.496 36.8691Z" fill="white"/>
<path d="M57.7939 59.729H56.8887V47.7231H52.7139V46.8794H61.9688V47.7231H57.7939V59.729ZM70.3271 59.729V53.5327C70.3271 52.5718 70.125 51.8745 69.7207 51.4409C69.3164 51.0015 68.6895 50.7817 67.8398 50.7817C66.6973 50.7817 65.8594 51.0718 65.3262 51.6519C64.7988 52.2261 64.5352 53.1606 64.5352 54.4556V59.729H63.665V46.0532H64.5352V50.4038L64.4912 51.6255H64.5527C64.9102 51.0513 65.3613 50.6353 65.9062 50.3774C66.4512 50.1196 67.1279 49.9907 67.9365 49.9907C70.1045 49.9907 71.1885 51.1538 71.1885 53.48V59.729H70.3271ZM78.1406 59.9048C76.752 59.9048 75.668 59.4771 74.8887 58.6216C74.1152 57.7661 73.7285 56.5679 73.7285 55.0269C73.7285 53.5034 74.1035 52.2847 74.8535 51.3706C75.6035 50.4507 76.6143 49.9907 77.8857 49.9907C79.0107 49.9907 79.8984 50.3833 80.5488 51.1685C81.1992 51.9536 81.5244 53.02 81.5244 54.3677V55.0708H74.6426C74.6543 56.3833 74.959 57.3853 75.5566 58.0767C76.1602 58.7681 77.0215 59.1138 78.1406 59.1138C78.6855 59.1138 79.1631 59.0757 79.5732 58.9995C79.9893 58.9233 80.5137 58.7593 81.1465 58.5073V59.2983C80.6074 59.5327 80.1094 59.6909 79.6523 59.7729C79.1953 59.8608 78.6914 59.9048 78.1406 59.9048ZM77.8857 50.7642C76.9658 50.7642 76.2275 51.0688 75.6709 51.6782C75.1143 52.2817 74.7891 53.1548 74.6953 54.2974H80.6016C80.6016 53.1899 80.3613 52.3257 79.8809 51.7046C79.4004 51.0776 78.7354 50.7642 77.8857 50.7642ZM96.7383 54.939C96.7383 56.4976 96.3604 57.7163 95.6045 58.5952C94.8486 59.4683 93.8057 59.9048 92.4756 59.9048C91.6377 59.9048 90.8994 59.7026 90.2607 59.2983C89.6221 58.894 89.1328 58.314 88.793 57.5581C88.4531 56.8022 88.2832 55.9292 88.2832 54.939C88.2832 53.3804 88.6611 52.1675 89.417 51.3003C90.1729 50.4272 91.21 49.9907 92.5283 49.9907C93.8408 49.9907 94.8691 50.4331 95.6133 51.3179C96.3633 52.1968 96.7383 53.4038 96.7383 54.939ZM89.1973 54.939C89.1973 56.2515 89.4844 57.2769 90.0586 58.0151C90.6387 58.7476 91.4561 59.1138 92.5107 59.1138C93.5654 59.1138 94.3799 58.7476 94.9541 58.0151C95.5342 57.2769 95.8242 56.2515 95.8242 54.939C95.8242 53.6206 95.5312 52.5981 94.9453 51.8716C94.3652 51.145 93.5479 50.7817 92.4932 50.7817C91.4385 50.7817 90.624 51.145 90.0498 51.8716C89.4814 52.5923 89.1973 53.6147 89.1973 54.939ZM100.14 50.1753V56.3628C100.14 57.3237 100.342 58.0239 100.746 58.4634C101.15 58.897 101.777 59.1138 102.627 59.1138C103.764 59.1138 104.599 58.8267 105.132 58.2524C105.671 57.6782 105.94 56.7437 105.94 55.4487V50.1753H106.802V59.729H106.063L105.905 58.4106H105.853C105.231 59.4067 104.127 59.9048 102.539 59.9048C100.365 59.9048 99.2783 58.7417 99.2783 56.4155V50.1753H100.14ZM112.523 59.1313C113.074 59.1313 113.555 59.0845 113.965 58.9907V59.6938C113.543 59.8345 113.057 59.9048 112.506 59.9048C111.662 59.9048 111.038 59.6792 110.634 59.228C110.235 58.7769 110.036 58.0679 110.036 57.1011V50.9312H108.621V50.4214L110.036 50.0259L110.476 47.8638H110.924V50.1753H113.728V50.9312H110.924V56.978C110.924 57.7104 111.053 58.2524 111.311 58.604C111.568 58.9556 111.973 59.1313 112.523 59.1313ZM121.954 57.2417C121.954 58.0972 121.629 58.7563 120.979 59.2192C120.328 59.6763 119.405 59.9048 118.21 59.9048C116.933 59.9048 115.919 59.7085 115.169 59.3159V58.3755C116.13 58.856 117.144 59.0962 118.21 59.0962C119.153 59.0962 119.868 58.9409 120.354 58.6304C120.847 58.314 121.093 57.895 121.093 57.3735C121.093 56.8931 120.896 56.4888 120.504 56.1606C120.117 55.8325 119.479 55.5103 118.588 55.1938C117.633 54.8481 116.962 54.5522 116.575 54.3062C116.188 54.0542 115.896 53.7729 115.696 53.4624C115.503 53.146 115.406 52.7622 115.406 52.311C115.406 51.5962 115.705 51.0308 116.303 50.6147C116.906 50.1987 117.747 49.9907 118.825 49.9907C119.856 49.9907 120.835 50.1841 121.761 50.5708L121.436 51.3618C120.498 50.9751 119.628 50.7817 118.825 50.7817C118.046 50.7817 117.428 50.9106 116.971 51.1685C116.514 51.4263 116.285 51.7837 116.285 52.2407C116.285 52.7388 116.461 53.1372 116.812 53.436C117.17 53.7349 117.864 54.0688 118.896 54.438C119.757 54.7485 120.384 55.0298 120.776 55.2817C121.169 55.5278 121.462 55.8091 121.655 56.1255C121.854 56.4419 121.954 56.814 121.954 57.2417ZM126.938 59.1313C127.488 59.1313 127.969 59.0845 128.379 58.9907V59.6938C127.957 59.8345 127.471 59.9048 126.92 59.9048C126.076 59.9048 125.452 59.6792 125.048 59.228C124.649 58.7769 124.45 58.0679 124.45 57.1011V50.9312H123.035V50.4214L124.45 50.0259L124.89 47.8638H125.338V50.1753H128.142V50.9312H125.338V56.978C125.338 57.7104 125.467 58.2524 125.725 58.604C125.982 58.9556 126.387 59.1313 126.938 59.1313ZM136.245 59.729L136.025 58.2173H135.955C135.475 58.8325 134.979 59.269 134.47 59.5269C133.966 59.7788 133.368 59.9048 132.677 59.9048C131.739 59.9048 131.01 59.6646 130.488 59.1841C129.967 58.7036 129.706 58.0386 129.706 57.189C129.706 56.2573 130.093 55.5337 130.866 55.0181C131.646 54.5024 132.771 54.23 134.241 54.2007L136.061 54.1479V53.5151C136.061 52.6069 135.876 51.9214 135.507 51.4585C135.138 50.9956 134.543 50.7642 133.723 50.7642C132.838 50.7642 131.921 51.0103 130.972 51.5024L130.646 50.7466C131.695 50.2544 132.732 50.0083 133.758 50.0083C134.807 50.0083 135.589 50.2808 136.104 50.8257C136.626 51.3706 136.887 52.2202 136.887 53.3745V59.729H136.245ZM132.729 59.1138C133.749 59.1138 134.552 58.8237 135.138 58.2437C135.729 57.6577 136.025 56.8462 136.025 55.8091V54.8687L134.355 54.939C133.014 55.0034 132.056 55.2144 131.481 55.5718C130.913 55.9233 130.629 56.4741 130.629 57.2241C130.629 57.8218 130.811 58.2876 131.174 58.6216C131.543 58.9497 132.062 59.1138 132.729 59.1138ZM143.54 50.9312H141.29V59.729H140.42V50.9312H138.645V50.4214L140.42 50.0962V49.3579C140.42 48.186 140.634 47.3276 141.062 46.7827C141.495 46.2319 142.201 45.9565 143.18 45.9565C143.707 45.9565 144.234 46.0356 144.762 46.1938L144.56 46.9497C144.091 46.8032 143.625 46.73 143.162 46.73C142.482 46.73 141.999 46.9321 141.712 47.3364C141.431 47.7349 141.29 48.3853 141.29 49.2876V50.1753H143.54V50.9312ZM148.937 50.9312H146.687V59.729H145.816V50.9312H144.041V50.4214L145.816 50.0962V49.3579C145.816 48.186 146.03 47.3276 146.458 46.7827C146.892 46.2319 147.598 45.9565 148.576 45.9565C149.104 45.9565 149.631 46.0356 150.158 46.1938L149.956 46.9497C149.487 46.8032 149.021 46.73 148.559 46.73C147.879 46.73 147.396 46.9321 147.108 47.3364C146.827 47.7349 146.687 48.3853 146.687 49.2876V50.1753H148.937V50.9312ZM151.661 59.729H150.791V50.1753H151.661V59.729ZM150.668 47.521C150.668 46.9585 150.853 46.6772 151.222 46.6772C151.403 46.6772 151.544 46.7505 151.644 46.897C151.749 47.0435 151.802 47.2515 151.802 47.521C151.802 47.7847 151.749 47.9927 151.644 48.145C151.544 48.2974 151.403 48.3735 151.222 48.3735C150.853 48.3735 150.668 48.0894 150.668 47.521ZM161.522 59.729V53.5327C161.522 52.5718 161.32 51.8745 160.916 51.4409C160.512 51.0015 159.885 50.7817 159.035 50.7817C157.893 50.7817 157.055 51.0718 156.521 51.6519C155.994 52.2261 155.73 53.1606 155.73 54.4556V59.729H154.86V50.1753H155.599L155.766 51.4849H155.818C156.439 50.4888 157.544 49.9907 159.132 49.9907C161.3 49.9907 162.384 51.1538 162.384 53.48V59.729H161.522ZM172.931 50.1753V50.7817L170.953 50.9048C171.48 51.561 171.744 52.2817 171.744 53.0669C171.744 53.9868 171.437 54.7339 170.821 55.3081C170.212 55.8765 169.392 56.1606 168.36 56.1606C167.927 56.1606 167.622 56.1431 167.446 56.1079C167.101 56.2896 166.837 56.5034 166.655 56.7495C166.474 56.9956 166.383 57.2563 166.383 57.5317C166.383 57.8364 166.497 58.0591 166.726 58.1997C166.96 58.3403 167.35 58.4106 167.895 58.4106H169.564C170.602 58.4106 171.396 58.6216 171.946 59.0435C172.497 59.4595 172.772 60.0776 172.772 60.8979C172.772 61.9058 172.362 62.6821 171.542 63.2271C170.728 63.7778 169.564 64.0532 168.053 64.0532C166.852 64.0532 165.92 63.8218 165.258 63.3589C164.602 62.896 164.273 62.2515 164.273 61.4253C164.273 60.769 164.476 60.2241 164.88 59.7905C165.29 59.3569 165.844 59.061 166.541 58.9028C166.254 58.7798 166.022 58.6069 165.847 58.3843C165.677 58.1558 165.592 57.895 165.592 57.6021C165.592 56.9634 165.999 56.4009 166.813 55.9146C166.257 55.686 165.823 55.3286 165.513 54.8423C165.202 54.3501 165.047 53.7876 165.047 53.1548C165.047 52.1997 165.349 51.4351 165.952 50.8608C166.562 50.2808 167.382 49.9907 168.413 49.9907C169.04 49.9907 169.526 50.0522 169.872 50.1753H172.931ZM165.196 61.3462C165.196 62.6587 166.172 63.3149 168.123 63.3149C170.631 63.3149 171.885 62.5151 171.885 60.9155C171.885 60.3413 171.688 59.9253 171.296 59.6675C170.903 59.4097 170.268 59.2808 169.389 59.2808H167.824C166.072 59.2808 165.196 59.9692 165.196 61.3462ZM165.926 53.1548C165.926 53.8931 166.148 54.4673 166.594 54.8774C167.045 55.2817 167.646 55.4839 168.396 55.4839C169.192 55.4839 169.802 55.2817 170.224 54.8774C170.651 54.4731 170.865 53.8872 170.865 53.1196C170.865 52.3052 170.646 51.6958 170.206 51.2915C169.772 50.8813 169.163 50.6763 168.378 50.6763C167.616 50.6763 167.016 50.896 166.576 51.3354C166.143 51.769 165.926 52.3755 165.926 53.1548ZM183.39 59.9048C182.024 59.9048 180.955 59.4741 180.182 58.6128C179.408 57.7515 179.021 56.5503 179.021 55.0093C179.021 53.4272 179.423 52.1968 180.226 51.3179C181.028 50.4331 182.127 49.9907 183.521 49.9907C184.348 49.9907 185.139 50.1343 185.895 50.4214L185.657 51.1948C184.831 50.9194 184.113 50.7817 183.504 50.7817C182.332 50.7817 181.444 51.145 180.841 51.8716C180.237 52.5923 179.936 53.6323 179.936 54.9917C179.936 56.2808 180.237 57.2915 180.841 58.0239C181.444 58.7505 182.288 59.1138 183.372 59.1138C184.239 59.1138 185.045 58.9585 185.789 58.6479V59.4565C185.18 59.7554 184.38 59.9048 183.39 59.9048ZM196.037 54.939C196.037 56.4976 195.659 57.7163 194.903 58.5952C194.147 59.4683 193.104 59.9048 191.774 59.9048C190.937 59.9048 190.198 59.7026 189.56 59.2983C188.921 58.894 188.432 58.314 188.092 57.5581C187.752 56.8022 187.582 55.9292 187.582 54.939C187.582 53.3804 187.96 52.1675 188.716 51.3003C189.472 50.4272 190.509 49.9907 191.827 49.9907C193.14 49.9907 194.168 50.4331 194.912 51.3179C195.662 52.1968 196.037 53.4038 196.037 54.939ZM188.496 54.939C188.496 56.2515 188.783 57.2769 189.357 58.0151C189.938 58.7476 190.755 59.1138 191.81 59.1138C192.864 59.1138 193.679 58.7476 194.253 58.0151C194.833 57.2769 195.123 56.2515 195.123 54.939C195.123 53.6206 194.83 52.5981 194.244 51.8716C193.664 51.145 192.847 50.7817 191.792 50.7817C190.737 50.7817 189.923 51.145 189.349 51.8716C188.78 52.5923 188.496 53.6147 188.496 54.939ZM210.618 59.729V53.4624C210.618 52.5308 210.437 51.8511 210.073 51.4233C209.71 50.9956 209.153 50.7817 208.403 50.7817C207.425 50.7817 206.701 51.0513 206.232 51.5903C205.764 52.1294 205.529 52.9761 205.529 54.1304V59.729H204.642V53.1987C204.642 51.5874 203.903 50.7817 202.427 50.7817C201.425 50.7817 200.695 51.0747 200.238 51.6606C199.781 52.2407 199.553 53.1724 199.553 54.4556V59.729H198.683V50.1753H199.403L199.588 51.4849H199.641C199.904 51.0103 200.279 50.644 200.766 50.3862C201.252 50.1226 201.788 49.9907 202.374 49.9907C203.88 49.9907 204.847 50.5562 205.274 51.687H205.31C205.62 51.1421 206.036 50.7231 206.558 50.4302C207.085 50.1372 207.683 49.9907 208.351 49.9907C209.394 49.9907 210.176 50.269 210.697 50.8257C211.219 51.3823 211.479 52.2671 211.479 53.48V59.729H210.618ZM218.66 59.9048C217.189 59.9048 216.117 59.354 215.443 58.2524H215.382L215.408 58.9907C215.432 59.4243 215.443 59.8989 215.443 60.4146V64.0532H214.573V50.1753H215.312L215.479 51.5376H215.531C216.188 50.5063 217.236 49.9907 218.678 49.9907C219.967 49.9907 220.948 50.4155 221.622 51.2651C222.302 52.1089 222.642 53.3394 222.642 54.9565C222.642 56.5269 222.284 57.7456 221.569 58.6128C220.86 59.4741 219.891 59.9048 218.66 59.9048ZM218.643 59.1313C219.621 59.1313 220.377 58.7681 220.91 58.0415C221.449 57.3149 221.719 56.2983 221.719 54.9917C221.719 52.1851 220.705 50.7817 218.678 50.7817C217.564 50.7817 216.747 51.0894 216.226 51.7046C215.704 52.314 215.443 53.3101 215.443 54.6929V54.9741C215.443 56.4683 215.692 57.5347 216.19 58.1733C216.694 58.812 217.512 59.1313 218.643 59.1313ZM231.097 59.729L230.877 58.2173H230.807C230.326 58.8325 229.831 59.269 229.321 59.5269C228.817 59.7788 228.22 59.9048 227.528 59.9048C226.591 59.9048 225.861 59.6646 225.34 59.1841C224.818 58.7036 224.558 58.0386 224.558 57.189C224.558 56.2573 224.944 55.5337 225.718 55.0181C226.497 54.5024 227.622 54.23 229.093 54.2007L230.912 54.1479V53.5151C230.912 52.6069 230.728 51.9214 230.358 51.4585C229.989 50.9956 229.395 50.7642 228.574 50.7642C227.689 50.7642 226.772 51.0103 225.823 51.5024L225.498 50.7466C226.547 50.2544 227.584 50.0083 228.609 50.0083C229.658 50.0083 230.44 50.2808 230.956 50.8257C231.478 51.3706 231.738 52.2202 231.738 53.3745V59.729H231.097ZM227.581 59.1138C228.601 59.1138 229.403 58.8237 229.989 58.2437C230.581 57.6577 230.877 56.8462 230.877 55.8091V54.8687L229.207 54.939C227.865 55.0034 226.907 55.2144 226.333 55.5718C225.765 55.9233 225.48 56.4741 225.48 57.2241C225.48 57.8218 225.662 58.2876 226.025 58.6216C226.395 58.9497 226.913 59.1138 227.581 59.1138ZM241.503 59.729V53.5327C241.503 52.5718 241.301 51.8745 240.896 51.4409C240.492 51.0015 239.865 50.7817 239.016 50.7817C237.873 50.7817 237.035 51.0718 236.502 51.6519C235.975 52.2261 235.711 53.1606 235.711 54.4556V59.729H234.841V50.1753H235.579L235.746 51.4849H235.799C236.42 50.4888 237.524 49.9907 239.112 49.9907C241.28 49.9907 242.364 51.1538 242.364 53.48V59.729H241.503ZM243.858 50.1753H244.755L246.776 55.5366C247.392 57.1831 247.781 58.2935 247.945 58.8677H247.998C248.244 58.1118 248.646 56.9839 249.202 55.4839L251.224 50.1753H252.12L247.84 61.2759C247.494 62.1782 247.204 62.7876 246.97 63.104C246.735 63.4204 246.46 63.6577 246.144 63.8159C245.833 63.9741 245.455 64.0532 245.01 64.0532C244.676 64.0532 244.304 63.9917 243.894 63.8687V63.1128C244.233 63.2065 244.6 63.2534 244.992 63.2534C245.291 63.2534 245.555 63.1831 245.783 63.0425C246.012 62.9019 246.217 62.6821 246.398 62.3833C246.586 62.0903 246.8 61.6216 247.04 60.9771C247.286 60.3384 247.444 59.9224 247.515 59.729L243.858 50.1753Z" fill="white"/>
<g opacity="0.3">
<path opacity="0.3" d="M3.54407 12.7222L15.0474 19.8682H44.2765V12.7222H3.54407Z" fill="white"/>
<path opacity="0.3" d="M17.7096 30.317C13.0387 32.7658 8.84065 36.1079 5.31328 40.1297V22.622L17.7096 30.317ZM0.00808275 60.3389C2.09299 52.5437 6.29108 45.7071 11.8912 40.5872L22.4935 60.3389H28.627L16.1903 37.1885C20.3682 34.3475 25.0997 32.3606 30.1705 31.4586L0 12.7222V60.3389" fill="white"/>
<path opacity="0.3" d="M35.8999 32.8134L44.2758 32.8091V39.9507H19.7338L18.6064 37.8505C23.7217 34.7263 29.6168 32.9093 35.8999 32.8134Z" fill="white"/>
<path opacity="0.3" d="M26.8535 53.1973L30.692 60.3389H44.2803V53.1973H26.8535Z" fill="white"/>
</g>
<path d="M4.41211 11.79L15.9155 18.9317H45.1445V11.79H4.41211Z" fill="white"/>
<path d="M18.5781 29.381C13.9073 31.8298 9.70918 35.1719 6.18181 39.1937V21.686L18.5781 29.381ZM0.876613 59.4029C2.96152 51.6077 7.15961 44.7711 12.7598 39.6512L23.3621 59.4029H29.4996L17.0629 36.2525C21.2408 33.4115 25.9723 31.4246 31.0431 30.5226L0.86853 11.7905V59.4029" fill="white"/>
<path d="M36.7684 31.8818L45.1444 31.8774V39.0191H20.6023L19.475 36.9189C24.5903 33.7947 30.4854 31.9733 36.7684 31.8818Z" fill="white"/>
<path d="M27.7211 52.2603L31.5596 59.4019H45.1478V52.2603H27.7211Z" fill="white"/>
</svg>
