<svg width="602" height="823" viewBox="0 0 602 823" fill="none" xmlns="http://www.w3.org/2000/svg">
<path d="M143.949 817.926H601.201V823H143.949V817.926Z" fill="#CED3D6"/>
<path d="M136.219 242.435C136.219 242.435 159.699 234.611 167.101 232.856C181.825 229.344 231.186 234.733 231.186 234.733L246.308 238.417L269.111 300.512L250.671 326.267C250.671 326.267 221.164 317.327 212.298 314.587C159.55 327.201 130.391 294.291 94.6282 280.52C91.9883 271.57 90.8526 268.028 90.1852 247.276C91.0419 239.279 98.4436 205.568 99.5394 196.993C111.653 203.822 117.471 202.96 130.302 201.316L138.271 221.155L136.219 242.435Z" fill="#2E57AB"/>
<g style="mix-blend-mode:overlay" opacity="0.23">
<path d="M146.49 255.566L136.13 248.108L135.95 242.861L160.516 235.433L145.484 244.17L146.49 255.566Z" fill="#212430"/>
</g>
<g style="mix-blend-mode:overlay" opacity="0.23">
<path d="M216.592 300.684L210.505 295.55L213.115 284.488L202.476 296.016L206.56 299.578L216.592 300.684Z" fill="#212430"/>
</g>
<path d="M143.382 157.435L141.101 164.072L130.91 171.267L126.775 177.457L125.889 186.438L134.854 212.823C128.877 219.642 105.845 234.215 93.0145 229.74C96.2023 210.063 102.448 180.258 104.032 171.501C104.501 168.872 103.684 155.903 103.684 155.903L102.448 147.003L104.959 142.163C113.486 143.776 120.728 147.338 123.408 148.252C131.019 150.9 136.319 154.005 143.382 157.435Z" fill="#E83464"/>
<g style="mix-blend-mode:overlay" opacity="0.23">
<path d="M109.73 253.598L109.72 228.36L111.294 187.474L103.255 219.937L103.962 236.438L109.73 253.598Z" fill="#212430"/>
</g>
<g style="mix-blend-mode:overlay" opacity="0.35">
<path d="M115.399 277.639L104.122 274.351L100.755 259.26L107.798 271.276L115.399 277.639Z" fill="#212430"/>
</g>
<g style="mix-blend-mode:overlay" opacity="0.23">
<path d="M252.345 301.8L258.492 295.823L257.874 291.378L249.934 295.742L252.345 301.8Z" fill="#212430"/>
</g>
<path opacity="0.23" d="M135.063 153.945L127.004 151.103L126.167 163.047L130.112 163.595L131.358 158.237L135.063 153.945Z" fill="#6E2430"/>
<g style="mix-blend-mode:overlay" opacity="0.35">
<path d="M184.793 290.425L164.67 294.758L155.495 289.136L166.354 290.08L184.793 290.425Z" fill="#212430"/>
</g>
<path d="M454.96 243.856C446.064 239.929 424.009 228.38 424.009 228.38L382.607 213.412L356.347 208.429C356.347 208.429 333.495 211.474 323.105 212.661C307.863 220.688 281.902 220.282 246.288 238.416L231.704 259.788C215.765 287.127 250.632 326.237 250.632 326.237L271.731 360.74L297.542 409.714C297.542 409.714 286.136 458.567 279.093 492.461C293.338 499.717 412.174 501.655 412.174 501.655L407.94 499.503L413.917 494.358L419.894 466.553L408.02 396.41L436.063 333.99L441.851 323.101C444.55 290.932 458.826 276.431 454.96 243.856Z" fill="#2E57AB"/>
<path d="M521.845 307.798C510.717 294.19 502.259 286.934 498.404 282.428C497.806 278.805 495.356 273.67 494.768 270.646C487.884 259.818 475.103 250.99 467.393 244.343C464.125 243.632 460.419 244.343 450.916 242.526C437.567 236.438 407.681 221.753 400.469 219.551C404.324 253.577 420.392 288.476 432.815 317.5L438.792 320.544L442.349 349.567L471.238 375.353L461.685 404.894C465.51 414.535 451.264 429.32 455.658 438.839L493.393 424.49C493.393 424.49 518.298 411.795 539.099 393.031C539.995 381.097 532.125 335.005 521.845 307.798Z" fill="#2E57AB"/>
<path d="M370.533 486.159L374.598 461.459L291.595 446.856C291.595 446.856 269.34 520.023 261.321 557.205C261.671 576.916 263.057 596.594 265.475 616.154C262.656 633.69 247.095 650.13 240.331 676.362C243.18 683.547 240.6 719.217 246.547 721.145C258.233 724.94 279.521 703.082 291.824 696.79C296.267 683.79 296.805 667.432 296.865 667.168C298.648 656.888 298.568 642.174 302.573 628.606C308.211 613.191 326.91 581.448 335.218 564.521C343.188 548.193 360.671 497.007 360.671 497.007L370.533 486.159Z" fill="#2E57AB"/>
<path d="M487.127 659.456C482.973 647.735 465.5 612.217 465.5 612.217C462.985 596.114 461.967 579.804 462.462 563.507C458.009 548.995 452.39 530.018 447.329 518.155L416.886 440.949L363.092 459.52L348.597 497.697C348.597 497.697 368.172 534.585 394.292 578.414C405.25 596.822 409.853 604.443 422.186 624.364C429.93 637.15 434.89 651.48 436.73 666.387C439.061 682.552 445.337 700.89 445.337 700.89C460.469 701.793 476.528 698.272 495.017 695.329C493.214 682.542 490.205 668.142 487.127 659.456Z" fill="#2E57AB"/>
<path d="M388.315 156.816L390.716 214.081L400.209 220.129L347.541 245.012L297.751 222.443L313.401 214.944L323.662 172.495L388.315 156.816Z" fill="#E9AD69"/>
<path opacity="0.85" d="M388.564 153.975L390.347 185.718L361.906 216.487L320.285 212.641L314.946 209.616V193.298L350.36 175.113L388.564 153.975Z" fill="#D29149"/>
<path d="M388.963 130.361C388.903 131.578 388.604 134.42 390.736 135.1C389.937 139.018 388.879 142.876 387.568 146.648C381.9 162.966 381.262 165.99 377.726 176.737C371.818 186.611 372.645 195.196 369.816 200.503C367.714 200.868 355.132 206.318 349.494 206.988C336.693 206.764 318.781 204.816 312.814 203.223C312.047 202.837 308.441 200.229 301.756 196.119C300.202 190.863 300.421 182.927 299.086 174.352C302.563 169.481 304.874 166.183 308.48 161.413C310.473 157.882 311.758 154.168 313.182 151.377C313.073 148.424 312.754 145.522 312.894 141.097C314.607 136.957 318.871 128.301 321.062 123.247L325.595 103.235C325.595 103.235 326.502 97.0652 326.033 96.2127C350.968 91.1895 383.822 97.7654 388.963 130.361Z" fill="#EBBF85"/>
<path d="M322.546 129.163L320.614 133.232L321.74 137.149L326.561 140.062L331.034 141.503L333.803 135.546L333.993 127.945L322.546 129.163Z" fill="#D9A164"/>
<path d="M341.375 56.2913C341.524 60.7056 341.255 68.9864 351.844 72.386C368.999 77.876 378.214 84.4621 387.04 88.9373C392.236 92.9171 397.122 97.3006 401.654 102.049C402.531 113.516 397.022 118.996 397.022 118.996C396.613 124.587 392.25 131.802 389.56 140.763C387.428 140.073 382.916 140.032 382.975 138.815C382.607 129.539 384.081 122.75 380.355 115.373C376.291 114.043 371.559 112.075 363.749 111.78C352.91 113.292 339.9 118.488 323.901 105.966C313.232 92.6007 306.05 63.9327 341.375 56.2913Z" fill="#271C16"/>
<path d="M397.052 138.479C396.056 132.938 391.752 134.014 390.078 134.663C388.826 135.077 387.694 135.801 386.783 136.77C385.872 137.738 385.211 138.922 384.858 140.214C384.171 142.244 383.085 145.187 383.673 147.227L384.171 160.419L388.953 159.292C388.953 159.292 397.56 141.3 397.052 138.479Z" fill="#EBBF85"/>
<g style="mix-blend-mode:overlay" opacity="0.16">
<path d="M261.699 235.149L268.443 232.064L353.677 310.914L429.587 231.618L445.616 239.777L342.689 388.15L251.458 237.869L261.699 235.149Z" fill="white"/>
</g>
<path d="M321.182 126.748L331.124 122.019L334.401 127.671L321.441 129.528L321.182 126.748Z" fill="#3D332D"/>
<path d="M363.629 158.673L342.211 163.138L324.459 160.246L317.356 152.838C317.356 152.838 316.131 170.526 319.189 175.164C322.885 180.786 336.284 184.398 344.811 179.223C350.569 175.783 363.629 158.673 363.629 158.673Z" fill="white"/>
<path d="M343.267 151.367L328.225 149.591L332.21 155.112L336.115 156.725L343.267 151.367Z" fill="#D29149"/>
<path d="M353.01 128.362L345.589 128.636L345.559 137.13L348.766 145.248L362.733 142.894L366.787 139.332L367.076 133.162L353.01 128.362Z" fill="#D9A164"/>
<path d="M355.56 133.974L348.328 133.446L347.033 135.689L362.892 139.312L355.56 133.974Z" fill="#483331"/>
<path d="M366.09 129.925L348.627 122.405L345.867 128.737L365.911 133.974L366.09 129.925Z" fill="#3D332D"/>
<path d="M332.648 132.939L327.976 132.005L322.367 134.786L333.365 134.907L332.648 132.939Z" fill="#483331"/>
<path d="M384.37 146.364C385.476 143.807 392.728 138.246 392.728 138.246L392.639 143.32L388.375 154.483L386.383 151.763L382.398 155.396C382.398 155.396 386.871 148.161 384.37 146.364Z" fill="#D9A164"/>
<path d="M333.883 189.442L322.308 188.539L324.977 192.162L328.982 192.619L333.883 189.442Z" fill="#D9A164"/>
<path d="M286.624 226.077L346.993 255.587L406.446 221.642L413.12 224.808L346.993 277.354C346.993 277.354 278.913 230.765 278.615 229.253L286.624 226.077Z" fill="#E83464"/>
<path d="M399.084 371.07L347.651 400.398L301.168 374.977C301.168 374.977 274.082 299.487 262.217 278.318C287.59 268.799 304.057 263.654 304.057 263.654L346.107 288.202L384.54 260.995C384.54 260.995 418.669 271.61 432.466 276.025C422.973 301.993 399.084 371.07 399.084 371.07Z" fill="#E83464"/>
<g style="mix-blend-mode:overlay" opacity="0.39">
<path d="M257.465 298.655L262.068 313.308L277.499 334.477L340.707 329.038L307.554 342.23L281.065 349.618C279.08 349.619 277.135 349.047 275.455 347.97C273.775 346.893 272.429 345.353 271.571 343.529L257.914 315.115L257.465 298.655Z" fill="#262935"/>
</g>
<g style="mix-blend-mode:overlay" opacity="0.39">
<path d="M453.167 293.449L438.224 313.633L428.432 320.889L370.563 328.145L362.255 323L366.439 331.473L397.321 336.608L417.125 340.383C421.11 340.485 430.265 337.207 436.491 334.487L445.995 311.218L453.167 293.449Z" fill="#262935"/>
</g>
<g style="mix-blend-mode:overlay" opacity="0.23">
<path d="M360.97 520.531C359.774 520.977 376.67 491.933 384.559 484.099C395.927 472.914 407.996 462.494 420.691 452.904L415.402 442.451L356.347 482.962L351.685 502.325L360.97 520.531Z" fill="#212430"/>
</g>
<g style="mix-blend-mode:overlay" opacity="0.23">
<path d="M352.064 519.312C343.845 511.194 318.193 482.445 305.771 474.124C301.288 471.079 286.176 463.235 286.176 463.235L291.525 445.557L339.731 487.762L357.473 508.84L352.064 519.312Z" fill="#212430"/>
</g>
<path d="M389.351 134.572C389.351 134.572 359.206 122.669 340.896 121.055C328.305 119.949 320.086 122.537 320.086 122.537L313.81 136.592C313.81 136.592 315.713 143.462 321.371 143.827C324.758 144.04 331.024 139.92 335.069 140.103C338.356 140.245 341.494 146.527 353.827 147.968C358.808 148.546 368.063 143.239 372.276 142.031C375.723 141.016 384.34 141.544 384.34 141.544L389.351 134.572Z" fill="#2E57AB"/>
<path d="M368.431 134.461C368.431 130.828 355.212 129.042 355.212 129.042C355.212 129.042 344.672 128.717 343.745 131.711C342.819 134.704 348.248 139.758 350.968 140.407C356.218 141.656 368.431 138.956 368.431 134.461Z" fill="#EBBF85"/>
<path d="M333.913 131.923C333.355 133.679 328.564 135.536 326.312 136.348C320.216 138.53 317.187 134.937 317.855 132.289C318.393 130.137 319.767 129.386 321.172 128.707C323.665 127.542 326.465 127.242 329.141 127.854C332.03 128.727 334.561 130.056 333.913 131.923Z" fill="#EBBF85"/>
<path d="M363.48 137.667L356.288 132.157L346.346 132.989L363.48 137.667Z" fill="#271C16"/>
<path d="M330.984 132.756L324.828 130.036L319.189 133.213L330.984 132.756Z" fill="#271C16"/>
<path d="M348.736 168.527C348.408 168.649 336.254 169.4 336.254 169.4L320.484 166.599L330.028 170.658L340.448 170.577L348.736 168.527Z" fill="#D4CCD4"/>
<path d="M320.873 150.86L315.932 150.454L313.85 157.02L317.755 153.041L320.873 150.86Z" fill="#D9A164"/>
<path d="M363.898 166.183L370.384 156.796L355.471 152.92L363.201 158.227L363.898 166.183Z" fill="#D9A164"/>
<g style="mix-blend-mode:overlay" opacity="0.23">
<path d="M462.531 367.357L471.437 375.516L479.745 377.332L483.899 364.627L477.962 370.077L462.531 367.357Z" fill="#212430"/>
</g>
<g style="mix-blend-mode:overlay" opacity="0.25">
<path d="M368.162 231.618L419.357 238.417L381.073 227.538L368.162 231.618Z" fill="#212430"/>
</g>
<g style="mix-blend-mode:overlay" opacity="0.25">
<path d="M309.606 281.891L335.866 275.091L344.323 278.257L309.606 281.891Z" fill="#212430"/>
</g>
<path d="M384.559 187.535L380.106 208.845L379.22 191.157L384.559 187.535Z" fill="#D29149"/>
<path d="M366.309 211.565L354.285 233.332L355.909 213.868L366.309 211.565Z" fill="#D29149"/>
<path d="M412.672 424.794L414.455 440.665L419.795 450.184L426.031 464.695L437.607 462.879L451.254 451.716L458.975 446.876L500.147 423.454C499.52 413.418 474.974 397.993 465.181 394.37L452.051 419.111L441.81 428.64L433.582 429.543L419.336 422.967L412.672 424.794Z" fill="#E83464"/>
<g style="mix-blend-mode:overlay" opacity="0.45">
<path d="M306.488 398.886L327.856 373.516L361.727 372.613C361.727 372.613 385.765 392.564 384.878 395.284C377.756 393.467 354.604 382.589 354.604 382.589L335.019 385.308L306.488 398.886Z" fill="#212430"/>
</g>
<g style="mix-blend-mode:overlay" opacity="0.23">
<path d="M321.859 405.746L331.213 406.203L347.68 398.947L345.459 407.065C345.459 407.065 332.508 412.048 329.879 412.048C327.332 409.786 324.654 407.681 321.859 405.746Z" fill="#212430"/>
</g>
<g style="mix-blend-mode:overlay" opacity="0.23">
<path d="M372.227 402.053L357.682 403.423L348.776 397.222L349.962 405.686C349.962 405.686 360.651 410.526 363.321 410.526C366.887 409.613 372.227 402.053 372.227 402.053Z" fill="#212430"/>
</g>
<g style="mix-blend-mode:overlay" opacity="0.23">
<path d="M290.469 620.782L279.77 625.014L274.431 617.91L273.245 627.429C273.218 629.015 273.521 630.589 274.134 632.048C274.747 633.507 275.656 634.817 276.802 635.892C279.043 633.629 290.469 620.782 290.469 620.782Z" fill="#212430"/>
</g>
<g style="mix-blend-mode:overlay" opacity="0.23">
<path d="M460.808 618.965L454.831 623.41L443.554 622.203L454.831 635.496C454.831 635.496 461.366 636.704 464.245 632.269C462.89 629.093 460.808 618.965 460.808 618.965Z" fill="#212430"/>
</g>
<g style="mix-blend-mode:overlay" opacity="0.23">
<path d="M280.318 606.027L272.598 604.667L262.506 588.338L265.495 605.874C265.595 609.767 266.195 613.629 267.278 617.362C269.48 615.099 280.318 606.027 280.318 606.027Z" fill="#212430"/>
</g>
<g style="mix-blend-mode:overlay" opacity="0.23">
<path d="M465.649 594.844L460.16 602.85L450.069 602.099C450.069 602.099 458.975 610.106 464.315 614.337C466.536 612.075 465.649 594.844 465.649 594.844Z" fill="#212430"/>
</g>
<g style="mix-blend-mode:overlay" opacity="0.4">
<path d="M513.048 391.021L497.079 411.51L463.677 432.74L483.541 414.991L493.403 408.009L513.048 391.021Z" fill="#212430"/>
</g>
<g style="mix-blend-mode:overlay" opacity="0.25">
<path d="M470.242 259.727L462.531 254.288L460.748 257.312L457.929 248.768L465.799 251.264L470.242 259.727Z" fill="#212430"/>
</g>
<g style="mix-blend-mode:overlay" opacity="0.23">
<path d="M347.74 418.685L324.29 426.245L339.133 428.356L347.74 418.685Z" fill="#212430"/>
</g>
<g style="mix-blend-mode:overlay" opacity="0.23">
<path d="M366.379 426.154L350.709 419.436L354.504 428.721L366.379 426.154Z" fill="#212430"/>
</g>
<g style="mix-blend-mode:overlay" opacity="0.23">
<path d="M406.077 573.127L426.25 596.407L439.091 606.18L417.503 603.815L377.437 540.776L406.077 573.127Z" fill="#212430"/>
</g>
<g style="mix-blend-mode:overlay" opacity="0.23">
<path d="M320.455 577.968C310.214 593.839 301.318 600.638 301.318 600.638H289.732L302.792 615.748L310.652 600.181C310.652 600.181 316.898 586.553 320.455 577.968Z" fill="#212430"/>
</g>
<path d="M290.031 442.706C290.031 442.706 335.198 440.321 347.681 439.752C372.017 438.656 417.573 442.026 417.573 442.026C418.578 444.976 419.321 448.012 419.795 451.098C384.33 464.29 356.586 513.072 356.586 513.072L349.504 510.647C349.504 510.647 330.865 491.244 314.836 475.524C295.122 456.172 287.182 456.984 287.182 456.984L290.031 442.706Z" fill="#E83464"/>
<path d="M349.763 63.2321C349.763 63.2321 343.546 67.4131 347.77 72.548C351.994 77.6829 337.888 71.7666 337.888 71.7666C337.888 71.7666 339.073 60.5124 349.763 63.2321Z" fill="#271C16"/>
<path opacity="0.52" d="M358.071 75.0239C358.071 75.0239 350.619 73.1465 348.866 71.0865C343.646 68.8033 340.578 73.1161 338.366 73.796C331.542 75.8256 332.797 71.8984 330.875 71.9491C324.947 72.1115 326.94 76.7592 324.718 77.1854C322.318 77.642 315.633 76.8302 315.633 76.8302C315.633 76.8302 314.219 90.4283 317.416 92.5492C319.538 93.9598 323.692 90.7226 327.458 93.9598C329.391 95.624 330.257 89.7992 337.42 92.0317C339.701 92.742 339.651 84.1164 341.952 83.4568C343.995 82.8682 347.501 85.74 349.524 85.05C351.546 84.3599 358.071 75.0239 358.071 75.0239Z" fill="#535251"/>
<g opacity="0.36">
<path opacity="0.36" d="M379.389 114.205L379.927 113.475L352.153 92.2555C337.719 81.2348 333.226 69.8386 338.406 57.4277L337.579 57.0725C332.22 69.93 336.812 81.6711 351.616 92.9861L379.389 114.205Z" fill="#6B6460"/>
</g>
<g opacity="0.63">
<path opacity="0.63" d="M340.259 113.566C340.319 113.566 340.378 113.554 340.433 113.529C340.488 113.505 340.537 113.469 340.578 113.424C340.62 113.382 340.653 113.332 340.676 113.277C340.698 113.223 340.71 113.164 340.71 113.104C340.71 113.044 340.698 112.985 340.676 112.931C340.653 112.876 340.62 112.826 340.578 112.784C340.279 112.49 310.901 82.7058 326.631 63.2116C326.703 63.1175 326.737 62.9987 326.726 62.8798C326.715 62.7609 326.66 62.6508 326.571 62.5723C326.527 62.5333 326.475 62.5039 326.419 62.4859C326.362 62.4678 326.303 62.4614 326.245 62.4671C326.186 62.4728 326.129 62.4904 326.078 62.5189C326.026 62.5475 325.98 62.5863 325.944 62.6332C309.666 82.7667 339.621 113.129 339.89 113.434C339.939 113.481 339.997 113.517 340.061 113.54C340.124 113.563 340.192 113.571 340.259 113.566Z" fill="#6B6460"/>
</g>
<path d="M375.982 158.338L371.719 166.771L367.266 175.844L374.498 170.719L375.982 158.338Z" fill="#D9A164"/>
<path d="M334.74 203.447L329.53 208.308L316.948 206.765L314.776 200.352L334.74 203.447Z" fill="#EBBF85"/>
<path d="M325.984 201.681L323.812 199.317L322.656 203.305L323.523 204.918L325.984 201.681Z" fill="#D9A164"/>
<path d="M240.331 676.362C238.1 711.281 232.212 768.932 230.16 776.451C229.054 780.511 224.183 788.365 220.816 792.769C218.445 795.814 196.907 812.426 196.907 812.426V818.322H256.38C257.112 814.507 257.578 810.645 257.774 806.763C257.555 800.867 255.095 791.217 257.316 780.795C260.225 768.901 263.552 761.29 268.892 753.131C272.279 744.739 288.029 718.628 288.029 718.628C288.029 718.628 291.416 704.249 293.817 691.726C279.571 686.896 251.01 680.594 240.331 676.362Z" fill="#E83464"/>
<g style="mix-blend-mode:overlay" opacity="0.23">
<path d="M216.313 247.57L223.714 243.308L227.709 245.205L221.314 251.68L216.313 247.57Z" fill="#212430"/>
</g>
<path d="M516.814 787.341C512.311 780.116 508.844 760.053 508.844 760.053C499.719 701.194 497.199 697.226 491.859 666.843C484.437 671.075 442.109 695.836 442.109 695.836L451.922 721.582C451.922 721.582 480.253 761.9 487.257 780.988C493.234 797.174 490.544 805.77 490.544 805.77L490.723 818.1H550.395L548.871 809.393C548.871 809.393 524.295 799.336 516.814 787.341Z" fill="#E83464"/>
<path opacity="0.23" d="M426.33 432.953L419.207 437.184L414.386 438.524L413.27 431.136L422.176 433.562L426.33 432.953Z" fill="#6E2430"/>
<path opacity="0.23" d="M207.965 797.174L210.495 811.097L199.965 809.595C199.965 809.595 199.557 808.996 203.522 804.145C205.279 802.017 206.772 799.676 207.965 797.174Z" fill="#6E2430"/>
<g style="mix-blend-mode:overlay" opacity="0.23">
<path d="M345.389 513.569C345.389 513.569 327.577 550.304 319.568 562.096C324.908 548.031 340.04 507.227 340.04 507.227L345.389 513.569Z" fill="#212430"/>
</g>
<path d="M261.062 107.244C261.062 107.244 207.726 80.169 192.972 68.235C175.399 54.0278 136.07 1.69471 136.07 1.69471L119.493 0C119.493 0 105.437 32.2198 96.3117 38.4202C71.0185 55.5399 30.7225 50.8109 30.7225 50.8109L12.5919 53.4088L24.0979 134.39L17.1245 386.496L70.5702 509.489L87.5054 507.673L184.375 425.474L243.549 204.076L261.062 107.244Z" fill="#D95225"/>
<path d="M250.163 108.928C250.163 108.928 189.286 83.9338 173.726 70.6907C157.129 56.5647 124.364 8.1183 120.061 0.943684C119.998 0.825909 119.909 0.724495 119.802 0.647315C119.694 0.570135 119.57 0.519265 119.44 0.498652C119.31 0.47804 119.177 0.488241 119.052 0.528463C118.926 0.568684 118.811 0.637845 118.716 0.730577C114.193 4.99272 87.6349 35.8831 74.1266 42.6823C60.0803 49.7858 12.5919 53.4087 12.5919 53.4087L1.49428 155.162C1.49428 155.162 1.49428 155.284 1.49428 155.335L0 381.229L63.4673 505.978C63.5627 506.205 63.7363 506.389 63.9554 506.495L70.0322 509.235C70.2006 509.312 70.3889 509.331 70.5688 509.289C70.7486 509.247 70.91 509.146 71.0284 509.002L169.392 420.613L229.522 206.704C229.531 206.637 229.531 206.568 229.522 206.501L250.163 108.928Z" fill="#F39314"/>
<path d="M157.647 423.616L218.694 208.591L239.135 112.368C217.847 102.758 181.167 88.4596 169.014 77.5201C154.609 64.551 129.345 25.7046 117.331 8.16895C103.245 23.1676 86.0907 42.8344 75.1227 48.3143C62.7201 54.5046 32.1171 56.3718 16.0585 57.894L4.94101 159.252L3.41687 379.463L67.0634 501.39L157.647 423.616Z" fill="#F4C121"/>
<path opacity="0.17" d="M6.76408 271.58L6.45526 253.202C6.45526 253.202 45.5558 269.246 65.3003 275.132C70.3908 155.447 108.575 24.355 108.575 24.355L120.001 38.2577C120.001 38.2577 88.5015 159.577 78.6791 278.328C110.029 283.078 193.958 277.212 193.958 277.212L188.22 299.162C188.22 299.162 110.517 300.045 77.643 295.103C77.394 297.559 72.423 497.768 72.423 497.768L63.9653 491.547C63.9653 491.547 59.881 354.55 64.6029 292.586C45.8247 286.538 6.76408 271.58 6.76408 271.58Z" fill="white"/>
<g opacity="0.3">
<path opacity="0.3" d="M328.051 308.302L338.742 314.575H365.906V308.302H328.051Z" fill="white"/>
<path opacity="0.3" d="M341.216 323.749C336.875 325.898 332.974 328.832 329.696 332.363V316.993L341.216 323.749ZM324.765 350.105C326.703 343.261 330.604 337.259 335.809 332.765L345.662 350.105H351.363L339.804 329.781C343.687 327.287 348.085 325.543 352.797 324.751L324.758 308.302V350.105" fill="white"/>
<path opacity="0.3" d="M358.123 325.941L365.907 325.938V332.207H343.098L342.051 330.363C346.805 327.621 352.284 326.025 358.123 325.941Z" fill="white"/>
<path opacity="0.3" d="M349.715 343.835L353.283 350.105H365.911V343.835H349.715Z" fill="white"/>
</g>
<path d="M328.858 307.484L339.549 313.754H366.713V307.484H328.858Z" fill="white"/>
<path d="M342.023 322.926C337.682 325.076 333.78 328.01 330.502 331.541V316.171L342.023 322.926ZM325.572 349.283C327.509 342.439 331.411 336.437 336.616 331.943L346.469 349.283H352.173L340.615 328.959C344.498 326.465 348.895 324.721 353.608 323.929L325.564 307.484V349.283" fill="white"/>
<path d="M358.929 325.122L366.713 325.118V331.388H343.904L342.857 329.544C347.611 326.801 353.089 325.203 358.929 325.122Z" fill="white"/>
<path d="M350.521 343.013L354.089 349.282H366.717V343.013H350.521Z" fill="white"/>
</svg>
