<svg width="270" height="405" viewBox="0 0 270 405" fill="none" xmlns="http://www.w3.org/2000/svg">
<path d="M205.352 402.503H0V405H205.352V402.503Z" fill="#CED3D6"/>
<path d="M208.824 119.303C208.824 119.303 198.279 115.453 194.955 114.589C188.342 112.861 166.174 115.513 166.174 115.513L159.383 117.325L149.142 147.883L157.423 160.557C157.423 160.557 170.675 156.157 174.657 154.809C198.346 161.016 211.441 144.821 227.502 138.045C228.688 133.64 229.198 131.897 229.498 121.685C229.113 117.75 225.789 101.16 225.297 96.9404C219.856 100.301 217.244 99.8768 211.481 99.0678L207.902 108.831L208.824 119.303Z" fill="#2E57AB"/>
<g style="mix-blend-mode:overlay" opacity="0.23">
<path d="M204.211 125.765L208.864 122.094L208.945 119.512L197.912 115.857L204.663 120.157L204.211 125.765Z" fill="#212430"/>
</g>
<g style="mix-blend-mode:overlay" opacity="0.23">
<path d="M172.728 147.967L175.462 145.44L174.29 139.997L179.068 145.67L177.233 147.423L172.728 147.967Z" fill="#212430"/>
</g>
<path d="M205.607 77.4742L206.632 80.7402L211.208 84.2808L213.065 87.3271L213.463 91.7466L209.437 104.731C212.121 108.086 222.465 115.258 228.227 113.055C226.795 103.372 223.99 88.7054 223.279 84.3957C223.069 83.1023 223.436 76.7202 223.436 76.7202L223.99 72.3406L222.863 69.9585C219.033 70.7525 215.781 72.5054 214.577 72.9548C211.159 74.2582 208.779 75.7863 205.607 77.4742Z" fill="#E83464"/>
<g style="mix-blend-mode:overlay" opacity="0.23">
<path d="M220.72 124.796L220.724 112.376L220.018 92.2562L223.628 108.231L223.31 116.351L220.72 124.796Z" fill="#212430"/>
</g>
<g style="mix-blend-mode:overlay" opacity="0.35">
<path d="M218.174 136.626L223.239 135.008L224.751 127.583L221.588 133.495L218.174 136.626Z" fill="#212430"/>
</g>
<g style="mix-blend-mode:overlay" opacity="0.23">
<path d="M156.671 148.517L153.911 145.575L154.188 143.388L157.754 145.535L156.671 148.517Z" fill="#212430"/>
</g>
<path opacity="0.23" d="M209.343 75.7564L212.962 74.3582L213.338 80.2359L211.566 80.5056L211.007 77.8688L209.343 75.7564Z" fill="#6E2430"/>
<g style="mix-blend-mode:overlay" opacity="0.35">
<path d="M187.009 142.919L196.046 145.051L200.167 142.284L195.29 142.749L187.009 142.919Z" fill="#212430"/>
</g>
<path d="M65.6767 120.002C69.6719 118.069 79.5771 112.386 79.5771 112.386L98.1707 105.02L109.964 102.568C109.964 102.568 120.227 104.067 124.893 104.651C131.738 108.601 143.397 108.401 159.392 117.325L165.941 127.842C173.1 141.296 157.441 160.542 157.441 160.542L147.965 177.521L136.373 201.621C136.373 201.621 141.496 225.662 144.659 242.341C138.261 245.912 84.8921 246.865 84.8921 246.865L86.7936 245.807L84.1092 243.275L81.4249 229.592L86.7578 195.074L74.1637 164.357L71.5644 158.999C70.3519 143.168 63.9409 136.032 65.6767 120.002Z" fill="#2E57AB"/>
<path d="M35.6391 151.468C40.6364 144.771 44.4348 141.201 46.1662 138.983C46.4346 137.201 47.5352 134.674 47.7992 133.186C50.8906 127.857 56.6306 123.513 60.0934 120.242C61.5609 119.892 63.2252 120.242 67.4933 119.348C73.4883 116.351 86.91 109.125 90.1491 108.042C88.4177 124.786 81.2013 141.96 75.6224 156.242L72.938 157.74L71.3408 172.023L58.3665 184.712L62.657 199.249C60.939 203.993 67.3367 211.269 65.3637 215.953L48.4166 208.892C48.4166 208.892 37.2318 202.645 27.8903 193.411C27.4876 187.538 31.022 164.856 35.6391 151.468Z" fill="#2E57AB"/>
<path d="M103.593 239.24L101.768 227.085L139.044 219.898C139.044 219.898 149.039 255.904 152.641 274.201C152.483 283.901 151.861 293.585 150.775 303.211C152.041 311.84 159.029 319.93 162.067 332.839C160.788 336.375 161.946 353.928 159.275 354.877C154.027 356.745 144.467 345.988 138.941 342.892C136.946 336.495 136.705 328.444 136.678 328.315C135.877 323.256 135.913 316.015 134.114 309.338C131.582 301.752 123.184 286.132 119.453 277.802C115.874 269.767 108.022 244.578 108.022 244.578L103.593 239.24Z" fill="#2E57AB"/>
<path d="M51.2306 324.519C53.0962 318.752 60.9434 301.273 60.9434 301.273C62.0731 293.349 62.53 285.323 62.308 277.303C64.3078 270.162 66.8311 260.823 69.1038 254.985L82.7761 216.992L106.935 226.131L113.445 244.918C113.445 244.918 104.653 263.07 92.9229 284.639C88.0016 293.697 85.9346 297.448 80.396 307.251C76.9181 313.543 74.6906 320.595 73.8641 327.93C72.8172 335.885 69.9986 344.909 69.9986 344.909C63.2027 345.354 55.9908 343.621 47.6873 342.173C48.497 335.88 49.8482 328.794 51.2306 324.519Z" fill="#2E57AB"/>
<path d="M95.6073 77.1696L94.5291 105.35L90.2655 108.326L113.919 120.571L136.28 109.465L129.251 105.774L124.643 84.885L95.6073 77.1696Z" fill="#E9AD69"/>
<path opacity="0.85" d="M95.4954 75.7715L94.6946 91.3922L107.468 106.534L126.16 104.641L128.558 103.153V95.1226L112.653 86.1736L95.4954 75.7715Z" fill="#D29149"/>
<path d="M95.3164 64.1508C95.3432 64.75 95.4774 66.1483 94.52 66.4829C94.8788 68.4109 95.3541 70.3096 95.9427 72.1659C98.4884 80.196 98.7747 81.6841 100.363 86.9726C103.016 91.8316 102.645 96.0564 103.915 98.6682C104.859 98.8479 110.51 101.53 113.042 101.859C118.791 101.749 126.835 100.791 129.515 100.007C129.859 99.8167 131.479 98.5333 134.481 96.5108C135.179 93.924 135.08 90.0188 135.68 85.799C134.119 83.402 133.081 81.779 131.461 79.4319C130.566 77.6941 129.989 75.8663 129.349 74.493C129.399 73.0398 129.542 71.6116 129.479 69.4343C128.71 67.3968 126.795 63.137 125.81 60.6501L123.775 50.8023C123.775 50.8023 123.368 47.766 123.578 47.3465C112.38 44.8746 97.6249 48.1106 95.3164 64.1508Z" fill="#EBBF85"/>
<path d="M125.144 63.5615L126.012 65.5641L125.506 67.4917L123.341 68.9249L121.332 69.634L120.089 66.7027L120.004 62.9623L125.144 63.5615Z" fill="#D9A164"/>
<path d="M116.688 27.7012C116.621 29.8735 116.742 33.9485 111.986 35.6214C104.282 38.3231 100.144 41.5641 96.18 43.7663C93.8464 45.7248 91.6521 47.8819 89.6168 50.2184C89.2231 55.8614 91.6971 58.5581 91.6971 58.5581C91.8806 61.3097 93.8401 64.8603 95.0481 69.2699C96.0055 68.9303 98.0322 68.9103 98.0054 68.311C98.1709 63.7467 97.5088 60.4058 99.182 56.7753C101.007 56.1211 103.132 55.1523 106.64 55.0075C111.508 55.7515 117.351 58.3084 124.536 52.146C129.327 45.5691 132.553 31.4615 116.688 27.7012Z" fill="#271C16"/>
<path d="M91.6837 68.1457C92.1311 65.4191 94.0638 65.9484 94.8154 66.268C95.3779 66.4717 95.8865 66.8278 96.2956 67.3045C96.7046 67.7812 97.0016 68.3636 97.1597 68.9997C97.4684 69.9984 97.9561 71.4466 97.6921 72.4504L97.4684 78.9424L95.321 78.3881C95.321 78.3881 91.4555 69.534 91.6837 68.1457Z" fill="#EBBF85"/>
<g style="mix-blend-mode:overlay" opacity="0.16">
<path d="M152.471 115.717L149.442 114.199L111.163 153.001L77.0719 113.979L69.8734 117.994L116.098 191.009L157.07 117.056L152.471 115.717Z" fill="white"/>
</g>
<path d="M125.757 62.3731L121.292 60.046L119.82 62.8276L125.64 63.7415L125.757 62.3731Z" fill="#3D332D"/>
<path d="M106.694 78.0836L116.312 80.2809L124.285 78.8577L127.475 75.2122C127.475 75.2122 128.025 83.9164 126.652 86.1986C124.992 88.9652 118.974 90.743 115.145 88.1961C112.559 86.5032 106.694 78.0836 106.694 78.0836Z" fill="white"/>
<path d="M115.838 74.4881L122.594 73.6141L120.804 76.3308L119.051 77.1248L115.838 74.4881Z" fill="#D29149"/>
<path d="M111.463 63.1671L114.796 63.3019L114.809 67.4818L113.369 71.4769L107.096 70.3183L105.275 68.5655L105.146 65.5292L111.463 63.1671Z" fill="#D9A164"/>
<path d="M110.317 65.9286L113.566 65.6689L114.147 66.7726L107.025 68.5554L110.317 65.9286Z" fill="#483331"/>
<path d="M105.589 63.936L113.431 60.2356L114.671 63.3517L105.669 65.9286L105.589 63.936Z" fill="#3D332D"/>
<path d="M120.607 65.4193L122.706 64.9598L125.224 66.3282L120.285 66.3881L120.607 65.4193Z" fill="#483331"/>
<path d="M97.3789 72.0261C96.8823 70.7676 93.6252 68.031 93.6252 68.031L93.6655 70.5279L95.5803 76.0211L96.4751 74.6828L98.2647 76.4706C98.2647 76.4706 96.2559 72.91 97.3789 72.0261Z" fill="#D9A164"/>
<path d="M120.053 93.225L125.251 92.7805L124.052 94.5633L122.254 94.788L120.053 93.225Z" fill="#D9A164"/>
<path d="M141.277 111.253L114.165 125.775L87.4648 109.07L84.4673 110.629L114.165 136.487C114.165 136.487 144.74 113.56 144.874 112.816L141.277 111.253Z" fill="#E83464"/>
<path d="M90.7709 182.605L113.87 197.037L134.745 184.527C134.745 184.527 146.909 147.378 152.238 136.961C140.843 132.277 133.447 129.745 133.447 129.745L114.563 141.825L97.3028 128.436C97.3028 128.436 81.9752 133.66 75.7788 135.832C80.0424 148.611 90.7709 182.605 90.7709 182.605Z" fill="#E83464"/>
<g style="mix-blend-mode:overlay" opacity="0.39">
<path d="M154.372 146.969L152.305 154.18L145.375 164.597L116.988 161.92L131.877 168.412L143.773 172.048C144.665 172.048 145.538 171.767 146.293 171.237C147.047 170.707 147.652 169.949 148.037 169.051L154.171 155.069L154.372 146.969Z" fill="#262935"/>
</g>
<g style="mix-blend-mode:overlay" opacity="0.39">
<path d="M66.4822 144.407L73.193 154.339L77.5909 157.91L103.58 161.481L107.311 158.949L105.432 163.119L91.5629 165.646L82.6688 167.503C80.8792 167.553 76.7677 165.94 73.9715 164.602L69.7034 153.151L66.4822 144.407Z" fill="#262935"/>
</g>
<g style="mix-blend-mode:overlay" opacity="0.23">
<path d="M107.888 256.154C108.425 256.373 100.837 242.081 97.294 238.226C92.1888 232.722 86.7684 227.594 81.0671 222.875L83.4428 217.731L109.964 237.667L112.058 247.195L107.888 256.154Z" fill="#212430"/>
</g>
<g style="mix-blend-mode:overlay" opacity="0.23">
<path d="M111.888 255.555C115.579 251.56 127.099 237.412 132.678 233.317C134.691 231.819 141.478 227.959 141.478 227.959L139.076 219.259L117.426 240.029L109.458 250.401L111.888 255.555Z" fill="#212430"/>
</g>
<path d="M95.142 66.2233C95.142 66.2233 108.68 60.3655 116.903 59.5715C122.558 59.0272 126.249 60.3006 126.249 60.3006L129.068 67.2171C129.068 67.2171 128.213 70.5979 125.672 70.7777C124.151 70.8825 121.337 68.855 119.52 68.9449C118.044 69.0148 116.635 72.106 111.096 72.8151C108.859 73.0998 104.703 70.488 102.81 69.8938C101.262 69.3944 97.3924 69.654 97.3924 69.654L95.142 66.2233Z" fill="#2E57AB"/>
<path d="M104.537 66.1684C104.537 64.3806 110.474 63.5017 110.474 63.5017C110.474 63.5017 115.208 63.3419 115.624 64.815C116.04 66.2882 113.601 68.7751 112.38 69.0948C110.022 69.709 104.537 68.3806 104.537 66.1684Z" fill="#EBBF85"/>
<path d="M120.039 64.92C120.29 65.7839 122.442 66.6978 123.453 67.0973C126.191 68.1709 127.551 66.4031 127.251 65.0997C127.01 64.041 126.392 63.6715 125.761 63.3369C124.642 62.7636 123.384 62.6163 122.182 62.9174C120.885 63.3469 119.748 64.0011 120.039 64.92Z" fill="#EBBF85"/>
<path d="M106.761 67.7463L109.991 65.0347L114.456 65.4442L106.761 67.7463Z" fill="#271C16"/>
<path d="M121.355 65.3294L124.119 63.9911L126.652 65.5542L121.355 65.3294Z" fill="#271C16"/>
<path d="M113.382 82.9326C113.53 82.9925 118.988 83.3621 118.988 83.3621L126.07 81.9838L121.784 83.9813L117.104 83.9413L113.382 82.9326Z" fill="#D4CCD4"/>
<path d="M125.896 74.2382L128.115 74.0385L129.05 77.2695L127.296 75.3119L125.896 74.2382Z" fill="#D9A164"/>
<path d="M106.573 81.779L103.66 77.1597L110.358 75.2521L106.886 77.8638L106.573 81.779Z" fill="#D9A164"/>
<g style="mix-blend-mode:overlay" opacity="0.23">
<path d="M62.2767 180.777L58.277 184.792L54.5458 185.686L52.6802 179.433L55.3466 182.115L62.2767 180.777Z" fill="#212430"/>
</g>
<g style="mix-blend-mode:overlay" opacity="0.25">
<path d="M104.658 113.979L81.6665 117.325L98.8597 111.972L104.658 113.979Z" fill="#212430"/>
</g>
<g style="mix-blend-mode:overlay" opacity="0.25">
<path d="M130.956 138.719L119.162 135.373L115.364 136.931L130.956 138.719Z" fill="#212430"/>
</g>
<path d="M97.2939 92.286L99.2938 102.773L99.692 94.0688L97.2939 92.286Z" fill="#D29149"/>
<path d="M105.49 104.111L110.89 114.823L110.161 105.245L105.49 104.111Z" fill="#D29149"/>
<path d="M84.6685 209.042L83.8677 216.852L81.4697 221.537L78.669 228.678L73.4703 227.784L67.3411 222.291L63.8738 219.909L45.3832 208.383C45.665 203.444 56.6887 195.853 61.0866 194.071L66.9832 206.246L71.5824 210.935L75.2778 211.379L81.6755 208.143L84.6685 209.042Z" fill="#E83464"/>
<g style="mix-blend-mode:overlay" opacity="0.45">
<path d="M132.356 196.293L122.759 183.808L107.548 183.364C107.548 183.364 96.7525 193.182 97.1506 194.52C100.349 193.626 110.747 188.273 110.747 188.273L119.543 189.611L132.356 196.293Z" fill="#212430"/>
</g>
<g style="mix-blend-mode:overlay" opacity="0.23">
<path d="M125.453 199.668L121.252 199.893L113.856 196.323L114.854 200.318C114.854 200.318 120.67 202.77 121.851 202.77C122.995 201.656 124.198 200.621 125.453 199.668Z" fill="#212430"/>
</g>
<g style="mix-blend-mode:overlay" opacity="0.23">
<path d="M102.833 197.851L109.365 198.525L113.364 195.474L112.832 199.639C112.832 199.639 108.031 202.021 106.832 202.021C105.231 201.571 102.833 197.851 102.833 197.851Z" fill="#212430"/>
</g>
<g style="mix-blend-mode:overlay" opacity="0.23">
<path d="M139.55 305.488L144.355 307.57L146.753 304.074L147.285 308.759C147.298 309.539 147.161 310.314 146.886 311.032C146.611 311.75 146.203 312.394 145.688 312.924C144.682 311.81 139.55 305.488 139.55 305.488Z" fill="#212430"/>
</g>
<g style="mix-blend-mode:overlay" opacity="0.23">
<path d="M63.0507 304.594L65.735 306.781L70.7995 306.187L65.735 312.729C65.735 312.729 62.8002 313.323 61.5072 311.141C62.1157 309.578 63.0507 304.594 63.0507 304.594Z" fill="#212430"/>
</g>
<g style="mix-blend-mode:overlay" opacity="0.23">
<path d="M144.109 298.227L147.576 297.558L152.108 289.522L150.766 298.152C150.721 300.067 150.452 301.968 149.965 303.805C148.976 302.691 144.109 298.227 144.109 298.227Z" fill="#212430"/>
</g>
<g style="mix-blend-mode:overlay" opacity="0.23">
<path d="M60.8763 292.724L63.3414 296.664L67.8735 296.294C67.8735 296.294 63.8738 300.234 61.4758 302.317C60.4781 301.203 60.8763 292.724 60.8763 292.724Z" fill="#212430"/>
</g>
<g style="mix-blend-mode:overlay" opacity="0.4">
<path d="M39.5896 192.422L46.7613 202.505L61.7623 212.952L52.8413 204.218L48.4121 200.782L39.5896 192.422Z" fill="#212430"/>
</g>
<g style="mix-blend-mode:overlay" opacity="0.25">
<path d="M58.8138 127.812L62.2767 125.136L63.0775 126.624L64.3436 122.419L60.8092 123.647L58.8138 127.812Z" fill="#212430"/>
</g>
<g style="mix-blend-mode:overlay" opacity="0.23">
<path d="M113.829 206.036L124.361 209.756L117.695 210.795L113.829 206.036Z" fill="#212430"/>
</g>
<g style="mix-blend-mode:overlay" opacity="0.23">
<path d="M105.459 209.711L112.496 206.405L110.792 210.974L105.459 209.711Z" fill="#212430"/>
</g>
<g style="mix-blend-mode:overlay" opacity="0.23">
<path d="M87.6304 282.037L78.5707 293.493L72.8038 298.302L82.4988 297.138L100.493 266.116L87.6304 282.037Z" fill="#212430"/>
</g>
<g style="mix-blend-mode:overlay" opacity="0.23">
<path d="M126.083 284.419C130.683 292.229 134.678 295.575 134.678 295.575H139.881L134.016 303.011L130.486 295.35C130.486 295.35 127.681 288.644 126.083 284.419Z" fill="#212430"/>
</g>
<path d="M139.747 217.856C139.747 217.856 119.462 216.682 113.856 216.403C102.927 215.863 82.4674 217.521 82.4674 217.521C82.0162 218.973 81.6823 220.468 81.4697 221.986C97.3968 228.478 109.857 252.483 109.857 252.483L113.038 251.29C113.038 251.29 121.408 241.742 128.607 234.006C137.461 224.483 141.026 224.882 141.026 224.882L139.747 217.856Z" fill="#E83464"/>
<path d="M112.921 31.1166C112.921 31.1166 115.713 33.1741 113.816 35.7009C111.919 38.2278 118.254 35.3164 118.254 35.3164C118.254 35.3164 117.722 29.7783 112.921 31.1166Z" fill="#271C16"/>
<path opacity="0.52" d="M109.19 36.9194C109.19 36.9194 112.536 35.9955 113.324 34.9818C115.668 33.8582 117.046 35.9805 118.039 36.3151C121.104 37.3139 120.54 35.3813 121.404 35.4062C124.066 35.4861 123.171 37.7733 124.169 37.9831C125.247 38.2078 128.249 37.8083 128.249 37.8083C128.249 37.8083 128.884 44.5 127.448 45.5437C126.495 46.2379 124.629 44.6448 122.938 46.2379C122.07 47.0569 121.681 44.1904 118.464 45.289C117.44 45.6386 117.462 41.3939 116.429 41.0693C115.512 40.7796 113.937 42.1929 113.029 41.8533C112.12 41.5137 109.19 36.9194 109.19 36.9194Z" fill="#535251"/>
<g opacity="0.36">
<path opacity="0.36" d="M99.6158 56.2007L99.3743 55.8412L111.848 45.3991C118.33 39.9758 120.348 34.3677 118.021 28.2602L118.393 28.0854C120.8 34.4126 118.737 40.1905 112.089 45.7586L99.6158 56.2007Z" fill="#6B6460"/>
</g>
<g opacity="0.63">
<path opacity="0.63" d="M117.189 55.886C117.162 55.8862 117.136 55.8801 117.111 55.868C117.087 55.856 117.064 55.8383 117.046 55.8161C117.027 55.7956 117.012 55.7712 117.002 55.7442C116.992 55.7172 116.987 55.6881 116.987 55.6588C116.987 55.6295 116.992 55.6005 117.002 55.5735C117.012 55.5464 117.027 55.522 117.046 55.5015C117.18 55.3567 130.374 40.6998 123.31 31.1066C123.277 31.0603 123.262 31.0019 123.267 30.9433C123.272 30.8848 123.297 30.8307 123.337 30.792C123.357 30.7728 123.38 30.7584 123.405 30.7495C123.43 30.7406 123.457 30.7375 123.483 30.7402C123.509 30.743 123.535 30.7517 123.558 30.7658C123.581 30.7798 123.602 30.7989 123.618 30.822C130.929 40.7297 117.476 55.6713 117.355 55.8211C117.333 55.8443 117.307 55.8621 117.278 55.8733C117.25 55.8845 117.22 55.8888 117.189 55.886Z" fill="#6B6460"/>
</g>
<path d="M101.146 77.9187L103.061 82.0686L105.061 86.5331L101.813 84.0112L101.146 77.9187Z" fill="#D9A164"/>
<path d="M119.668 100.117L122.008 102.509L127.658 101.749L128.634 98.5934L119.668 100.117Z" fill="#EBBF85"/>
<path d="M123.6 99.2475L124.576 98.084L125.095 100.047L124.705 100.841L123.6 99.2475Z" fill="#D9A164"/>
<path d="M162.067 332.839C163.069 350.023 165.713 378.393 166.635 382.093C167.131 384.091 169.319 387.956 170.831 390.123C171.896 391.621 181.569 399.796 181.569 399.796V402.698H154.86C154.531 400.821 154.322 398.92 154.233 397.01C154.332 394.108 155.437 389.359 154.439 384.231C153.133 378.378 151.638 374.632 149.24 370.617C147.719 366.487 140.646 353.638 140.646 353.638C140.646 353.638 139.125 346.562 138.047 340.4C144.444 338.023 157.271 334.921 162.067 332.839Z" fill="#E83464"/>
<g style="mix-blend-mode:overlay" opacity="0.23">
<path d="M172.854 121.829L169.53 119.732L167.735 120.666L170.608 123.852L172.854 121.829Z" fill="#212430"/>
</g>
<path d="M37.8984 387.452C39.9206 383.896 41.4775 374.023 41.4775 374.023C45.5756 345.059 46.7075 343.106 49.1056 328.155C52.4386 330.237 71.4482 342.422 71.4482 342.422L67.0414 355.092C67.0414 355.092 54.3176 374.932 51.1725 384.326C48.4882 392.291 49.6961 396.521 49.6961 396.521L49.6156 402.588H22.8169L23.5014 398.303C23.5014 398.303 34.5385 393.354 37.8984 387.452Z" fill="#E83464"/>
<path opacity="0.23" d="M78.5348 213.057L81.7336 215.139L83.899 215.799L84.4001 212.163L80.4004 213.357L78.5348 213.057Z" fill="#6E2430"/>
<path opacity="0.23" d="M176.603 392.291L175.466 399.142L180.195 398.403C180.195 398.403 180.379 398.108 178.598 395.721C177.809 394.674 177.139 393.522 176.603 392.291Z" fill="#6E2430"/>
<g style="mix-blend-mode:overlay" opacity="0.23">
<path d="M114.885 252.728C114.885 252.728 122.885 270.806 126.482 276.608C124.084 269.687 117.288 249.607 117.288 249.607L114.885 252.728Z" fill="#212430"/>
</g>
<path d="M152.757 52.7748C152.757 52.7748 176.71 39.4513 183.336 33.5785C191.228 26.5872 208.891 0.83397 208.891 0.83397L216.336 0C216.336 0 222.648 15.8554 226.746 18.9067C238.106 27.3313 256.203 25.0041 256.203 25.0041L264.345 26.2826L259.178 66.1334L262.309 190.195L238.307 250.72L230.701 249.827L187.197 209.377L160.622 100.426L152.757 52.7748Z" fill="#D95225"/>
<path d="M157.651 53.6039C157.651 53.6039 184.991 41.304 191.98 34.7871C199.433 27.8357 214.148 3.9951 216.08 0.464461C216.109 0.406504 216.149 0.356598 216.197 0.318617C216.245 0.280637 216.301 0.255603 216.359 0.24546C216.418 0.235317 216.477 0.240337 216.534 0.26013C216.59 0.279923 216.642 0.313957 216.684 0.35959C218.716 2.457 230.643 17.6582 236.71 21.0041C243.018 24.4998 264.345 26.2826 264.345 26.2826L269.329 76.3558C269.329 76.3558 269.329 76.4157 269.329 76.4407L270 187.603L241.497 248.993C241.454 249.105 241.376 249.195 241.277 249.247L238.548 250.596C238.473 250.634 238.388 250.643 238.307 250.622C238.227 250.601 238.154 250.552 238.101 250.481L193.926 206.985L166.921 101.719C166.917 101.686 166.917 101.653 166.921 101.62L157.651 53.6039Z" fill="#F39314"/>
<path d="M199.201 208.463L171.784 102.648L162.604 55.2967C172.165 50.5676 188.638 43.5312 194.096 38.1479C200.565 31.7658 211.911 12.6494 217.306 4.02002C223.633 11.4009 231.337 21.079 236.262 23.7756C241.832 26.8219 255.576 27.7407 262.788 28.4898L267.781 78.3682L268.465 186.734L239.882 246.735L199.201 208.463Z" fill="#F4C121"/>
<path opacity="0.17" d="M266.962 133.645L267.101 124.601C267.101 124.601 249.541 132.496 240.674 135.393C238.387 76.4956 221.239 11.9852 221.239 11.9852L216.107 18.8268C216.107 18.8268 230.254 78.5281 234.665 136.966C220.586 139.303 182.893 136.417 182.893 136.417L185.47 147.218C185.47 147.218 220.367 147.653 235.13 145.221C235.242 146.429 237.475 244.953 237.475 244.953L241.273 241.891C241.273 241.891 243.107 174.475 240.987 143.982C249.42 141.006 266.962 133.645 266.962 133.645Z" fill="white"/>
</svg>
