<svg class="heroes_img" width="813" height="538" viewBox="0 0 813 538" fill="none" xmlns="http://www.w3.org/2000/svg">
<style>
.splash1 {
    animation-name: anim1, anim2;
    animation-duration: 2s;
    animation-iteration-count: infinite;
    animation-timing-function: ease-in-out;
}
.splash2 {
    animation-name: anim2;
    animation-duration: 2s;
    animation-delay: .1s;
    animation-iteration-count: infinite;
    animation-timing-function: ease;
}

.particle {
    animation-name: anim3;
    animation-duration: 2s;
    animation-delay: .1s;
    animation-iteration-count: infinite;
    animation-timing-function: ease;
}

.men {
    animation-name: anim4;
    animation-duration: 2s;
    animation-delay: .1s;
    animation-iteration-count: infinite;
    animation-timing-function: ease;
}

.girl {
    animation-name: anim5;
    animation-duration: 2s;
    animation-delay: .1s;
    animation-iteration-count: infinite;
    animation-timing-function: ease;
}

.bug1 {
    animation-name: anim6;
    animation-duration: 2s;
    animation-delay: .1s;
    animation-iteration-count: infinite;
    animation-timing-function: ease;
}

.bug2 {
    animation-name: anim7;
    animation-duration: 2s;
    animation-delay: .1s;
    animation-iteration-count: infinite;
    animation-timing-function: ease;
}

<!-- #leg {
    animation-name: anim8;
    animation-duration: 2s;
    animation-delay: .1s;
    animation-iteration-count: infinite;
    animation-timing-function: ease;
}

@keyframes anim8 {
 from {

 }
 to {
transform: scale(-1)
 }
} -->

@keyframes anim7 {
    0% {
        transform: translate3d(0, 0, 0);
      }
      50%{
        transform: translate3d(6%, 10%, 0);
      }
       100%{
        transform: translate3d(0, 0, 0);
      }
}

@keyframes anim6 {
    0% {
        transform: translate3d(1%, 0, 0);
      }
      50%{
        transform: translate3d(3%, -3%, 0);
        transform: rotateZ(-3deg);
      }
       100%{
        transform: translate3d(1%, 0, 0);
      }
}

@keyframes anim5 {
    0% {
        transform: translate3d(1%, 0, 0);
      }
      50%{
        transform: translate3d(-2%, 0, 0);
      }
       100%{
        transform: translate3d(1%, 0, 0);
      }
}

@keyframes anim4 {
    0% {
        transform: translate3d(1%, 0, 0);
      }
      50%{
        transform: translate3d(15%, 0, 0);
      }
       100%{
        transform: translate3d(1%, 0, 0);
      }
}

@keyframes anim3 {
    0% {
        transform: translate3d(1%, 0, 0);
      }
      50%{
        transform: translate3d(3%, -10%, 0);
        transform: rotateZ(-90deg);
      }
       100%{
        transform: translate3d(1%, 0, 0);
      }
}

@keyframes anim1 {
    from {
            fill: orange;
      }
      to{
            fill: #fe62ce;
      }
          0% {
        transform: translate3d(1%, 0, 0);
      }
      50%{
        transform: translate3d(15%, 0, 0);
      }
       100%{
        transform: translate3d(1%, 0, 0);
      }
}
@keyframes anim2 {
    from {
            fill: orange;
      }
      to{
            fill: #fe62ce;
      }
          0% {
        transform: translate3d(1%, 0, 0);
      }
      50%{
        transform: translate3d(15%, 0, 0);
      }
       100%{
        transform: translate3d(1%, 0, 0);
      }
}
</style>
<g  opacity="0.65">
<path class="men" opacity="0.65" d="M311.544 223.033L312.007 217.625L385.899 204.106L385.372 209.061L311.544 223.033ZM313.202 218.795L312.977 221.391L384.184 207.911L384.415 205.748L313.202 218.795Z" fill="#547DD1"/>
<path class="men" opacity="0.65" d="M310.471 235.532L310.934 230.158L384.698 215.246L384.171 220.187L310.471 235.532ZM312.122 231.294L311.904 233.849L383.001 219.052L383.226 216.916L312.122 231.294Z" fill="#547DD1"/>
</g>
<path class="men"  fill-rule="evenodd" clip-rule="evenodd" d="M340.291 207.344C348.002 206.08 355.989 206.539 368.563 210.899C377 213.82 385.16 214.117 393.622 217.037C399.906 215.557 411.453 214.374 417.737 212.894C434.205 212.63 450.622 222.04 452.158 234.802C452.846 240.548 436.441 249.383 435.484 254.818C431.269 273.975 422.935 289.969 408.022 300.717C403.472 308.829 402.02 311.364 397.741 319.482C390.904 332.583 384.029 340.525 382.538 346.778C381.073 354.072 383.181 363.779 383.271 374.054C378.998 378.462 375.38 385.674 367.554 390.751C361.444 394.719 349.441 392.062 341.685 391.893C334.213 391.731 324.6 382.369 317.423 381.983C316.511 366.017 318.001 352.098 317.282 337.504C311.557 309.789 303.249 288.157 304.553 263.538C304.861 249.16 300.396 233.862 306.275 224.331C312.668 213.975 328.552 209.257 340.291 207.344Z" fill="#2E57AB"/>
<g class="men" style="mix-blend-mode:overlay" opacity="0.23">
<path  fill-rule="evenodd" clip-rule="evenodd" d="M337.663 218.788C336.429 220.018 327.472 210.933 325.943 210.872C328.205 209.906 337.772 207.756 340.31 207.344C347.539 206.161 354.986 206.485 366.224 210.102C355.262 210.352 345.245 211.217 337.663 218.788Z" fill="#212430"/>
</g>
<path class="men" fill-rule="evenodd" clip-rule="evenodd" d="M466.359 515.354C467.001 518.058 467.162 519.579 466.674 521.857C466.095 524.751 464.341 526.691 464.245 529.78C464.238 530.709 464.415 531.63 464.765 532.484C465.041 533.095 465.474 533.613 466.014 533.981C466.554 534.349 467.181 534.551 467.824 534.566H502.714C503.607 534.433 504.419 533.948 504.984 533.208C505.55 532.469 505.827 531.531 505.759 530.584C505.316 525.954 503.343 526.123 499.475 525.643C496.905 525.325 495.819 524.811 491.296 522.669C488.173 521.181 485.102 519.87 482.403 518.281C480.097 516.915 478.021 515.156 476.26 513.076C473.395 513.746 469.224 514.692 466.359 515.354Z" fill="#E83464"/>
<path class="men" fill-rule="evenodd" clip-rule="evenodd" d="M301.038 457.423C285.533 458.322 285.533 458.322 273.338 463.419C261.566 477.202 245.233 501.45 235.787 516.916C242.213 517.774 244.423 518.099 250.058 518.268C262.524 507.378 273.453 499.962 285.681 494.162C295.525 489.491 302.567 486.199 317.346 482.326C320.763 481.562 323.767 479.437 325.731 476.398C319.106 470.253 307.592 463.588 301.038 457.423Z" fill="#2E57AB"/>
<path class="men" fill-rule="evenodd" clip-rule="evenodd" d="M290.757 457.524C284.885 457.991 280.213 460.533 273.293 463.419C261.522 477.202 245.188 501.45 235.743 516.916C242.168 517.775 244.379 518.099 250.014 518.268C262.479 507.378 273.409 499.963 285.636 494.163C288.412 492.844 290.963 491.641 293.527 490.499L286.941 479.446L290.757 457.524Z" fill="#E83464"/>
<path class="men" fill-rule="evenodd" clip-rule="evenodd" d="M351.619 390.041C348.515 416.404 342.996 439.219 335.857 454.847C332.824 461.499 330.717 467.691 327.273 473.66C326.707 474.647 326.168 475.654 325.557 476.6C324.034 475.188 322.788 474.025 321.406 472.754C316.568 468.32 305.542 462.56 300.203 457.639C301.7 439.78 303.364 415.728 303.364 415.728C303.364 415.728 310.856 381.672 314.551 370.438C327.633 369.762 347.609 367.321 351.619 390.041Z" fill="#2E57AB"/>
<path class="men" fill-rule="evenodd" clip-rule="evenodd" d="M379.859 365.429C405.432 373.926 427.298 389.088 451.181 412.585C451.033 420.278 445.507 428.545 435.484 433.608C415.404 425.848 402.945 419.568 389.786 411.301C382.075 406.447 367.194 397.328 355.635 386.289C361.071 380.179 367.657 373.669 379.859 365.429Z" fill="#2E57AB"/>
<path class="men" fill-rule="evenodd" clip-rule="evenodd" d="M451.176 412.544C452.968 415.005 454.922 420.589 456.958 426.436C459.882 434.94 463.043 445.938 464.984 450.879C469.771 470.571 474.404 497.813 480.366 517.071C477.321 517.491 471.268 518.268 466.976 517.274C463.063 509.892 459.786 504.12 455.93 496.995C447.834 482.056 442.835 476.614 432.156 464.108C430.646 450.474 432.304 438.495 434.726 427.369C440.471 422.326 445.341 417.608 451.176 412.544Z" fill="#2E57AB"/>
<g  style="mix-blend-mode:overlay" opacity="0.23">
<path class="men" fill-rule="evenodd" clip-rule="evenodd" d="M431.584 456.848C431.365 448.467 432.088 440.087 433.736 431.884L433.923 431.6L443.111 458.146L431.584 456.848Z" fill="#212430"/>
</g>
<path class="men" fill-rule="evenodd" clip-rule="evenodd" d="M465.375 452.231C469.815 471.476 475.013 499.415 480.507 517.166C477.975 518.133 471.408 519.079 467.11 518.079C455.493 496.15 448.476 483.239 432.104 464.135C431.571 459.302 431.789 457.768 431.583 453.448L453.539 457.93L465.375 452.231Z" fill="#E83464"/>
<g class="men" style="mix-blend-mode:overlay" opacity="0.23">
<path fill-rule="evenodd" clip-rule="evenodd" d="M300.248 457.41C301.726 439.672 303.39 415.762 303.39 415.762C303.39 415.762 311.165 380.436 314.859 369.187C320.816 365.016 326.425 368.045 335.716 370.891C329.117 383.153 324.574 393.32 321.124 405.035C315.572 423.874 312.861 441.348 310.978 462.094L300.248 457.41Z" fill="#212430"/>
</g>
<path class="men" fill-rule="evenodd" clip-rule="evenodd" d="M236.077 516.321C233.777 520.436 231.472 524.55 229.163 528.664C228.958 530.652 228.746 532.416 228.521 534.397C238.024 534.322 247.521 534.471 257.024 534.397C256.81 531.828 256.595 529.257 256.381 526.684L250.097 517.896L236.077 516.321Z" fill="#E83464"/>
<path class="men" fill-rule="evenodd" clip-rule="evenodd" d="M431.655 215.097C439.596 213.367 472.006 210.027 472.006 210.027C472.006 210.027 500.098 212.826 507.314 213.941L529.161 202.686L533.228 249.329C533.228 249.329 516.721 247.422 511.471 248.937C489.297 255.352 450.648 268.777 431.687 267.864C430.62 254.365 432.689 228.61 431.655 215.097Z" fill="#2E57AB"/>
<path class="men" fill-rule="evenodd" clip-rule="evenodd" d="M529.141 202.686C529.141 202.686 552.067 192.195 614.028 193.79L660.985 181.217C660.985 181.217 697.372 215.557 690.985 229.536C685.523 241.501 670.546 259.178 659.134 263.186C654.097 260.293 647.523 256.278 643.919 252.411C639.614 254.257 634.724 254.223 630.541 254.892C627.572 252.553 625.317 250.302 620.716 245.381C618.66 241.284 608.72 232.463 606.439 229.536C582.228 239.709 539.377 249.592 539.377 249.592L532.309 249.41L529.141 202.686Z" fill="#E83464"/>
<g class="men" style="mix-blend-mode:overlay" opacity="0.23">
<path d="M512.306 239.345L453.501 264.099C468.209 260.658 513.167 248.308 513.167 248.308C513.167 248.308 528.685 247.727 532.238 248.41L541.112 248.22C541.112 248.22 582.234 239.71 606.426 229.536C608.707 232.463 618.634 241.285 620.703 245.381C623.23 248.193 625.896 250.863 628.69 253.378L612.864 215.097L512.306 239.345Z" fill="#212430"/>
</g>
<g class="men" style="mix-blend-mode:overlay" opacity="0.23">
<path d="M662.296 223.628L640.925 227.177L645.667 251.965L665.226 234.424L662.296 223.628Z" fill="#212430"/>
</g>
<path class="men" fill-rule="evenodd" clip-rule="evenodd" d="M322.602 207.168C306.982 204.376 296.9 212.319 285.334 220.688C267.497 220.938 265.981 222.648 252.481 230.388C234.329 230.929 226.953 238.851 222.596 244.996C239.302 251.857 246.319 264.417 265.287 263.977C284.107 263.545 305.902 259.056 322.306 250.863C329.464 247.294 336.256 243.015 339.713 237.033C341.056 234.907 342.043 232.554 342.63 230.077C344.442 221.201 340.233 210.311 322.602 207.168Z" fill="#2E57AB"/>
<g style="mix-blend-mode:overlay" opacity="0.23">
<path class="men" fill-rule="evenodd" clip-rule="evenodd" d="M248.992 230.685C238.602 231.131 230.14 235.201 223.875 242.582C233.513 241.852 254.717 241.305 260.873 241.014C275.908 242.907 291.258 243.799 306.294 245.692C306.187 242.132 306.08 238.567 305.973 234.998C292.878 234.065 292.274 237.844 281.678 229.82C269.997 240.372 257.557 235.647 248.992 230.685Z" fill="#212430"/>
</g>
<g style="mix-blend-mode:overlay" opacity="0.23">
<path class="men" fill-rule="evenodd" clip-rule="evenodd" d="M431.655 267.878C434.36 258.948 435.118 250.755 436.467 241.515C439.821 247.382 441.691 258.746 441.389 265.492C437.855 266.208 435.054 267.216 431.655 267.878Z" fill="#212430"/>
</g>
<g class="men" style="mix-blend-mode:overlay" opacity="0.23">
<path fill-rule="evenodd" clip-rule="evenodd" d="M423.725 213.252C429.463 216.706 432.355 219.376 436.576 224.324C445.154 220.87 475.675 211.548 475.675 211.548C475.675 211.548 447.474 213.008 437.495 215.874C432.168 213.258 429.662 213.536 423.725 213.252Z" fill="#212430"/>
</g>
<g class="men" style="mix-blend-mode:overlay" opacity="0.23">
<path fill-rule="evenodd" clip-rule="evenodd" d="M362.389 391.927C383.65 410.449 408.716 423.59 435.915 433.838C406.486 415.918 394.015 406.745 369.219 383.22C367.159 386.303 364.875 389.214 362.389 391.927Z" fill="#212430"/>
</g>
<g class="men" style="mix-blend-mode:overlay" opacity="0.23">
<path fill-rule="evenodd" clip-rule="evenodd" d="M442.23 455.611L445.199 464.183L470.194 518.525L466.454 523.04C466.968 519.856 466.911 518.87 466.808 517.632C455.544 496.386 448.174 482.887 432.11 464.122C431.577 459.289 431.796 457.754 431.59 453.435L442.23 455.611Z" fill="#212430"/>
</g>
<g class="men" opacity="0.23">
<g style="mix-blend-mode:overlay" opacity="0.23">
<path fill-rule="evenodd" clip-rule="evenodd" d="M242.445 507.574C252.61 495.771 264.677 483.631 274.206 474.498L310.445 461.844C309.591 461.033 301.925 458.281 301.006 457.423C286.922 458.146 285.502 458.322 273.306 463.419C263.507 474.91 250.547 493.622 241.025 508.5L242.445 507.574Z" fill="#6E2430"/>
</g>
<path class="" opacity="0.23" fill-rule="evenodd" clip-rule="evenodd" d="M242.444 507.576C252.609 495.773 264.676 483.633 274.205 474.5L288.778 469.41L290.77 457.526C284.897 457.993 280.226 460.534 273.306 463.421C263.507 474.912 250.547 493.623 241.024 508.502L242.444 507.576Z" fill="#6E2430"/>
</g>
<path class="men" fill-rule="evenodd" clip-rule="evenodd" d="M245.324 267.729L255.418 266.235C256.02 268.752 256.747 271.234 257.596 273.671C253.328 272.124 249.217 270.134 245.324 267.729Z" fill="#0A4780"/>
<path class="men" d="M400.176 236.654L384.633 248.308L362.144 233.91L353.373 216.409L345.823 216.99L356.001 240.332L387.807 259.732C387.807 259.732 409.724 238.398 409.891 237.499L402.367 221.952L397.869 227.508L400.176 236.654Z" fill="#E83464"/>
<path class="men"  d="M344.191 316.048L373.838 333.516L392.736 319.063C392.736 319.063 416.882 282.56 423.725 269.967C418.9 264.106 409.14 256.123 409.14 256.123L386.323 271.068L343.028 235.275C343.028 235.275 333.879 247.903 325.924 250.512C349.653 279.261 344.191 316.048 344.191 316.048Z" fill="#E83464"/>
<g class="men" style="mix-blend-mode:overlay" opacity="0.45">
<path d="M386.702 336.639L374.384 321.517L354.883 320.983C354.883 320.983 341.023 332.86 341.537 334.502C345.643 333.421 358.989 326.938 358.989 326.938L370.278 328.561L386.702 336.639Z" fill="#212430"/>
</g>
<g class="men" style="mix-blend-mode:overlay" opacity="0.23">
<path d="M377.841 340.742L372.45 341.012L362.953 336.693L364.238 341.553C364.238 341.553 371.679 344.527 373.234 344.527C374.696 343.169 376.234 341.905 377.841 340.742Z" fill="#212430"/>
</g>
<g class="men" style="mix-blend-mode:overlay" opacity="0.23">
<path d="M348.805 338.552L357.158 339.356L362.299 335.672L361.643 340.694C361.643 340.694 355.481 343.574 353.933 343.574C351.889 343.047 348.805 338.552 348.805 338.552Z" fill="#212430"/>
</g>
<g class="men" style="mix-blend-mode:overlay" opacity="0.23">
<path d="M362.928 348.448L376.441 352.95L367.888 354.207L362.928 348.448Z" fill="#212430"/>
</g>
<g class="men" style="mix-blend-mode:overlay" opacity="0.23">
<path d="M352.178 352.896L361.212 348.901L359.021 354.424L352.178 352.896Z" fill="#212430"/>
</g>
<path class="men" fill-rule="evenodd" clip-rule="evenodd" d="M357.196 216.821C357.974 220.606 362.137 226.704 364.329 230.063C366.031 232.672 383.688 242.075 383.688 242.075L396.7 236.877L396.282 233.91L403.588 219.518L380.341 181.217L357.196 216.821Z" fill="#E9AD69"/>
<path class="men" opacity="0.85" d="M372.495 186.706L368.286 205.113L381.317 226.21L398.042 229.536L405.29 217.449L410.296 217.7L392.035 203.22L372.495 186.706Z" fill="#D29149"/>
<path class="men" d="M374.647 172.828C374.557 173.551 374.442 175.241 373.169 175.41C373.224 177.794 373.439 180.17 373.812 182.522C375.38 192.695 375.437 194.534 376.382 201.212C378.747 207.641 377.41 212.576 378.477 215.989C379.633 216.436 386.187 220.985 389.355 221.985C396.635 223.236 404.693 224.013 408.239 223.743C408.715 223.601 411.028 222.459 415.224 220.789C416.644 217.882 417.306 213.231 418.938 208.331C417.453 205.106 416.078 195.135 415.551 193.344C415.911 191.634 416.387 189.964 416.753 187.355C416.2 184.746 414.626 179.209 413.919 176.012L413.393 163.783C413.393 163.783 413.495 160.072 413.849 159.626C400.15 153.988 380.854 154.286 374.647 172.828Z" fill="#EBBF85"/>
<path class="men" d="M412.442 179.304L415.109 187.646L412.237 188.403L409.84 187.727L406.389 185.611L405.419 181.832L406.075 177.35L412.442 179.304Z" fill="#D9A164"/>
<path class="men" d="M409.114 134.574C408.58 137.15 407.899 142.01 401.551 142.869C391.27 144.22 385.378 147.1 379.917 148.77C376.558 150.529 373.335 152.564 370.278 154.854C368.621 161.478 371.197 165.284 371.197 165.284C370.87 168.596 372.611 173.294 373.234 178.804C374.519 178.628 377.089 179.094 377.166 178.378C378.31 172.97 378.156 168.846 381.022 164.926C383.457 164.588 386.342 163.946 390.801 164.615C396.796 166.677 403.652 171.125 413.978 165.514C421.418 158.889 428.384 142.862 409.114 134.574Z" fill="#271C16"/>
<path class="men" d="M369.237 176.708C370.368 173.578 372.694 174.68 373.607 175.235C374.273 175.615 374.84 176.161 375.258 176.826C375.675 177.491 375.932 178.254 376.003 179.047C376.196 180.304 376.511 182.157 376.003 183.286L374.384 190.992L371.814 189.816C371.814 189.816 368.665 178.31 369.237 176.708Z" fill="#EBBF85"/>
<path class="men" d="M413.464 178.04L408.298 174.194L405.869 177.148L413.04 179.635L413.464 178.04Z" fill="#3D332D"/>
<path class="men" d="M398.454 190.072L407.161 190.66L404.353 193.459L401.975 193.986L398.454 190.072Z" fill="#D29149"/>
<path class="men" d="M395.248 175.546L399.431 176.505L398.589 181.487L395.948 185.895L388.264 183.008L386.323 180.48L386.779 176.837L395.248 175.546Z" fill="#D9A164"/>
<path class="men" d="M393.23 178.554L397.387 179.027L397.901 180.48L388.54 180.893L393.23 178.554Z" fill="#483331"/>
<path class="men" d="M387.666 175.045L398.332 172.524L399.264 176.539L387.364 177.438L387.666 175.045Z" fill="#3D332D"/>
<path class="men" d="M406.338 180.426L409.075 180.385L411.979 182.616L405.728 181.501L406.338 180.426Z" fill="#483331"/>
<path class="men" d="M375.618 182.697C375.246 181.075 371.699 177.012 371.699 177.012L371.236 180.02L372.521 187.044L373.929 185.692L375.856 188.247C375.856 188.247 374.044 183.468 375.618 182.697Z" fill="#D9A164"/>
<path class="men" d="M399.854 210.271L406.518 210.994L404.635 212.826L402.315 212.664L399.854 210.271Z" fill="#D9A164"/>
<path class="men" d="M374.019 175.262C374.019 175.262 392.325 171.544 402.869 172.558C410.123 173.234 414.531 175.667 414.531 175.667L416.697 184.604C416.697 184.604 414.923 188.423 411.678 188.024C409.751 187.788 406.596 184.692 404.283 184.36C402.406 184.09 399.99 187.429 392.852 186.943C389.986 186.746 385.25 182.637 382.982 181.474C381.125 180.521 376.184 179.885 376.184 179.885L374.019 175.262Z" fill="#2E57AB"/>
<path class="men" d="M385.886 177.452C386.246 175.322 393.93 175.701 393.93 175.701C393.93 175.701 399.938 176.654 400.163 178.506C400.388 180.358 396.796 182.731 395.19 182.819C392.08 182.988 385.436 180.088 385.886 177.452Z" fill="#EBBF85"/>
<path class="men" d="M405.715 179.716C405.856 180.805 408.388 182.42 409.57 183.13C412.783 185.063 414.884 183.286 414.775 181.65C414.735 181.139 414.575 180.648 414.31 180.219C414.044 179.791 413.68 179.439 413.252 179.196C411.959 178.252 410.409 177.778 408.837 177.844C407.115 178.026 405.56 178.533 405.715 179.716Z" fill="#EBBF85"/>
<path class="men" d="M387.859 178.486L391.386 177.607L397.028 178.608L397.895 180.548L387.859 178.486Z" fill="#271C16"/>
<path class="men" d="M408.445 181.406L409.229 180.338C409.305 180.237 409.403 180.157 409.515 180.104C409.627 180.051 409.749 180.027 409.871 180.034L414.048 180.805L408.445 181.406Z" fill="#271C16"/>
<path class="men" d="M411.208 192.195L414.054 192.492L414.575 196.562L412.757 193.81L411.208 192.195Z" fill="#D9A164"/>
<path class="men" d="M384.633 198.887L381.896 192.688L390.75 192.033L385.828 194.304L384.633 198.887Z" fill="#D9A164"/>
<path class="men" d="M403.652 137.738C403.652 137.738 406.755 140.854 403.825 143.403C400.895 145.951 409.512 144.018 409.512 144.018C409.512 144.018 409.987 137.299 403.652 137.738Z" fill="#271C16"/>
<path class="men" opacity="0.52" d="M397.754 143.747C397.754 143.747 402.168 143.45 403.37 142.436C406.583 141.665 407.868 144.538 409.056 145.14C412.719 147.053 412.404 144.626 413.49 144.87C416.838 145.6 415.238 148.107 416.452 148.594C417.737 149.121 421.644 149.372 421.644 149.372C421.644 149.372 421.078 157.483 419.074 158.389C417.731 158.984 415.694 156.638 413.233 158.126C411.948 158.896 412.064 155.422 407.771 155.922C406.403 156.091 407.302 151.041 406.069 150.406C404.963 149.845 402.689 151.143 401.609 150.527C400.53 149.912 397.754 143.747 397.754 143.747Z" fill="#535251"/>
<g opacity="0.36">
<path opacity="0.36" d="M381.709 164.399L381.478 163.919L399.373 154.455C408.67 149.554 412.371 143.369 410.681 135.528L411.183 135.413C412.93 143.524 409.139 149.906 399.617 154.935L381.709 164.399Z" fill="#6B6460"/>
</g>
<g class="men" opacity="0.63">
<path opacity="0.63" d="M403.967 168.252C403.9 168.236 403.84 168.195 403.8 168.137C403.762 168.077 403.749 168.003 403.762 167.933C403.775 167.862 403.814 167.799 403.87 167.758C404.07 167.616 423.738 153.347 416.76 140.226C416.743 140.195 416.732 140.16 416.727 140.125C416.723 140.089 416.725 140.053 416.734 140.019C416.743 139.984 416.758 139.952 416.779 139.923C416.8 139.895 416.826 139.871 416.856 139.854C416.886 139.836 416.919 139.825 416.953 139.821C416.987 139.816 417.022 139.82 417.055 139.83C417.087 139.84 417.118 139.857 417.145 139.879C417.171 139.902 417.193 139.93 417.21 139.962C424.412 153.482 404.359 168.063 404.159 168.205C404.102 168.243 404.034 168.26 403.967 168.252Z" fill="#6B6460"/>
</g>
<path class="men" d="M379.191 193.29L380.759 198.691L382.372 204.484L378.786 200.705L379.191 193.29Z" fill="#D9A164"/>
<path class="men" d="M398.043 221.505L400.504 224.919L407.803 225.372L409.68 221.85L398.043 221.505Z" fill="#EBBF85"/>
<path class="men" d="M403.189 221.417L404.654 220.268L404.911 222.722L404.256 223.581L403.189 221.417Z" fill="#D9A164"/>
<path class="men" fill-rule="evenodd" clip-rule="evenodd" d="M411.125 199.739C406.852 199.644 401.082 199.976 397.182 198.441C391.515 196.21 390.377 196.21 388.186 196.21L388.398 199.59C388.124 200.484 387.932 201.403 387.827 202.335C394.374 203.93 397.407 205.417 407.431 203.903C408.773 202.247 409.48 201.557 411.125 199.739Z" fill="white"/>
<path class="men" d="M389.382 198.779L394.265 199.523L398.191 201.307L394.13 200.375L389.382 199.475V198.779Z" fill="#D4CCD4"/>
<g class="men" style="mix-blend-mode:overlay" opacity="0.23">
<path fill-rule="evenodd" clip-rule="evenodd" d="M338.223 371.641C332.035 373.615 323.656 369.18 317.456 365.888C316.608 351.017 318.04 352.774 317.282 337.497C311.692 310.424 303.628 289.104 304.476 265.167L325.841 254.96C327.126 263.342 329.054 279.356 331.881 287.082C337.143 292.835 346.319 296.735 354.254 299.318C356.477 299.692 358.719 299.918 360.969 299.994C352.307 304.415 343.62 305.151 335.1 308.281C332.703 332.008 341.757 349.658 338.223 371.641Z" fill="#212430"/>
</g>
<path class="men" fill-rule="evenodd" clip-rule="evenodd" d="M342.321 271.17C334.372 268.232 326.269 265.779 318.052 263.822C300.607 256.501 283.875 248.382 266.649 240.473C247.777 234.734 235.44 238.824 223.836 242.582C221.234 245.043 222.519 251.539 225.802 256.183C232.594 265.789 247.687 274.962 251.369 276.997C270.26 277.355 286.266 278.105 304.578 275.023C305.002 277.551 306.21 279.721 306.988 281.898C309.184 283.192 311.544 284.15 313.998 284.743C314.717 287.366 315.052 288.955 315.861 291.273L325.307 294.856C331.398 293.437 336.442 292.504 342.527 291.091C343.034 284.899 343.446 277.862 342.321 271.17Z" fill="#E83464"/>
<g class="men" style="mix-blend-mode:overlay" opacity="0.4">
<path fill-rule="evenodd" clip-rule="evenodd" d="M227.788 258.684L252.044 262.497L302.966 275.293C285.335 278.058 269.734 277.321 251.415 276.997C248.028 275.124 235.165 267.337 227.788 258.684ZM304.694 275.124C311.537 276.97 318.426 278.795 325.416 280.106L325.622 286.447L319.37 287.123L317.102 291.726L315.9 291.274C315.091 288.955 314.757 287.366 314.037 284.744C311.601 284.13 309.24 283.223 307.001 282.04C305.821 279.91 305.039 277.563 304.694 275.124Z" fill="#212430"/>
</g>
<path class="men" fill-rule="evenodd" clip-rule="evenodd" d="M245.778 237.756C237.554 238.216 230.666 240.46 224.016 242.63C221.445 245.09 222.698 251.587 225.982 256.231C228.982 260.469 233.589 264.619 238.119 268.108C237.425 255.784 239.154 245.678 245.778 237.756Z" fill="#2E57AB"/>
<path class="men" fill-rule="evenodd" clip-rule="evenodd" d="M380.797 360.474C363.847 365.956 334.978 362.894 317.186 357.905C315.817 361.589 314.577 370.438 314.577 370.438C314.577 370.438 333.378 369.647 344.699 382.017C348.362 386.012 349.84 390.731 351.472 392.576C355.526 392.914 359.092 393.063 362.69 392.373C366.096 389.852 377.97 370.438 380.797 360.474Z" fill="#E83464"/>
<g class="men" style="mix-blend-mode:overlay" opacity="0.23">
<path fill-rule="evenodd" clip-rule="evenodd" d="M409.14 298.817L392.736 303.482L403.531 307.051L409.14 298.817Z" fill="#212430"/>
</g>
<g class="men" style="mix-blend-mode:overlay" opacity="0.16">
<path d="M430.459 239.561L426.565 237.729L377.429 284.669L333.666 237.459L324.426 242.319L383.765 330.656L436.357 241.183L430.459 239.561Z" fill="white"/>
</g>
<g class="men" style="mix-blend-mode:overlay" opacity="0.39">
<path d="M422.556 264.099L419.908 272.826L411.009 285.426L374.57 282.188L393.68 289.996L408.985 294.423C410.126 294.425 411.245 294.089 412.213 293.453C413.182 292.817 413.96 291.907 414.46 290.827L422.331 273.928L422.556 264.099Z" fill="#262935"/>
</g>
<path class="men" d="M361.238 215.023L368.164 227.981L367.233 216.395L361.238 215.023Z" fill="#D29149"/>
<path class="men" d="M377.693 225.879L380.257 238.567L380.771 228.036L377.693 225.879Z" fill="#D29149"/>







<path class="girl" fill-rule="evenodd" clip-rule="evenodd" d="M284.737 516.875L284.255 525.075L283.349 530.936L287.538 534.573H323.611L324.742 531.835L324.26 529.699L307.406 522.391L298.128 513.759L284.737 516.875Z" fill="#E83464"/>
<path class="girl" fill-rule="evenodd" clip-rule="evenodd" d="M126.015 460.559L109.952 464.325C109.952 464.325 64.1835 502.68 54.7317 518.146C61.1571 518.998 61.6262 519.539 67.2613 519.728C79.7202 508.838 111.597 488.795 136.296 483.57C139.703 482.804 142.696 480.682 144.649 477.648C138.095 471.483 126.015 460.559 126.015 460.559Z" fill="#2E57AB"/>
<path class="girl" fill-rule="evenodd" clip-rule="evenodd" d="M109.958 464.325L92.854 468.894C92.854 468.894 64.1708 502.693 54.719 518.146C61.1444 518.998 61.6135 519.539 67.2486 519.728C79.7075 508.838 108.448 493.75 111.012 492.608L107.414 484.185L109.958 464.325Z" fill="#E83464"/>
<path class="girl" fill-rule="evenodd" clip-rule="evenodd" d="M176.866 390.92C173.763 417.283 161.979 440.449 154.846 456.078C151.807 462.723 149.706 468.921 146.262 474.89C145.69 475.87 145.15 476.918 144.546 477.831C143.023 476.418 141.777 475.255 140.389 473.984C135.551 469.543 131.31 465.71 125.996 460.783C127.493 442.93 126.125 433.155 127.352 420.758C128.637 407.968 131.65 376.947 135.345 365.699C144.315 360.298 172.375 365.084 176.866 390.92Z" fill="#2E57AB"/>
<path class="girl" fill-rule="evenodd" clip-rule="evenodd" d="M196.805 361.826C222.378 370.323 246.28 390.352 270.138 413.815C269.99 421.508 264.464 429.775 254.434 434.838C234.355 427.078 221.896 420.798 208.737 412.531C201.026 407.677 186.145 398.558 174.592 387.52C180.053 381.409 184.603 370.066 196.805 361.826Z" fill="#2E57AB"/>
<path class="girl" fill-rule="evenodd" clip-rule="evenodd" d="M286.157 462.574C284.923 456.632 284.152 452.779 284.152 452.779C284.152 452.779 278.851 436.163 275.921 427.666C273.91 421.819 271.95 416.236 270.138 413.775C264.297 418.831 259.446 423.556 253.612 428.613C251.684 437.461 254.017 455.544 255.038 462.574H286.157Z" fill="#2E57AB"/>
<g class="girl" style="mix-blend-mode:overlay" opacity="0.23">
<path fill-rule="evenodd" clip-rule="evenodd" d="M254.729 459.377C253.714 451.664 252.596 443.099 252.994 434.264L254.922 435.089L262.774 459.377H254.729Z" fill="#212430"/>
</g>
<path class="girl" fill-rule="evenodd" clip-rule="evenodd" d="M284.152 452.779C284.152 452.779 293.97 500.632 299.49 518.383C296.958 519.343 290.391 520.296 286.099 519.296C274.482 497.367 255.514 465.467 255.514 465.467C254.814 461.897 254.321 458.285 254.036 454.652L272.528 459.14L284.152 452.779Z" fill="#E83464"/>
<g style="mix-blend-mode:overlay" opacity="0.23">
<path class="girl" fill-rule="evenodd" clip-rule="evenodd" d="M126.016 460.559C127.494 442.815 126.132 433.101 127.353 420.758C128.638 407.968 131.651 376.947 135.346 365.699C141.302 361.528 150.471 365.307 158.689 370.498C149.906 373.142 143.558 394.55 140.107 406.265C134.556 425.104 131.844 442.578 129.968 463.324L126.016 460.559Z" fill="#212430"/>
</g>
<path class="girl" fill-rule="evenodd" clip-rule="evenodd" d="M55.0656 517.551C52.7589 521.661 50.2466 526.589 47.9398 530.645C47.7278 532.626 47.9398 532.504 48.8201 534.546C58.3233 534.471 65.0829 534.613 74.5861 534.546C74.3741 531.97 74.3741 532.038 74.1685 529.469C72.0673 526.528 69.4522 522.216 67.3575 519.275C62.6541 518.788 59.7434 518.065 55.0656 517.551Z" fill="#E83464"/>
<g style="mix-blend-mode:overlay" opacity="0.23">
<path class="girl" fill-rule="evenodd" clip-rule="evenodd" d="M181.376 393.157C202.632 411.679 227.697 424.813 254.896 435.068C225.474 417.168 209.359 404.913 184.57 381.402C181.923 385.187 182.976 387.418 181.376 393.157Z" fill="#212430"/>
</g>
<g class="girl" style="mix-blend-mode:overlay" opacity="0.23">
<path fill-rule="evenodd" clip-rule="evenodd" d="M261.2 456.835L264.162 465.406L289.157 519.748L284.235 525.075L284.717 516.875L255.494 465.501C254.795 461.93 254.301 458.318 254.017 454.685L261.2 456.835Z" fill="#212430"/>
</g>
<g class="girl" style="mix-blend-mode:overlay" opacity="0.23">
<path fill-rule="evenodd" clip-rule="evenodd" d="M61.4334 508.804C71.592 496.995 81.9948 486.963 91.5045 477.831L129.967 463.324C129.106 462.513 126.934 461.418 126.015 460.559C108.995 463.885 92.8538 468.894 92.8538 468.894C92.8538 468.894 69.5102 494.852 59.9941 509.73L61.4334 508.804Z" fill="#212430"/>
</g>
<g class="girl" style="mix-blend-mode:overlay" opacity="0.23">
<path fill-rule="evenodd" clip-rule="evenodd" d="M61.4334 508.804C71.592 496.995 81.9948 486.963 91.5045 477.831L109.11 470.983L109.958 464.325L92.8538 468.894C92.8538 468.894 69.5102 494.852 59.9941 509.73L61.4334 508.804Z" fill="#212430"/>
</g>
<path class="girl" d="M162.596 178.696C158.303 182.448 153.69 189.748 150.799 201.348C146.988 216.632 151.229 219.64 132.698 238.885C125.039 246.835 113.107 255.028 114.019 281.472C114.527 296.154 122.295 300.4 128.271 304.712C128.914 305.165 128.708 298.743 129.492 297.101C129.492 299.899 130.636 306.565 131.49 309.268C135.988 323.282 151.409 334.868 159.081 336.943C171.79 340.377 183.774 335.76 190.713 326.547C191.915 324.958 196.58 319.645 198.424 316.501C197.074 320.297 195.494 323.997 193.695 327.581C200.345 322.551 211.538 310.37 211.538 310.37C211.538 310.37 227.081 299.298 226.111 278.728C219.609 262.281 213.954 250.113 211.468 240.007C207.092 222.216 212.881 201.571 213.08 201.348C216.499 197.434 220.54 192.743 218.221 183.002C210.87 176.546 198.777 173.538 191.825 172.639C191.851 172.639 173.57 169.083 162.596 178.696Z" fill="url(#paint0_linear)"/>
<path class="girl" d="M125.038 292.531C126.966 278.525 138.583 266.587 148.812 256.028C152.173 252.581 155.347 249.316 158.052 246.132C165.088 237.851 169.406 223.419 170.595 215.713L171.096 215.8C169.901 223.54 165.544 238.108 158.438 246.463C155.72 249.667 152.539 252.932 149.166 256.393C138.975 266.864 127.416 278.734 125.52 292.558L125.038 292.531Z" fill="#543B38"/>
<path class="girl" d="M180.883 318.11L180.825 317.576C190.99 316.291 198.996 310.228 204.599 299.554C210.787 287.799 205.64 275.408 201.097 264.477C199.921 261.645 198.816 258.975 197.974 256.467C192.211 239.297 190.521 229.482 190.521 229.387L191.028 229.292C191.028 229.387 192.712 239.155 198.469 256.291C199.304 258.779 200.397 261.442 201.579 264.261C206.173 275.307 211.371 287.826 205.061 299.818C199.362 310.654 191.221 316.805 180.883 318.11Z" fill="#543B38"/>
<path class="girl" d="M148.074 304.387C148.717 309.795 149.359 314.081 150.079 322.389C149.905 327.121 148.627 332.616 146.763 339.876C144.501 346.569 138.603 353.349 135.583 362.062C135.551 362.63 147.791 364.766 152.765 365.097C159.19 365.557 163.373 366.179 169.792 366.639C179.726 367.315 189.769 367.7 199.69 368.903L198.27 358.547L193.161 339.011L192.043 324.471L196.111 304.928L203.037 295.039L203.288 280.627L202.131 254.642L190.257 250.924C188.291 249.701 177.233 245.834 165.776 243.576C159.113 246.348 134.992 258.725 134.992 258.725L133.206 271.068C133.206 271.068 147.04 301.934 148.074 304.387Z" fill="#2E57AB"/>
<path class="girl" d="M154.544 249.092L180.574 266.452L190.257 250.951L173.994 242.583L163.797 243.205L154.544 249.092Z" fill="#E83464"/>
<path class="girl" d="M168.937 209.358L165.076 240.041L160.122 246.3L178.627 257.92L185.624 249.16L182.746 245.117L181.608 225.352L168.937 209.358Z" fill="#D7AC74"/>
<path class="girl" d="M217.443 264.119C203.525 256.508 196.464 229.962 196.393 229.691L196.888 229.549C196.958 229.813 203.956 256.136 217.681 263.639L217.443 264.119Z" fill="#543B38"/>
<path class="girl" d="M168.937 209.358C168.757 211.568 167.363 228.441 167.363 228.441L176.358 241.055L182.52 241.305L182.835 227.258L168.937 209.358Z" fill="#C28757"/>
<path class="girl" d="M170.563 197.806L207.567 198.779L205.569 213.61C205.896 216.578 206.333 218.714 206.083 221.722C203.911 227.197 200.644 232.114 196.502 236.141C196.502 236.141 190.784 240.974 188.529 241.765C178.8 239.973 172.009 231.862 170.01 227.671C166.027 219.329 170.563 197.806 170.563 197.806Z" fill="#EBBF85"/>
<path class="girl" d="M174.29 206.769L180.072 204.214C180.072 204.214 187.436 201.253 189.319 203.132C191.349 205.16 190.392 209.182 190.392 209.182C190.392 209.182 185.039 211.575 181.878 211.149C179.931 210.906 174.29 206.769 174.29 206.769Z" fill="#D9A164"/>
<path class="girl" d="M195.41 204.87C196.65 204.126 200.968 205.627 201.835 205.829C202.703 206.032 205.916 208.02 205.961 208.04C206.096 208.75 204.849 213.367 204.033 214.232C202.748 215.097 200.081 216.118 198.449 215.408C196.406 214.529 194.703 211.94 194.292 211.062C194.376 209.446 195.082 206.499 195.41 204.87Z" fill="#D9A164"/>
<path class="girl" d="M199.516 203.031L202.163 201.361C203.558 202.326 204.851 203.446 206.019 204.701L206.089 206.12L202.581 204.275L199.516 203.031Z" fill="#4B2D32"/>
<path class="girl" d="M169.381 202.321C169.381 202.321 182.528 202.781 193.213 204.856C202.665 205.323 206.443 209.21 206.443 209.21L206.128 212.657V216.206C206.128 216.206 205.119 219.092 201.63 218.045C200.217 217.619 197.608 215.037 195.591 213.651C194.852 213.144 193.2 211.569 190.45 212.299C182.643 214.475 179.154 214.158 176.282 212.63C173.654 211.231 171.219 207.493 171.219 207.493L168.649 206.614L169.381 202.321Z" fill="#2E57AB"/>
<path class="girl" d="M193.527 212.359L194.227 216.341L195.943 219.633L191.188 220.877L187.744 221.337L188.971 215.902L190.539 213.191L193.527 212.359Z" fill="url(#paint1_linear)"/>
<path class="girl" d="M188.818 208.628C187.141 209.433 185.342 209.372 183.498 209.385C181.377 209.385 178.357 207.628 177.747 206.918C178.659 205.721 179.777 205.323 181.782 204.647C183.787 203.971 187.064 204.518 188.818 208.628Z" fill="white"/>
<path class="girl" d="M181.987 209.162C182.308 209.338 185.2 209.838 185.759 209.162C186.26 208.864 187.866 205.714 185.907 204.22C184.127 203.97 181.679 203.267 180.657 205.39C180.516 205.072 180.368 208.202 181.987 209.162Z" fill="url(#paint2_linear)"/>
<path class="girl" d="M177.458 206.742C178.331 205.756 179.346 204.919 180.465 204.261C180.938 204.042 181.428 203.866 181.93 203.734L182.328 203.639C182.476 203.606 182.617 203.585 182.759 203.565C183.04 203.529 183.323 203.513 183.607 203.518C184.76 203.531 185.876 203.953 186.774 204.714C187.709 205.735 188.414 206.964 188.837 208.31C188.066 207.594 186.819 206.282 185.99 205.89C184.696 205.373 183.285 205.272 181.936 205.6C181.936 205.6 178.518 206.519 177.458 206.742Z" fill="#221F1F"/>
<path class="girl" d="M186.022 207.526C185.949 207.806 185.799 208.056 185.59 208.246C185.382 208.436 185.125 208.556 184.851 208.592C184.578 208.628 184.3 208.578 184.054 208.448C183.807 208.318 183.603 208.114 183.467 207.862C183.33 207.61 183.268 207.321 183.287 207.032C183.307 206.743 183.408 206.466 183.577 206.237C183.746 206.008 183.975 205.837 184.237 205.745C184.498 205.653 184.78 205.645 185.046 205.721C185.223 205.771 185.389 205.858 185.535 205.976C185.68 206.094 185.801 206.241 185.892 206.409C185.983 206.577 186.041 206.762 186.064 206.954C186.086 207.146 186.072 207.34 186.022 207.526Z" fill="#221F1F"/>
<path class="girl" d="M186.852 208.662C186.815 208.808 186.737 208.94 186.629 209.039C186.521 209.139 186.387 209.203 186.244 209.223C186.102 209.242 185.957 209.217 185.828 209.149C185.699 209.082 185.592 208.976 185.52 208.845C185.449 208.713 185.416 208.562 185.426 208.411C185.436 208.26 185.489 208.116 185.577 207.996C185.665 207.877 185.785 207.788 185.922 207.74C186.059 207.692 186.206 207.689 186.344 207.729C186.436 207.755 186.522 207.8 186.597 207.861C186.673 207.922 186.736 207.998 186.783 208.084C186.83 208.171 186.86 208.267 186.872 208.366C186.884 208.465 186.877 208.566 186.852 208.662Z" fill="white"/>
<path class="girl" d="M196.002 210.609C196.946 211.717 199.632 213.941 201.361 214.144C203.359 214.388 203.629 213.962 204.573 213.982C204.871 213.009 204.832 211.957 204.463 211.011C204.093 210.066 203.418 209.289 202.556 208.817C200.673 207.959 197.981 208.439 196.002 210.609Z" fill="white"/>
<path class="girl" d="M201.578 214.11C200.494 214.016 199.465 213.567 198.636 212.826C198.057 212.069 197.839 209.304 199.484 208.77C201.18 209.223 203.384 209.811 203.686 211.17C203.93 210.906 203.371 214.036 201.578 214.11Z" fill="url(#paint3_linear)"/>
<path class="girl" d="M204.535 213.536C204.423 212.688 204.133 211.877 203.686 211.163C203.044 210.284 200.789 210.142 200.088 210.142C198.684 210.121 197.283 210.271 195.912 210.588C196.798 209.514 197.931 208.695 199.201 208.209C202.061 207.425 203.886 208.966 204.554 210.487C204.825 211.484 204.819 212.542 204.535 213.536Z" fill="#221F1F"/>
<path class="girl" d="M203.166 212.109C203.102 212.403 202.956 212.669 202.748 212.874C202.539 213.08 202.276 213.214 201.994 213.262C201.712 213.309 201.423 213.266 201.163 213.139C200.904 213.012 200.687 212.806 200.54 212.549C200.393 212.291 200.323 211.992 200.338 211.692C200.354 211.392 200.454 211.103 200.626 210.864C200.799 210.624 201.035 210.444 201.306 210.346C201.576 210.249 201.868 210.239 202.144 210.318C202.505 210.414 202.815 210.656 203.007 210.992C203.198 211.328 203.255 211.729 203.166 212.109Z" fill="#221F1F"/>
<path class="girl" d="M203.313 213.481C203.28 213.634 203.204 213.772 203.095 213.879C202.987 213.986 202.85 214.056 202.704 214.08C202.557 214.105 202.407 214.083 202.272 214.017C202.137 213.951 202.024 213.844 201.948 213.71C201.871 213.576 201.834 213.421 201.842 213.265C201.85 213.109 201.902 212.959 201.991 212.834C202.081 212.709 202.203 212.615 202.344 212.565C202.484 212.514 202.636 212.508 202.78 212.549C202.968 212.598 203.13 212.724 203.23 212.899C203.33 213.074 203.359 213.283 203.313 213.481Z" fill="white"/>
<path class="girl" d="M168.938 209.358C167.948 209.649 161.632 218.747 159.538 223.317C161.321 221.848 163.423 220.865 165.655 220.458L167.203 215.726L168.938 209.358Z" fill="#212124"/>
<path class="girl" d="M163.798 215.74C165.905 212.644 170.223 208.209 172.671 206.803C189.037 199.746 204.156 213.029 211.14 192.722C213.068 187.179 170.878 191.918 170.878 191.918L163.798 215.74Z" fill="#1B1A20"/>
<path class="girl" d="M153.529 218.802L153.15 218.436C153.291 218.274 167.061 202.585 182.296 200.002L186.479 199.482C201.257 197.697 212.932 196.285 215.457 184.658L215.959 184.779C213.35 196.778 201.514 198.211 186.536 200.023C185.17 200.185 183.782 200.356 182.373 200.537C167.318 203.085 153.67 218.639 153.529 218.802Z" fill="#434848"/>
<path class="girl" d="M152.566 213.799L151.923 213.299C152.033 213.157 162.635 198.948 176.983 193.696C190 188.923 196.426 185.354 200.069 176.796L200.77 177.127C197.03 185.915 190.2 189.701 177.233 194.453C163.136 199.638 152.669 213.658 152.566 213.799Z" fill="#434848"/>
<g class="girl" style="mix-blend-mode:overlay" opacity="0.16">
<path d="M151.967 307.457L176.673 326.046C176.673 326.046 187.943 322.315 189.607 321.503C189.267 322.585 190.642 324.633 190.642 324.633L191.452 335.99L185.637 349.293C185.637 349.293 154.396 332.116 154.094 331.082C153.58 329.331 153.824 323.646 153.407 321.727C152.61 318.211 151.967 307.457 151.967 307.457Z" fill="white"/>
</g>
<g class="girl" style="mix-blend-mode:overlay">
<path d="M172.761 183.326L182.675 184.069C182.675 184.069 187.874 184.022 186.37 187.787C185.573 189.775 193.554 190.18 197.165 189.754C203.057 189.079 199.581 191.708 199.009 193.925C198.437 196.143 203.507 197.454 205.524 198.029C208.004 198.738 207.452 199.171 206.938 200.111C203.166 205.093 192.866 205.316 187.231 203.984C188.465 202.794 184.462 199.252 181.21 198.481C179.887 198.157 177.291 198.198 175.839 197.643C174.387 197.089 174.766 195.095 175.71 192.986C176.655 190.877 173.596 189.863 171.682 190.572C169.767 191.282 169.111 186.753 169.111 186.753L172.761 183.326Z" fill="#CED3D7"/>
</g>
<path class="girl" d="M200.582 304.469C197.235 298.844 187.012 285.744 183.716 278.781L202.131 254.662L214.648 291.044L228.315 310.37C232.17 309.775 234.74 308.869 237.953 308.727C239.758 312.148 237.67 321.24 238.011 325.424L224.826 331.508C208.64 317.224 207.323 313.189 200.582 304.469Z" fill="#2E57AB"/>
<path class="girl" d="M260.609 300.845C257.846 303.549 255.886 304.225 255.886 304.225L250.187 306.253L234.92 308.842C233.712 312.04 234.278 319.306 236.514 325.857C246.512 322.017 258.945 312.391 262.53 310.269C263.937 310.316 264.599 310.505 266.501 310.694C267.484 310.018 272.329 308.301 272.329 308.301C272.329 308.301 275.754 307.923 276.326 307.801C276.647 307.402 278.896 303.799 278.896 303.799L276.165 296.1C276.165 296.1 271.937 294.072 270.613 294.207C266.379 294.728 261.47 300 260.609 300.845Z" fill="#E83464"/>
<path class="girl" d="M227.711 311.932L225.603 315.467L224.01 304.171L228.315 310.377L230.628 309.958L227.711 311.932Z" fill="#26428F"/>
<path class="girl" opacity="0.23" d="M270.633 294.228L266.135 295.985L271.237 297.628L271.05 302.035L275.207 306.936C275.207 306.936 277.199 306.936 277.411 306.186C277.772 305.368 278.244 304.61 278.812 303.935L276.165 296.12L270.633 294.228Z" fill="#6E2430"/>
<path class="girl" d="M100.918 307.457L115.336 296.641L140.678 287.752L145.928 272.434C145.928 272.434 147.643 259.59 135.005 258.732C122.443 263.308 106.411 276.307 100.539 281.296C92.1855 290.138 84.6485 298.872 77.5676 310.032C77.9724 312.141 86.1392 321.902 96.5162 323.356C99.2535 319.732 102.865 313.804 105.313 309.796L100.918 307.457Z" fill="#2E57AB"/>
<path class="girl" d="M135.011 312.817C130.565 314.169 125.508 315.832 125.508 315.832L119.777 314.264L109.644 310.884L103.218 308.085C100.102 310.586 97.4353 317.704 96.5293 323.349C101.445 323.646 107.356 324.086 112.111 324.288C120.869 324.37 122.886 323.815 127.532 324.288C128.991 324.288 129.402 324.964 131.182 325.755C133.437 325.397 134.324 325.553 137.01 325.532C137.215 325.444 138.179 327.418 138.622 328.074C140.415 327.621 143.66 326.519 143.66 326.519C143.66 326.519 142.278 319.59 140.948 310.87C140.171 310.661 136.656 312.472 135.011 312.817Z" fill="#E83464"/>
<path class="girl" d="M98.6815 304.759C97.2383 305.193 95.8541 305.82 94.5627 306.625C95.0639 306.733 100.988 308.694 100.988 308.694L100.288 307.342L106.61 303.238L98.6815 304.759Z" fill="#26428F"/>
<path class="girl" d="M114.932 289.955C114.932 289.955 115.671 294.403 116.731 295.255C117.65 294.059 125.232 291.104 125.232 291.104L118.633 290.963L114.932 289.955Z" fill="#26428F"/>
<path class="girl" opacity="0.23" d="M134.163 324.309L140.897 321.922L141.687 326.134L138.706 327.54L136.887 325.086L134.163 324.309Z" fill="#6E2430"/>
<path class="girl" fill-rule="evenodd" clip-rule="evenodd" d="M192.147 227.542C187.231 227.664 185.394 225.812 181.648 224.027C181.416 225.196 181.943 227.9 181.943 227.9C181.943 227.9 186.171 228.664 190.354 229.131C191.016 228.482 191.356 228.238 192.147 227.542Z" fill="white"/>
<path class="girl" fill-rule="evenodd" clip-rule="evenodd" d="M198.43 358.547C189.281 361.508 177.271 362.725 165.359 362.434C155.194 362.184 145.093 360.839 136.9 358.547C135.975 359.493 134.697 365.868 135.345 365.699C151.75 361.535 177.426 383.275 176.314 394.719C181.223 394.11 178.242 394.313 181.834 393.624C187.899 370.64 199.966 362.9 199.966 362.9C199.966 362.9 199.966 361.325 198.43 358.547Z" fill="#E83464"/>
<path class="girl" d="M151.91 261.341C151.91 261.341 154.911 294.464 154.191 294.7C153.472 294.937 181.821 316.69 181.821 316.69L198.527 294.268L196.509 263.376L184.558 275.354L151.91 261.341Z" fill="#E83464"/>
<g class="girl" style="mix-blend-mode:overlay" opacity="0.39">
<path d="M166.625 295.796C163.502 296.255 156.126 293.768 156.126 293.768C156.126 293.768 150.985 289.408 149.514 287.339C148.139 284.206 147.593 280.74 147.933 277.308L145.479 287.414L151.326 300.555C151.326 300.555 156.164 301.907 164.459 304.955C169.189 303.401 178.64 290.523 178.64 290.523C174.804 292.678 170.78 294.444 166.625 295.796Z" fill="#262935"/>
</g>
<g class="girl" style="mix-blend-mode:overlay" opacity="0.39">
<path d="M202.131 285.899L198.231 275.591C198.231 275.591 199.895 285.176 198.571 291.26C195.115 296.756 187.308 296.925 187.308 296.925L193.328 304.611C193.328 304.611 199.664 297.621 201.109 294.68C201.63 291.469 202.131 285.899 202.131 285.899Z" fill="#262935"/>
</g>




<path d="M647.844 534.586H0V538H647.844V534.586Z" fill="#D9DEE2"/>
<path class="splash1" d="M602.776 170.631C574.722 166.176 564.866 162.905 554.45 145.248C562.366 179.946 597.411 186.591 654.449 179.723C642.054 176.62 621.024 173.531 602.776 170.631Z" fill="url(#paint4_linear)"/>
<path class="splash2" d="M523.827 181.163C504.345 172.551 497.701 164.487 493.525 146.465C509.544 172.308 523.847 177.364 580.41 185.537C568.156 186.3 534.224 185.746 523.827 181.163Z" fill="url(#paint5_linear)"/>
<path class="splash2" d="M554.2 280.262C527.785 288.887 519.271 293.058 505.746 306.003C525.774 277.375 567.43 267.979 603.978 265.066C592.489 269.568 571.414 274.651 554.2 280.262Z" fill="url(#paint6_linear)"/>
<path class="splash2" d="M559.931 250.316C541.221 257.076 535.303 260.456 522.902 272.394C552.581 256.319 574.389 252.919 612.903 250.025C598.921 245.435 570.321 246.558 559.931 250.316Z" fill="url(#paint7_linear)"/>
<path class="splash1" d="M606.284 276.584C594.719 282.79 583.224 290.496 580.409 297.114C599.82 282.607 621.487 280.877 655.079 266.336C642.119 269.649 617.503 270.555 606.284 276.584Z" fill="url(#paint8_linear)"/>
<g style="mix-blend-mode:overlay" opacity="0.23">
<path d="M738.424 200.293C738.424 200.293 746.848 203.565 748.884 209.703C751.153 216.53 746.314 229.766 746.314 229.766L743.969 213.921L738.424 200.293Z" fill="#212430"/>
</g>
<g style="mix-blend-mode:overlay" opacity="0.23">
<path d="M791.453 234.768C786.801 239.696 788.433 223.952 797.455 219.788C803.745 216.868 814.219 222.215 812.169 223.053C802.332 227.082 795.829 230.131 791.453 234.768Z" fill="#212430"/>
</g>
<path d="M452.107 184.773C451.141 184.773 450.197 184.471 449.394 183.907C448.591 183.342 447.965 182.54 447.595 181.601C447.226 180.663 447.129 179.63 447.317 178.633C447.506 177.636 447.971 176.721 448.654 176.003C449.337 175.284 450.207 174.795 451.154 174.597C452.101 174.398 453.083 174.5 453.975 174.889C454.868 175.278 455.631 175.936 456.167 176.781C456.704 177.626 456.99 178.619 456.99 179.635C456.988 180.997 456.473 182.303 455.558 183.266C454.642 184.229 453.401 184.771 452.107 184.773ZM452.107 176.526C451.522 176.526 450.951 176.708 450.465 177.05C449.979 177.391 449.6 177.877 449.376 178.445C449.152 179.013 449.094 179.639 449.208 180.242C449.322 180.845 449.603 181.399 450.017 181.834C450.43 182.269 450.957 182.565 451.53 182.685C452.103 182.805 452.698 182.743 453.238 182.508C453.778 182.273 454.24 181.874 454.564 181.363C454.889 180.851 455.062 180.25 455.062 179.635C455.062 178.811 454.751 178.02 454.197 177.436C453.642 176.853 452.891 176.526 452.107 176.526Z" fill="#B4C5CD"/>
<path d="M23.9865 102.337L18.1458 97.5508L14.766 102.161L13.2432 100.917L17.8052 94.6981L25.1688 100.735L23.9865 102.337Z" fill="#B4C5CD"/>
<path d="M448.373 344.088L446.689 343.094L450.885 335.226L454.65 338.606L455.248 333.259L463.749 337.625L465.574 333.117L467.347 333.908L464.732 340.383L456.841 336.334L456.141 342.614L451.418 338.369L448.373 344.088Z" fill="#B4C5CD"/>
<path d="M305.061 13.2222L307.766 0L317.995 8.72692L305.061 13.2222ZM308.987 3.65706L307.657 10.1803L314.044 7.96306L308.987 3.65706Z" fill="#B4C5CD"/>
<path class="" d="M642.171 69.4976V55.809H644.099V65.9149L652.06 60.8923L653.05 62.6296L642.171 69.4976Z" fill="#B4C5CD"/>
<path d="M422.504 516.598L420.654 516.037L422.44 509.514H416.67V507.486H425.004L422.504 516.598Z" fill="#B4C5CD"/>
<path class="" d="M791.511 323.903V307.997L803.559 314.811L791.511 323.903ZM793.439 311.384V319.948L799.922 315.054L793.439 311.384Z" fill="#B4C5CD"/>
<path class="" d="M667.93 130.079L666.003 129.95L666.125 127.922L668.052 128.051L667.93 130.079ZM662.147 129.693L660.22 129.565L660.342 127.537L662.269 127.666L662.147 129.693ZM656.364 129.308L654.437 129.187L654.559 127.159L656.487 127.287L656.364 129.308ZM650.582 128.93L648.654 128.801L648.776 126.773L650.704 126.895L650.582 128.93ZM644.799 128.544L642.871 128.416L642.993 126.388L644.921 126.516L644.799 128.544ZM639.016 128.166L637.088 128.037L637.21 126.009L639.138 126.138L639.016 128.166ZM633.233 127.78L631.305 127.652L631.427 125.624L633.355 125.753L633.233 127.78ZM627.45 127.402L625.522 127.273L625.644 125.246L627.572 125.374L627.45 127.402ZM621.667 127.017L619.739 126.888L619.855 124.86L621.783 124.989L621.667 127.017ZM615.884 126.631L613.957 126.51L614.079 124.482L616.006 124.61L615.884 126.631ZM610.101 126.253L608.174 126.124L608.296 124.096L610.223 124.218L610.101 126.253ZM604.318 125.867L602.391 125.739L602.513 123.711L604.441 123.839L604.318 125.867ZM598.536 125.489L596.608 125.36L596.73 123.333L598.658 123.461L598.536 125.489ZM592.753 125.104L590.825 124.975L590.941 122.947L592.868 123.076L592.753 125.104ZM586.97 124.725L585.042 124.597L585.164 122.569L587.092 122.697L586.97 124.725ZM581.187 124.34L579.259 124.211L579.381 122.183L581.309 122.312L581.187 124.34ZM575.404 123.954L573.476 123.833L573.598 121.805L575.526 121.933L575.404 123.954ZM569.621 123.576L567.693 123.447L567.809 121.419L569.737 121.541L569.621 123.576ZM563.838 123.191L561.911 123.062L562.033 121.034L563.96 121.163L563.838 123.191ZM558.055 122.812L556.128 122.684L556.25 120.656L558.177 120.784L558.055 122.812ZM552.272 122.427L550.345 122.298L550.467 120.27L552.394 120.399L552.272 122.427ZM546.49 122.048L544.562 121.92L544.684 119.892L546.612 120.02L546.49 122.048ZM540.707 121.663L538.779 121.534L538.895 119.506L540.822 119.635L540.707 121.663ZM534.924 121.278L532.996 121.156L533.118 119.128L535.046 119.256L534.924 121.278ZM529.141 120.899L527.213 120.771L527.335 118.743L529.263 118.864L529.141 120.899ZM523.358 120.514L521.34 120.385L522.092 117.985L523.923 118.621L523.564 119.77L523.409 119.716L523.358 120.514ZM525.131 114.768L523.3 114.132L523.904 112.206L525.735 112.841L525.131 114.768ZM526.943 108.988L525.112 108.353L525.716 106.426L527.547 107.062L526.943 108.988ZM528.755 103.215L526.924 102.573L527.528 100.653L529.359 101.289L528.755 103.215ZM530.567 97.4357L528.736 96.8002L529.34 94.8737L531.171 95.5091L530.567 97.4357ZM532.379 91.656L530.548 91.0206L531.152 89.0941L532.983 89.7295L532.379 91.656ZM426.128 90.0404L426.09 88.0125L428.017 87.9719L428.056 89.9999L426.128 90.0404ZM431.911 89.912L431.873 87.8841L433.8 87.8435L433.839 89.8714L431.911 89.912ZM437.694 89.7836L437.649 87.7556L439.577 87.7151L439.622 89.743L437.694 89.7836ZM443.477 89.6551L443.438 87.6272L445.366 87.5866L445.405 89.6146L443.477 89.6551ZM449.26 89.5267L449.221 87.4988L451.149 87.4582L451.187 89.4861L449.26 89.5267ZM455.043 89.3983L455.004 87.3703L456.932 87.3298L456.97 89.3577L455.043 89.3983ZM460.826 89.2698L460.787 87.2419L462.715 87.2013L462.753 89.2293L460.826 89.2698ZM466.609 89.1414L466.564 87.1134L468.491 87.0729L468.536 89.1008L466.609 89.1414ZM472.391 89.0129L472.353 86.985L474.28 86.9444L474.319 88.9724L472.391 89.0129ZM478.174 88.8845L478.136 86.8566L480.063 86.816L480.102 88.8439L478.174 88.8845ZM483.957 88.7561L483.919 86.7281L485.846 86.6876L485.885 88.7155L483.957 88.7561ZM489.74 88.6276L489.702 86.5997L491.629 86.5591L491.668 88.5871L489.74 88.6276ZM495.523 88.4992L495.478 86.4713L497.406 86.4307L497.451 88.4586L495.523 88.4992ZM501.306 88.3708L501.267 86.3428L503.195 86.3023L503.233 88.3302L501.306 88.3708ZM507.089 88.2423L507.05 86.2144L508.978 86.1738L509.016 88.2018L507.089 88.2423ZM512.872 88.1139L512.833 86.0859L514.761 86.0386L514.799 88.0666L512.872 88.1139ZM518.655 87.9855L518.616 85.9575L520.544 85.9102L520.589 87.9381L518.655 87.9855ZM524.437 87.857L524.392 85.8291L526.32 85.7818L526.365 87.8097L524.437 87.857ZM530.22 87.7286L530.175 85.7006L532.103 85.6533L532.142 87.6813L530.22 87.7286Z" fill="#B4C5CD"/>
<path d="M655.998 362.657L654.552 361.305L655.837 359.784L657.289 361.136L655.998 362.657ZM659.815 358.081L658.363 356.729L659.648 355.201L661.093 356.553L659.815 358.081ZM663.625 353.511L662.173 352.159L663.458 350.631L664.91 351.983L663.625 353.511ZM667.435 348.935L665.99 347.583L667.275 346.055L668.727 347.407L667.435 348.935ZM671.246 344.358L669.8 343.006L671.085 341.485L672.531 342.837L671.246 344.358ZM675.062 339.782L673.61 338.43L674.895 336.902L676.347 338.254L675.062 339.782ZM678.873 335.212L677.427 333.86L678.712 332.333L680.164 333.684L678.873 335.212Z" fill="#B4C5CD"/>
<path d="M519.271 526.738L517.819 525.386L519.104 523.865L520.557 525.217L519.271 526.738ZM523.082 522.162L521.63 520.81L522.915 519.289L524.367 520.641L523.082 522.162ZM526.892 517.592L525.446 516.24L526.731 514.712L528.177 516.064L526.892 517.592ZM530.709 513.016L529.257 511.664L530.542 510.136L531.987 511.488L530.709 513.016ZM534.519 508.439L533.067 507.087L534.352 505.566L535.804 506.918L534.519 508.439ZM538.329 503.863L536.884 502.511L538.169 500.99L539.621 502.342L538.329 503.863ZM542.146 499.293L540.694 497.941L541.979 496.413L543.425 497.765L542.146 499.293ZM545.956 494.717L544.504 493.365L545.789 491.837L547.241 493.189L545.956 494.717ZM549.767 490.14L548.321 488.788L549.606 487.267L551.058 488.619L549.767 490.14ZM553.577 485.564L552.131 484.212L553.416 482.691L554.862 484.043L553.577 485.564ZM557.394 480.988L555.941 479.636L557.227 478.108L558.679 479.46L557.394 480.988ZM561.204 476.418L559.752 475.066L561.037 473.538L562.489 474.89L561.204 476.418ZM565.014 471.842L563.568 470.49L564.854 468.969L566.299 470.321L565.014 471.842ZM568.831 467.265L567.379 465.913L568.664 464.392L570.11 465.744L568.831 467.265Z" fill="#B4C5CD"/>
<path d="M610.828 492.668L610.025 490.823L615.242 488.322L604.113 483.908L604.794 482.015L620.267 488.146L610.828 492.668Z" fill="#B4C5CD"/>
<path d="M83.1192 43.6549L82.4316 41.7554L86.3255 40.2006L84.038 33.9005L88.8249 31.9807L82.6951 23.4633L92.7766 24.0717L90.5341 17.8932L92.3397 17.1699L95.6359 26.2754L86.7495 25.7414L91.9092 32.9068L86.5246 35.0699L88.8121 41.3701L83.1192 43.6549Z" fill="#B4C5CD"/>
<path d="M94.5633 435.278C93.872 435.278 93.1962 435.062 92.6213 434.658C92.0465 434.254 91.5985 433.68 91.3339 433.008C91.0694 432.336 91.0002 431.596 91.135 430.883C91.2699 430.17 91.6028 429.514 92.0917 429C92.5805 428.486 93.2033 428.136 93.8814 427.994C94.5594 427.852 95.2622 427.925 95.901 428.203C96.5397 428.481 97.0856 428.953 97.4697 429.557C97.8537 430.162 98.0588 430.873 98.0588 431.6C98.0571 432.575 97.6882 433.509 97.0331 434.199C96.3779 434.888 95.4898 435.276 94.5633 435.278ZM94.5633 429.951C94.2532 429.951 93.9501 430.048 93.6923 430.229C93.4345 430.41 93.2335 430.668 93.1148 430.969C92.9962 431.271 92.9651 431.602 93.0256 431.922C93.0861 432.242 93.2354 432.536 93.4547 432.767C93.674 432.997 93.9533 433.154 94.2574 433.218C94.5616 433.282 94.8768 433.249 95.1633 433.124C95.4498 432.999 95.6946 432.788 95.8669 432.517C96.0392 432.245 96.1311 431.927 96.1311 431.6C96.1345 431.381 96.0965 431.164 96.0192 430.961C95.942 430.758 95.827 430.573 95.6811 430.417C95.5352 430.261 95.3612 430.137 95.1693 430.052C94.9774 429.967 94.7714 429.924 94.5633 429.924V429.951Z" fill="#B4C5CD"/>
<ellipse class="particle" cx="758.498" cy="181.203" rx="14.8704" ry="16.5645" transform="rotate(-180 758.498 181.203)" fill="#522768"/>
<path class="particle" d="M681.626 201.54L690.443 195.724L697.179 198.172L700.87 189.779L689.621 189.522L679.999 199.074L681.626 201.54Z" fill="#522768"/>
<path class="particle" d="M709.075 169.349L712.644 180.208L720.569 175.184L714.358 164.822L697.336 163.423L697.109 166.276L709.075 169.349Z" fill="#522768"/>
<path class="particle" d="M735.614 165.724L735.159 155.619L732.15 151.22L735.981 141.411L733.532 139.883L728.931 151.036L728.336 169.901L735.614 165.724Z" fill="#522768"/>
<path class="particle" d="M732.466 265.865L745.867 255.172L746.689 239.638L736.524 243.614L738.484 253.589L730.874 263.749L732.466 265.865Z" fill="#522768"/>
<path class="particle" d="M769.536 248.086L772.125 247.295L770.936 231.153L760.964 221.086L755.033 229.902L763.868 234.89L769.536 248.086Z" fill="#522768"/>
<path class="particle" d="M766.65 213.448L781.818 214.442L794.362 211.313L793.837 208.387L783.41 209.951L777.549 205.736L769.974 204.963L766.65 213.448Z" fill="#522768"/>
<path class="particle" d="M757.554 162.466C760.093 162.46 762.606 163.009 764.933 164.076C767.261 165.144 769.353 166.707 771.077 168.668L771.287 168.908C774.591 172.682 776.338 177.68 776.145 182.807C775.951 187.934 773.833 192.771 770.255 196.258L768.96 197.509L743.785 168.834L745.08 167.583C748.478 164.287 752.932 162.46 757.554 162.466ZM769.1 192.172C771.461 189.25 772.724 185.521 772.653 181.687C772.583 177.853 771.182 174.179 768.715 171.356L768.505 171.116C766.026 168.302 762.654 166.541 759.024 166.164C755.395 165.788 751.76 166.823 748.806 169.073L769.1 192.172Z" fill="#522768"/>
<path class="particle" d="M773.525 180.024C775.25 180.335 777.023 179.986 778.524 179.041C780.026 178.096 781.157 176.617 781.712 174.871C781.787 174.675 781.824 174.466 781.82 174.255C781.817 174.044 781.772 173.836 781.69 173.643C781.608 173.451 781.49 173.278 781.342 173.135C781.195 172.992 781.022 172.882 780.833 172.811C780.644 172.74 780.443 172.71 780.243 172.723C780.043 172.736 779.847 172.791 779.668 172.886C779.489 172.98 779.329 173.112 779.2 173.273C779.07 173.433 778.972 173.62 778.913 173.822C778.568 174.898 777.864 175.807 776.931 176.379C775.998 176.951 774.9 177.148 773.84 176.932L773.525 180.024Z" fill="#522768"/>
<path class="particle" d="M704.055 220.497C705.249 223.492 706.931 226.245 709.024 228.632L709.391 229.056C711.201 231.11 713.294 232.866 715.601 234.264L713.852 237.448C711.253 235.857 708.894 233.865 706.854 231.54L706.487 231.117C704.113 228.423 702.212 225.307 700.871 221.915L704.055 220.497Z" fill="#F4C121"/>
<path class="particle" d="M757.606 179.141L770.797 194.178L771.042 209.877L753.442 235.644C750.901 238.754 747.786 241.288 744.285 243.091C740.784 244.895 736.971 245.93 733.078 246.135C725.25 246.656 717.541 243.919 711.612 238.515L710.3 237.319L757.606 179.141ZM767.333 195.705L757.711 184.662L715.251 236.932C720.308 240.928 726.558 242.887 732.868 242.454C736.278 242.262 739.616 241.347 742.682 239.766C745.748 238.185 748.48 235.969 750.713 233.251L767.525 208.736L767.333 195.705Z" fill="#E83464"/>
<path class="particle" d="M733.673 164.564L747.161 167.288L760.317 182.288L699.086 225.89L698.124 224.307C693.83 217.409 692.313 209.001 693.903 200.928C695.494 192.854 700.063 185.774 706.609 181.239L733.673 164.564ZM745.359 170.675L734.302 168.448L708.428 184.368C697.231 191.951 693.628 208.295 700.136 220.7L754.981 181.626L745.359 170.675Z" fill="#E83464"/>
<path class="particle" d="M762.171 165.779C762.19 163.936 762.832 162.16 763.983 160.77C765.134 159.38 766.719 158.468 768.452 158.196C768.842 158.128 769.241 158.225 769.563 158.467C769.884 158.708 770.101 159.074 770.166 159.485C770.231 159.895 770.139 160.315 769.909 160.653C769.679 160.991 769.332 161.22 768.942 161.288C767.873 161.457 766.897 162.027 766.196 162.893C765.495 163.759 765.116 164.862 765.128 166L762.171 165.779Z" fill="#522768"/>
<path class="particle" d="M728.757 218.012C737.504 204.209 742.752 196.847 757.623 183.963C772.493 194.086 769.869 204.208 764.385 218.012C758.262 228.135 756.748 235.497 741.878 241.939C702.515 249.301 712.137 234.577 728.757 218.012Z" fill="#E83464"/>
<path class="particle" d="M733.131 198.73C722.148 209.282 714.111 214.746 698.8 222.708C690.79 208.984 694.87 200.034 703.39 188.564C711.224 180.745 725.978 169.288 739.245 167.398C774.234 183.963 750.93 187.791 733.131 198.73Z" fill="#E83464"/>
<path class="particle" d="M747.727 191.315L711.442 235.957L710.726 232.664L707.033 228.766L704.264 225.843L701.707 223.865L747.727 191.315Z" fill="#F4C121"/>



<ellipse style="display: none" class="bug1" rx="8.5773" ry="9.41137" transform="matrix(-0.101251 0.996853 -0.971681 -0.166858 658.367 106)" fill="#522768"/>
<path class="bug1" id="leg" d="M662.177 152.043L659.361 146.428L661.192 142.798L656.571 139.876L655.726 146.305L660.651 152.741L662.177 152.043Z" fill="#522768"/>
<path class="bug1" id="leg" d="M647.343 133.205L653.724 132.205L651.354 127.177L645.094 129.74L643.266 139.366L644.871 139.771L647.343 133.205Z" fill="#522768"/>
<path class="bug1" id="leg" d="M648.113 117.23L642.733 116.718L640.253 118.291L635.24 115.063L634.31 116.507L639.998 120.333L649.972 122.212L648.113 117.23Z" fill="#522768"/>
<path class="bug1" id="leg" d="M700.308 129.052L695.256 120.281L686.876 118.387L688.464 124.664L693.985 124.432L699.071 129.785L700.308 129.052Z" fill="#522768"/>
<path class="bug1" id="leg" d="M694.189 105.995L693.905 104.419L685.066 103.631L679.033 108.498L683.491 112.749L686.699 108.077L694.189 105.995Z" fill="#522768"/>
<path class="bug1" id="leg" d="M676.648 104.429L678.231 95.7929L677.127 88.292L675.305 88.3281L675.59 94.4691L672.637 97.458L671.677 101.746L676.648 104.429Z" fill="#522768"/>
<path  class="bug1" d="M648.048 104.763C648.194 103.304 648.644 101.912 649.371 100.675C650.098 99.4388 651.085 98.385 652.27 97.5803L652.414 97.4824C654.695 95.9417 657.561 95.4125 660.384 96.0107C663.208 96.6089 665.758 98.2858 667.476 100.674L668.092 101.537L650.763 113.282L650.147 112.419C648.524 110.153 647.774 107.419 648.048 104.763ZM665.149 100.949C663.672 99.3149 661.684 98.2343 659.56 97.9109C657.436 97.5874 655.323 98.0434 653.617 99.1929L653.473 99.2909C651.772 100.448 650.6 102.219 650.179 104.27C649.759 106.32 650.118 108.507 651.189 110.419L665.149 100.949Z" fill="#522768"/>
<path class="bug1" d="M659.5 97.2641C659.776 96.3052 659.687 95.2552 659.247 94.3037C658.808 93.3522 658.048 92.562 657.104 92.0759C656.999 92.0141 656.884 91.9728 656.766 91.9548C656.648 91.9367 656.529 91.9421 656.416 91.9707C656.303 91.9994 656.2 92.0506 656.111 92.1213C656.022 92.192 655.95 92.2808 655.899 92.3823C655.848 92.4838 655.819 92.5959 655.815 92.7119C655.81 92.8279 655.829 92.9453 655.871 93.0572C655.914 93.169 655.978 93.273 656.06 93.3628C656.142 93.4526 656.241 93.5264 656.35 93.5798C656.932 93.8807 657.399 94.3715 657.663 94.9612C657.928 95.551 657.972 96.1996 657.789 96.7866L659.5 97.2641Z" fill="#522768"/>
<path class="bug1" d="M673.374 141.022C675.094 140.618 676.709 139.911 678.147 138.933L678.402 138.762C679.639 137.915 680.729 136.877 681.634 135.682L683.287 136.99C682.259 138.334 681.024 139.503 679.624 140.456L679.369 140.628C677.745 141.738 675.917 142.537 673.97 142.988L673.374 141.022Z" fill="#F4C121"/>
<path class="bug1" d="M655.43 106.333L664.507 100.175L673.192 101.524L686.395 114.087C687.964 115.842 689.181 117.874 689.973 120.058C690.764 122.241 691.113 124.532 690.999 126.789C690.829 131.339 688.867 135.512 685.535 138.408L684.798 139.049L655.43 106.333ZM665.148 102.312L658.486 106.796L684.874 136.166C687.376 133.637 688.823 130.23 688.953 126.561C689.046 124.582 688.737 122.576 688.042 120.664C687.348 118.751 686.284 116.97 684.914 115.429L672.356 103.437L665.148 102.312Z" fill="#E83464"/>
<path class="bug1" d="M645.879 118.646L648.202 111.167L657.358 105.057L678.055 144.369L677.114 144.77C673.008 146.572 668.224 146.637 663.812 144.95C659.4 143.264 655.719 139.963 653.577 135.773L645.879 118.646ZM649.985 112.526L648.084 118.657L655.432 135.029C658.999 142.18 667.908 145.815 675.22 143.269L656.671 108.055L649.985 112.526Z" fill="#E83464"/>
<path class="bug1" d="M651.015 102.406C649.99 102.22 649.04 101.681 648.334 100.888C647.629 100.095 647.214 99.0988 647.166 98.0788C647.151 97.8487 647.229 97.6289 647.382 97.4676C647.535 97.3063 647.752 97.2167 647.984 97.2187C648.216 97.2207 648.445 97.3139 648.619 97.478C648.794 97.6421 648.901 97.8635 648.916 98.0936C648.946 98.723 649.206 99.3368 649.647 99.8217C650.087 100.307 650.679 100.63 651.313 100.732L651.015 102.406Z" fill="#522768"/>
<path class="bug1" d="M675.202 126.608C668.088 120.269 664.329 116.554 658.081 106.782C664.542 99.1935 669.981 101.662 677.285 106.125C682.519 110.606 686.497 112.175 689.186 121.335C690.951 144.663 683.38 137.734 675.202 126.608Z" fill="#E83464"/>
<path class="bug1" d="M664.733 122.32C669.669 129.679 672.084 134.819 675.385 144.344C667.62 147.381 663.117 144.1 657.546 138.034C653.869 132.753 648.68 123.163 648.477 115.454C659.376 97.4686 660.002 111.064 664.733 122.32Z" fill="#E83464"/>
<path class="bug1" d="M662.232 112.955L682.217 138.694L680.536 138.694L678.375 140.284L676.753 141.478L675.615 142.667L662.232 112.955Z" fill="#F4C121"/>


<ellipse class="bug2" cx="675.412" cy="319.05" rx="6.19429" ry="6.23423" transform="rotate(-90 675.412 319.05)" fill="#522768"/>
<path class="bug2" d="M667.758 287.029L669.947 290.702L669.025 293.507L672.184 295.045L672.281 290.359L668.686 286.351L667.758 287.029Z" fill="#522768"/>
<path class="bug2" d="M679.874 298.463L675.787 299.949L677.678 303.251L681.578 300.664L682.104 293.573L681.03 293.478L679.874 298.463Z" fill="#522768"/>
<path class="bug2" d="M681.238 309.518L685.041 309.329L686.696 308.075L690.388 309.671L690.963 308.651L686.765 306.734L679.665 306.487L681.238 309.518Z" fill="#522768"/>
<path class="bug2" d="M643.548 308.206L647.573 313.788L653.419 314.131L651.923 309.897L648.168 310.713L644.345 307.543L643.548 308.206Z" fill="#522768"/>
<path class="bug2" d="M650.24 323.648L650.538 324.727L656.613 324.231L660.402 320.077L657.084 317.607L655.207 321.287L650.24 323.648Z" fill="#522768"/>
<path class="bug2" d="M663.277 322.446L662.902 328.764L664.08 333.989L665.181 333.77L664.593 329.427L666.179 326.986L666.47 323.83L663.277 322.446Z" fill="#522768"/>
<path class="bug2" d="M682.464 318.656C682.466 319.714 682.26 320.761 681.858 321.73C681.456 322.7 680.867 323.571 680.129 324.289L680.039 324.377C678.619 325.753 676.738 326.481 674.808 326.4C672.879 326.32 671.058 325.438 669.746 323.947L669.275 323.408L680.067 312.921L680.538 313.46C681.778 314.876 682.466 316.731 682.464 318.656ZM671.284 323.466C672.383 324.449 673.787 324.976 675.23 324.946C676.673 324.917 678.056 324.333 679.118 323.306L679.208 323.218C680.267 322.186 680.93 320.781 681.072 319.269C681.214 317.757 680.824 316.243 679.977 315.013L671.284 323.466Z" fill="#522768"/>
<path class="bug2" d="M675.855 325.31C675.739 326.028 675.87 326.767 676.226 327.393C676.581 328.018 677.138 328.489 677.795 328.72C677.869 328.752 677.947 328.767 678.027 328.766C678.106 328.764 678.184 328.745 678.257 328.711C678.329 328.677 678.394 328.628 678.448 328.566C678.502 328.505 678.544 328.433 678.57 328.354C678.597 328.275 678.608 328.192 678.603 328.108C678.599 328.025 678.578 327.944 678.542 327.869C678.507 327.794 678.457 327.728 678.397 327.674C678.336 327.62 678.266 327.579 678.19 327.554C677.785 327.411 677.443 327.118 677.227 326.729C677.012 326.34 676.938 325.883 677.019 325.441L675.855 325.31Z" fill="#522768"/>
<path class="bug2" d="M660.623 296.371C659.496 296.869 658.459 297.569 657.561 298.441L657.402 298.594C656.628 299.348 655.967 300.22 655.441 301.181L654.243 300.452C654.842 299.37 655.591 298.387 656.466 297.537L656.626 297.384C657.64 296.396 658.812 295.604 660.089 295.045L660.623 296.371Z" fill="#F4C121"/>
<path class="bug2" d="M676.188 318.678L670.529 324.173L664.62 324.275L654.922 316.944C653.752 315.885 652.798 314.588 652.12 313.129C651.441 311.671 651.051 310.083 650.974 308.461C650.778 305.2 651.808 301.989 653.842 299.52L654.292 298.973L676.188 318.678ZM669.954 322.73L674.11 318.722L654.438 301.035C652.934 303.142 652.197 305.745 652.359 308.374C652.432 309.794 652.776 311.184 653.371 312.462C653.966 313.739 654.8 314.877 655.823 315.807L665.05 322.81L669.954 322.73Z" fill="#E83464"/>
<path class="bug2" d="M681.674 308.709L680.649 314.328L675.003 319.808L658.594 294.302L659.189 293.901C661.785 292.113 664.95 291.481 667.988 292.143C671.027 292.806 673.692 294.709 675.398 297.435L681.674 308.709ZM679.374 313.577L680.212 308.971L674.221 298.193C671.367 293.529 665.216 292.028 660.547 294.739L675.253 317.585L679.374 313.577Z" fill="#E83464"/>
<path class="bug2" d="M681.218 320.58C681.912 320.588 682.58 320.855 683.103 321.335C683.626 321.814 683.97 322.474 684.072 323.196C684.098 323.359 684.061 323.525 683.97 323.659C683.879 323.793 683.741 323.883 683.587 323.91C683.433 323.938 683.274 323.899 683.147 323.803C683.02 323.708 682.934 323.563 682.908 323.4C682.845 322.955 682.63 322.549 682.304 322.257C681.978 321.965 681.563 321.807 681.135 321.812L681.218 320.58Z" fill="#522768"/>
<path class="bug2" d="M661.559 306.661C666.754 310.305 669.525 312.491 674.374 318.685C670.564 324.88 666.754 323.787 661.559 321.502C657.749 318.952 654.978 318.321 652.554 312.127C649.783 295.73 655.325 299.738 661.559 306.661Z" fill="#E83464"/>
<path class="bug2" d="M668.815 308.483C664.844 303.908 662.788 300.56 659.791 294.182C664.956 290.846 668.325 292.546 672.641 296.095C675.584 299.358 679.896 305.504 680.607 311.03C674.373 325.605 672.932 315.898 668.815 308.483Z" fill="#E83464"/>
<path class="bug2" d="M671.606 314.564L654.804 299.449L656.043 299.151L657.51 297.613L658.611 296.459L659.355 295.394L671.606 314.564Z" fill="#F4C121"/>
<defs>
<linearGradient id="paint0_linear" x1="166.876" y1="220.526" x2="172.911" y2="322.883" gradientUnits="userSpaceOnUse">
<stop stop-color="#1B1A20"/>
<stop offset="0.98" stop-color="#7D4532"/>
</linearGradient>
<linearGradient id="paint1_linear" x1="187.897" y1="214.924" x2="193.962" y2="218.764" gradientUnits="userSpaceOnUse">
<stop offset="0.21" stop-color="#EBBF85"/>
<stop offset="1" stop-color="#D27D49"/>
</linearGradient>
<linearGradient id="paint2_linear" x1="183.766" y1="204.779" x2="183.449" y2="209.697" gradientUnits="userSpaceOnUse">
<stop offset="0.26" stop-color="#144F87"/>
<stop offset="0.88" stop-color="#5CADB5"/>
</linearGradient>
<linearGradient id="paint3_linear" x1="-6080.35" y1="1114.36" x2="-6091.01" y2="1142.04" gradientUnits="userSpaceOnUse">
<stop offset="0.26" stop-color="#144F87"/>
<stop offset="0.88" stop-color="#5CADB5"/>
</linearGradient>
<linearGradient id="paint4_linear" x1="86992.6" y1="9079.29" x2="102555" y2="9079.29" gradientUnits="userSpaceOnUse">
<stop stop-color="#FE62CE"/>
<stop offset="0.15" stop-color="#F861D0"/>
<stop offset="0.33" stop-color="#E85FD4"/>
<stop offset="0.54" stop-color="#CE5BDC"/>
<stop offset="0.77" stop-color="#A956E7"/>
<stop offset="1" stop-color="#7B4FF5"/>
</linearGradient>
<linearGradient id="paint5_linear" x1="119285" y1="10367.3" x2="131546" y2="12508" gradientUnits="userSpaceOnUse">
<stop stop-color="#FE62CE"/>
<stop offset="0.15" stop-color="#F861D0"/>
<stop offset="0.33" stop-color="#E85FD4"/>
<stop offset="0.54" stop-color="#CE5BDC"/>
<stop offset="0.77" stop-color="#A956E7"/>
<stop offset="1" stop-color="#7B4FF5"/>
</linearGradient>
<linearGradient id="paint6_linear" x1="80588.7" y1="20597.2" x2="95524.3" y2="20597.2" gradientUnits="userSpaceOnUse">
<stop stop-color="#FE62CE"/>
<stop offset="0.15" stop-color="#F861D0"/>
<stop offset="0.33" stop-color="#E85FD4"/>
<stop offset="0.54" stop-color="#CE5BDC"/>
<stop offset="0.77" stop-color="#A956E7"/>
<stop offset="1" stop-color="#7B4FF5"/>
</linearGradient>
<linearGradient id="paint7_linear" x1="72313.5" y1="15950.8" x2="84938.9" y2="15950.8" gradientUnits="userSpaceOnUse">
<stop stop-color="#FE62CE"/>
<stop offset="0.15" stop-color="#F861D0"/>
<stop offset="0.33" stop-color="#E85FD4"/>
<stop offset="0.54" stop-color="#CE5BDC"/>
<stop offset="0.77" stop-color="#A956E7"/>
<stop offset="1" stop-color="#7B4FF5"/>
</linearGradient>
<linearGradient id="paint8_linear" x1="25316.7" y1="21733.7" x2="34366.4" y2="20343.5" gradientUnits="userSpaceOnUse">
<stop stop-color="#FE62CE"/>
<stop offset="0.15" stop-color="#F861D0"/>
<stop offset="0.33" stop-color="#E85FD4"/>
<stop offset="0.54" stop-color="#CE5BDC"/>
<stop offset="0.77" stop-color="#A956E7"/>
<stop offset="1" stop-color="#7B4FF5"/>
</linearGradient>
</defs>
</svg>
