<svg width="570" height="706" viewBox="0 0 570 706" fill="none" xmlns="http://www.w3.org/2000/svg">
<g opacity="0.85">
<path opacity="0.85" d="M457.917 402.522C453.031 348.998 412.308 334.389 373.209 342.07C371.834 342.342 370.492 342.673 369.19 343.029C374.575 341.962 379.453 297.987 348.021 280.096C317.738 262.867 272.699 286.776 272.699 286.776C251.048 258.534 227.556 239.304 191.832 246.323C140.107 256.476 93.2518 319.458 104.126 374.47C104.407 375.867 105.291 380.043 105.291 380.043C71.6487 396.669 39.686 433.914 49.1776 482.494C58.8942 532.248 98.5723 541.053 136.257 530.446C144.567 569.303 189.477 598.653 236.718 598.653C275.922 598.653 304.027 578.488 319.104 549.329C428.093 580.01 413.698 481.791 401.973 467.174C443.001 457.344 460.401 429.747 457.917 402.522Z" fill="url(#paint0_linear)"/>
</g>
<path d="M93.8948 55.7645L159.572 480.22L173.42 490.811L361.419 462.718L376.48 454.227L316.267 18.9822L305.096 9.19342L119.323 33.9217L104.262 42.4124L93.8948 55.7645Z" fill="#2E57AB"/>
<path d="M108.964 47.2738L174.641 471.73L188.481 482.32L376.48 454.227L384.814 440.371L331.023 7.94511L324.433 0L119.323 33.9217L108.964 47.2738Z" fill="#3B69BC"/>
<path d="M121.485 64.1726L180.107 444.951C181.243 452.316 185.149 458.925 190.982 463.352C196.815 467.779 204.106 469.669 211.282 468.613L361.266 446.538C366.182 445.809 370.622 443.122 373.629 439.056C376.636 434.99 377.968 429.871 377.34 424.803L328.709 32.2433C328.124 27.485 325.848 23.1176 322.319 19.9826L320.535 18.3952C318.442 16.5331 315.978 15.1654 313.317 14.3883C310.655 13.6113 307.86 13.4438 305.128 13.8976L137.238 41.8089C132.567 42.5848 128.349 45.1335 125.416 48.952L125.335 49.0513C123.713 51.1614 122.533 53.5944 121.87 56.1971C121.208 58.7997 121.077 61.5153 121.485 64.1726Z" fill="white"/>
<path d="M282.006 102.835L284.803 113.36L289.593 112.194L287.833 101.487L282.006 102.835Z" fill="#3B69BC"/>
<path d="M292.108 98.1805L294.463 111.276L300.394 110.392L297.839 96.2624L292.108 98.1805Z" fill="#3B69BC"/>
<path d="M301.271 90.1692L305.41 109.408L311.076 108.564L307.909 88.8464L301.271 90.1692Z" fill="#3B69BC"/>
<path d="M247.439 106.952L250.807 121.338L274.267 116.435L271.952 101.992L247.439 106.952Z" fill="#F39314"/>
<path d="M131.194 86.8588L132.922 90.4469L326.49 54.26L325.638 49.225L131.194 86.8588Z" fill="#3B69BC"/>
<path d="M156.124 123.112L162.023 156.471C162.211 157.541 162.793 158.495 163.648 159.133C164.504 159.771 165.566 160.044 166.613 159.894L198.664 155.347C199.736 155.195 200.706 154.612 201.361 153.726C202.017 152.839 202.304 151.722 202.16 150.618L197.707 116.341C197.636 115.784 197.456 115.248 197.18 114.764C196.904 114.279 196.536 113.857 196.099 113.521C195.662 113.185 195.163 112.942 194.633 112.808C194.104 112.673 193.553 112.649 193.014 112.736L159.508 118.226C158.972 118.314 158.458 118.511 157.997 118.805C157.536 119.099 157.136 119.485 156.821 119.94C156.506 120.395 156.282 120.909 156.163 121.454C156.043 121.998 156.03 122.562 156.124 123.112Z" fill="#F39314"/>
<path d="M220.5 110.165L226.407 143.525C226.594 144.592 227.175 145.544 228.029 146.18C228.883 146.817 229.943 147.089 230.988 146.939L263.047 142.392C264.119 142.24 265.09 141.657 265.745 140.77C266.4 139.884 266.687 138.767 266.543 137.663L262.099 103.386C262.026 102.829 261.846 102.293 261.569 101.809C261.292 101.325 260.923 100.903 260.485 100.568C260.047 100.232 259.548 99.9908 259.018 99.8572C258.487 99.7235 257.936 99.7004 257.397 99.7892L223.891 105.246C223.352 105.334 222.835 105.532 222.371 105.828C221.907 106.124 221.505 106.513 221.189 106.971C220.873 107.429 220.649 107.948 220.531 108.496C220.413 109.045 220.402 109.612 220.5 110.165Z" fill="url(#paint1_linear)"/>
<path d="M278.349 104.353L284.256 137.721C284.445 138.787 285.027 139.738 285.881 140.374C286.734 141.01 287.793 141.283 288.837 141.135L320.896 136.588C321.969 136.436 322.939 135.853 323.594 134.967C324.25 134.08 324.537 132.963 324.393 131.859L319.948 97.5569C319.877 96.9994 319.697 96.4623 319.42 95.9774C319.144 95.4925 318.775 95.0695 318.337 94.7335C317.899 94.3974 317.4 94.1552 316.869 94.021C316.338 93.8868 315.786 93.8634 315.247 93.9522L281.741 99.4171C281.199 99.5037 280.68 99.7015 280.214 99.9985C279.749 100.296 279.345 100.686 279.029 101.146C278.713 101.607 278.49 102.128 278.373 102.679C278.256 103.229 278.248 103.799 278.349 104.353Z" fill="#3B69BC"/>
<path d="M167.834 207.788L173.733 241.156C173.924 242.223 174.507 243.174 175.362 243.81C176.217 244.446 177.277 244.718 178.322 244.57L210.373 240.023C211.446 239.871 212.417 239.288 213.074 238.402C213.73 237.516 214.019 236.399 213.877 235.294L209.433 201.017C209.361 200.459 209.182 199.922 208.905 199.437C208.629 198.953 208.26 198.53 207.822 198.194C207.384 197.858 206.884 197.615 206.354 197.481C205.823 197.347 205.271 197.323 204.731 197.412L171.185 202.877C170.65 202.969 170.138 203.169 169.678 203.467C169.219 203.764 168.821 204.153 168.51 204.61C168.198 205.067 167.977 205.584 167.861 206.129C167.745 206.675 167.736 207.239 167.834 207.788Z" fill="#3B69BC"/>
<path d="M231.02 200.719L236.927 234.087C237.116 235.154 237.698 236.104 238.552 236.74C239.405 237.377 240.464 237.649 241.508 237.502L273.568 232.955C274.639 232.801 275.608 232.217 276.263 231.331C276.918 230.445 277.205 229.329 277.064 228.226L272.619 193.948C272.547 193.391 272.366 192.855 272.089 192.37C271.812 191.886 271.444 191.464 271.006 191.128C270.568 190.792 270.069 190.55 269.539 190.415C269.008 190.28 268.457 190.256 267.918 190.344L234.412 195.809C233.873 195.895 233.356 196.092 232.892 196.388C232.428 196.683 232.026 197.071 231.71 197.529C231.394 197.986 231.17 198.504 231.052 199.052C230.933 199.6 230.923 200.167 231.02 200.719Z" fill="#E83464"/>
<path d="M292.727 187.673L298.634 221.033C298.822 222.101 299.403 223.053 300.256 223.691C301.11 224.329 302.17 224.603 303.215 224.456L335.275 219.908C336.347 219.756 337.317 219.173 337.972 218.287C338.628 217.401 338.915 216.283 338.771 215.179L334.334 180.935C334.263 180.378 334.083 179.841 333.807 179.356C333.53 178.871 333.162 178.448 332.723 178.112C332.285 177.776 331.786 177.534 331.255 177.399C330.724 177.265 330.172 177.242 329.633 177.331L296.127 182.795C295.59 182.882 295.076 183.077 294.613 183.37C294.151 183.663 293.75 184.047 293.433 184.501C293.117 184.955 292.891 185.47 292.77 186.014C292.649 186.559 292.634 187.123 292.727 187.673Z" fill="#F39314"/>
<path d="M178.419 295.978L184.929 332.76C185.137 333.937 185.78 334.985 186.722 335.686C187.663 336.387 188.832 336.687 189.984 336.522L225.346 331.512C226.53 331.346 227.601 330.703 228.324 329.725C229.047 328.747 229.364 327.513 229.204 326.295L224.301 288.513C224.222 287.899 224.024 287.308 223.719 286.775C223.414 286.241 223.009 285.776 222.526 285.406C222.044 285.036 221.495 284.77 220.911 284.622C220.327 284.474 219.72 284.447 219.126 284.544L182.156 290.563C181.562 290.66 180.993 290.878 180.482 291.204C179.971 291.53 179.529 291.958 179.18 292.462C178.832 292.967 178.586 293.537 178.455 294.141C178.324 294.745 178.312 295.37 178.419 295.978Z" fill="url(#paint2_linear)"/>
<path d="M244.209 284.04L249.143 319.714C249.297 320.816 249.868 321.811 250.733 322.48C251.597 323.149 252.685 323.439 253.756 323.286L287.335 318.524C287.866 318.449 288.378 318.268 288.841 317.99C289.305 317.712 289.71 317.343 290.035 316.904C290.36 316.465 290.597 315.964 290.734 315.431C290.87 314.897 290.903 314.341 290.831 313.795L286.362 279.294C286.221 278.208 285.676 277.222 284.84 276.543C284.004 275.864 282.945 275.546 281.886 275.656L247.857 279.261C247.309 279.318 246.777 279.488 246.293 279.761C245.81 280.035 245.385 280.406 245.045 280.852C244.704 281.298 244.454 281.81 244.311 282.358C244.167 282.906 244.132 283.478 244.209 284.04Z" fill="#F39314"/>
<path d="M302.902 277.012L309.468 311.43C309.677 312.539 310.298 313.52 311.198 314.166C312.098 314.813 313.207 315.074 314.29 314.894L347.378 309.727C348.488 309.552 349.484 308.931 350.15 308.001C350.816 307.072 351.097 305.908 350.93 304.766L345.859 269.381C345.776 268.808 345.583 268.257 345.29 267.761C344.998 267.265 344.612 266.834 344.155 266.494C343.698 266.153 343.18 265.91 342.631 265.779C342.082 265.647 341.513 265.629 340.957 265.727L306.398 271.862C305.835 271.953 305.295 272.16 304.812 272.471C304.328 272.782 303.911 273.19 303.584 273.671C303.258 274.152 303.029 274.696 302.912 275.27C302.794 275.844 302.791 276.437 302.902 277.012Z" fill="#F39314"/>
<path d="M194.107 386.78L199.732 418.825C199.908 419.856 200.465 420.776 201.286 421.392C202.108 422.009 203.129 422.274 204.137 422.132L234.934 417.767C235.965 417.621 236.898 417.061 237.528 416.208C238.158 415.356 238.433 414.281 238.293 413.22L234.066 380.307C233.996 379.772 233.823 379.256 233.557 378.791C233.291 378.325 232.937 377.919 232.517 377.597C232.096 377.274 231.617 377.041 231.107 376.912C230.597 376.782 230.068 376.759 229.549 376.843L197.354 382.093C196.839 382.177 196.346 382.365 195.903 382.648C195.46 382.93 195.077 383.3 194.775 383.736C194.472 384.173 194.258 384.666 194.143 385.189C194.028 385.712 194.016 386.253 194.107 386.78Z" fill="#3B69BC"/>
<path d="M258.418 371.378L261.592 411.509C261.642 412.146 261.818 412.765 262.109 413.33C262.4 413.894 262.8 414.392 263.285 414.791C263.77 415.191 264.329 415.484 264.928 415.653C265.527 415.822 266.153 415.864 266.768 415.775L304.051 410.343C305.236 410.173 306.308 409.528 307.035 408.55C307.761 407.572 308.084 406.339 307.933 405.118L303.207 366.657C303.058 365.443 302.453 364.337 301.522 363.576C300.591 362.814 299.408 362.457 298.224 362.581L262.501 366.335C261.314 366.459 260.221 367.056 259.458 367.999C258.695 368.942 258.321 370.155 258.418 371.378Z" fill="#E83464"/>
<path d="M315.801 362.598L321.708 395.966C321.895 397.033 322.477 397.985 323.331 398.622C324.185 399.258 325.245 399.53 326.289 399.38L358.348 394.833C359.42 394.679 360.389 394.096 361.044 393.21C361.699 392.324 361.986 391.207 361.844 390.104L357.4 355.827C357.328 355.27 357.147 354.734 356.87 354.25C356.593 353.766 356.225 353.344 355.786 353.009C355.348 352.674 354.849 352.432 354.319 352.298C353.789 352.165 353.238 352.142 352.698 352.23L319.185 357.687C318.646 357.775 318.13 357.973 317.667 358.268C317.204 358.564 316.803 358.952 316.488 359.41C316.173 359.867 315.95 360.385 315.832 360.933C315.714 361.48 315.703 362.046 315.801 362.598Z" fill="url(#paint3_linear)"/>
<path d="M283.3 448.605L278.623 432.897L302.838 429.764V447.803L283.3 448.605ZM280.72 434.278L284.506 446.902L301.262 446.199V431.624L280.72 434.278Z" fill="#B4C5CD"/>
<path d="M344.075 440.784L322.761 434.435L339.285 420.281L344.075 440.784ZM326.121 433.715L341.873 438.411L338.353 423.298L326.121 433.715Z" fill="#B4C5CD"/>
<path d="M248.798 454.178C246.965 454.165 245.172 453.635 243.613 452.645C242.054 451.655 240.789 450.243 239.957 448.564C239.326 447.46 238.936 446.228 238.812 444.953C238.689 443.679 238.835 442.392 239.242 441.181C239.615 440.201 240.199 439.321 240.949 438.605C241.699 437.89 242.596 437.357 243.574 437.047C248.114 435.443 252.977 437.601 255.629 442.421C256.289 443.488 256.705 444.695 256.844 445.951C256.983 447.207 256.843 448.48 256.433 449.672C256.014 450.672 255.374 451.559 254.565 452.262C253.757 452.965 252.8 453.465 251.771 453.723C250.806 454.017 249.805 454.17 248.798 454.178ZM246.571 438.18C245.726 438.181 244.887 438.326 244.088 438.61C243.337 438.845 242.646 439.25 242.066 439.795C241.486 440.34 241.032 441.011 240.737 441.76C240.414 442.748 240.303 443.795 240.412 444.831C240.52 445.867 240.844 446.867 241.364 447.762C242.261 449.581 243.752 451.017 245.576 451.817C247.4 452.617 249.44 452.729 251.337 452.135C252.133 451.949 252.875 451.573 253.503 451.037C254.131 450.501 254.628 449.821 254.954 449.052C255.27 448.095 255.371 447.078 255.25 446.075C255.129 445.073 254.788 444.112 254.255 443.264C252.462 440.04 249.561 438.18 246.571 438.18Z" fill="#B4C5CD"/>
<path d="M227.789 119.011L259.439 113.505L260.556 119.474L228.673 125.526L227.789 119.011Z" fill="white"/>
<path d="M202.771 391.427L228.416 386.938L229.22 392.89L203.655 397.942L202.771 391.427Z" fill="white"/>
<path d="M209.859 400.455L224.116 397.942L225.233 403.911L210.823 407.028L209.859 400.455Z" fill="white"/>
<path d="M165.126 126.386L189.397 122.55C189.812 122.486 190.236 122.511 190.642 122.622C191.047 122.733 191.426 122.929 191.756 123.197C192.085 123.466 192.357 123.8 192.555 124.181C192.754 124.561 192.874 124.98 192.909 125.41L194.171 141.284C194.235 142.079 194.003 142.869 193.523 143.495C193.043 144.121 192.35 144.536 191.583 144.657L190.329 144.856L187.348 151.47L183.193 145.947L169.916 148.014C169.167 148.131 168.402 147.958 167.77 147.529C167.138 147.1 166.682 146.445 166.492 145.691L162.626 130.272C162.522 129.846 162.505 129.403 162.576 128.971C162.647 128.539 162.806 128.126 163.041 127.76C163.276 127.395 163.583 127.083 163.942 126.847C164.301 126.61 164.704 126.453 165.126 126.386Z" fill="white"/>
<path d="M199.644 298.062L197.796 296.929C197.796 296.929 192.218 297.491 190.988 302.6C188.65 312.331 192.596 318.722 196.695 321.5C199.398 323.345 202.53 324.416 205.769 324.602C209.008 324.788 212.237 324.082 215.123 322.558L216.996 318.218L216.505 315.332L208.067 315.093L206.387 316.978V319.094C206.387 319.094 202.007 319.144 199.387 316.787C198.161 315.765 197.21 314.436 196.626 312.928C196.042 311.42 195.844 309.782 196.052 308.173L198.029 308.247L199.459 307.892L199.644 298.062Z" fill="white"/>
<g opacity="0.32">
<path opacity="0.32" d="M464.243 252.565C519.239 261.66 567.814 295.838 559.014 390.121C571.648 361.614 572.057 331.247 566.874 312.555C559.592 286.255 530.997 251.003 464.243 252.565Z" fill="url(#paint4_linear)"/>
</g>
<g opacity="0.32">
<path opacity="0.32" d="M545.046 436.675C547.923 404.283 534.348 369.865 504.716 331.909C558.314 439.602 535.08 510.761 425.521 529.363C455.185 530.189 489.752 525.51 513.011 503.593C536.269 481.675 542.281 467.885 545.046 436.675Z" fill="url(#paint5_linear)"/>
</g>
<g opacity="0.32">
<path opacity="0.32" d="M245.462 625.159C201.396 648.531 160.802 645.323 119.123 591.791C125.078 609.153 139.062 630.648 151.037 640.404C169.747 651.59 202.264 664.148 245.462 625.159Z" fill="url(#paint6_linear)"/>
</g>
<g opacity="0.32">
<path opacity="0.32" d="M45.36 558.605C70.3949 575.867 103.226 579.803 144.953 571.486C33.9316 570.221 -7.36999 524.84 15.7602 413.08C3.88969 438.32 -5.34469 470.324 3.5441 500.401C12.4329 530.479 21.2654 541.987 45.36 558.605Z" fill="url(#paint7_linear)"/>
</g>
<path d="M277.931 564.235C277.988 564.963 277.972 565.228 278.502 564.235H277.931Z" fill="#F39314"/>
<path fill-rule="evenodd" clip-rule="evenodd" d="M242.006 479.038C245.599 475.731 258.418 469.043 262.251 466.637C264.18 465.446 267.974 458.774 271.213 456.782C272.659 455.889 277.321 454.351 278.181 454.616C284.015 456.468 287.455 463.553 290.236 465C284.489 466.612 275.552 481.014 273.318 484.61C267.998 485.197 259.913 488.281 252.607 491.224C249.738 492.382 245.374 494.168 243.148 494.35C238.671 494.35 236.308 487.223 236.308 487.223C236.59 486.669 240.126 480.791 242.006 479.038Z" fill="#E83464"/>
<path fill-rule="evenodd" clip-rule="evenodd" d="M383.255 478.253C383.6 473.714 382.202 458.683 382.411 457.418C378.26 456.349 374.028 455.644 369.761 455.31C356.974 454.607 305.723 465.488 292.325 465.157C286.86 465.016 279.812 460.792 278.068 459.502C272.876 455.666 273.591 456.906 270.144 459.684C267.668 461.676 265.796 469.084 263.762 470.018C256.626 473.267 248.042 475.599 243.807 479.501C242.199 480.989 241.998 484.462 241.147 485.793C240.222 489.612 239.845 491.233 241.364 491.977C242.746 492.647 250.268 491.076 253.556 490.323C269.059 486.843 279.852 484.42 288.749 484.867C304.373 485.644 316.878 486.661 332.269 489.315C349.556 492.299 366.233 495.681 382.387 498.583C382.332 491.795 382.621 485.009 383.255 478.253Z" fill="#E83464"/>
<path fill-rule="evenodd" clip-rule="evenodd" d="M301.094 323.435C296.272 338.821 283.718 362.383 284.056 377.719C284.626 403.415 286.66 425.812 287.833 451.466C288.179 459.006 289.923 483.594 290.244 490.985C282.271 500.41 274.604 518.383 272.121 525.617C269.051 534.571 270.296 557.778 270.755 567.691C271.51 584.226 274.347 647.646 274.564 651.524L293.218 655.046C297.734 620.438 298.506 589.269 306.326 554.529C307.588 548.924 310.81 527.205 312.651 521.459C315.761 514.762 320.085 504.667 323.155 497.789C324.24 492.828 329.392 467.05 329.392 467.05C329.392 467.05 350.585 419.057 358.108 363.706C360.39 348.675 355.23 323.435 301.094 323.435Z" fill="#2E57AB"/>
<path fill-rule="evenodd" clip-rule="evenodd" d="M395.816 318.392C420.04 373.032 428.213 470.837 429.274 476.773C430.455 483.461 431.685 488.256 428.31 494.399C426.839 497.061 420.602 501.344 417.436 501.708C408.129 502.799 390.512 499.848 380.731 498.285C379.309 488.86 379.518 466.967 382.411 457.419C383.038 457.592 390.303 461.552 390.946 461.701C386.984 452.127 380.587 444.166 377.283 436.898C363.267 406.267 358.107 376.173 350.609 344.178C362.849 332.521 383.223 326.312 395.816 318.392Z" fill="#2E57AB"/>
<path fill-rule="evenodd" clip-rule="evenodd" d="M292.253 697.268C290.903 695.888 292.711 684.685 292.808 682.056C292.767 675.442 293.009 667.654 292.808 660.147C292.808 657.849 293.346 654.955 293.611 651.797C297.879 618.049 298.731 588.137 306.302 554.529C306.695 552.776 307.869 545.435 308.496 542.367C283.967 539.589 279.732 533.009 271.703 526.957C269.235 536.696 266.824 561.829 267.234 571.287C267.99 587.822 274.371 647.646 274.588 651.483L274.644 652.921C273.993 661.445 274.475 661.85 270.578 669.241C269.653 674.425 273.278 677.137 273.792 682.354C273.591 683.759 272.74 691.613 271.976 694.755C271.172 698.062 273.784 700.377 279.065 702.601C279.04 702.634 294.479 699.153 292.253 697.268Z" fill="#E83464"/>
<path fill-rule="evenodd" clip-rule="evenodd" d="M267.781 668.249C266.27 672.573 268.255 674.227 269.276 676.889C271.02 681.436 269.862 689.761 269.356 694.325C268.793 699.285 272.804 702.08 277.514 704.081C277.514 704.081 292.936 706.396 293.869 705.941C294.583 705.593 295.209 705.081 295.701 704.444C296.079 704.039 294.351 697.591 293.603 695.491C292.856 693.391 293.603 683.693 293.25 680.923C292.703 676.318 293.692 671.614 292.792 667.042L292.446 665.686C287.945 670.192 278.325 662.181 276.131 658.568L274.524 654.252C274.524 654.252 269.155 664.33 267.781 668.249Z" fill="#E83464"/>
<path d="M307.009 66.0494C302.13 72.7874 291.924 93.4893 289.617 103.89C292.615 126.287 310.947 129.04 292.43 163.276C286.619 174.023 262.018 190.311 266.656 222.232C272.281 234.592 282.922 248.233 292.928 251.838C293.973 252.21 291.369 243.43 291.867 240.85C292.872 244.711 296.947 253.475 299.101 256.815C310.553 274.383 336.536 284.279 348.126 284.098C367.326 283.8 382.548 272.688 388.977 257.236C390.094 254.566 394.731 245.397 396.21 240.329C395.687 246.102 394.809 251.834 393.582 257.493C401.129 247.919 412.477 226.688 412.477 226.688C412.477 226.688 430.367 205.258 421.486 177.256C406.329 157.174 393.896 142.582 386.703 129.627C374.037 106.808 371.304 73.4488 371.304 73.0024C371.69 70.7288 380.145 59.6751 375.475 48.2824C362.745 42.2884 344.573 42.8837 334.439 44.4215C334.415 44.4215 316.492 52.9618 307.009 66.0494Z" fill="url(#paint8_linear)"/>
<path d="M283.702 232.533C281.291 212.443 293.346 191.369 303.971 172.783C307.451 166.69 310.738 160.936 313.398 155.422C320.302 141.218 321.122 119.598 319.988 108.528L320.736 108.445C321.877 119.606 321.049 141.416 314.065 155.769C311.397 161.258 308.102 167.029 304.614 173.131C294.053 191.617 282.111 212.567 284.449 232.392L283.702 232.533Z" fill="#543B38"/>
<path d="M371.899 245.761L371.617 245.042C385.505 239.254 394.587 227.721 398.613 210.764C403.05 192.096 391.259 177.033 380.86 163.739C378.167 160.299 375.628 157.059 373.522 153.925C359.096 132.504 353.149 119.631 353.092 119.507L353.767 119.177C353.832 119.301 359.755 132.124 374.133 153.487C376.222 156.596 378.762 159.828 381.438 163.259C391.951 176.686 403.869 191.906 399.345 210.955C395.254 228.184 386.019 239.875 371.899 245.761Z" fill="#543B38"/>
<path d="M261.584 262.478L297.59 227.68L310.891 202.753L320.23 189.442L318.357 166.012C318.357 166.012 305.57 167.558 299.286 173.155C295.122 178.298 292.334 180.199 288.034 186.094C274.267 198.446 269.099 207.896 262.099 216.684C252.583 231.615 242.071 246.034 235.071 263.809C236.244 266.636 247.857 282.08 250.084 283.651C256.272 281.815 264.96 278.467 271.108 275.929L261.584 262.478Z" fill="#2E57AB"/>
<path d="M307.226 189.054L296.874 203.778C296.874 203.778 298.377 211.219 299.872 217.164C303.601 223.124 310.392 237.973 312.136 241.363C313.543 249.043 317.336 275.094 313.575 292.15C310.915 301.931 305.466 312.034 301.881 324.774C301.881 332.827 306.157 345.335 303.32 353.71C300.298 362.565 397.022 349.188 397.022 349.188L395.688 318.127L381.221 286.165L383.134 233.36C383.134 233.36 386.349 229.267 391.476 222.447C393.357 212.922 390.48 201.852 390.48 201.852L384.967 170.907L375.001 162.928C372.027 161.382 354.82 157.521 342.395 152.115C332.936 156.744 303.939 170.129 303.939 170.129L307.226 189.054Z" fill="#2E57AB"/>
<path d="M429.756 214.336C423.552 207.309 404.987 187.822 396.974 180.356C387.916 168.253 384.709 165.425 384.709 165.425L365.63 159.836L371.947 201.083L406.232 229.524L426.879 252.987C424.564 258.311 423.769 264.561 422.314 269.117C426.18 273.06 437.584 274.565 443.025 276.673L456.415 259.932C443.636 230.937 438.766 227.465 429.756 214.336Z" fill="#2E57AB"/>
<path d="M401.354 299.806C406.055 296.846 407.735 294.267 407.735 294.267L418.376 278.31L424.002 262.602C428.752 262.089 436.539 268.819 444.423 274.607C435.334 287.611 417.524 301.889 413.264 306.271C412.766 308.338 412.766 309.363 412.268 312.199C410.998 313.356 406.755 319.706 406.755 319.706C406.755 319.706 404.898 324.526 404.504 325.303C403.845 325.617 399.578 327.51 399.578 327.51C398.035 323.005 393.952 314.134 390.737 307.189C391.115 306.023 392.015 306.155 393.638 305.031C396.098 303.262 399.891 300.732 401.354 299.806Z" fill="#E83464"/>
<path d="M319.153 163.441L355.889 186.144L371.947 161.821L346.799 149.849L319.153 163.441Z" fill="#E83464"/>
<path d="M336.577 122.798L333.362 155.612L325.912 159.845C325.912 159.845 343.488 165.789 351.34 168.559C358.911 165.392 364.448 158.257 364.448 158.257L356.203 154.124L345.811 125.336L336.577 122.798Z" fill="#D7AC74"/>
<path d="M403.781 156.786C381.358 151.825 361.692 117.928 361.491 117.606L362.142 117.209C362.335 117.548 381.832 151.106 403.934 156.067L403.781 156.786Z" fill="#543B38"/>
<path d="M335.403 122.583C335.355 125.758 334.76 138.837 334.76 138.837L344.919 141.739L351.348 140.548L347.756 126.543L335.403 122.583Z" fill="#C28757"/>
<path d="M313.39 83.8163L365.967 70.5221L368.571 91.7697C370.114 95.7298 371.513 98.5077 372.26 102.757C371.2 111.188 368.385 119.284 364.006 126.493C364.006 126.493 357.304 137.241 354.41 139.267C345.57 137.249 329.375 130.172 325.028 125.162C314.242 112.802 313.39 83.8163 313.39 83.8163Z" fill="#EBBF85"/>
<path d="M321.917 94.7047L329.15 88.9174C329.15 88.9174 338.457 81.9231 341.801 83.7585C345.393 85.7427 345.522 91.687 345.522 91.687C345.522 91.687 338.843 97.1106 334.222 97.772C331.385 98.1523 321.917 94.7047 321.917 94.7047Z" fill="#D9A164"/>
<path d="M351.043 83.7337C352.514 82.2208 359.16 82.5846 360.438 82.5267C361.716 82.4688 366.996 83.9404 367.068 83.9404C367.519 84.8664 367.446 91.7285 366.61 93.2497C365.075 94.9693 361.732 97.3835 359.16 97.0858C355.945 96.6725 352.61 93.7788 351.71 92.7206C351.212 90.4801 351.164 86.1148 351.043 83.7337Z" fill="#D9A164"/>
<path d="M356.187 79.5673L359.313 76.2598C361.625 77.0405 363.849 78.0775 365.943 79.3523L366.57 81.279L360.944 80.1214L356.187 79.5673Z" fill="#4B2D32"/>
<path d="M313.366 90.5131C313.366 90.5131 332.092 85.9494 347.925 84.5852C361.443 81.4932 368.194 85.3541 368.194 85.3541L368.997 90.2402L370.315 95.1429C370.315 95.1429 369.938 99.5164 364.625 99.4503C362.471 99.4503 357.85 96.9039 354.483 95.7878C353.261 95.3744 350.36 93.8531 346.791 95.9779C336.56 102.071 336.167 100.269 329.97 100.657C325.67 100.922 317.915 96.9452 317.915 96.9452L313.977 96.7468L313.366 90.5131Z" fill="#2E57AB"/>
<g style="mix-blend-mode:overlay" opacity="0.35">
<path d="M390.946 461.701L397.44 472.06L403.733 480.32L396.982 476.93L390.56 469.382L390.946 461.701Z" fill="#212430"/>
</g>
<g style="mix-blend-mode:overlay" opacity="0.35">
<path d="M302.629 510.761L309.91 514.068L313.213 513.001L309.283 520.946L304.196 521.318L302.629 510.761Z" fill="#212430"/>
</g>
<path d="M320.229 182.465L331.578 229.697L364.432 252.02L390.56 217.676L379.71 179.579L363.259 197.536L320.229 182.465Z" fill="#E83464"/>
<path d="M257.831 259.13C258.338 258.873 254.327 260.932 252.455 262.991C253.202 262.991 263.216 266.852 263.216 266.852L260.805 262.222L265.056 257.071L257.831 259.13Z" fill="#26428F"/>
<path d="M429.756 256.426C429.564 256.972 432.762 254.111 435.382 251.408C430.882 250.631 421.776 247.547 421.776 247.547L426.936 253.045L426.092 255.947L429.756 256.426Z" fill="#26428F"/>
<g style="mix-blend-mode:overlay" opacity="0.39">
<path d="M341.857 230.375C337.34 231.359 326.338 228.573 326.338 228.573C326.338 228.573 318.389 222.876 316.083 220.082C312.329 213.517 312.828 205.92 312.828 205.92L310.224 220.595L319.98 238.742C319.98 238.742 327.173 240.205 339.566 243.702C346.317 240.999 358.855 221.653 358.855 221.653C353.47 225.108 347.779 228.028 341.857 230.375Z" fill="#262935"/>
</g>
<g style="mix-blend-mode:overlay" opacity="0.39">
<path d="M392.473 208.929L388.84 197.536C388.84 197.536 389.966 208.16 388.84 215.493C385.087 222.314 374.205 225.53 374.205 225.53L365.566 227.854L379.14 237.775C379.14 237.775 390.319 225.638 391.846 222.025C392.2 218.197 392.473 208.929 392.473 208.929Z" fill="#262935"/>
</g>
<path d="M351.115 94.8204L353.559 100.029L357.183 103.89L350.93 107.495L346.237 109.495L345.98 101.501L347.201 97.1435L351.115 94.8204Z" fill="url(#paint9_linear)"/>
<path d="M337.461 115.58L334.76 110.562L341.31 108.974L338.337 111.835L337.461 115.58Z" fill="#D9A164"/>
<path d="M359.441 110.455L364.071 109.173L362.061 113.423L361.314 111.232L359.441 110.455Z" fill="#D9A164"/>
<path d="M337.71 112.083C337.71 112.083 346.968 113.737 352.176 113.497C354.587 113.389 361.933 111.099 361.933 111.099C361.31 113.101 360.426 115.006 359.305 116.763C358.557 120.111 356.283 122.757 353.599 123.253C347.9 124.311 339.076 115.787 337.71 112.083Z" fill="white"/>
<path d="M346.446 116.109C346.446 116.109 352.072 116.341 353.253 116.242C356.339 115.994 358.003 115.977 358.003 115.977C358.003 115.977 356.854 116.804 353.253 117.169C351.493 117.351 346.446 116.109 346.446 116.109Z" fill="#D4CCD4"/>
<g style="mix-blend-mode:overlay" opacity="0.24">
<path d="M356.99 372.378L360.953 371.684L397.745 322.938L395.728 317.87L354.66 356.844L356.99 372.378Z" fill="#212430"/>
</g>
<path d="M343.103 91.5217C340.828 93.3358 338.228 94.6703 335.452 95.4489C332.47 96.2756 327.945 94.2997 326.852 93.539C327.704 91.5383 329.135 90.5462 331.722 88.81C334.31 87.0738 339.157 86.5447 343.103 91.5217Z" fill="white"/>
<path d="M332.968 95.4487C335.13 96.077 337.726 95.1262 338.296 93.9688C338.891 93.357 340.008 88.3717 336.689 87.0902C334.085 87.4457 330.372 87.4457 329.705 90.7775C329.4 90.3807 330.316 94.7211 332.968 95.4487Z" fill="url(#paint10_linear)"/>
<path d="M326.378 93.4232C327.251 91.7151 328.379 90.1584 329.721 88.8099C330.305 88.3138 330.932 87.8738 331.594 87.4954C331.811 87.3796 331.907 87.3135 332.124 87.206C332.341 87.0985 332.51 87.0241 332.703 86.9415C333.087 86.778 333.482 86.6426 333.884 86.5363C335.515 86.096 337.243 86.2358 338.787 86.9332C340.273 87.6111 342.178 89.7938 343.022 91.067C341.664 90.3807 339.43 89.0579 338.112 88.8513C336.949 88.5238 335.722 88.5238 334.559 88.8513C334.263 88.9553 333.974 89.0768 333.691 89.215L333.273 89.43L332.839 89.678C332.253 90.0418 331.642 90.4221 330.999 90.7611C329.713 91.4803 327.8 92.6874 326.378 93.4232Z" fill="#221F1F"/>
<path d="M336.745 90.0173C336.745 90.4327 336.626 90.8388 336.401 91.1842C336.177 91.5296 335.858 91.7988 335.485 91.9577C335.112 92.1167 334.702 92.1583 334.306 92.0773C333.91 91.9962 333.546 91.7962 333.26 91.5025C332.975 91.2087 332.781 90.8345 332.702 90.4271C332.623 90.0196 332.663 89.5973 332.818 89.2136C332.972 88.8298 333.234 88.5017 333.57 88.271C333.906 88.0402 334.3 87.917 334.704 87.917C335.245 87.917 335.765 88.1383 336.147 88.5322C336.53 88.926 336.745 89.4603 336.745 90.0173Z" fill="#221F1F"/>
<path d="M339.655 91.7701C339.655 91.986 339.592 92.197 339.476 92.3766C339.359 92.5561 339.194 92.696 339 92.7786C338.806 92.8612 338.593 92.8829 338.387 92.8407C338.181 92.7986 337.992 92.6946 337.844 92.542C337.695 92.3893 337.594 92.1948 337.553 91.983C337.512 91.7713 337.533 91.5518 337.614 91.3523C337.694 91.1528 337.83 90.9823 338.004 90.8624C338.179 90.7424 338.384 90.6784 338.594 90.6784C338.875 90.6784 339.145 90.7934 339.344 90.9981C339.543 91.2029 339.655 91.4805 339.655 91.7701Z" fill="white"/>
<path d="M353.968 91.4224C355.704 92.5798 360.309 94.5888 362.809 94.1837C365.71 93.7207 365.935 93.0345 367.245 92.6956C367.486 90.0996 365.437 86.8257 362.512 86.3709C359.586 85.9162 355.969 87.6359 353.968 91.4224Z" fill="white"/>
<path d="M363.114 94.0516C361.549 94.3488 359.932 94.1319 358.493 93.4315C357.4 92.6048 356.082 88.8926 358.204 87.4954C360.768 87.4458 364.087 87.3962 365.011 89.1489C365.268 88.6859 365.598 93.2497 363.114 94.0516Z" fill="url(#paint11_linear)"/>
<path d="M367.077 92.0839C366.375 90.798 365.426 89.6728 364.288 88.7769C363.066 87.8178 360.076 88.0493 359.088 88.3221C358.099 88.595 355.286 90.4552 353.832 91.4142C354.905 89.4654 356.429 87.8185 358.268 86.619C360.269 85.445 363.09 85.1143 364.513 86.2718C365.112 86.6842 365.616 87.2259 365.992 87.8592C366.743 89.1296 367.12 90.5973 367.077 92.0839Z" fill="#221F1F"/>
<path d="M363.131 89.389C363.147 89.819 363.037 90.2441 362.817 90.6097C362.596 90.9753 362.274 91.2648 361.893 91.4409C361.511 91.617 361.087 91.6717 360.675 91.598C360.263 91.5243 359.882 91.3256 359.58 91.0273C359.279 90.729 359.071 90.3448 358.983 89.9241C358.896 89.5033 358.932 89.0652 359.088 88.666C359.245 88.2668 359.513 87.9248 359.86 87.6838C360.206 87.4428 360.615 87.3138 361.033 87.3135C361.303 87.308 361.572 87.3574 361.823 87.4587C362.075 87.5601 362.305 87.7114 362.5 87.9042C362.694 88.0969 362.85 88.3272 362.959 88.582C363.067 88.8368 363.125 89.111 363.131 89.389Z" fill="#221F1F"/>
<path d="M365.493 91.5468C365.503 91.7715 365.447 91.994 365.332 92.1855C365.218 92.3771 365.05 92.529 364.851 92.6215C364.652 92.7141 364.431 92.7431 364.215 92.7048C364 92.6665 363.801 92.5626 363.643 92.4066C363.486 92.2506 363.377 92.0497 363.332 91.8297C363.287 91.6097 363.307 91.3808 363.389 91.1725C363.471 90.9642 363.612 90.7861 363.794 90.6612C363.976 90.5363 364.19 90.4703 364.408 90.4717C364.548 90.4684 364.688 90.4937 364.818 90.546C364.948 90.5984 365.068 90.6768 365.168 90.7768C365.269 90.8767 365.35 90.9962 365.406 91.1284C365.461 91.2606 365.491 91.4028 365.493 91.5468Z" fill="white"/>
<g style="mix-blend-mode:overlay" opacity="0.23">
<path d="M298.434 330.098C307.426 334.538 315.767 340.258 323.211 347.088C332.502 355.529 353.438 373.734 353.438 373.734L357.312 365.467C357.312 365.467 338.377 329.561 336.416 329.561C334.455 329.561 302.171 321.715 302.171 321.715L298.434 330.098Z" fill="#212430"/>
</g>
<path d="M299.824 324.129C299.824 324.129 322.954 327.502 338.192 338.672C349.749 347.146 356.789 369.774 356.789 369.774H360.655C360.655 369.774 373.032 348.51 378.079 342.491C382.411 337.341 396.99 320.061 396.99 320.061L392.722 310.612C382.122 317.434 370.098 321.571 357.641 322.682C347.563 323.468 313.342 317.771 304.397 313.91L299.824 324.129Z" fill="#E83464"/>
<path d="M315.64 102.352C314.355 103.179 308.407 116.242 307.146 123.377C309.974 119.144 315.11 117.3 315.11 117.3L319.024 115.861L315.64 102.352Z" fill="#212124"/>
<path d="M310.384 111.231C312.233 106.122 316.717 98.3011 319.643 95.3992C340.169 79.1783 366.401 91.5217 368.796 60.7499C369.447 52.3584 311.678 75.5571 311.678 75.5571L310.384 111.231Z" fill="#1B1A20"/>
<path d="M297.019 119.516L296.352 119.16C296.489 118.887 310.192 91.7862 330.75 82.1958C332.684 81.3856 334.586 80.6002 336.456 79.8396C356.669 71.5224 372.622 64.958 371.947 47.9186H372.702C373.402 65.5119 357.223 72.159 336.737 80.5837L331.047 82.9399C310.738 92.3815 297.156 119.243 297.019 119.516Z" fill="#434848"/>
<path d="M293.828 113.001L292.783 112.554C292.88 112.315 302.661 88.5123 320.953 75.615C337.589 63.8834 345.353 56.4178 347.37 43.1732L348.479 43.3551C346.414 56.9386 338.16 64.8507 321.588 76.5658C303.569 89.2895 293.925 112.761 293.828 113.001Z" fill="#434848"/>
<path d="M283.919 192.708C283.919 192.708 291.433 194.064 293.306 193.485C292.743 191.361 291.803 188.657 291.803 188.657L294.053 181.125L288.243 189.046L283.919 192.708Z" fill="#26428F"/>
<g style="mix-blend-mode:overlay" opacity="0.16">
<path d="M315.64 256.294L368.089 266.852C368.089 266.852 377.251 255.914 379.694 254.756C379.188 256.302 378.585 265.644 378.585 265.644L377.733 278.955L368.499 294.44C368.499 294.44 318.108 278.368 317.666 276.897C316.918 274.416 317.272 266.207 316.669 263.503C315.52 258.485 315.64 256.294 315.64 256.294Z" fill="white"/>
</g>
<g style="mix-blend-mode:overlay">
<path d="M311.196 62.9573L325.494 60.0636C325.494 60.0636 332.815 57.9388 332.068 63.7344C331.666 66.7934 343.078 64.1974 348.021 62.1884C356.058 58.8814 352.152 63.9246 352.152 67.2068C352.152 70.489 359.779 70.2741 362.817 70.2741C366.57 70.2741 365.968 71.1008 365.566 72.589C362.062 81.0219 347.611 85.3541 339.156 85.7427C340.475 83.6179 333.531 80.3357 328.644 80.5258C326.667 80.6085 323.018 81.6916 320.768 81.4931C318.518 81.2947 318.357 78.4093 318.887 75.1271C319.418 71.8449 314.756 71.6465 312.321 73.3827C309.886 75.1188 307.25 69.1414 307.25 69.1414L311.196 62.9573Z" fill="#CED3D7"/>
</g>
<path opacity="0.23" d="M273.656 657.319L269.171 669.183L271.63 675.996L274.942 661.494L273.656 657.319Z" fill="#6E2430"/>
<path opacity="0.23" d="M291.369 469.381C291.369 469.381 284.465 458.708 279.089 456.6C275.625 455.252 271.277 460.081 271.277 460.081C271.277 460.081 271.373 462.949 280.286 464.132C285.639 464.834 291.369 469.381 291.369 469.381Z" fill="#6E2430"/>
<path opacity="0.23" d="M390.697 306.933L392.2 305.965L397.078 313.365L402.093 322.93L401.394 326.237L399.553 327.477L394.305 314.307L390.697 306.933Z" fill="#6E2430"/>
<path d="M302.564 301.989L291.739 298.839L286.169 292.018L268.689 271.101C262.959 271.308 254.046 277.277 248.412 283.072C254.038 287.702 260.74 293.365 266.246 297.747C276.629 305.469 279.482 306.577 284.658 311.207C286.394 312.497 286.37 313.596 287.833 316.101C290.814 317.647 291.747 318.581 294.962 320.913C295.283 320.996 294.841 324.137 294.841 325.295C297.34 326.32 302.074 327.866 302.074 327.866L314.29 318.391L310.738 304.485L302.564 301.989Z" fill="#E83464"/>
<path opacity="0.23" d="M292.615 316.969L302.564 320.061L300.121 325.659L295.436 324.691L295.243 320.251L292.615 316.969Z" fill="#6E2430"/>
<path d="M72.2674 264.487L62.2615 250.903L82.8037 250.399L72.2674 264.487ZM67.0273 253.268L72.2835 260.428L77.8128 252.987L67.0273 253.268Z" fill="#B4C5CD"/>
<path d="M442.832 133.979L426.839 111.293H442.832V133.979ZM431.581 113.773L440.421 126.331V113.773H431.581Z" fill="#B4C5CD"/>
<path d="M48.4623 608.392L46.437 607.053L51.0502 599.637L57.5118 602.795L62.1411 591.411L72.8302 595.883L76.5271 587.93L82.2815 590.89L81.1965 593.105L77.6442 591.278L74.0276 599.058L63.4431 594.635L58.7656 606.151L51.9342 602.82L48.4623 608.392Z" fill="#B4C5CD"/>
<path d="M55.9527 416.627C55.4223 415.998 54.8918 415.362 54.3453 414.725L56.2581 413.129C56.7725 413.758 57.2949 414.386 57.8173 415.006L55.9527 416.627ZM51.2993 410.839L49.8286 408.88L51.7414 407.367C52.2316 408.012 52.7219 408.665 53.2202 409.31L51.2993 410.839ZM46.9032 404.862L45.4887 402.828L47.4658 401.398C47.9239 402.067 48.382 402.737 48.8561 403.407L46.9032 404.862ZM42.7561 398.694C42.3061 398 41.864 397.297 41.4301 396.594L43.4553 395.263C43.8893 395.949 44.3233 396.644 44.7654 397.33L42.7561 398.694ZM38.8663 392.353C38.4484 391.634 38.0626 390.914 37.6286 390.195L39.7102 388.955L40.9318 391.055L38.8663 392.353ZM35.2497 385.838C34.8559 385.111 34.446 384.375 34.1004 383.639L36.2382 382.482C36.6079 383.209 36.9857 383.937 37.3634 384.656L35.2497 385.838ZM31.9063 379.183C31.5447 378.43 31.1991 377.686 30.8535 376.926L33.0315 375.868C33.3691 376.612 33.7146 377.356 34.0683 378.091L31.9063 379.183ZM28.8363 372.379C28.5148 371.618 28.1933 370.849 27.8799 370.08L30.1061 369.121C30.4115 369.882 30.733 370.634 31.0464 371.387L28.8363 372.379ZM26.0635 365.426C25.7742 364.648 25.4849 363.871 25.2036 363.086L27.4619 362.259C27.7432 363.028 28.0245 363.797 28.3139 364.566L26.0635 365.426ZM23.5801 358.382C23.3149 357.555 23.0658 356.803 22.8166 356.009L25.1071 355.248C25.3563 356.025 25.6054 356.811 25.8626 357.588L23.5801 358.382ZM21.3861 351.238C21.161 350.412 20.936 349.635 20.719 348.833L23.0497 348.171C23.2587 348.998 23.4756 349.75 23.7007 350.536L21.3861 351.238ZM19.4974 343.996C19.3045 343.169 19.1116 342.384 18.9348 341.574L21.2816 341.012C21.4584 341.838 21.6432 342.607 21.8361 343.409L19.4974 343.996ZM17.89 336.688C17.7293 335.872 17.5766 335.045 17.4319 334.207L19.8028 333.753C19.9475 334.579 20.1002 335.365 20.2529 336.175L17.89 336.688ZM16.6121 329.313C16.4836 328.486 16.363 327.659 16.2505 326.833L18.6616 326.485C18.7741 327.312 18.8946 328.139 19.0152 328.916L16.6121 329.313ZM15.6316 321.872C15.5432 321.045 15.4548 320.219 15.3745 319.392L17.7855 319.144C17.8659 319.971 17.9463 320.797 18.0347 321.624L15.6316 321.872ZM14.9726 314.431C14.9083 313.605 14.8601 312.778 14.8199 311.951L17.231 311.811C17.2792 312.637 17.3274 313.464 17.3837 314.291L14.9726 314.431ZM14.611 306.949L14.5627 304.469H16.9738L17.022 306.949H14.611ZM16.9818 299.508L14.5708 299.467C14.5708 298.64 14.5708 297.814 14.627 296.987L17.0381 297.061C17.0301 297.888 17.014 298.706 16.9979 299.533L16.9818 299.508ZM17.2471 292.126L14.836 291.977C14.8842 291.15 14.9324 290.323 14.9967 289.496L17.4078 289.678C17.3676 290.513 17.3114 291.332 17.2631 292.15L17.2471 292.126ZM17.8177 284.759L15.4066 284.511C15.487 283.684 15.5754 282.858 15.6718 282.031L18.0829 282.312C18.0025 283.155 17.9222 283.974 17.8338 284.784L17.8177 284.759ZM18.7017 277.434L16.2907 277.07C16.4032 276.244 16.5318 275.417 16.6523 274.59L19.0634 274.979C18.9509 275.83 18.8303 276.64 18.7178 277.459L18.7017 277.434ZM19.8832 270.142L17.4721 269.679C17.6248 268.852 17.7775 268.026 17.9463 267.199L20.3091 267.695C20.2046 268.546 20.0921 269.357 19.8992 270.167L19.8832 270.142ZM21.3861 262.908L19.0393 262.346C19.2241 261.519 19.409 260.692 19.6099 259.915L21.9486 260.51C21.7558 261.329 21.5709 262.123 21.3861 262.908ZM23.1702 255.74L20.8476 255.079C21.0726 254.252 21.2896 253.475 21.5227 252.673L23.8373 253.375C23.6123 254.177 23.3872 254.971 23.1702 255.757V255.74ZM25.2598 248.663L22.9613 247.894L23.765 245.521L26.0475 246.348C25.7581 247.117 25.5009 247.902 25.2598 248.68V248.663ZM27.6709 241.685L25.4125 240.817C25.6938 240.04 25.9832 239.255 26.2805 238.477L28.5309 239.387C28.1933 240.164 27.912 240.933 27.6307 241.702L27.6709 241.685ZM30.3392 234.823L28.1129 233.848L29.0774 231.557L31.2875 232.558C30.9258 233.327 30.6044 234.079 30.299 234.84L30.3392 234.823ZM33.2807 228.077L31.1027 227.01L32.1474 224.778L34.3094 225.878C33.9316 226.613 33.5861 227.358 33.2405 228.093L33.2807 228.077ZM36.4954 221.463L34.3656 220.305C34.7434 219.569 35.1693 218.834 35.5229 218.106L37.6366 219.297C37.2187 220.041 36.841 220.743 36.4633 221.488L36.4954 221.463ZM39.9914 215.014L37.9179 213.757C38.3198 213.038 38.7216 212.327 39.1556 211.608L41.2211 212.889C40.771 213.617 40.3692 214.328 39.9593 215.039L39.9914 215.014ZM43.7527 208.714L41.7274 207.375C42.1694 206.672 42.6115 205.978 43.0615 205.283L45.0065 206.689C44.5966 207.367 44.1546 208.053 43.7206 208.739L43.7527 208.714ZM47.7712 202.596L45.8102 201.182C46.2763 200.505 46.7505 199.827 47.2327 199.157L49.1776 200.62C48.6632 201.282 48.2212 201.951 47.739 202.621L47.7712 202.596ZM52.0387 196.652L50.134 195.139L51.6289 193.171L53.5175 194.717L52.0387 196.652ZM56.5555 190.906L54.6507 189.327C55.1731 188.69 55.7036 188.054 56.2581 187.425L58.0744 189.079C57.552 189.682 57.0618 190.311 56.5233 190.931L56.5555 190.906ZM61.2972 185.367L59.5211 183.713C60.0676 183.101 60.6221 182.498 61.1767 181.886L62.9287 183.589C62.3501 184.193 61.8036 184.788 61.2651 185.391L61.2972 185.367ZM66.264 180.042L64.5682 178.29C65.1389 177.703 65.7095 177.116 66.2962 176.537L67.9759 178.314C67.3651 178.91 66.8025 179.488 66.2319 180.067L66.264 180.042ZM71.4559 174.941L69.8485 173.114C70.4432 172.552 71.046 171.998 71.6487 171.461L73.2561 173.313C72.6051 173.866 72.0104 174.445 71.4237 174.966L71.4559 174.941ZM76.8486 170.072L75.2975 168.178L77.154 166.608L78.681 168.534C78.0381 169.046 77.4273 169.576 76.8165 170.096L76.8486 170.072ZM82.4744 165.45L81.0037 163.482L82.9325 161.978L84.3792 163.962L82.4744 165.45ZM88.2529 161.077L86.7983 159.076C87.4573 158.596 88.1244 158.125 88.7914 157.654L90.1497 159.704L88.2529 161.077ZM94.2002 156.943L92.8983 154.859L94.9477 153.528L96.2175 155.637L94.2002 156.943ZM100.316 153.098L99.1027 150.957L101.208 149.709L102.39 151.875C101.626 152.313 100.927 152.726 100.244 153.14L100.316 153.098Z" fill="#B4C5CD"/>
<path d="M513.605 255.136L511.194 254.731C511.323 253.904 511.451 253.078 511.564 252.309L513.975 252.664C513.862 253.491 513.734 254.318 513.605 255.136ZM514.594 247.696L512.183 247.431C512.263 246.604 512.343 245.777 512.408 244.992L514.819 245.207C514.762 246.034 514.682 246.869 514.594 247.696ZM515.156 240.205L512.745 240.089C512.745 239.263 512.817 238.436 512.833 237.609L515.245 237.684C515.22 238.535 515.164 239.37 515.164 240.205H515.156ZM512.874 232.723C512.874 231.902 512.858 231.075 512.826 230.243L515.237 230.168C515.237 231.001 515.253 231.827 515.285 232.649L512.874 232.723ZM512.576 225.365C512.52 224.538 512.456 223.711 512.383 222.885L514.794 222.661C514.867 223.488 514.931 224.315 514.995 225.142L512.576 225.365ZM511.861 218.04C511.757 217.213 511.644 216.386 511.532 215.609L513.943 215.237C514.06 216.064 514.173 216.891 514.28 217.717L511.861 218.04ZM510.72 210.764C510.575 209.938 510.414 209.161 510.254 208.359L512.608 207.846C512.775 208.662 512.935 209.488 513.091 210.326L510.72 210.764ZM509.169 203.58C508.976 202.753 508.775 201.993 508.558 201.207L510.889 200.546C511.106 201.373 511.307 202.199 511.507 202.968L509.169 203.58ZM507.208 196.495C506.967 195.717 506.717 194.932 506.468 194.163L508.751 193.336C509.008 194.163 509.265 194.924 509.506 195.717L507.208 196.495ZM504.845 189.542C504.556 188.781 504.266 188.012 503.969 187.26L506.203 186.326C506.508 187.097 506.806 187.874 507.095 188.657L504.845 189.542ZM502.08 182.713C501.751 181.969 501.421 181.225 501.076 180.48L503.254 179.414C503.599 180.166 503.945 180.927 504.274 181.687L502.08 182.713ZM498.938 176.099C498.568 175.371 498.19 174.652 497.805 173.933L499.894 172.792C500.288 173.519 500.698 174.255 501.051 174.991L498.938 176.099ZM495.41 169.683C495 168.98 494.606 168.286 494.156 167.591L496.197 166.269C496.631 166.971 497.057 167.691 497.475 168.402L495.41 169.683ZM491.528 163.491C491.078 162.821 490.62 162.143 490.153 161.482L492.114 160.035C492.589 160.713 493.055 161.399 493.513 162.085L491.528 163.491ZM487.292 157.546C486.802 156.901 486.304 156.257 485.805 155.62L487.678 154.057C488.192 154.71 488.691 155.364 489.197 156.025L487.292 157.546ZM482.711 151.858L482.631 151.767C482.133 151.18 481.634 150.61 481.128 150.039L482.912 148.386C483.427 148.965 483.933 149.552 484.439 150.139L484.544 150.263L482.711 151.858ZM477.841 146.484C477.286 145.906 476.716 145.327 476.153 144.756L477.833 142.979C478.412 143.558 478.982 144.145 479.553 144.74L477.841 146.484ZM472.665 141.408L470.873 139.755L472.48 137.878C473.099 138.423 473.702 138.977 474.305 139.531L472.665 141.408ZM467.2 136.654C466.581 136.15 465.954 135.646 465.319 135.149L466.79 133.174L468.703 134.72L467.2 136.654ZM461.478 132.281C460.827 131.809 460.168 131.346 459.509 130.892L460.859 128.833C461.534 129.304 462.201 129.776 462.86 130.255L461.478 132.281ZM455.506 128.221C454.831 127.791 454.148 127.395 453.465 126.956L454.695 124.815L456.776 126.113L455.506 128.221ZM449.31 124.534C448.611 124.145 447.904 123.765 447.196 123.385L448.305 121.186C449.029 121.566 449.744 121.954 450.459 122.351L449.31 124.534ZM442.88 121.227C442.157 120.88 441.434 120.541 440.711 120.21L441.683 117.945C442.422 118.275 443.162 118.623 443.901 118.978L442.88 121.227ZM436.306 118.309C435.567 118.011 434.828 117.713 434.08 117.432L434.924 115.109C435.679 115.398 436.443 115.696 437.198 116.002L436.306 118.309ZM429.571 115.828L427.297 115.076L428.004 112.711C428.808 112.951 429.555 113.207 430.327 113.472L429.571 115.828ZM422.74 113.687C421.936 113.48 421.197 113.274 420.425 113.083L420.996 110.669C421.784 110.868 422.571 111.074 423.359 111.289L422.74 113.687ZM415.764 112.033C414.96 111.868 414.205 111.719 413.417 111.57L413.851 109.132C414.655 109.28 415.459 109.437 416.262 109.603L415.764 112.033ZM408.708 110.785C407.904 110.669 407.1 110.562 406.297 110.463L406.586 107.982L408.997 108.313L408.708 110.785ZM401.587 109.958L399.176 109.785L399.329 107.304C400.132 107.354 400.936 107.42 401.74 107.486L401.587 109.958ZM384.878 109.743L384.742 107.263C385.545 107.213 386.349 107.18 387.153 107.147L387.241 109.628C386.47 109.644 385.674 109.677 384.878 109.727V109.743ZM394.426 109.578C393.622 109.578 392.819 109.578 392.015 109.578V107.098C392.819 107.098 393.622 107.098 394.426 107.098V109.578Z" fill="#B4C5CD"/>
<path d="M306.205 658.56L306.149 656.079C306.953 656.079 307.756 656.03 308.56 655.988L308.673 658.469C307.813 658.51 307.009 658.535 306.205 658.56ZM313.519 658.113L313.286 655.633C314.089 655.55 314.893 655.468 315.697 655.368L315.978 657.849C315.126 657.948 314.322 658.039 313.511 658.097L313.519 658.113ZM320.752 657.138L320.35 654.657C321.154 654.525 321.917 654.376 322.697 654.227L323.155 656.658C322.375 656.848 321.572 656.997 320.768 657.138H320.752ZM327.905 655.616L327.342 653.211C328.146 653.012 328.885 652.814 329.649 652.599L330.276 654.996C329.512 655.22 328.708 655.426 327.905 655.616ZM334.953 653.583L334.222 651.218C334.977 650.97 335.733 650.714 336.48 650.449L337.284 652.789C336.534 653.064 335.768 653.332 334.985 653.591L334.953 653.583ZM341.841 651.036L340.941 648.729C341.68 648.424 342.411 648.118 343.143 647.795L344.091 650.069C343.376 650.408 342.628 650.73 341.873 651.044L341.841 651.036ZM348.527 647.985L347.475 645.753C348.19 645.398 348.897 645.026 349.604 644.654L350.713 646.853C350.022 647.25 349.291 647.622 348.56 647.994L348.527 647.985ZM354.957 644.447L353.751 642.297C354.435 641.892 355.118 641.471 355.793 641.049L357.055 643.165C356.428 643.604 355.728 644.042 355.021 644.455L354.957 644.447ZM361.153 640.445L359.795 638.395C360.454 637.932 361.105 637.469 361.756 636.99L363.155 639.007C362.538 639.503 361.893 639.985 361.218 640.454L361.153 640.445ZM367.052 635.989L365.558 634.046C366.184 633.542 366.795 633.029 367.414 632.509L368.949 634.418C368.387 634.947 367.752 635.485 367.117 635.997L367.052 635.989ZM372.63 631.12L371.023 629.292C371.609 628.739 372.188 628.185 372.767 627.639L374.43 629.433C373.884 629.987 373.289 630.566 372.694 631.128L372.63 631.12ZM377.846 625.853L376.102 624.142C376.64 623.555 377.179 622.951 377.709 622.348L379.494 624.001C379.019 624.638 378.473 625.25 377.91 625.853H377.846ZM382.668 620.206L380.812 618.636C381.31 617.999 381.808 617.362 382.298 616.718L384.195 618.247C383.777 618.917 383.271 619.57 382.749 620.215L382.668 620.206ZM387.113 614.221L385.144 612.782C385.602 612.121 386.052 611.443 386.494 610.765L388.495 612.146C388.125 612.848 387.659 613.543 387.193 614.229L387.113 614.221ZM391.131 607.913L389.074 606.631C389.483 605.937 389.877 605.226 390.279 604.523L392.369 605.746C392.031 606.482 391.621 607.21 391.195 607.921L391.131 607.913ZM394.691 601.34L392.61 600.224C392.971 599.496 393.325 598.769 393.671 598.025L395.841 599.099C395.487 599.852 395.125 600.596 394.756 601.348L394.691 601.34ZM397.826 594.519L395.6 593.552C395.913 592.799 396.21 592.047 396.508 591.287L398.75 592.196C398.469 592.973 398.163 593.75 397.826 594.519ZM400.43 587.483L398.147 586.657C398.404 585.888 398.654 585.111 398.887 584.334L401.185 585.078C400.968 585.896 400.719 586.69 400.454 587.483H400.43ZM402.535 580.274L400.205 579.646C400.406 578.819 400.598 578.067 400.783 577.273L403.13 577.843C402.961 578.654 402.768 579.464 402.559 580.274H402.535ZM404.143 572.933L401.772 572.478C401.917 571.651 402.053 570.824 402.182 570.064L404.593 570.461C404.456 571.287 404.312 572.114 404.167 572.941L404.143 572.933ZM405.228 565.492L402.817 565.219C402.905 564.392 402.985 563.565 403.05 562.78L405.461 562.995C405.421 563.846 405.34 564.673 405.252 565.5L405.228 565.492ZM405.79 557.993L403.379 557.886C403.379 557.059 403.435 556.232 403.452 555.405L405.863 555.455C405.863 556.309 405.847 557.153 405.814 557.985L405.79 557.993ZM403.419 550.552C403.419 549.725 403.355 548.899 403.315 548.072L405.726 547.94C405.766 548.766 405.798 549.593 405.83 550.42L403.419 550.552ZM402.969 543.178C402.889 542.351 402.793 541.524 402.696 540.739L405.107 540.424C405.212 541.251 405.308 542.078 405.388 542.905L402.969 543.178Z" fill="#B4C5CD"/>
<path d="M29.6157 152.412L20.9519 144.442H47.4495V146.922H27.2689L31.223 150.56L29.6157 152.412Z" fill="#B4C5CD"/>
<path d="M452.653 576.918C450.784 576.916 448.958 576.345 447.404 575.276C445.85 574.207 444.639 572.689 443.923 570.912C443.207 569.136 443.019 567.181 443.383 565.295C443.746 563.409 444.644 561.676 445.964 560.315C447.284 558.953 448.967 558.025 450.799 557.646C452.632 557.268 454.533 557.456 456.261 558.188C457.99 558.92 459.469 560.162 460.512 561.757C461.555 563.353 462.115 565.231 462.121 567.154C462.124 568.435 461.882 569.704 461.407 570.888C460.933 572.073 460.236 573.149 459.357 574.056C458.477 574.963 457.432 575.683 456.282 576.174C455.132 576.665 453.899 576.918 452.653 576.918ZM452.653 559.936C451.258 559.938 449.895 560.365 448.737 561.164C447.578 561.963 446.676 563.098 446.144 564.425C445.613 565.752 445.477 567.212 445.752 568.618C446.028 570.025 446.703 571.316 447.692 572.328C448.681 573.34 449.94 574.027 451.309 574.303C452.678 574.578 454.096 574.429 455.383 573.875C456.67 573.321 457.768 572.386 458.538 571.19C459.308 569.993 459.716 568.589 459.71 567.154C459.699 565.236 458.951 563.4 457.629 562.047C456.307 560.695 454.518 559.936 452.653 559.936Z" fill="#B4C5CD"/>
<path d="M480.63 314.473H478.219V308.421L464.548 312.133L463.937 309.735L480.63 305.205V314.473Z" fill="#B4C5CD"/>
<defs>
<linearGradient id="paint0_linear" x1="47.4496" y1="421.769" x2="458.151" y2="421.769" gradientUnits="userSpaceOnUse">
<stop stop-color="#FE62CE"/>
<stop offset="0.15" stop-color="#F861D0"/>
<stop offset="0.33" stop-color="#E85FD4"/>
<stop offset="0.54" stop-color="#CE5BDC"/>
<stop offset="0.77" stop-color="#A956E7"/>
<stop offset="1" stop-color="#7B4FF5"/>
</linearGradient>
<linearGradient id="paint1_linear" x1="14030.5" y1="5941.32" x2="14472.9" y2="8390.14" gradientUnits="userSpaceOnUse">
<stop stop-color="#FE62CE"/>
<stop offset="0.15" stop-color="#F861D0"/>
<stop offset="0.33" stop-color="#E85FD4"/>
<stop offset="0.54" stop-color="#CE5BDC"/>
<stop offset="0.77" stop-color="#A956E7"/>
<stop offset="1" stop-color="#7B4FF5"/>
</linearGradient>
<linearGradient id="paint2_linear" x1="12875.8" y1="18380" x2="13412.7" y2="21355.7" gradientUnits="userSpaceOnUse">
<stop stop-color="#FE62CE"/>
<stop offset="0.15" stop-color="#F861D0"/>
<stop offset="0.33" stop-color="#E85FD4"/>
<stop offset="0.54" stop-color="#CE5BDC"/>
<stop offset="0.77" stop-color="#A956E7"/>
<stop offset="1" stop-color="#7B4FF5"/>
</linearGradient>
<linearGradient id="paint3_linear" x1="19597.4" y1="20619" x2="20039.4" y2="23067.8" gradientUnits="userSpaceOnUse">
<stop stop-color="#FE62CE"/>
<stop offset="0.15" stop-color="#F861D0"/>
<stop offset="0.33" stop-color="#E85FD4"/>
<stop offset="0.54" stop-color="#CE5BDC"/>
<stop offset="0.77" stop-color="#A956E7"/>
<stop offset="1" stop-color="#7B4FF5"/>
</linearGradient>
<linearGradient id="paint4_linear" x1="454.726" y1="313.166" x2="576.005" y2="337.868" gradientUnits="userSpaceOnUse">
<stop stop-color="#D236A2"/>
<stop offset="0.15" stop-color="#CC35A4"/>
<stop offset="0.33" stop-color="#BC33A8"/>
<stop offset="0.54" stop-color="#A22FB0"/>
<stop offset="0.77" stop-color="#7D2ABB"/>
<stop offset="1" stop-color="#4F23C9"/>
</linearGradient>
<linearGradient id="paint5_linear" x1="397097" y1="-278721" x2="410259" y2="-263273" gradientUnits="userSpaceOnUse">
<stop stop-color="#D236A2"/>
<stop offset="0.15" stop-color="#CC35A4"/>
<stop offset="0.33" stop-color="#BC33A8"/>
<stop offset="0.54" stop-color="#A22FB0"/>
<stop offset="0.77" stop-color="#7D2ABB"/>
<stop offset="1" stop-color="#4F23C9"/>
</linearGradient>
<linearGradient id="paint6_linear" x1="297859" y1="93542.2" x2="284492" y2="100761" gradientUnits="userSpaceOnUse">
<stop stop-color="#D236A2"/>
<stop offset="0.15" stop-color="#CC35A4"/>
<stop offset="0.33" stop-color="#BC33A8"/>
<stop offset="0.54" stop-color="#A22FB0"/>
<stop offset="0.77" stop-color="#7D2ABB"/>
<stop offset="1" stop-color="#4F23C9"/>
</linearGradient>
<linearGradient id="paint7_linear" x1="585774" y1="658839" x2="564815" y2="664148" gradientUnits="userSpaceOnUse">
<stop stop-color="#D236A2"/>
<stop offset="0.15" stop-color="#CC35A4"/>
<stop offset="0.33" stop-color="#BC33A8"/>
<stop offset="0.54" stop-color="#A22FB0"/>
<stop offset="0.77" stop-color="#7D2ABB"/>
<stop offset="1" stop-color="#4F23C9"/>
</linearGradient>
<linearGradient id="paint8_linear" x1="318.566" y1="121.02" x2="365.664" y2="258.38" gradientUnits="userSpaceOnUse">
<stop stop-color="#1B1A20"/>
<stop offset="0.98" stop-color="#7D4532"/>
</linearGradient>
<linearGradient id="paint9_linear" x1="344.123" y1="100.591" x2="353.983" y2="103.788" gradientUnits="userSpaceOnUse">
<stop offset="0.21" stop-color="#EBBF85"/>
<stop offset="1" stop-color="#D27D49"/>
</linearGradient>
<linearGradient id="paint10_linear" x1="335.663" y1="91.1406" x2="337.154" y2="98.3419" gradientUnits="userSpaceOnUse">
<stop offset="0.26" stop-color="#144F87"/>
<stop offset="0.88" stop-color="#5CADB5"/>
</linearGradient>
<linearGradient id="paint11_linear" x1="-7505.72" y1="78.5255" x2="-7509.63" y2="122.352" gradientUnits="userSpaceOnUse">
<stop offset="0.26" stop-color="#144F87"/>
<stop offset="0.88" stop-color="#5CADB5"/>
</linearGradient>
</defs>
</svg>
