<svg width="25" height="24" viewBox="0 0 25 24" fill="none" xmlns="http://www.w3.org/2000/svg">
<path d="M2.37561 0L8.57049 3.56635H24.3112V0H2.37561Z" fill="white"/>
<path d="M10.0045 8.78424C7.48914 10.0071 5.22835 11.6761 3.32876 13.6844V4.94154L10.0045 8.78424ZM0.47176 23.7764C1.59454 19.8837 3.85533 16.4696 6.87118 13.9129L12.5808 23.7764H15.8861L9.18855 12.2157C11.4385 10.797 13.9865 9.80475 16.7173 9.35433L0.467407 0V23.7764" fill="white"/>
<path d="M19.8007 10.0332L24.3114 10.031V13.5974H11.0948L10.4877 12.5486C13.2424 10.9884 16.4171 10.0789 19.8007 10.0332Z" fill="white"/>
<path d="M14.929 20.2101L16.9961 23.7764H24.3138V20.2101H14.929Z" fill="white"/>
</svg>
