<svg width="1071" height="596" viewBox="0 0 1071 596" fill="none" xmlns="http://www.w3.org/2000/svg">
<path opacity="0.42" d="M1070.06 582.635H0V589.71H1070.06V582.635Z" fill="#DEE6DE"/>
<path opacity="0.42" d="M990.269 576.353H19.8057V582.643H990.269V576.353Z" fill="#DEE6DE"/>
<path opacity="0.42" d="M1044.01 589.71H34.4436V596H1044.01V589.71Z" fill="#DEE6DE"/>
<path d="M550.122 145.115C556.577 142.076 572.573 133.14 572.573 133.14L602.607 121.565L621.647 117.702C621.647 117.702 638.229 120.057 645.761 120.976C656.821 127.195 661.519 125.114 687.354 139.155L712.075 157.467C723.641 178.614 716.325 179.941 716.325 179.941L707.55 208.21L682.973 235.576L664.295 273.473C664.295 273.473 672.564 311.259 677.682 337.487C667.345 343.101 581.132 344.601 581.132 344.601L584.204 342.936L579.867 338.955L575.53 317.439L584.146 263.178L563.798 214.885L559.598 206.467C557.675 181.535 547.317 170.314 550.122 145.115Z" fill="#2E57AB"/>
<path d="M501.568 194.578C509.642 184.056 515.779 178.441 518.576 174.947C519.01 172.136 520.781 168.162 521.215 165.822C526.21 157.451 535.477 150.62 541.079 145.476C543.442 144.927 546.139 145.476 553.027 144.071C562.713 139.359 584.392 127.996 589.625 126.292C586.828 152.622 575.168 179.619 566.161 202.077L561.824 204.433L559.236 226.891L538.317 246.837L545.242 269.688C542.466 277.156 552.803 288.589 549.579 295.955L522.176 284.89C522.176 284.89 504.105 275.067 489.019 260.547C488.434 251.281 494.144 215.631 501.568 194.578Z" fill="#2E57AB"/>
<path d="M719.679 251.721C719.679 251.721 703.69 246.342 699.642 242.298C691.568 234.234 680.263 192.482 680.263 192.482V135.292L699.642 139.854L716.007 155.755C716.007 155.755 723.323 173.533 725.325 180.499C754.282 209.388 752.605 232.938 759.075 262.244C754.875 267.858 753.292 270.135 741.314 279.613C736.254 282.527 713.383 292.374 707.89 295.397C706.965 284.529 704.088 281.121 697.878 273.473L706.292 259.605L719.679 251.721Z" fill="#2E57AB"/>
<path d="M611.368 332.571L608.426 313.465L668.632 302.166C668.632 302.166 684.78 358.767 690.592 387.538C690.338 402.789 689.331 418.013 687.578 433.146C689.623 446.707 701.572 462.263 706.48 482.562C704.413 488.122 705.62 512.881 701.312 514.373C692.84 517.31 677.393 500.403 668.466 495.527C665.242 485.468 664.851 472.801 664.808 472.605C663.514 464.65 663.572 453.264 660.666 442.765C656.575 430.837 643.014 406.282 636.986 393.184C631.167 380.55 618.517 340.949 618.517 340.949L611.368 332.571ZM673.692 476.013L672.398 475.935L673.692 476.013Z" fill="#2E57AB"/>
<path d="M528.696 465.656C538.267 452.369 542.474 430.099 542.474 430.099C544.29 417.625 545.016 404.991 544.642 392.368C547.873 381.147 551.95 366.502 555.622 357.291L577.705 297.556L616.739 311.927L627.256 341.46C627.256 341.46 613.096 369.996 594.179 403.911C586.228 418.148 582.888 424.045 573.939 439.46C568.323 449.352 564.724 460.438 563.386 471.969C561.701 484.47 557.147 498.668 557.147 498.668C546.167 499.375 535.845 495.723 522.451 493.446C523.687 483.583 520.947 476.414 528.696 465.656Z" fill="#2E57AB"/>
<path d="M598.473 77.7715L596.731 122.076L589.842 126.756L628.051 146.002L664.172 128.554L652.823 122.743L645.371 89.9037L598.473 77.7715Z" fill="#E9AD69"/>
<path opacity="0.85" d="M598.291 75.573L596.998 100.136L617.628 123.937L647.821 120.968L651.695 118.628V106.002L626.005 91.9377L598.291 75.573Z" fill="#D29149"/>
<path d="M598.002 57.3235C598.039 58.2658 598.263 60.4645 596.716 60.9906C597.29 64.0109 598.058 66.9838 599.014 69.8875C603.127 82.5144 603.59 84.8545 606.149 93.1703C610.443 100.811 609.843 107.446 611.888 111.553C613.421 111.844 622.543 116.06 626.634 116.571C635.923 116.398 648.912 114.89 653.242 113.665C653.799 113.367 656.416 111.31 661.266 108.169C662.394 104.109 662.235 97.9996 663.203 91.3328C660.68 87.5714 659.003 85.0508 656.387 81.3208C654.941 78.596 654.009 75.722 652.975 73.5547C653.062 71.2774 653.286 69.0316 653.192 65.6079C651.941 62.4041 648.855 55.7058 647.257 51.7953L644.004 36.2865C644.004 36.2865 643.339 31.5122 643.679 30.8604C625.565 27.0048 601.732 32.0854 598.002 57.3235Z" fill="#EBBF85"/>
<path d="M646.18 56.3813L647.59 59.5302L646.766 62.5613L643.267 64.8149L640.029 65.9221L638.019 61.3206L637.882 55.4312L646.18 56.3813Z" fill="#D9A164"/>
<path d="M632.526 0C632.417 3.41586 632.613 9.82353 624.929 12.4463C612.481 16.7024 605.802 21.7987 599.398 25.2538C595.626 28.3336 592.08 31.7283 588.794 35.4071C588.158 44.2805 592.155 48.5209 592.155 48.5209C592.451 52.8398 595.61 58.4229 597.562 65.3567C599.109 64.8227 602.39 64.7913 602.347 63.849C602.607 56.6718 601.537 51.4263 604.248 45.7097C607.19 44.681 610.631 43.189 616.298 42.9299C624.155 44.1077 633.588 48.1282 645.212 38.4382C652.939 28.0885 658.151 5.90511 632.526 0Z" fill="#271C16"/>
<path d="M592.133 63.6056C592.856 59.3182 595.979 60.1505 597.193 60.6531C598.101 60.9745 598.921 61.5349 599.581 62.2844C600.24 63.0339 600.719 63.9491 600.974 64.9484C601.48 66.5189 602.268 68.7962 601.834 70.3745L601.48 80.5828L598.003 79.719C598.003 79.719 591.765 65.7651 592.133 63.6056Z" fill="#EBBF85"/>
<g style="mix-blend-mode:overlay" opacity="0.16">
<path d="M690.324 138.377L685.431 135.99L623.599 196.989L568.525 135.645L556.902 141.958L631.564 256.747L697.755 140.482L690.324 138.377Z" fill="white"/>
</g>
<path d="M647.178 54.5123L639.964 50.853L637.579 55.219L646.99 56.6639L647.178 54.5123Z" fill="#3D332D"/>
<path d="M616.377 79.2085L631.911 82.6637L644.778 80.4257L649.925 74.7012C649.925 74.7012 650.821 88.3803 648.602 91.9768C645.92 96.3271 636.191 99.1226 630.01 95.1178C625.854 92.4479 616.377 79.2085 616.377 79.2085Z" fill="white"/>
<path d="M631.152 73.5627L642.06 72.1885L639.176 76.4525L636.342 77.7089L631.152 73.5627Z" fill="#D29149"/>
<path d="M624.083 55.761L629.468 55.973L629.49 62.5455L627.162 68.8275L617.028 67.0057L614.086 64.2417L613.876 59.4752L624.083 55.761Z" fill="#D9A164"/>
<path d="M622.232 60.1034L627.48 59.6951L628.42 61.4226L616.919 64.2338L622.232 60.1034Z" fill="#483331"/>
<path d="M614.592 56.9701L627.263 51.1514L629.266 56.0514L614.729 60.1033L614.592 56.9701Z" fill="#3D332D"/>
<path d="M638.858 59.3023L642.241 58.5798L646.318 60.7314L638.337 60.8257L638.858 59.3023Z" fill="#483331"/>
<path d="M601.306 69.6912C600.503 67.7045 595.234 63.4092 595.234 63.4092L595.306 67.3355L598.4 76.0126L599.846 73.9081L602.737 76.7114C602.737 76.7114 599.52 71.0576 601.306 69.6912Z" fill="#D9A164"/>
<path d="M637.961 103.018L646.354 102.311L644.416 105.122L641.511 105.475L637.961 103.018Z" fill="#D9A164"/>
<path d="M672.246 131.357L628.442 154.193L585.317 127.926L580.445 130.352L628.442 171.028C628.442 171.028 677.841 134.985 678.058 133.815L672.246 131.357Z" fill="#E83464"/>
<path d="M590.659 243.531L627.972 266.201L661.693 246.57C661.693 246.57 681.34 188.163 689.956 171.79C671.545 164.424 659.596 160.451 659.596 160.451L629.092 179.462L601.205 158.417C601.205 158.417 576.448 166.6 566.443 169.992C573.332 190.094 590.659 243.531 590.659 243.531Z" fill="#E83464"/>
<g style="mix-blend-mode:overlay" opacity="0.39">
<path d="M700.784 192.427L697.444 203.773L686.248 220.146L640.397 215.945L664.454 226.153L683.667 231.87C685.107 231.868 686.517 231.425 687.736 230.591C688.954 229.758 689.932 228.568 690.556 227.158L700.459 205.171L700.784 192.427Z" fill="#262935"/>
</g>
<g style="mix-blend-mode:overlay" opacity="0.39">
<path d="M551.423 183.482L562.265 199.093L569.371 204.708L611.354 210.322L617.375 206.349L614.368 212.898L591.96 216.871L577.553 219.793C574.662 219.871 568.026 217.343 563.501 215.23L556.613 197.224L551.423 183.482Z" fill="#262935"/>
</g>
<g style="mix-blend-mode:overlay" opacity="0.23">
<path d="M618.314 359.159C619.175 359.513 606.922 337.039 601.197 330.977C592.949 322.327 584.194 314.266 574.987 306.846L578.818 298.734L621.647 330.066L625.03 345.088L618.314 359.159Z" fill="#212430"/>
</g>
<g style="mix-blend-mode:overlay" opacity="0.23">
<path d="M624.77 358.225C630.733 351.943 649.347 329.705 658.353 323.258C661.606 320.902 672.564 314.84 672.564 314.84L668.69 301.153L633.719 333.812L620.845 350.113L624.77 358.225Z" fill="#212430"/>
</g>
<path d="M597.742 60.5667C597.742 60.5667 619.609 51.3635 632.894 50.1071C642.031 49.2512 647.995 51.2536 647.995 51.2536L652.541 62.1294C652.541 62.1294 651.161 67.4455 647.055 67.7282C644.597 67.8931 640.058 64.6971 637.123 64.8385C634.738 64.9563 632.461 69.817 623.512 70.9242C619.898 71.3718 613.182 67.2649 610.132 66.3383C607.624 65.5766 601.407 65.9614 601.407 65.9614L597.742 60.5667Z" fill="#2E57AB"/>
<path d="M612.9 60.4644C612.9 57.6532 622.485 56.2712 622.485 56.2712C622.485 56.2712 630.126 56.0199 630.805 58.3364C631.485 60.6529 627.538 64.5556 625.565 65.0582C621.755 66.0476 612.908 63.9588 612.9 60.4644Z" fill="#EBBF85"/>
<path d="M637.939 58.5407C638.344 59.9071 641.821 61.3441 643.447 61.9723C647.871 63.6606 650.069 60.8729 649.584 58.8313C649.194 57.1665 648.204 56.5855 647.177 56.0593C645.369 55.1562 643.337 54.9244 641.395 55.3997C639.306 56.0436 637.498 57.0723 637.939 58.5407Z" fill="#EBBF85"/>
<path d="M616.486 62.9617L621.705 58.6978L628.919 59.3417L616.486 62.9617Z" fill="#271C16"/>
<path d="M640.058 59.1611L644.525 57.0566L648.616 59.5144L640.058 59.1611Z" fill="#271C16"/>
<path d="M627.184 86.8333C627.423 86.9275 636.234 87.5086 636.234 87.5086L647.67 85.3491L640.745 88.4902L633.213 88.4274L627.184 86.8333Z" fill="#D4CCD4"/>
<path d="M647.402 73.1699L650.98 72.8479L652.491 77.9286L649.657 74.8582L647.402 73.1699Z" fill="#D9A164"/>
<path d="M616.189 85.0193L611.476 77.7557L622.297 74.7639L616.688 78.8708L616.189 85.0193Z" fill="#D9A164"/>
<g style="mix-blend-mode:overlay" opacity="0.23">
<path d="M723.214 239.314L723.055 249.31L720.041 251.705L703.842 245.455L716.918 244.929L723.214 239.314Z" fill="#212430"/>
</g>
<g style="mix-blend-mode:overlay" opacity="0.23">
<path d="M544.628 240.657L538.173 246.97L532.144 248.376L529.13 238.552L533.431 242.761L544.628 240.657Z" fill="#212430"/>
</g>
<g style="mix-blend-mode:overlay" opacity="0.25">
<path d="M613.096 135.645L575.956 140.906L603.728 132.488L613.096 135.645Z" fill="#212430"/>
</g>
<g style="mix-blend-mode:overlay" opacity="0.23">
<path d="M721.168 173.997L720.633 180.2L713.058 183.31L724.182 185.226L724.616 181.017L721.168 173.997Z" fill="#212430"/>
</g>
<g style="mix-blend-mode:overlay" opacity="0.25">
<path d="M655.57 174.539L636.516 169.277L630.386 171.727L655.57 174.539Z" fill="#212430"/>
</g>
<path d="M601.198 101.533L604.421 118.024L605.072 104.344L601.198 101.533Z" fill="#D29149"/>
<path d="M614.433 120.128L623.158 136.972L621.979 121.911L614.433 120.128Z" fill="#D29149"/>
<path d="M666.702 284.042L671.545 282.636L679.944 286.147H685.257L690.91 282.817L702.815 265.542C709.27 266.476 727.255 275.129 729.835 285.424C716.932 291.887 696.823 300.752 691.04 303.571C689.291 304.412 681.997 310.592 681.997 310.592L677.255 315.303L673.381 315.774C670.851 309.492 669.998 303.249 669.456 301.098C667.909 294.941 667.562 290.12 666.702 284.042Z" fill="#E83464"/>
<path d="M580.799 285.094L579.505 297.376L575.631 304.741L571.113 315.971L562.713 314.565L552.81 305.927L547.194 302.166L517.34 284.042C517.788 276.276 535.599 264.348 542.705 261.545L552.254 280.666L559.677 288.031L565.655 288.73L575.992 283.642L580.799 285.094Z" fill="#E83464"/>
<g style="mix-blend-mode:overlay" opacity="0.23">
<path d="M737.064 264.12L722.209 275.106L697.488 291.879L719.882 282.99L729.307 275.341L737.064 264.12Z" fill="#212430"/>
</g>
<g style="mix-blend-mode:overlay" opacity="0.35">
<path d="M496.833 245.101L494.679 257.265L501.568 261.474L498.127 255.388L496.833 245.101Z" fill="#212430"/>
</g>
<g style="mix-blend-mode:overlay" opacity="0.35">
<path d="M748.897 249.962L751.571 258.741L744.054 267.505L748.253 257.681L748.897 249.962Z" fill="#212430"/>
</g>
<g style="mix-blend-mode:overlay" opacity="0.45">
<path d="M657.833 265.055L642.335 245.424L617.758 244.717C617.758 244.717 600.352 260.139 600.995 262.275C606.164 260.869 622.955 252.452 622.955 252.452L637.166 254.556L657.833 265.055Z" fill="#212430"/>
</g>
<g style="mix-blend-mode:overlay" opacity="0.23">
<path d="M646.679 270.363L639.899 270.709L627.95 265.094L629.562 271.415C629.562 271.415 638.959 275.271 640.867 275.271C642.711 273.508 644.652 271.869 646.679 270.363Z" fill="#212430"/>
</g>
<g style="mix-blend-mode:overlay" opacity="0.23">
<path d="M610.146 267.505L620.693 268.557L627.155 263.767L626.295 270.316C626.295 270.316 618.539 274.054 616.587 274.054C614.021 273.355 610.146 267.505 610.146 267.505Z" fill="#212430"/>
</g>
<g style="mix-blend-mode:overlay" opacity="0.23">
<path d="M669.456 436.719L677.205 439.994L681.086 434.497L681.947 441.87C681.963 443.098 681.741 444.316 681.295 445.444C680.849 446.573 680.189 447.586 679.359 448.419C677.747 446.66 669.456 436.719 669.456 436.719Z" fill="#212430"/>
</g>
<g style="mix-blend-mode:overlay" opacity="0.23">
<path d="M545.878 435.313L550.216 438.761L558.398 437.818L550.216 448.113C550.216 448.113 545.481 449.047 543.392 445.608C544.375 443.15 545.878 435.313 545.878 435.313Z" fill="#212430"/>
</g>
<g style="mix-blend-mode:overlay" opacity="0.23">
<path d="M676.822 425.309L682.416 424.257L689.739 411.623L687.57 425.192C687.498 428.203 687.065 431.191 686.284 434.081C684.679 432.322 676.822 425.309 676.822 425.309Z" fill="#212430"/>
</g>
<g style="mix-blend-mode:overlay" opacity="0.23">
<path d="M542.365 416.656L546.355 422.851L553.67 422.27C553.67 422.27 547.215 428.466 543.334 431.741C541.722 429.99 542.365 416.656 542.365 416.656Z" fill="#212430"/>
</g>
<g style="mix-blend-mode:overlay" opacity="0.4">
<path d="M507.979 258.969L519.559 274.823L543.804 291.243L529.39 277.517L522.234 272.114L507.979 258.969Z" fill="#212430"/>
</g>
<g style="mix-blend-mode:overlay" opacity="0.25">
<path d="M539.033 157.396L544.628 153.187L545.922 155.52L547.968 148.916L542.264 150.847L539.033 157.396Z" fill="#212430"/>
</g>
<g style="mix-blend-mode:overlay" opacity="0.23">
<path d="M627.907 280.375L644.915 286.217L634.152 287.858L627.907 280.375Z" fill="#212430"/>
</g>
<g style="mix-blend-mode:overlay" opacity="0.23">
<path d="M614.382 286.147L625.752 280.956L622.998 288.133L614.382 286.147Z" fill="#212430"/>
</g>
<g style="mix-blend-mode:overlay" opacity="0.23">
<path d="M585.584 399.859L570.946 417.865L561.636 425.427L577.3 423.598L606.366 374.833L585.584 399.859Z" fill="#212430"/>
</g>
<g style="mix-blend-mode:overlay" opacity="0.23">
<path d="M647.669 403.621C655.1 415.902 661.555 421.163 661.555 421.163H669.955L660.507 432.832L654.804 420.786C654.804 420.786 650.286 410.264 647.669 403.621Z" fill="#212430"/>
</g>
<path d="M669.767 298.954C669.767 298.954 637 297.109 627.95 296.669C610.291 295.821 577.243 298.428 577.243 298.428C576.518 300.71 575.979 303.056 575.631 305.44C601.357 315.672 621.488 353.364 621.488 353.364L626.656 351.495C626.656 351.495 640.181 336.481 651.804 324.318C666.109 309.351 671.87 309.979 671.87 309.979L669.767 298.954Z" fill="#E83464"/>
<path d="M626.439 5.37104C626.439 5.37104 630.95 8.60628 627.885 12.5796C624.82 16.553 635.048 11.975 635.048 11.975C635.048 11.975 634.195 3.26657 626.439 5.37104Z" fill="#271C16"/>
<path opacity="0.52" d="M620.411 14.488C620.411 14.488 625.818 13.0431 627.09 11.449C630.877 9.68221 633.104 13.0195 634.709 13.5457C639.653 15.1162 638.742 12.0772 640.144 12.1165C644.445 12.2421 643 15.8386 644.604 16.1606C646.346 16.5218 651.197 15.8936 651.197 15.8936C651.197 15.8936 652.23 26.416 649.91 28.0572C648.363 29.1487 645.349 26.6437 642.624 29.1408C641.214 30.4365 640.592 25.9291 635.395 27.6567C633.733 28.2064 633.776 21.5317 632.106 21.0213C630.624 20.5658 628.08 22.7881 626.613 22.2541C625.145 21.7202 620.411 14.488 620.411 14.488Z" fill="#535251"/>
<g opacity="0.36">
<path opacity="0.36" d="M604.942 44.8073L604.559 44.2498L624.705 27.8302C635.179 19.3023 638.439 10.4839 634.68 0.880307L635.272 0.605469C639.169 10.5546 635.836 19.64 625.095 28.3877L604.942 44.8073Z" fill="#6B6460"/>
</g>
<g opacity="0.63">
<path opacity="0.63" d="M633.328 44.3119C633.242 44.3088 633.16 44.2726 633.097 44.2098C633.038 44.1415 633.006 44.0517 633.006 43.9585C633.006 43.8653 633.038 43.7755 633.097 43.7072C633.314 43.4795 654.623 20.4401 643.217 5.35537C643.189 5.32078 643.168 5.28048 643.155 5.2369C643.143 5.19331 643.138 5.14737 643.142 5.10184C643.146 5.05631 643.159 5.01215 643.179 4.97204C643.199 4.93193 643.227 4.89671 643.26 4.86851C643.326 4.80965 643.411 4.78159 643.497 4.79041C643.582 4.79923 643.66 4.84422 643.715 4.91562C655.519 20.4872 633.791 43.9742 633.596 44.1784C633.564 44.2224 633.523 44.2575 633.477 44.2807C633.43 44.304 633.379 44.3147 633.328 44.3119Z" fill="#6B6460"/>
</g>
<path d="M607.421 78.9495L610.508 85.4749L613.739 92.4872L608.498 88.5295L607.421 78.9495Z" fill="#D9A164"/>
<path d="M637.34 113.854L641.12 117.615L650.25 116.414L651.826 111.459L637.34 113.854Z" fill="#EBBF85"/>
<path d="M643.694 112.48L645.262 110.658L646.101 113.736L645.472 114.993L643.694 112.48Z" fill="#D9A164"/>
<path d="M705.829 479.728C707.441 506.74 711.721 554.327 713.202 560.145C714.012 563.286 717.539 569.356 719.99 572.772C721.71 575.128 729.835 582.517 729.835 582.517L734.57 588.21L694.741 588.367C694.741 588.367 694.098 580.939 694.098 577.609C694.257 573.047 695.117 568.563 693.505 560.491C691.394 551.296 688.987 545.406 685.113 539.093C682.655 532.599 673.807 515.409 671.22 512.433C666.593 497.231 668.762 501.306 667.027 491.616C677.357 487.871 698.081 483.002 705.829 479.728Z" fill="#E83464"/>
<g style="mix-blend-mode:overlay" opacity="0.23">
<path d="M707.246 150.211L701.218 148.813L698.847 151.154L704.658 154.42L707.246 150.211Z" fill="#212430"/>
</g>
<path d="M505.55 561.896C508.782 556.282 511.044 544.472 511.044 544.472C517.665 498.974 519.487 495.864 523.332 472.362C528.71 475.628 558.369 493.956 558.369 493.956C558.369 493.956 560.581 493.462 555.788 506.112C541.151 530.455 527.959 552.246 526.672 560.671C524.785 567.864 523.123 570.44 524.785 577.217C525.842 581.201 525.586 585.461 524.063 589.263H487.79C486.063 588.713 487.79 586.122 490.053 582.242C494.426 578.033 500.064 571.131 505.55 561.896Z" fill="#E83464"/>
<path opacity="0.23" d="M570.896 291.408L576.064 294.682L579.556 295.719L580.365 290.002L573.91 291.879L570.896 291.408Z" fill="#6E2430"/>
<path opacity="0.23" d="M668.046 290.984L669.658 297.47L677.039 292.813L675.745 290.002L672.087 291.526L668.046 290.984Z" fill="#6E2430"/>
<g style="mix-blend-mode:overlay" opacity="0.35">
<path d="M523.962 190.605L513.198 201.834L511.905 223.813L517.073 206.278L523.962 190.605Z" fill="#212430"/>
</g>
<g style="mix-blend-mode:overlay" opacity="0.35">
<path d="M728.115 199.188L738.878 210.409L739.304 218.827L735.43 211.343L728.115 199.188Z" fill="#212430"/>
</g>
<path opacity="0.23" d="M699.642 568.328L697.473 580.954L705.114 579.792C705.114 579.792 705.41 579.329 702.533 575.575C700.394 572.772 699.642 568.328 699.642 568.328Z" fill="#6E2430"/>
<g style="mix-blend-mode:overlay" opacity="0.23">
<path d="M629.598 353.78C629.598 353.78 642.515 382.199 648.334 391.316C644.453 380.44 633.473 348.873 633.473 348.873L629.598 353.78Z" fill="#212430"/>
</g>
<path d="M357.642 60.5665C353.442 66.6914 344.667 85.4983 342.679 94.9449C345.267 115.299 361.032 117.788 345.101 148.9C340.106 158.66 318.941 173.455 322.924 202.454C327.774 213.691 336.918 226.082 345.534 229.357C346.431 229.695 344.19 221.709 344.623 219.376C345.484 222.879 348.961 230.841 350.862 233.872C360.714 249.836 383.064 258.827 393.061 258.663C409.571 258.403 422.698 248.305 428.206 234.265C429.16 231.838 433.158 223.507 434.394 218.905C433.95 224.151 433.195 229.36 432.131 234.5C438.637 225.8 448.388 206.506 448.388 206.506C448.388 206.506 463.785 187.047 456.115 161.605C443.104 143.356 432.377 130.101 426.189 118.338C415.282 97.5991 412.896 67.2961 412.903 66.8878C413.236 64.8147 420.537 54.7791 416.518 44.4295C405.567 38.9798 389.931 39.5138 381.214 40.9194C381.221 40.9194 365.803 48.6856 357.642 60.5665Z" fill="url(#paint0_linear)"/>
<path d="M337.627 211.814C335.559 193.565 345.918 174.421 355.054 157.53C358.054 151.994 360.88 146.764 363.172 141.825C369.106 128.915 369.815 109.276 368.839 99.2169L369.482 99.1462C370.465 109.284 369.75 129.096 363.743 142.139C361.452 147.125 358.618 152.347 355.611 157.915C346.525 174.703 336.224 193.738 338.263 211.752L337.627 211.814Z" fill="#543B38"/>
<path d="M413.468 223.797L413.222 223.153C425.163 217.892 432.977 207.448 436.447 192.01C440.263 175.049 430.122 161.385 421.166 149.285C418.853 146.144 416.67 143.215 414.855 140.372C402.459 120.929 397.341 109.244 397.29 109.15L397.876 108.852C397.926 108.97 403.022 120.631 415.39 140.026C417.19 142.845 419.373 145.79 421.679 148.9C430.722 161.103 440.972 174.931 437.076 192.23C433.563 207.841 425.619 218.481 413.468 223.797Z" fill="#543B38"/>
<path d="M318.565 239.023L340.973 212.827L360.996 184.754L369.034 172.669L367.422 151.381C367.422 151.381 356.42 152.787 351.014 157.875C347.435 162.54 345.758 165.845 342.05 171.224C330.21 182.454 325.042 189.466 319.013 197.421C310.831 210.982 301.788 224.08 295.759 240.217C296.778 242.793 306.761 256.825 308.677 258.231C314.004 256.566 321.478 253.519 326.748 251.211L318.565 239.023Z" fill="#2E57AB"/>
<path d="M354.093 277.022C348.599 274.917 342.253 272.695 342.253 272.695L337.46 266.5L329.386 254.925L324.702 246.853C319.772 247.041 312.11 252.467 307.267 257.728C312.11 261.937 317.871 267.089 322.606 271.078C331.54 278.098 333.991 279.103 338.443 283.312C339.932 284.482 339.889 285.471 341.176 287.756C343.735 289.154 344.544 290.026 347.313 292.13C347.587 292.201 347.204 295.051 347.204 296.104C349.373 297.038 353.442 298.459 353.442 298.459C353.442 298.459 356.833 290.018 361.509 279.731C360.881 278.82 356.016 277.98 354.093 277.022Z" fill="#E83464"/>
<path d="M357.808 172.316L348.896 185.665C348.896 185.665 350.19 192.442 351.476 197.821C354.678 203.231 360.534 216.73 362.03 219.808C363.237 226.781 364.394 232.262 366.013 242.965C366.172 249.106 365.015 256.362 363.266 265.942C360.974 274.831 356.283 284.003 353.204 295.585C353.204 302.896 356.883 314.259 354.44 321.852C351.845 329.916 435.023 317.761 435.023 317.761L433.881 289.547L421.448 260.492L418.896 241.858L423.233 210.401C423.233 210.401 425.922 208.877 430.339 202.682C431.951 194.044 429.471 183.969 429.471 183.969L424.715 155.857L416.142 148.609C413.583 147.204 398.794 143.693 388.088 138.786C379.949 142.995 355.004 155.158 355.004 155.158L357.808 172.316Z" fill="#2E57AB"/>
<path d="M341.392 447.179C348.707 432.212 359.261 410.272 367.653 392.918C380.57 366.219 379.681 368.237 397.796 324.153L381.807 308.558L352.64 292.735C339.585 332.822 329.617 373.074 329.617 373.074C329.617 373.074 327.196 398.988 320.733 436.185C320.733 436.185 311.691 456.531 307.39 468.695C314.705 481.793 326.025 490.847 334.945 490.211C337.084 479.916 340.821 456.178 341.392 447.179Z" fill="#2E57AB"/>
<path d="M299.981 500.27C298.687 508.46 298.983 520.349 298.644 523.725C296.75 542.571 296.106 554.766 290.295 568.328L281.433 588.941H310.101L310.527 572.568V557.02L317.466 533.188L327.933 508.546C332.668 497.435 335.885 490.368 335.885 483.638C328.136 478.612 317.264 472.762 307.896 466.802C307.043 470.564 301.427 490.784 299.981 500.27Z" fill="#E83464"/>
<path d="M418.036 491.498C418.716 490.634 421.195 499.351 421.911 498.518C424.484 495.448 443.227 475.361 444.319 469.048C442.396 460.088 439.201 451.034 435.283 432.793C435.283 432.793 439.693 394.048 441.789 378.225C441.066 335.186 433.151 287.505 433.151 287.505L410.858 306.39L390.048 322.166L413.511 434.662L414.588 484.918L418.036 491.498Z" fill="#2E57AB"/>
<path d="M447.745 492.786C448.077 495.307 447.651 523.066 447.745 526.466C448.388 550.322 450.333 553.832 450.333 553.832L458.725 572.074L466.676 584.229L467.536 589.569L429.732 589.522C430.311 586.543 430.714 583.527 430.939 580.491C431.329 575.348 432.739 562.564 432.233 556.149C430.787 537.86 416.33 495.346 416.33 495.346C416.33 495.346 416.33 486.457 415.463 482.24C424.079 476.634 435.919 470.312 445.179 464.965C446.032 468.695 447.376 489.999 447.745 492.786Z" fill="#E83464"/>
<path d="M463.25 195.285C457.908 188.901 441.933 171.193 435.059 164.409C427.259 153.415 424.505 150.847 424.505 150.847L408.09 145.767L416.764 178.677L443.032 209.082L463.344 230.362C461.356 235.199 458.082 240.861 456.838 245.023C460.171 248.603 469.958 249.97 474.656 251.886L486.179 236.683C475.199 210.369 470.999 207.213 463.25 195.285Z" fill="#2E57AB"/>
<path d="M438.81 272.931C442.858 270.245 444.304 267.905 444.304 267.905L448.641 261.121L453.484 253.402L456.824 241.945C460.915 241.474 469.112 244.748 475.878 250.009C468.057 261.788 452.747 274.808 449.075 278.781C448.641 280.65 448.641 281.584 448.214 284.16C447.116 285.212 443.473 290.984 443.473 290.984C443.473 290.984 441.875 295.358 441.535 296.072C440.972 296.347 436.049 298.075 436.049 298.075C434.557 291.959 432.556 286.003 430.071 280.281C430.396 279.229 430.794 278.671 432.167 277.65C434.285 276.072 437.553 273.771 438.81 272.931Z" fill="#E83464"/>
<path d="M368.087 149.049L394.782 169.67L413.511 147.573L391.876 136.697L368.087 149.049Z" fill="#E83464"/>
<path d="M383.108 112.119L380.332 141.958L373.921 145.798C373.921 145.798 387.72 151.201 394.478 153.721C400.984 150.839 407.07 144.361 407.07 144.361L399.95 140.561L391.009 114.404L383.108 112.119Z" fill="#D7AC74"/>
<path d="M440.892 143.003C421.607 138.464 404.685 107.713 404.519 107.407L405.075 107.046C405.241 107.352 422.019 137.844 441.029 142.319L440.892 143.003Z" fill="#543B38"/>
<path d="M382.074 111.93C382.031 114.804 381.518 126.693 381.518 126.693L390.264 129.331L395.772 128.248L392.679 115.527L382.074 111.93Z" fill="#C28757"/>
<path d="M363.136 76.7036L408.408 64.6343L410.641 83.9515C411.971 87.5558 413.171 90.0765 413.815 93.9321C412.884 101.573 410.448 108.907 406.673 115.432C406.673 115.432 400.89 125.224 398.425 127.031C390.835 125.193 376.885 118.73 373.126 114.215C363.852 103.041 363.136 76.7036 363.136 76.7036Z" fill="#EBBF85"/>
<path d="M370.473 86.5977L376.711 81.313C376.711 81.313 384.72 74.9603 387.597 76.6014C390.691 78.4075 390.799 83.8101 390.799 83.8101C390.799 83.8101 385.052 88.7257 381.077 89.3068C378.619 89.7309 370.473 86.5977 370.473 86.5977Z" fill="#D9A164"/>
<path d="M395.527 76.633C396.799 75.2588 402.509 75.5808 403.608 75.5337C404.707 75.4865 409.253 76.8136 409.319 76.8215C409.702 77.6617 409.644 83.8888 408.921 85.2787C407.598 86.8492 404.721 89.0636 402.517 88.7573C399.762 88.3883 396.878 85.7577 396.105 84.8311C395.664 82.758 395.635 78.7925 395.527 76.633Z" fill="#D9A164"/>
<path d="M399.95 72.848L402.625 69.8013C404.615 70.5133 406.53 71.4558 408.335 72.6125L408.87 74.3636L404.07 73.3113L399.95 72.848Z" fill="#4B2D32"/>
<path d="M363.114 82.7893C363.114 82.7893 379.219 78.6432 392.845 77.4025C404.468 74.5992 410.287 78.1092 410.287 78.1092L411.01 82.5459L412.145 86.9983C412.145 86.9983 411.819 90.9716 407.244 90.9245C405.393 90.9245 401.418 88.5688 398.526 87.595C397.471 87.226 394.97 85.8439 391.905 87.7678C383.108 93.2645 382.768 91.694 377.448 92.0239C373.747 92.2673 367.054 88.6473 367.054 88.6473L363.663 88.4745L363.114 82.7893Z" fill="#2E57AB"/>
<g style="mix-blend-mode:overlay" opacity="0.35">
<path d="M326.748 432.675L331.121 436.02L338.378 435.478L333.21 442.97H324.167L326.748 432.675Z" fill="#212430"/>
</g>
<g style="mix-blend-mode:overlay" opacity="0.35">
<path d="M324.211 415.415L326.321 422.27L331.164 421.564L326.965 427.532L322.122 428.23L324.211 415.415Z" fill="#212430"/>
</g>
<g style="mix-blend-mode:overlay" opacity="0.35">
<path d="M431.38 421.917L434.394 422.388L438.702 416.774L436.982 427.06L433.107 427.532L431.38 421.917Z" fill="#212430"/>
</g>
<g style="mix-blend-mode:overlay" opacity="0.35">
<path d="M424.021 434.269L430.801 433.217L432.738 430.759L433.382 438.832L429.833 441.635L424.021 434.269Z" fill="#212430"/>
</g>
<path d="M356.363 163.71C356.363 163.71 363.468 206.396 362.493 206.742C361.517 207.087 396.083 229.663 396.083 229.663L423.638 202.069L424.18 163.71L396.076 176.682L356.363 163.71Z" fill="#E83464"/>
<path d="M315.341 235.977C315.775 235.749 312.327 237.618 310.708 239.487C311.359 239.487 319.968 242.997 319.968 242.997L317.922 238.788L321.58 234.076L315.341 235.977Z" fill="#26428F"/>
<path d="M465.83 233.526C465.664 234.013 468.411 231.422 470.673 228.964C466.799 228.257 458.97 225.454 458.97 225.454L463.409 230.456L462.686 233.087L465.83 233.526Z" fill="#26428F"/>
<g style="mix-blend-mode:overlay" opacity="0.39">
<path d="M378.424 206.977C374.535 207.865 365.073 205.344 365.073 205.344C365.073 205.344 358.228 200.169 356.247 197.625C353.016 191.657 353.45 184.762 353.45 184.762L351.187 198.112L359.58 214.602C359.58 214.602 365.76 215.945 376.429 219.086C382.212 216.628 393.054 199.046 393.054 199.046C388.42 202.188 383.521 204.844 378.424 206.977Z" fill="#262935"/>
</g>
<g style="mix-blend-mode:overlay" opacity="0.39">
<path d="M431.17 190.369L428.047 180.02C428.047 180.02 429.016 189.67 428.047 196.337C424.816 202.533 415.448 205.454 415.448 205.454L408.025 207.558L419.699 216.605C419.699 216.605 429.32 205.611 430.628 202.297C430.953 198.795 431.17 190.369 431.17 190.369Z" fill="#262935"/>
</g>
<path d="M395.591 86.7L397.688 91.435L400.81 94.9451L395.425 98.2196L391.392 100.034L391.175 92.7778L392.223 88.8123L395.591 86.7Z" fill="url(#paint1_linear)"/>
<path d="M383.838 105.562L381.518 101.007L387.156 99.5625L384.597 102.162L383.838 105.562Z" fill="#D9A164"/>
<path d="M402.747 100.913L406.73 99.7432L405.01 103.599L404.366 101.612L402.747 100.913Z" fill="#D9A164"/>
<path d="M384.062 102.389C384.062 102.389 392.014 103.889 396.51 103.669C398.591 103.575 404.902 101.494 404.902 101.494C404.368 103.315 403.607 105.049 402.639 106.645C401.996 109.684 400.037 112.087 397.731 112.535C392.823 113.501 385.233 105.758 384.062 102.389Z" fill="white"/>
<path d="M391.573 106.049C391.573 106.049 396.387 106.253 397.428 106.166C400.08 105.939 401.519 105.923 401.519 105.923C401.519 105.923 400.521 106.661 397.428 107.007C395.917 107.171 391.573 106.049 391.573 106.049Z" fill="#D4CCD4"/>
<g style="mix-blend-mode:overlay" opacity="0.24">
<path d="M395.642 341.46C395.642 341.46 398.931 337.062 402.104 332.579C420.616 306.375 434.235 298.703 434.235 298.703L432.298 284.317L392.201 323.689L395.642 341.46Z" fill="#212430"/>
</g>
<path d="M388.703 83.7081C386.745 85.3547 384.507 86.5662 382.118 87.2731C379.544 88.0584 375.656 86.2288 374.716 85.5456C375.439 83.7238 376.682 82.8208 378.901 81.2424C381.12 79.664 385.277 79.185 388.703 83.7081Z" fill="white"/>
<path d="M379.978 87.2732C381.836 87.8465 384.069 86.9827 384.568 85.9305C385.074 85.3729 386.014 80.8499 383.188 79.6484C380.947 79.9782 377.752 79.9704 377.181 83.0015C376.906 82.6717 377.701 86.6136 379.978 87.2732Z" fill="url(#paint2_linear)"/>
<path d="M374.311 85.4357C375.065 83.8812 376.041 82.4659 377.202 81.2424C377.709 80.7939 378.251 80.3945 378.821 80.0488C379.002 79.9389 379.082 79.8918 379.277 79.7897C379.472 79.6876 379.609 79.6169 379.768 79.5462C380.1 79.3998 380.441 79.2765 380.787 79.1772C382.189 78.7772 383.675 78.9045 385.002 79.5384C386.281 80.1509 387.893 82.1376 388.616 83.3077C387.452 82.6873 385.529 81.4859 384.394 81.2974C383.393 81.0024 382.338 81.0024 381.337 81.2974C381.084 81.3995 380.838 81.5094 380.614 81.6351L380.253 81.8314C380.126 81.8996 380.003 81.9756 379.884 82.0591C379.378 82.3889 378.85 82.7266 378.294 83.0328C377.173 83.6689 375.532 84.8075 374.311 85.4357Z" fill="#221F1F"/>
<path d="M383.209 82.3417C383.209 82.7195 383.106 83.0887 382.913 83.4027C382.719 83.7166 382.444 83.9612 382.123 84.1054C381.802 84.2496 381.448 84.2869 381.107 84.2126C380.766 84.1384 380.453 83.9558 380.208 83.6882C379.963 83.4206 379.796 83.0798 379.729 82.7092C379.662 82.3385 379.698 81.9546 379.832 81.6061C379.966 81.2575 380.192 80.9601 380.482 80.7514C380.772 80.5426 381.112 80.4321 381.46 80.4336C381.69 80.4336 381.918 80.483 382.131 80.579C382.344 80.675 382.537 80.8157 382.699 80.993C382.862 81.1703 382.991 81.3807 383.078 81.6121C383.165 81.8436 383.21 82.0915 383.209 82.3417Z" fill="#221F1F"/>
<path d="M385.725 83.9122C385.725 84.1079 385.671 84.2992 385.571 84.4619C385.471 84.6246 385.329 84.7514 385.162 84.8263C384.996 84.9012 384.813 84.9208 384.636 84.8826C384.46 84.8444 384.297 84.7502 384.17 84.6118C384.042 84.4735 383.956 84.2972 383.921 84.1053C383.885 83.9133 383.903 83.7144 383.972 83.5336C384.041 83.3528 384.158 83.1983 384.308 83.0896C384.458 82.9809 384.634 82.9229 384.814 82.9229C384.934 82.9218 385.053 82.9467 385.164 82.9961C385.274 83.0454 385.375 83.1183 385.46 83.2103C385.545 83.3024 385.612 83.4119 385.657 83.5324C385.703 83.6529 385.726 83.782 385.725 83.9122Z" fill="white"/>
<path d="M398.042 83.6138C399.538 84.666 403.5 86.4878 405.661 86.1266C408.162 85.7104 408.357 85.0822 409.477 84.7759C409.534 83.4487 409.155 82.1428 408.409 81.0903C407.662 80.0379 406.596 79.3071 405.401 79.0279C402.878 78.6196 399.77 80.1822 398.042 83.6138Z" fill="white"/>
<path d="M405.914 86.0009C404.568 86.2776 403.176 86.0824 401.938 85.4434C400.999 84.7131 399.864 81.3129 401.693 80.0487C403.861 80.0487 406.752 79.9544 407.548 81.5485C407.764 81.1323 408.046 85.2706 405.914 86.0009Z" fill="url(#paint3_linear)"/>
<path d="M409.326 84.2183C408.716 83.0537 407.898 82.0337 406.919 81.2187C405.871 80.3471 403.304 80.5591 402.444 80.8025C401.584 81.0459 399.177 82.7499 397.927 83.6215C398.848 81.8488 400.159 80.3515 401.743 79.2634C403.464 78.1955 405.871 77.8971 407.121 78.9415C407.632 79.321 408.063 79.8133 408.386 80.3863C409.029 81.5401 409.356 82.8697 409.326 84.2183Z" fill="#221F1F"/>
<path d="M405.921 81.7685C405.935 82.1601 405.841 82.5474 405.651 82.8806C405.461 83.2138 405.184 83.4776 404.855 83.638C404.526 83.7985 404.16 83.8483 403.805 83.781C403.449 83.7137 403.121 83.5325 402.861 83.2605C402.601 82.9885 402.422 82.6384 402.347 82.255C402.272 81.8717 402.305 81.4728 402.44 81.1096C402.576 80.7464 402.808 80.4356 403.108 80.2172C403.407 79.9988 403.76 79.8827 404.121 79.884C404.353 79.8787 404.584 79.9234 404.8 80.0154C405.016 80.1074 405.214 80.2449 405.381 80.42C405.548 80.5951 405.682 80.8044 405.775 81.0358C405.867 81.2672 405.917 81.5162 405.921 81.7685Z" fill="#221F1F"/>
<path d="M407.96 83.7316C407.967 83.9349 407.918 84.136 407.819 84.309C407.72 84.4819 407.576 84.6189 407.405 84.7022C407.234 84.7855 407.044 84.8114 406.86 84.7765C406.675 84.7417 406.504 84.6477 406.369 84.5066C406.234 84.3656 406.141 84.1839 406.102 83.9849C406.062 83.7858 406.079 83.5786 406.149 83.3898C406.219 83.201 406.339 83.0392 406.494 82.9252C406.649 82.8112 406.832 82.7502 407.02 82.75C407.141 82.7469 407.261 82.7699 407.374 82.8176C407.487 82.8653 407.591 82.9369 407.678 83.0282C407.765 83.1194 407.835 83.2285 407.883 83.3493C407.932 83.47 407.958 83.5999 407.96 83.7316Z" fill="white"/>
<g style="mix-blend-mode:overlay" opacity="0.23">
<path d="M350.269 300.454C358.005 304.49 365.181 309.687 371.586 315.892C379.573 323.556 390.958 340.101 390.958 340.101L394.189 334.134C394.189 334.134 373.711 302.637 371.962 302.637C370.213 302.637 353.471 292.813 353.471 292.813L350.269 300.454Z" fill="#212430"/>
</g>
<path d="M351.238 295.546C351.238 295.546 363.266 301.043 372.2 310.89C375.59 314.636 392.223 337.015 392.223 337.015H396.097C396.097 337.015 409.13 318.201 413.467 312.767C417.197 308.055 434.806 291.879 434.806 291.879L431.141 283.296C431.141 283.296 408.263 295.256 391.782 295.256C383.108 295.256 362.868 289.806 355.155 286.296L351.238 295.546Z" fill="#E83464"/>
<path d="M365.073 93.5474C363.967 94.2619 358.864 106.166 357.765 112.645C360.194 108.805 364.61 107.148 364.61 107.148L367.979 105.844L365.073 93.5474Z" fill="#212124"/>
<path d="M360.548 101.612C362.138 96.9708 365.998 89.8329 368.499 87.2258C386.158 72.4944 408.725 83.7079 410.786 55.7528C411.349 48.128 361.632 69.2042 361.632 69.2042L360.548 101.612Z" fill="#1B1A20"/>
<path d="M349.048 109.15L348.477 108.828C348.592 108.577 360.382 83.9591 378.07 75.2428C379.74 74.5047 381.373 73.7979 382.978 73.0991C400.326 65.5528 414.06 59.5848 413.511 44.0996H414.162C414.761 60.0874 400.839 66.126 383.224 73.7822C381.612 74.4811 379.978 75.1878 378.323 75.9181C360.852 84.4853 349.134 108.891 349.048 109.15Z" fill="#434848"/>
<path d="M346.301 103.222L345.412 102.813C345.491 102.593 353.905 80.9675 369.641 69.2515C383.954 58.5956 390.604 51.8189 392.368 39.7888L393.322 39.9459C391.544 52.2901 384.445 59.5065 370.191 70.1232C354.686 81.6664 346.387 103.002 346.301 103.222Z" fill="#434848"/>
<path d="M337.786 175.638C337.786 175.638 344.241 176.863 345.86 176.337C345.376 174.413 344.566 171.955 344.566 171.955L346.503 165.115L341.494 172.301L337.786 175.638Z" fill="#26428F"/>
<g style="mix-blend-mode:overlay" opacity="0.16">
<path d="M365.073 233.409L395.216 245.565C395.216 245.565 418.086 233.056 420.19 232.003C419.756 233.409 419.33 240.421 419.33 240.421L418.462 253.991L396.936 268.958C396.936 268.958 367.176 253.457 366.793 252.114C366.15 249.837 366.454 242.408 365.933 239.958C364.965 235.396 365.073 233.409 365.073 233.409Z" fill="white"/>
</g>
<g style="mix-blend-mode:overlay">
<path d="M361.249 57.7554L373.538 55.1248C373.538 55.1248 379.834 53.2009 379.19 58.4621C378.851 61.2419 388.66 58.8861 392.924 57.0565C399.871 54.0725 396.481 58.627 396.481 61.6188C396.481 64.6106 403.044 64.3908 405.654 64.3908C408.885 64.3908 408.364 65.1289 408.025 66.4953C405.01 74.0965 392.577 78.0778 385.313 78.4233C386.44 76.4994 380.463 73.5154 376.27 73.7117C374.564 73.7824 371.42 74.764 369.483 74.5912C367.545 74.4185 367.386 71.7879 367.871 68.8039C368.355 65.8199 364.321 65.6629 362.218 67.2334C360.114 68.8039 357.881 63.3699 357.881 63.3699L361.249 57.7554Z" fill="#CED3D7"/>
</g>
<path opacity="0.23" d="M431.972 567.786L430.035 589.184L442.952 588.831C442.952 588.831 440.112 589.396 436.172 582.172C433.808 577.829 431.972 567.786 431.972 567.786Z" fill="#6E2430"/>
<path opacity="0.23" d="M430.035 279.409L431.329 278.53L432.515 283.147L435.529 285.252L440.856 294.313C440.856 294.313 440.206 296.944 439.237 296.944C438.174 297.134 437.142 297.489 436.172 297.996L432.941 286.422L430.36 281.71L430.035 279.409Z" fill="#6E2430"/>
<path opacity="0.23" d="M345.26 288.526L353.818 291.329L351.722 296.418L347.689 295.546L347.522 291.51L345.26 288.526Z" fill="#6E2430"/>
<defs>
<linearGradient id="paint0_linear" x1="367.588" y1="110.509" x2="412.235" y2="233.803" gradientUnits="userSpaceOnUse">
<stop stop-color="#1B1A20"/>
<stop offset="0.98" stop-color="#7D4532"/>
</linearGradient>
<linearGradient id="paint1_linear" x1="389.57" y1="91.9454" x2="398.144" y2="94.5808" gradientUnits="userSpaceOnUse">
<stop offset="0.21" stop-color="#EBBF85"/>
<stop offset="1" stop-color="#D27D49"/>
</linearGradient>
<linearGradient id="paint2_linear" x1="382.944" y1="83.5318" x2="384.372" y2="90.0456" gradientUnits="userSpaceOnUse">
<stop offset="0.26" stop-color="#144F87"/>
<stop offset="0.88" stop-color="#5CADB5"/>
</linearGradient>
<linearGradient id="paint3_linear" x1="-10525.2" y1="-413.72" x2="-10528.8" y2="-375.726" gradientUnits="userSpaceOnUse">
<stop offset="0.26" stop-color="#144F87"/>
<stop offset="0.88" stop-color="#5CADB5"/>
</linearGradient>
</defs>
</svg>
