<svg width="171" height="166" viewBox="0 0 171 166" fill="none" xmlns="http://www.w3.org/2000/svg">
<path d="M99.9162 0.886963C68.5124 0.886963 43.0518 25.5144 43.0518 55.8906C43.0518 86.2668 68.5124 110.894 99.9162 110.894C131.32 110.894 156.781 86.2668 156.781 55.8906C156.816 25.5144 131.355 0.886963 99.9162 0.886963ZM47.0959 55.8906C47.0959 27.6574 70.7279 4.76477 99.9162 4.76477C129.104 4.76477 152.772 27.6574 152.772 55.8906C152.772 84.1238 129.104 107.016 99.9162 107.016C70.7279 107.016 47.0959 84.1238 47.0959 55.8906ZM127.944 102.799C118.519 108.071 108.11 110.384 97.9469 110.01L98.0524 107.799C98.6854 107.833 99.3535 107.833 99.9865 107.833C109.095 107.833 118.308 105.588 126.748 100.894C135.61 95.9613 142.644 88.852 147.321 80.314L149.325 81.3005C144.613 90.0085 137.369 97.526 127.944 102.799Z" fill="#5E85D4"/>
<path d="M49.0298 87.5253C47.9045 85.4503 48.1506 83.0352 49.4518 81.2664C49.4518 81.2664 51.4563 84.838 52.2651 85.8585L49.0298 87.5253Z" fill="#E83464"/>
<path d="M59.7906 81.9467C58.4191 79.4635 55.5003 78.341 52.8276 79.0213C53.8123 80.7901 54.9025 82.4909 55.8871 84.1237C57.0828 83.6475 58.3136 82.729 59.7906 81.9467Z" fill="#E83464"/>
<path d="M65.1362 103.139C66.9649 104.091 69.1101 104.057 70.8332 103.173L66.6132 100.485L65.1362 103.139Z" fill="#E83464"/>
<path d="M73.6463 100.247C74.8772 97.458 73.7167 94.1585 70.9033 92.6958L68.3713 96.9138C69.356 98.0023 72.31 99.8732 73.6463 100.247Z" fill="#E83464"/>
<path d="M69.8484 124.671C69.1099 122.188 66.4372 120.725 63.8349 121.439C61.2677 122.154 59.7555 124.739 60.494 127.256" fill="#E83464"/>
<path d="M78.816 107.425C77.4796 108.717 77.4796 110.792 78.816 112.085C80.1523 113.377 82.2975 113.377 83.6338 112.085C84.5481 111.2 84.8295 109.976 84.513 108.853" fill="#E83464"/>
<path d="M26.7342 82.9673C29.3014 83.6816 30.8135 86.2668 30.075 88.784C29.3365 91.3012 26.6639 92.7298 24.0615 92.0155" fill="#E83464"/>
<path d="M45.5836 72.1501C45.5484 72.9325 45.1967 73.7148 44.5989 74.3271C43.2626 75.6197 41.1174 75.6197 39.7811 74.3271C38.4447 73.0345 38.4447 70.9596 39.7811 69.667C41.1174 68.3744 43.2626 68.3744 44.5989 69.667C44.7396 69.803 44.8802 69.9391 44.9857 70.1092" fill="#E83464"/>
<path d="M91.2298 93.8863C94.0654 93.8863 96.3641 91.6628 96.3641 88.9199C96.3641 86.1771 94.0654 83.9536 91.2298 83.9536C88.3942 83.9536 86.0955 86.1771 86.0955 88.9199C86.0955 91.6628 88.3942 93.8863 91.2298 93.8863Z" fill="#E83464"/>
<path d="M63.6944 67.252C66.53 67.252 68.8287 65.0285 68.8287 62.2857C68.8287 59.5428 66.53 57.3193 63.6944 57.3193C60.8588 57.3193 58.5601 59.5428 58.5601 62.2857C58.5601 65.0285 60.8588 67.252 63.6944 67.252Z" fill="#E83464"/>
<path d="M81.9106 53.4074C83.2313 53.4074 84.302 52.3718 84.302 51.0943C84.302 49.8169 83.2313 48.7812 81.9106 48.7812C80.5899 48.7812 79.5193 49.8169 79.5193 51.0943C79.5193 52.3718 80.5899 53.4074 81.9106 53.4074Z" fill="#E83464"/>
<path d="M100.268 73.4088C102.171 73.4088 103.714 71.9163 103.714 70.0753C103.714 68.2342 102.171 66.7417 100.268 66.7417C98.3643 66.7417 96.8213 68.2342 96.8213 70.0753C96.8213 71.9163 98.3643 73.4088 100.268 73.4088Z" fill="#E83464"/>
<path d="M95.8368 62.3534C98.42 62.3534 100.514 60.3279 100.514 57.8293C100.514 55.3307 98.42 53.3052 95.8368 53.3052C93.2537 53.3052 91.1597 55.3307 91.1597 57.8293C91.1597 60.3279 93.2537 62.3534 95.8368 62.3534Z" fill="#E83464"/>
<path d="M141.325 111.139L128.869 118.095L152.36 157.451L164.816 150.495L141.325 111.139Z" fill="#E83464"/>
<path d="M141.659 109.976L139.549 111.166L133.641 101.268C157.449 84.7361 164.904 52.9993 149.958 27.9636C142.257 15.0716 129.808 5.81928 114.862 1.94147C99.9513 -1.93634 84.3725 0.036582 71.0443 7.48606C57.7162 14.9355 48.1509 26.9771 44.1419 41.4339C42.3484 47.8629 41.7857 54.3939 42.3484 60.8229C38.5504 63.7483 35.2447 67.0819 32.4665 70.7215L18.7164 68.7146L14.8129 67.2519L1.90674 75.4157L2.85624 76.8444L15.0239 69.1568L18.0834 70.3134L28.4224 77.0145C24.4485 84.2939 22.3034 92.4917 22.3034 100.996V102.424L30.1455 98.2744C30.884 110.656 41.1879 120.623 53.9885 121.337L49.6982 128.923H51.1752C59.9317 128.923 68.4068 126.848 75.9677 122.97L82.9307 133.005L84.1263 135.964L76.1787 147.733L77.6557 148.652L86.0957 136.168L84.5835 132.392L82.5087 119.058C85.744 116.779 88.7331 114.126 91.4058 111.132C94.2543 111.541 97.138 111.779 100.022 111.779C108.286 111.779 116.62 110.044 124.462 106.472L130.335 116.303L127.663 117.8L139.057 136.882L140.569 136.032L130.054 118.446L140.991 112.357L163.603 150.217L152.666 156.305L142.96 140.012L141.448 140.862L156.464 166L170.425 158.21L141.659 109.976ZM22.2331 70.9256L31.3412 72.2523C30.6027 73.3068 29.8994 74.3953 29.2664 75.4838L22.2331 70.9256ZM27.1212 84.0218C28.8444 84.8041 29.7587 86.709 29.2312 88.5459C28.9499 89.5323 28.2817 90.3487 27.3322 90.8589C26.6289 91.2331 25.82 91.4032 25.0112 91.3352C25.5387 88.852 26.242 86.4029 27.1212 84.0218ZM24.0969 99.567C24.1672 97.356 24.3782 95.179 24.7299 93.0019C24.9409 93.036 25.187 93.036 25.3981 93.036C26.3475 93.036 27.3322 92.7978 28.1762 92.3216C29.5125 91.6073 30.4972 90.4167 30.884 88.9881C31.6577 86.3008 30.251 83.5455 27.719 82.423C30.8489 74.9055 35.8777 68.1704 42.5594 62.7959C42.7704 64.5647 43.0869 66.2995 43.5089 68.0343C43.0869 67.8982 42.6297 67.8302 42.1374 67.8302C41.012 67.8302 39.9219 68.2724 39.113 69.0548C37.4602 70.6535 37.4602 73.3068 39.113 74.9055C39.957 75.7219 41.0472 76.1301 42.1374 76.1301C43.2275 76.1301 44.3177 75.7219 45.1617 74.9055C45.2672 74.8035 45.3727 74.7014 45.443 74.5994C46.287 76.8444 47.2717 79.0554 48.397 81.2325C47.2717 83.0013 47.0607 85.1103 47.7992 87.0492L24.0969 99.567ZM43.966 70.2453C44.0364 70.3134 44.1067 70.3814 44.1419 70.4494C44.3177 71.0277 44.4935 71.64 44.6694 72.2183C44.599 72.7625 44.3529 73.2727 43.966 73.6809C42.9814 74.6334 41.3989 74.6334 40.4142 73.6809C39.4295 72.7285 39.4295 71.1978 40.4142 70.2453C40.9065 69.7691 41.5395 69.531 42.2077 69.531C42.8407 69.531 43.4737 69.8031 43.966 70.2453ZM46.9552 118.14L61.0218 100.247L59.6152 99.2269L45.3024 117.459C40.4845 115.214 36.5459 111.405 34.2249 106.744L53.4962 92.5938L52.4412 91.2331L33.4864 105.112C32.5017 102.696 31.939 100.111 31.9039 97.356L51.8434 86.8111C55.6414 92.3556 60.3185 97.0498 65.6287 100.792L54.9732 119.636C52.1599 119.602 49.452 119.058 46.9552 118.14ZM49.452 83.0693C49.5927 83.3074 49.7334 83.5795 49.9092 83.8177C50.2257 84.3619 50.5422 84.8722 50.8939 85.3824L49.4169 86.1647C49.0652 85.1783 49.1004 84.0898 49.452 83.0693ZM61.1977 126.303C61.0218 124.501 62.2175 122.766 64.0813 122.256C65.9452 121.745 67.9145 122.63 68.7233 124.263C66.2968 125.113 63.7648 125.793 61.1977 126.303ZM77.5502 122.188C78.6755 121.541 79.8008 120.895 80.891 120.181L82.2625 129.025L77.5502 122.188ZM70.3762 123.65C69.2157 121.201 66.3672 119.84 63.589 120.623C60.846 121.371 59.1228 123.956 59.4745 126.61C57.259 126.95 54.9732 127.188 52.6874 127.222L65.6638 104.261C66.4375 104.533 67.2112 104.669 68.02 104.669C68.9695 104.669 69.919 104.499 70.7982 104.125C73.0137 105.384 75.3347 106.472 77.6908 107.425C77.2337 108.105 76.9523 108.887 76.9523 109.738C76.9523 110.826 77.4095 111.881 78.2183 112.663C79.0623 113.479 80.1525 113.888 81.2427 113.888C82.3328 113.888 83.423 113.479 84.267 112.663C85.0055 111.949 85.4627 110.962 85.4978 109.976C86.799 110.282 88.065 110.588 89.3662 110.792C84.056 116.507 77.5502 120.861 70.3762 123.65ZM66.5078 102.765L67.0353 101.846C67.598 102.22 68.1607 102.594 68.7233 102.935C68.02 103.003 67.2463 102.969 66.5078 102.765ZM78.7107 109.738C78.7107 109.125 78.9568 108.547 79.3788 108.071C80.8207 108.581 82.2625 109.057 83.7395 109.5C83.8098 110.214 83.5637 110.928 83.0362 111.473C82.0515 112.425 80.469 112.425 79.4843 111.473C78.9568 110.996 78.7107 110.384 78.7107 109.738ZM96.1885 109.942C78.1832 108.751 61.0922 99.1928 51.4214 83.0013C43.966 70.4834 41.9615 55.8906 45.865 41.9101C49.7334 27.9296 59.0173 16.2281 71.9235 9.01677C80.5393 4.1525 90.1047 1.70336 99.7755 1.70336C104.664 1.70336 109.552 2.31565 114.405 3.57423C128.858 7.31598 140.956 16.2962 148.411 28.78C158.082 45.0056 158.082 64.0885 150.169 79.7698L148.165 78.7833C149.677 75.7899 150.908 72.6264 151.822 69.3269C155.55 55.9246 153.616 41.9101 146.442 29.9025C142.011 22.453 135.681 16.1601 128.19 11.704L127.276 13.1667C134.52 17.4867 140.639 23.5756 144.929 30.7869C151.857 42.4204 153.721 55.9587 150.134 68.9187C146.547 81.8788 137.931 92.7298 125.939 99.4309C120.664 102.356 115.038 104.363 109.2 105.384L101.041 95.3831C102.905 90.4848 103.995 85.3484 104.242 80.0419C104.417 80.0419 104.558 80.0419 104.734 80.0419C107.055 80.0419 108.532 79.0554 109.306 78.2731C109.833 77.7628 110.29 77.1506 110.642 76.4702L125.342 74.8035L129.491 75.2116L139.725 64.0204L138.424 62.8979L128.753 73.4768L125.517 73.1367L111.943 68.7146C111.767 66.6396 111.31 64.4286 110.501 62.2176C112.928 59.7684 114.264 56.571 114.264 53.1694C114.264 52.0468 114.123 50.9583 113.842 49.9038L121.192 48.7473L127.311 52.319L128.225 50.8563L121.544 46.9785L113.279 48.2711C112.611 46.6383 111.591 45.1416 110.29 43.883C108.989 42.6244 107.442 41.638 105.754 40.9917L107.09 32.998L103.081 26.5349L101.569 27.4194L105.261 33.3381L104.066 40.4474C102.976 40.1753 101.85 40.0392 100.69 40.0392C97.1732 40.0392 93.8323 41.3318 91.3003 43.713C88.9793 42.9306 86.7287 42.4884 84.6187 42.3183L80.047 29.1542L79.6953 26.0247L90.5266 16.6703L89.3662 15.4118L77.7963 25.3104L78.2183 29.3242L76.4952 43.5429C74.7017 44.4613 73.4708 45.8219 73.0137 47.5227C72.8378 48.135 72.7675 48.8834 72.8027 49.7338C67.387 49.9719 62.0417 51.0264 56.9777 52.8292L48.8894 46.6043C51.5972 32.6918 60.3185 19.9699 73.9632 12.3503C88.065 4.45864 104.804 3.40415 119.891 9.45898L120.559 7.89425C104.98 1.63533 87.6782 2.72384 73.084 10.8876C47.4475 25.2083 38.6207 57.0472 53.4259 81.8788C62.7098 97.424 79.0975 106.574 96.3291 107.731L96.1885 109.942ZM72.2752 92.5597L85.6385 68.9187L86.5528 68.0343L91.0893 72.4223C95.9071 77.0825 99.6348 79.1235 102.483 79.8038C102.061 89.1582 98.9667 98.1043 93.4807 105.792C91.1597 105.52 88.8035 105.078 86.4825 104.465C82.3328 103.377 78.3942 101.846 74.7017 99.8732C75.5457 97.1859 74.561 94.2605 72.2752 92.5597ZM49.7685 56.0267C49.1707 56.3328 48.5729 56.673 47.975 57.0132C47.9399 55.5845 47.975 54.1558 48.0805 52.7272L49.7685 56.0267ZM48.397 49.5297C48.4322 49.1895 48.5025 48.8493 48.5377 48.5092L55.1139 53.5435C53.8127 54.0538 52.5467 54.598 51.3159 55.2103L48.397 49.5297ZM73.1192 51.4346C73.8225 54.1558 75.8973 57.7615 80.7503 62.4557L85.2868 66.8437L84.3725 67.7282L59.9317 80.6542C58.3843 78.6813 55.8524 77.6948 53.2852 78.103C50.1554 71.9801 48.4674 65.5171 48.0454 59.0201C55.6062 54.3939 64.222 51.8087 73.1192 51.4346ZM79.1678 44.3593C80.258 44.0871 81.524 43.917 82.8955 43.917C88.5573 43.917 96.083 46.4342 101.85 52.0128C105.824 55.8566 108.708 61.061 109.763 66.2655C110.712 70.9597 110.044 75.1096 108.04 77.0825C104.98 80.0419 99.248 77.8989 92.3202 71.1978L81.9812 61.2311C76.4248 55.8566 73.8577 51.1624 74.7368 47.9649C75.3698 45.7879 77.4798 44.8015 79.1678 44.3593ZM78.3942 42.7945L79.5547 33.168L82.7197 42.2163C81.2427 42.2163 79.9063 42.3863 78.7458 42.6925C78.6052 42.7605 78.4997 42.7945 78.3942 42.7945ZM93.129 44.3933C97.771 40.6515 104.664 40.8896 109.024 45.1076C113.35 49.2916 113.596 55.9927 109.763 60.4488C108.286 57.0472 106.07 53.7136 103.081 50.8223C100.092 47.8969 96.6105 45.7879 93.129 44.3933ZM58.3843 81.4365L55.993 82.6951C55.6414 82.1509 55.2897 81.5726 54.938 80.9943C54.6567 80.5521 54.4105 80.1099 54.1644 79.6677C55.782 79.5997 57.3293 80.246 58.3843 81.4365ZM75.0533 74.5653L58.736 86.5389C58.103 85.7566 57.5052 84.9402 56.9425 84.1238L75.0533 74.5653ZM80.3283 72.8305L64.644 92.7978C62.956 91.2671 61.3383 89.6344 59.8614 87.8655L80.3283 72.8305ZM78.5348 77.9329L68.4068 95.8933C67.5628 95.281 66.754 94.6347 65.9452 93.9544L78.5348 77.9329ZM71.4312 94.0564C72.873 95.247 73.5412 97.1519 73.1543 98.9547C72.029 98.3084 70.9037 97.5941 69.8487 96.8798L71.4312 94.0564ZM97.7007 102.39L105.086 105.928C101.885 106.234 98.6853 106.268 95.45 105.962C96.2588 104.805 96.9973 103.615 97.7007 102.39ZM98.5095 100.894C99.1425 99.7031 99.7403 98.4785 100.268 97.2199L106.316 104.635L98.5095 100.894ZM111.38 74.7014C111.767 73.4768 111.978 72.0482 111.978 70.5515L121.297 73.5789L111.38 74.7014ZM97.9468 110.01L98.0523 107.799C98.6853 107.833 99.3535 107.833 99.9865 107.833C109.095 107.833 118.308 105.588 126.748 100.894C135.61 95.9613 142.644 88.852 147.321 80.314L149.325 81.3005C144.578 90.0085 137.333 97.5261 127.874 102.799C118.484 108.071 108.11 110.384 97.9468 110.01ZM131.847 115.452L126.045 105.724C126.959 105.282 127.874 104.805 128.788 104.295C129.948 103.649 131.074 102.969 132.164 102.254L138.002 112.017L131.847 115.452ZM153.58 157.768L164.517 151.679L168.034 157.598L157.097 163.687L153.58 157.768Z" fill="#2E57AB"/>
<path d="M91.2298 94.7027C92.7771 94.7027 94.3245 94.1244 95.485 93.0019C97.8411 90.7229 97.8411 87.0492 95.485 84.7701C93.1288 82.491 89.3308 82.491 86.9746 84.7701C84.6185 87.0492 84.6185 90.7229 86.9746 93.0019C88.1351 94.1585 89.6825 94.7027 91.2298 94.7027ZM88.2055 85.9947C89.0495 85.1783 90.1396 84.8041 91.1946 84.8041C92.2848 84.8041 93.375 85.2123 94.1838 85.9947C95.8366 87.5934 95.8366 90.2126 94.1838 91.8114C92.531 93.4101 89.8231 93.4101 88.1703 91.8114C86.5175 90.2126 86.5526 87.5934 88.2055 85.9947Z" fill="#2E57AB"/>
<path d="M63.6944 68.1021C65.2417 68.1021 66.7891 67.5239 67.9496 66.4013C70.3057 64.1223 70.3057 60.4486 67.9496 58.1695C65.5934 55.8904 61.7954 55.8904 59.4392 58.1695C57.0831 60.4486 57.0831 64.1223 59.4392 66.4013C60.6349 67.5239 62.1822 68.1021 63.6944 68.1021ZM60.7052 59.3941C62.3581 57.7953 65.0659 57.7953 66.7187 59.3941C68.3716 60.9928 68.3716 63.612 66.7187 65.2108C65.0659 66.8095 62.3581 66.8095 60.7052 65.2108C59.0524 63.612 59.0524 60.9928 60.7052 59.3941Z" fill="#2E57AB"/>
<path d="M81.9109 54.292C82.79 54.292 83.5989 53.9519 84.2319 53.3736C84.8649 52.7613 85.1814 51.979 85.1814 51.1286C85.1814 50.2782 84.8297 49.4958 84.2319 48.8835C82.9659 47.6589 80.8559 47.6589 79.5899 48.8835C78.9569 49.4958 78.6404 50.2782 78.6404 51.1286C78.6404 51.979 78.992 52.7613 79.5899 53.3736C80.2229 53.9519 81.0317 54.292 81.9109 54.292ZM80.8207 50.0741C81.102 49.8019 81.524 49.6319 81.9109 49.6319C82.2977 49.6319 82.6845 49.7679 83.001 50.0741C83.2824 50.3462 83.4582 50.7204 83.4582 51.1286C83.4582 51.5368 83.2824 51.9109 83.001 52.1831C82.7197 52.4552 82.3329 52.6253 81.9109 52.6253C81.4889 52.6253 81.102 52.4552 80.8207 52.1831C80.5394 51.9109 80.3635 51.5368 80.3635 51.1286C80.3987 50.7204 80.5394 50.3462 80.8207 50.0741Z" fill="#2E57AB"/>
<path d="M97.2081 67.1157C96.3993 67.8981 95.9421 68.9525 95.9421 70.0751C95.9421 71.1976 96.3993 72.2521 97.2081 73.0344C98.017 73.8168 99.1071 74.259 100.268 74.259C101.428 74.259 102.518 73.8168 103.327 73.0344C104.136 72.2521 104.593 71.1976 104.593 70.0751C104.593 68.9525 104.136 67.8981 103.327 67.1157C102.518 66.3333 101.428 65.8911 100.268 65.8911C99.1071 65.8911 98.017 66.3333 97.2081 67.1157ZM102.8 70.0751C102.8 70.7214 102.518 71.3677 102.061 71.8439C101.604 72.3201 100.936 72.5582 100.232 72.5582C99.5291 72.5582 98.8961 72.2861 98.4038 71.8439C97.9115 71.3677 97.6653 70.7554 97.6653 70.0751C97.6653 69.4288 97.9466 68.7825 98.4038 68.3062C98.8961 67.83 99.5291 67.5919 100.232 67.5919C100.936 67.5919 101.569 67.864 102.061 68.3062C102.553 68.7484 102.8 69.4288 102.8 70.0751Z" fill="#2E57AB"/>
<path d="M95.8368 63.2383C97.2787 63.2383 98.6853 62.728 99.7755 61.6735C101.956 59.5646 101.956 56.163 99.7755 54.054C98.7205 53.0335 97.3138 52.4893 95.8368 52.4893C94.3598 52.4893 92.9532 53.0335 91.8982 54.054C89.7179 56.163 89.7179 59.5646 91.8982 61.6735C92.9532 62.694 94.395 63.2383 95.8368 63.2383ZM93.129 55.2445C93.8675 54.5302 94.8522 54.156 95.8368 54.156C96.8215 54.156 97.8062 54.5302 98.5447 55.2445C100.022 56.6732 100.022 59.0203 98.5447 60.449C97.0677 61.8776 94.6412 61.8776 93.1642 60.449C91.652 59.0203 91.652 56.6732 93.129 55.2445Z" fill="#2E57AB"/>
<path d="M28.6332 131.372C24.2022 131.372 20.6152 134.841 20.6152 139.127C20.6152 143.413 24.2022 146.883 28.6332 146.883C33.0642 146.883 36.6161 143.379 36.6161 139.127C36.6161 134.875 33.0291 131.372 28.6332 131.372ZM28.6332 145.148C25.1869 145.148 22.3736 142.427 22.3736 139.093C22.3736 135.76 25.1869 133.039 28.6332 133.039C32.0796 133.039 34.8929 135.76 34.8929 139.093C34.8577 142.461 32.0796 145.148 28.6332 145.148Z" fill="#2E57AB"/>
<path d="M158.609 19.5275C161.352 19.5275 163.568 17.3845 163.568 14.7313C163.568 12.0781 161.352 9.93506 158.609 9.93506C155.866 9.93506 153.651 12.0781 153.651 14.7313C153.651 17.3845 155.866 19.5275 158.609 19.5275ZM158.609 11.6699C160.368 11.6699 161.81 13.0645 161.81 14.7653C161.81 16.4661 160.368 17.8608 158.609 17.8608C156.851 17.8608 155.409 16.4661 155.409 14.7653C155.409 13.0645 156.816 11.6699 158.609 11.6699Z" fill="#2E57AB"/>
<path d="M8.55314 51.8087L11.3665 46.8084L16.536 44.0871L11.3665 41.3658L8.55314 36.3655L5.73981 41.3658L0.570312 44.0871L5.73981 46.8084L8.55314 51.8087ZM7.04097 42.6244L8.55314 39.9371L10.0653 42.6244L12.8435 44.0871L10.0653 45.5498L8.55314 48.237L7.04097 45.5498L4.26281 44.0871L7.04097 42.6244Z" fill="#2E57AB"/>
<path d="M156.816 93.5461L153.299 99.737L146.899 103.139L153.299 106.54L156.816 112.731L160.332 106.54L166.733 103.139L160.332 99.737L156.816 93.5461ZM158.996 105.248L156.781 109.159L154.565 105.248L150.521 103.105L154.565 100.962L156.781 97.0498L158.996 100.962L163.04 103.105L158.996 105.248Z" fill="#2E57AB"/>
<path d="M35.0689 1.19312H33.3105V6.70369H35.0689V1.19312Z" fill="#2E57AB"/>
<path d="M35.0689 12.0105H33.3105V17.5211H35.0689V12.0105Z" fill="#2E57AB"/>
<path d="M31.4819 8.50684H25.7849V10.2076H31.4819V8.50684Z" fill="#2E57AB"/>
<path d="M42.6296 8.50684H36.9326V10.2076H42.6296V8.50684Z" fill="#2E57AB"/>
<path d="M117.781 139.127H116.022V142.767H117.781V139.127Z" fill="#2E57AB"/>
<path d="M117.781 146.271H116.022V149.91H117.781V146.271Z" fill="#2E57AB"/>
<path d="M115.073 143.652H111.31V145.352H115.073V143.652Z" fill="#2E57AB"/>
<path d="M122.458 143.652H118.695V145.352H122.458V143.652Z" fill="#2E57AB"/>
</svg>
