<svg width="171" height="166" viewBox="0 0 171 166" fill="none" xmlns="http://www.w3.org/2000/svg">
<path d="M112.144 122.344C110.889 120.079 111.726 117.272 113.993 115.987L102.867 96.2727L123.2 107.06C124.526 104.862 127.421 104.05 129.757 105.268C132.129 106.485 133.036 109.325 131.815 111.625L152.568 122.615C152.568 100.533 134.431 82.5436 111.795 81.9011C110.714 86.1619 93.938 104.016 88.0088 104.963C88.6715 126.909 107.226 144.493 130.002 144.493L118.666 124.373C116.33 125.489 113.4 124.61 112.144 122.344ZM149.742 108.04L151.87 115.345C149.777 115.919 147.615 114.736 147.057 112.741C146.464 110.678 147.65 108.582 149.742 108.04ZM135.373 97.2533C136.454 96.2051 138.163 96.2051 139.244 97.2533C140.325 98.3016 140.325 99.9586 139.244 101.007C138.163 102.055 136.454 102.055 135.373 101.007C134.292 99.9924 134.292 98.3016 135.373 97.2533ZM117.027 88.4951C118.631 86.9396 121.247 86.9396 122.887 88.4951C124.491 90.0506 124.491 92.5868 122.887 94.1761C121.282 95.7316 118.666 95.7316 117.027 94.1761C115.423 92.5868 115.423 90.0506 117.027 88.4951ZM100.704 115.649C99.0999 117.204 96.4841 117.204 94.8448 115.649C93.2404 114.093 93.2404 111.557 94.8448 109.968C96.4492 108.412 99.065 108.412 100.704 109.968C102.344 111.557 102.344 114.093 100.704 115.649ZM107.784 131.508C106.703 132.557 104.994 132.557 103.913 131.508C102.832 130.46 102.832 128.803 103.913 127.755C104.994 126.707 106.703 126.707 107.784 127.755C108.866 128.803 108.866 130.46 107.784 131.508ZM122.538 143.75L115.004 141.687C115.597 139.658 117.76 138.508 119.817 139.083C121.945 139.624 123.131 141.721 122.538 143.75Z" fill="#5E85D4"/>
<path d="M81.8356 97.0166L70.3608 100.77L82.6378 102.157" fill="#E83464"/>
<path d="M103.669 75.8477L107.541 64.7224L108.971 76.6254" fill="#E83464"/>
<path d="M92.8918 122.784L83.126 127.484L90.7293 118.151" fill="#E83464"/>
<path d="M109.842 139.455L103.844 148.112L105.622 136.75" fill="#E83464"/>
<path d="M130.246 86.5674L135.094 77.0991L125.468 84.4709" fill="#E83464"/>
<path d="M147.441 103.002L156.37 97.1855L144.651 98.9101" fill="#E83464"/>
<path d="M102.867 96.2388L144.581 126.977C145.174 125.557 146.394 122.784 146.29 119.199L102.867 96.2388Z" fill="#E83464"/>
<path d="M102.867 96.2388L134.571 136.682C133.106 137.257 130.246 138.44 126.549 138.339L102.867 96.2388Z" fill="#E83464"/>
<path d="M1.44287 51.9065V130.155H38.3436V51.9065H1.44287ZM13.9291 121.532C12.9525 121.532 12.1852 120.789 12.1852 119.842C12.1852 118.895 12.9525 118.151 13.9291 118.151C14.9057 118.151 15.673 118.895 15.673 119.842C15.673 120.789 14.8708 121.532 13.9291 121.532ZM13.9291 111.185H8.17428C7.19771 111.185 6.43039 110.441 6.43039 109.494C6.43039 108.547 7.19771 107.803 8.17428 107.803H13.9291C14.9057 107.803 15.673 108.547 15.673 109.494C15.673 110.441 14.8708 111.185 13.9291 111.185ZM13.9291 100.837C12.9525 100.837 12.1852 100.093 12.1852 99.1467C12.1852 98.1998 12.9525 97.4559 13.9291 97.4559C14.9057 97.4559 15.673 98.1998 15.673 99.1467C15.673 100.093 14.8708 100.837 13.9291 100.837ZM13.9291 90.4899C12.9525 90.4899 12.1852 89.746 12.1852 88.7991C12.1852 87.8523 12.9525 87.1084 13.9291 87.1084C14.9057 87.1084 15.673 87.8523 15.673 88.7991C15.673 89.746 14.8708 90.4899 13.9291 90.4899ZM13.9291 80.1762C12.9525 80.1762 12.1852 79.4323 12.1852 78.4854C12.1852 77.5386 12.9525 76.7947 13.9291 76.7947C14.9057 76.7947 15.673 77.5386 15.673 78.4854C15.673 79.4323 14.8708 80.1762 13.9291 80.1762ZM13.9291 69.8287C12.9525 69.8287 12.1852 69.0847 12.1852 68.1379C12.1852 67.1911 12.9525 66.4471 13.9291 66.4471C14.9057 66.4471 15.673 67.1911 15.673 68.1379C15.673 69.0847 14.8708 69.8287 13.9291 69.8287ZM13.9291 59.4812H8.17428C7.19771 59.4812 6.43039 58.7372 6.43039 57.7904C6.43039 56.8435 7.19771 56.0996 8.17428 56.0996H13.9291C14.9057 56.0996 15.673 56.8435 15.673 57.7904C15.673 58.7372 14.8708 59.4812 13.9291 59.4812Z" fill="#5E85D4"/>
<path d="M1.44287 26.1731V36.3177H169.345V26.1731H1.44287ZM11.4877 32.9362C10.5111 32.9362 9.74378 32.1922 9.74378 31.2454C9.74378 30.2986 10.5111 29.5546 11.4877 29.5546C12.4643 29.5546 13.2316 30.2986 13.2316 31.2454C13.2316 32.1922 12.4294 32.9362 11.4877 32.9362ZM20.7303 32.9362C19.7537 32.9362 18.9864 32.1922 18.9864 31.2454C18.9864 30.2986 19.7537 29.5546 20.7303 29.5546C21.7069 29.5546 22.4742 30.2986 22.4742 31.2454C22.4742 32.1922 21.7069 32.9362 20.7303 32.9362ZM29.9729 32.9362C28.9963 32.9362 28.229 32.1922 28.229 31.2454C28.229 30.2986 28.9963 29.5546 29.9729 29.5546C30.9495 29.5546 31.7168 30.2986 31.7168 31.2454C31.7168 32.1922 30.9495 32.9362 29.9729 32.9362Z" fill="#E83464"/>
<path d="M88.7417 82.5433C76.953 93.973 80.4408 115.48 97.4263 99.0114L105.727 90.9634C122.713 74.4953 100.565 71.1137 88.7417 82.5433ZM89.8578 99.9245C89.0905 100.668 87.8697 100.668 87.1024 99.9245C86.3351 99.1805 86.3351 97.997 87.1024 97.2531C87.8697 96.5091 89.0905 96.5091 89.8578 97.2531C90.6251 97.997 90.6251 99.1805 89.8578 99.9245ZM96.7636 90.3209C95.2987 91.7411 92.8921 91.7411 91.4273 90.3209C89.9624 88.9006 89.9624 86.5674 91.4273 85.1471C92.8921 83.7269 95.2987 83.7269 96.7636 85.1471C98.2633 86.5674 98.2633 88.9006 96.7636 90.3209ZM106.25 86.1954C105.169 87.2437 103.425 87.2437 102.344 86.1954C101.263 85.1471 101.263 83.4564 102.344 82.4081C103.425 81.3598 105.169 81.3598 106.25 82.4081C107.332 83.4225 107.332 85.1471 106.25 86.1954Z" fill="#E83464"/>
<path d="M147.127 120.654L153.475 124.001V122.581C153.475 115.75 151.766 109.156 148.592 103.272L156.788 97.9296L159.16 97.0504L168.891 103.205L169.832 101.785L159.369 95.1229L156.16 96.3403L145.174 97.9634C144.023 96.4417 142.732 94.9538 141.337 93.5674C138.373 90.6255 135.024 88.1569 131.432 86.1956L135.862 77.5389L137.466 75.6452L149.08 76.3215L149.185 74.6308L136.699 73.8868L134.536 76.4568L125.398 83.4566C121.422 82.0363 117.202 81.191 112.842 80.9881C112.912 79.0944 112.11 77.8432 111.308 77.0655C110.889 76.6597 110.401 76.3215 109.843 76.0172L108.482 64.6552L108.831 61.3413L99.4491 53.2932L98.2982 54.5444L106.983 62.0176L106.704 64.4523L103.042 74.9351C101.367 75.0704 99.5886 75.4423 97.8099 76.0172C95.0196 73.4472 91.1482 72.6018 87.6604 73.3796L86.7536 67.8677L89.6834 63.1335L88.1836 62.2543L84.9051 67.5295L85.9863 73.9206C84.6958 74.4279 83.4751 75.2056 82.3939 76.2539C81.3476 77.2684 80.5454 78.4519 79.9873 79.7369L73.3954 78.7224L67.9545 81.9011L68.8613 83.3551L73.7442 80.5146L79.4293 81.3938C79.22 82.2054 79.1154 83.0508 79.1154 83.8962C79.1154 86.6691 80.1966 89.239 82.1149 91.268C81.4871 92.9925 81.1383 94.7171 80.9988 96.3403L70.1867 99.8909L67.6755 100.161L59.9675 91.7752L58.677 92.8911L66.9779 101.987L70.3959 101.649L82.1149 102.968C82.4288 103.509 82.7775 103.983 83.1961 104.388C83.9634 105.132 85.1841 105.876 86.9978 105.876C87.0675 105.876 87.1722 105.876 87.2419 105.876C87.4512 110.069 88.3231 114.161 89.788 118.05L82.5683 126.909L79.9176 129.006L80.6849 141.112L82.4288 141.01L81.7312 129.75L83.6844 128.194L92.6131 123.9C94.636 127.417 97.1821 130.629 100.216 133.503C101.646 134.856 103.146 136.107 104.751 137.223L103.076 147.875L101.821 150.986L108.692 161.131L110.157 160.218L103.809 150.783L104.716 148.484L110.226 140.537C116.295 143.648 123.096 145.271 130.142 145.271H131.606L128.154 139.117C138.233 138.44 146.395 130.528 147.127 120.654ZM74.3371 100.364L80.9639 98.2001C80.9988 99.2484 81.1383 100.263 81.3824 101.142L74.3371 100.364ZM144.232 125.624L130.769 115.717L129.723 117.069L143.535 127.248C141.686 130.9 138.617 133.875 134.85 135.668L124.457 122.378L123.061 123.393L133.211 136.344C131.293 137.054 129.27 137.426 127.142 137.494L109.215 105.741L120.201 119.741L121.597 118.726L107.436 100.669L126.061 114.398L127.107 113.045L112.668 102.393L145.418 119.741C145.348 121.803 144.93 123.798 144.232 125.624ZM117.446 123.9C115.702 124.306 113.784 123.562 112.912 121.939C112.389 121.026 112.284 119.943 112.598 118.963C112.807 118.286 113.191 117.712 113.679 117.238L117.446 123.9ZM124.526 106.755C125.015 106.248 125.607 105.91 126.305 105.707C127.351 105.403 128.433 105.504 129.374 106.011C131.048 106.891 131.816 108.717 131.397 110.408L124.526 106.755ZM149.359 109.089C150.022 110.881 150.545 112.707 150.929 114.601C149.569 114.634 148.278 113.789 147.894 112.47C147.476 111.118 148.139 109.731 149.359 109.089ZM152.638 98.5721L147.72 101.785C147.267 101.007 146.778 100.263 146.255 99.5189L152.638 98.5721ZM132.583 80.1089L129.863 85.4179C128.991 84.9783 128.119 84.6063 127.212 84.2343L132.583 80.1089ZM112.424 83.0508C112.459 82.9494 112.493 82.8479 112.528 82.7465C129.095 83.4904 142.907 93.4998 148.731 107.533C146.674 108.48 145.558 110.779 146.22 112.977C146.813 115.006 148.731 116.359 150.824 116.359C150.964 116.359 151.103 116.359 151.243 116.325C151.487 117.915 151.661 119.538 151.731 121.161L133.002 111.253C133.385 110.171 133.42 108.987 133.036 107.871C132.583 106.451 131.606 105.268 130.211 104.557C128.851 103.847 127.282 103.712 125.782 104.118C124.666 104.456 123.689 105.098 122.957 105.978L103.425 95.6301L102.832 95.0553L106.39 91.6061C109.599 88.4275 111.621 85.5532 112.424 83.0508ZM107.122 68.5778L107.924 75.4085C106.983 75.1718 105.971 75.0365 104.89 75.0027L107.122 68.5778ZM80.8593 83.9638C80.8593 81.5291 81.8358 79.2635 83.5797 77.5727C86.9629 74.2926 92.2643 74.0559 95.9265 76.8288C93.1711 77.9785 90.4507 79.7031 88.1139 81.9687C85.777 84.2343 83.9983 86.8719 82.8124 89.5434C81.5568 87.954 80.8593 85.9927 80.8593 83.9638ZM84.3819 103.171C82.7776 101.615 82.2544 98.3354 83.0217 94.5819C83.8936 90.3888 86.1956 86.2295 89.3695 83.1523C92.5433 80.075 96.8333 77.8432 101.158 76.9978C102.344 76.7611 103.46 76.6597 104.541 76.6597C106.948 76.6597 108.936 77.2345 110.017 78.3166C111.063 79.3311 111.308 80.7514 110.75 82.5436C110.052 84.7754 108.169 87.413 105.134 90.3549L96.8333 98.403C93.7989 101.345 91.0785 103.171 88.7765 103.847C86.8931 104.422 85.4283 104.185 84.3819 103.171ZM86.2305 125.05L90.4855 119.842C90.8692 120.721 91.2877 121.567 91.7063 122.412L86.2305 125.05ZM105.274 144.493L106.25 138.305C107.018 138.812 107.785 139.286 108.587 139.725L105.274 144.493ZM116.121 141.315C116.783 140.131 118.213 139.523 119.608 139.895C120.969 140.267 121.876 141.518 121.806 142.837C119.853 142.431 117.969 141.923 116.121 141.315ZM128.537 143.58C126.828 143.513 125.189 143.378 123.55 143.107C123.759 140.943 122.329 138.846 120.097 138.238C117.83 137.629 115.493 138.711 114.481 140.672C100.007 135.025 89.6833 121.634 88.916 105.572C89.0207 105.538 89.1253 105.504 89.2299 105.47C91.8109 104.693 94.7755 102.731 98.0191 99.5866L101.577 96.1374L102.17 96.7122L112.842 115.683C110.715 117.34 110.052 120.282 111.377 122.716C112.11 124.035 113.33 125.016 114.795 125.455C115.353 125.624 115.911 125.692 116.469 125.692C117.097 125.692 117.69 125.591 118.283 125.388L128.537 143.58Z" fill="#2E57AB"/>
<path d="M119.957 96.1711C121.247 96.1711 122.503 95.6977 123.48 94.7508C125.433 92.8572 125.433 89.78 123.48 87.8863C121.526 85.9926 118.353 85.9926 116.399 87.8863C114.446 89.78 114.446 92.8572 116.399 94.7508C117.411 95.6977 118.666 96.1711 119.957 96.1711ZM117.655 89.1037C118.283 88.495 119.12 88.1906 119.957 88.1906C120.794 88.1906 121.631 88.495 122.259 89.1037C123.515 90.321 123.515 92.3499 122.259 93.5673C121.003 94.7847 118.911 94.7847 117.655 93.5673C116.399 92.3161 116.399 90.321 117.655 89.1037Z" fill="#2E57AB"/>
<path d="M137.291 102.63C138.268 102.63 139.175 102.258 139.837 101.615C140.535 100.939 140.884 100.06 140.884 99.1468C140.884 98.2 140.5 97.3208 139.837 96.6783C139.14 96.002 138.233 95.6638 137.291 95.6638C136.315 95.6638 135.408 96.0358 134.745 96.6783C134.048 97.3546 133.699 98.2338 133.699 99.1468C133.699 100.094 134.082 100.973 134.745 101.615C135.443 102.292 136.349 102.63 137.291 102.63ZM136.001 97.8618C136.349 97.5237 136.838 97.3208 137.326 97.3208C137.814 97.3208 138.303 97.5237 138.651 97.8618C139 98.2 139.209 98.6734 139.209 99.1468C139.209 99.6202 139 100.094 138.651 100.432C138.303 100.77 137.814 100.973 137.326 100.973C136.838 100.973 136.349 100.77 136.001 100.432C135.652 100.094 135.443 99.6202 135.443 99.1468C135.443 98.6734 135.617 98.2 136.001 97.8618Z" fill="#2E57AB"/>
<path d="M101.332 109.393C99.379 107.499 96.2051 107.499 94.252 109.393C92.2988 111.287 92.2988 114.364 94.252 116.257C95.2286 117.204 96.519 117.678 97.7746 117.678C99.0651 117.678 100.321 117.204 101.297 116.257C103.285 114.364 103.285 111.287 101.332 109.393ZM100.111 115.04C98.8558 116.257 96.7632 116.257 95.5076 115.04C94.252 113.823 94.252 111.794 95.5076 110.576C96.1354 109.968 96.9724 109.663 97.8095 109.663C98.6466 109.663 99.4836 109.968 100.111 110.576C101.367 111.794 101.367 113.823 100.111 115.04Z" fill="#2E57AB"/>
<path d="M105.866 126.132C104.89 126.132 103.983 126.504 103.32 127.146C102.623 127.823 102.274 128.702 102.274 129.615C102.274 130.562 102.658 131.441 103.32 132.083C104.018 132.76 104.925 133.098 105.866 133.098C106.843 133.098 107.75 132.726 108.412 132.083C109.11 131.407 109.459 130.528 109.459 129.615C109.459 128.668 109.075 127.789 108.412 127.146C107.75 126.504 106.843 126.132 105.866 126.132ZM107.192 130.9C106.843 131.238 106.355 131.441 105.866 131.441C105.378 131.441 104.89 131.238 104.541 130.9C104.192 130.562 103.983 130.088 103.983 129.615C103.983 129.141 104.192 128.668 104.541 128.33C104.89 127.992 105.378 127.789 105.866 127.789C106.355 127.789 106.843 127.992 107.192 128.33C107.54 128.668 107.75 129.141 107.75 129.615C107.715 130.122 107.54 130.562 107.192 130.9Z" fill="#2E57AB"/>
<path d="M90.4855 96.6783C89.4042 95.63 87.5906 95.63 86.5094 96.6783C85.4282 97.7266 85.4282 99.485 86.5094 100.533C87.0674 101.074 87.765 101.345 88.4974 101.345C89.2299 101.345 89.9274 101.074 90.4855 100.533C91.5667 99.4512 91.5667 97.7266 90.4855 96.6783ZM89.2299 99.3497C88.8113 99.7555 88.1487 99.7555 87.7301 99.3497C87.3116 98.9439 87.3116 98.3014 87.7301 97.8957C87.9394 97.6928 88.2184 97.5913 88.4974 97.5913C88.7765 97.5913 89.0555 97.6928 89.2647 97.8957C89.6484 98.2676 89.6484 98.9439 89.2299 99.3497Z" fill="#2E57AB"/>
<path d="M104.297 87.8186C105.273 87.8186 106.18 87.4467 106.878 86.7703C108.308 85.3839 108.308 83.1521 106.878 81.7657C105.448 80.3792 103.146 80.3792 101.716 81.7657C100.286 83.1521 100.286 85.3839 101.716 86.7703C102.378 87.4467 103.32 87.8186 104.297 87.8186ZM102.937 82.983C103.32 82.611 103.808 82.442 104.297 82.442C104.785 82.442 105.273 82.611 105.657 82.983C106.389 83.6931 106.389 84.8767 105.657 85.5868C105.308 85.925 104.82 86.1278 104.297 86.1278C103.774 86.1278 103.32 85.925 102.937 85.5868C102.204 84.8767 102.204 83.6931 102.937 82.983Z" fill="#2E57AB"/>
<path d="M98.7513 87.7511C98.7513 86.5338 98.263 85.4179 97.3911 84.5725C95.5775 82.8141 92.6128 82.8141 90.7992 84.5725C88.9856 86.3309 88.9856 89.2052 90.7992 90.9636C91.6711 91.809 92.857 92.2824 94.0777 92.2824C95.2984 92.2824 96.4843 91.809 97.3562 90.9636C98.263 90.0844 98.7513 88.9347 98.7513 87.7511ZM96.1704 89.7462C95.6123 90.2873 94.8799 90.5578 94.1126 90.5578C93.3453 90.5578 92.6128 90.2535 92.0548 89.7462C90.9387 88.6641 90.9387 86.8719 92.0548 85.756C92.6128 85.215 93.3802 84.9444 94.1126 84.9444C94.845 84.9444 95.6123 85.215 96.1704 85.756C96.7284 86.2971 97.0074 87.0072 97.0074 87.7511C97.0074 88.4951 96.6935 89.2052 96.1704 89.7462Z" fill="#2E57AB"/>
<path d="M161.252 30.4001H134.501V32.0909H161.252V30.4001Z" fill="#2E57AB"/>
<path d="M8.87134 31.2454C8.87134 32.6318 10.0572 33.7815 11.4872 33.7815C12.9172 33.7815 14.103 32.6318 14.103 31.2454C14.103 29.859 12.9172 28.7092 11.4872 28.7092C10.0572 28.7092 8.87134 29.859 8.87134 31.2454ZM12.3591 31.2454C12.3591 31.7188 11.9755 32.0908 11.4872 32.0908C10.9989 32.0908 10.6152 31.7188 10.6152 31.2454C10.6152 30.772 10.9989 30.4 11.4872 30.4C11.9755 30.4 12.3591 30.772 12.3591 31.2454Z" fill="#2E57AB"/>
<path d="M18.1138 31.2454C18.1138 32.6318 19.2996 33.7815 20.7296 33.7815C22.1596 33.7815 23.3454 32.6318 23.3454 31.2454C23.3454 29.859 22.1596 28.7092 20.7296 28.7092C19.2996 28.7092 18.1138 29.859 18.1138 31.2454ZM21.6015 31.2454C21.6015 31.7188 21.2179 32.0908 20.7296 32.0908C20.2413 32.0908 19.8577 31.7188 19.8577 31.2454C19.8577 30.772 20.2413 30.4 20.7296 30.4C21.2179 30.4 21.6015 30.772 21.6015 31.2454Z" fill="#2E57AB"/>
<path d="M27.3564 31.2454C27.3564 32.6318 28.5423 33.7815 29.9723 33.7815C31.4023 33.7815 32.5881 32.6318 32.5881 31.2454C32.5881 29.859 31.4023 28.7092 29.9723 28.7092C28.5423 28.7092 27.3564 29.859 27.3564 31.2454ZM30.8442 31.2454C30.8442 31.7188 30.4606 32.0908 29.9723 32.0908C29.484 32.0908 29.1003 31.7188 29.1003 31.2454C29.1003 30.772 29.484 30.4 29.9723 30.4C30.4606 30.4 30.8442 30.772 30.8442 31.2454Z" fill="#2E57AB"/>
<path d="M85.4977 25.3276V27.0184H168.681V35.4723H2.3142V27.0184H77.9293V25.3276H0.570312V36.3177V37.163V141.146H77.3712V139.455H2.3142V131.001H37.471H38.343H77.3712V129.31H39.2149V90.9296H37.471V129.31H2.3142V52.752H37.471V86.6688H39.2149V52.752H44.2722L47.1322 44.7715H70.5352L75.9412 52.7858H168.681V99.1806H170.425V37.163V36.3177V25.3276H85.4977ZM168.681 51.0612H76.8829L71.4769 43.0807H45.9114L43.0515 51.095H38.343H37.471H2.3142V37.1969H168.681V51.0612Z" fill="#2E57AB"/>
<path d="M168.681 129.344H145.313V131.035H168.681V139.489H132.374V141.18H170.425V104.997H168.681V129.344Z" fill="#2E57AB"/>
<path d="M101.925 139.489H85.4978V141.179H101.925V139.489Z" fill="#2E57AB"/>
<path d="M13.9288 55.2544H8.17394C6.74395 55.2544 5.55811 56.4041 5.55811 57.7906C5.55811 59.177 6.74395 60.3267 8.17394 60.3267H13.9288C15.3588 60.3267 16.5446 59.177 16.5446 57.7906C16.5446 56.4041 15.3588 55.2544 13.9288 55.2544ZM13.9288 58.6359H8.17394C7.68565 58.6359 7.30199 58.264 7.30199 57.7906C7.30199 57.3171 7.68565 56.9452 8.17394 56.9452H13.9288C14.4171 56.9452 14.8007 57.3171 14.8007 57.7906C14.8007 58.264 14.4171 58.6359 13.9288 58.6359Z" fill="#2E57AB"/>
<path d="M30.0075 56.9453H20.73V58.6361H30.0075V56.9453Z" fill="#2E57AB"/>
<path d="M30.0075 67.293H20.73V68.9837H30.0075V67.293Z" fill="#2E57AB"/>
<path d="M13.9283 65.6021C12.4983 65.6021 11.3125 66.7518 11.3125 68.1382C11.3125 69.5246 12.4983 70.6744 13.9283 70.6744C15.3583 70.6744 16.5442 69.5246 16.5442 68.1382C16.5442 66.7518 15.3583 65.6021 13.9283 65.6021ZM13.9283 68.9836C13.44 68.9836 13.0564 68.6116 13.0564 68.1382C13.0564 67.6648 13.44 67.2928 13.9283 67.2928C14.4166 67.2928 14.8003 67.6648 14.8003 68.1382C14.8003 68.6116 14.4166 68.9836 13.9283 68.9836Z" fill="#2E57AB"/>
<path d="M30.0075 77.6404H20.73V79.3312H30.0075V77.6404Z" fill="#2E57AB"/>
<path d="M13.9283 75.9495C12.4983 75.9495 11.3125 77.0992 11.3125 78.4856C11.3125 79.8721 12.4983 81.0218 13.9283 81.0218C15.3583 81.0218 16.5442 79.8721 16.5442 78.4856C16.5442 77.0992 15.3583 75.9495 13.9283 75.9495ZM13.9283 79.331C13.44 79.331 13.0564 78.959 13.0564 78.4856C13.0564 78.0122 13.44 77.6402 13.9283 77.6402C14.4166 77.6402 14.8003 78.0122 14.8003 78.4856C14.8003 78.959 14.4166 79.331 13.9283 79.331Z" fill="#2E57AB"/>
<path d="M30.0075 87.9541H20.73V89.6449H30.0075V87.9541Z" fill="#2E57AB"/>
<path d="M13.9283 86.2634C12.4983 86.2634 11.3125 87.4132 11.3125 88.7996C11.3125 90.186 12.4983 91.3357 13.9283 91.3357C15.3583 91.3357 16.5442 90.186 16.5442 88.7996C16.5442 87.4132 15.3583 86.2634 13.9283 86.2634ZM13.9283 89.645C13.44 89.645 13.0564 89.273 13.0564 88.7996C13.0564 88.3262 13.44 87.9542 13.9283 87.9542C14.4166 87.9542 14.8003 88.3262 14.8003 88.7996C14.8003 89.273 14.4166 89.645 13.9283 89.645Z" fill="#2E57AB"/>
<path d="M30.0075 98.3015H20.73V99.9923H30.0075V98.3015Z" fill="#2E57AB"/>
<path d="M13.9283 96.6106C12.4983 96.6106 11.3125 97.7603 11.3125 99.1468C11.3125 100.533 12.4983 101.683 13.9283 101.683C15.3583 101.683 16.5442 100.533 16.5442 99.1468C16.5442 97.7603 15.3583 96.6106 13.9283 96.6106ZM13.9283 99.9921C13.44 99.9921 13.0564 99.6202 13.0564 99.1468C13.0564 98.6733 13.44 98.3014 13.9283 98.3014C14.4166 98.3014 14.8003 98.6733 14.8003 99.1468C14.8003 99.6202 14.4166 99.9921 13.9283 99.9921Z" fill="#2E57AB"/>
<path d="M13.9288 106.958H8.17394C6.74395 106.958 5.55811 108.108 5.55811 109.494C5.55811 110.881 6.74395 112.031 8.17394 112.031H13.9288C15.3588 112.031 16.5446 110.881 16.5446 109.494C16.5446 108.108 15.3588 106.958 13.9288 106.958ZM13.9288 110.34H8.17394C7.68565 110.34 7.30199 109.968 7.30199 109.494C7.30199 109.021 7.68565 108.649 8.17394 108.649H13.9288C14.4171 108.649 14.8007 109.021 14.8007 109.494C14.8007 109.968 14.4171 110.34 13.9288 110.34Z" fill="#2E57AB"/>
<path d="M30.0075 108.649H20.73V110.34H30.0075V108.649Z" fill="#2E57AB"/>
<path d="M30.0075 118.996H20.73V120.687H30.0075V118.996Z" fill="#2E57AB"/>
<path d="M13.9283 117.306C12.4983 117.306 11.3125 118.455 11.3125 119.842C11.3125 121.228 12.4983 122.378 13.9283 122.378C15.3583 122.378 16.5442 121.228 16.5442 119.842C16.5442 118.455 15.3583 117.306 13.9283 117.306ZM13.9283 120.687C13.44 120.687 13.0564 120.315 13.0564 119.842C13.0564 119.368 13.44 118.996 13.9283 118.996C14.4166 118.996 14.8003 119.368 14.8003 119.842C14.8003 120.315 14.4166 120.687 13.9283 120.687Z" fill="#2E57AB"/>
<path d="M55.2239 56.9453H45.0396V58.6361H55.2239V56.9453Z" fill="#2E57AB"/>
<path d="M76.4994 67.293H50.1318V68.9837H76.4994V67.293Z" fill="#2E57AB"/>
<path d="M66.2802 77.6404H50.1318V79.3312H66.2802V77.6404Z" fill="#2E57AB"/>
<path d="M74.2669 87.9541H58.2231V89.6449H74.2669V87.9541Z" fill="#2E57AB"/>
<path d="M55.2239 98.3015H45.0396V99.9923H55.2239V98.3015Z" fill="#2E57AB"/>
<path d="M79.2548 108.649H50.1318V110.34H79.2548V108.649Z" fill="#2E57AB"/>
<path d="M83.4049 118.963H58.2231V120.653H83.4049V118.963Z" fill="#2E57AB"/>
<path d="M69.1053 48.4912H48.6321V50.182H69.1053V48.4912Z" fill="#2E57AB"/>
<path d="M155.044 43.0808H86.823V44.7716H155.044V43.0808Z" fill="#2E57AB"/>
<path d="M150.231 17.5501C154.626 17.5501 158.183 14.1009 158.183 9.84017C158.183 5.57942 154.591 2.16406 150.231 2.16406C145.871 2.16406 142.279 5.61324 142.279 9.87398C142.279 14.1347 145.836 17.5501 150.231 17.5501ZM150.231 3.85483C153.649 3.85483 156.439 6.56007 156.439 9.87398C156.439 13.1879 153.649 15.8931 150.231 15.8931C146.813 15.8931 144.023 13.1879 144.023 9.87398C144.023 6.56007 146.813 3.85483 150.231 3.85483Z" fill="#2E57AB"/>
<path d="M76.4993 145.609C73.7788 145.609 71.5815 147.739 71.5815 150.377C71.5815 153.015 73.7788 155.145 76.4993 155.145C79.2198 155.145 81.4171 153.015 81.4171 150.377C81.4171 147.739 79.2198 145.609 76.4993 145.609ZM76.4993 153.42C74.7554 153.42 73.3254 152.034 73.3254 150.343C73.3254 148.653 74.7554 147.266 76.4993 147.266C78.2432 147.266 79.6732 148.653 79.6732 150.343C79.6732 152.034 78.2432 153.42 76.4993 153.42Z" fill="#2E57AB"/>
<path d="M80.929 15.3522L83.7192 10.3813L88.8462 7.6761L83.7192 4.97087L80.929 0L78.1388 4.97087L73.0117 7.6761L78.1388 10.3813L80.929 15.3522ZM79.3944 6.18823L80.8941 3.51681L82.3938 6.18823L85.1492 7.64229L82.3938 9.09635L80.8941 11.7678L79.3944 9.09635L76.639 7.64229L79.3944 6.18823Z" fill="#2E57AB"/>
<path d="M16.2655 146.928L12.7777 153.083L6.42993 156.464L12.7777 159.846L16.2655 166L19.7532 159.846L26.101 156.464L19.7532 153.083L16.2655 146.928ZM18.4628 158.561L16.2655 162.45L14.0682 158.561L10.0572 156.43L14.0682 154.3L16.2655 150.411L18.4628 154.3L22.4737 156.43L18.4628 158.561Z" fill="#2E57AB"/>
<path d="M19.8577 4.396H18.1138V9.8741H19.8577V4.396Z" fill="#2E57AB"/>
<path d="M19.8577 15.1155H18.1138V20.5936H19.8577V15.1155Z" fill="#2E57AB"/>
<path d="M16.3003 11.6326H10.6501V13.3233H16.3003V11.6326Z" fill="#2E57AB"/>
<path d="M27.3563 11.6326H21.7061V13.3233H27.3563V11.6326Z" fill="#2E57AB"/>
<path d="M162.124 148.552H160.38V152.17H162.124V148.552Z" fill="#2E57AB"/>
<path d="M162.124 155.652H160.38V159.271H162.124V155.652Z" fill="#2E57AB"/>
<path d="M159.473 153.083H155.741V154.774H159.473V153.083Z" fill="#2E57AB"/>
<path d="M166.798 153.083H163.066V154.774H166.798V153.083Z" fill="#2E57AB"/>
</svg>
