<svg width="171" height="166" viewBox="0 0 171 166" fill="none" xmlns="http://www.w3.org/2000/svg">
<path d="M30.0825 145.186H3.04395V165.15H30.0825V145.186Z" fill="#5E85D4"/>
<path d="M84.1953 145.186H57.1567V165.15H84.1953V145.186Z" fill="#5E85D4"/>
<path d="M138.308 145.186H111.27V165.15H138.308V145.186Z" fill="#5E85D4"/>
<path d="M43.4416 125.223H16.4031V145.186H43.4416V125.223Z" fill="#5E85D4"/>
<path d="M97.6611 125.223H70.6226V145.186H97.6611V125.223Z" fill="#5E85D4"/>
<path d="M151.881 125.223H124.842V145.186H151.881V125.223Z" fill="#5E85D4"/>
<path d="M30.0825 105.259H3.04395V125.223H30.0825V105.259Z" fill="#5E85D4"/>
<path d="M84.1953 105.259H57.1567V125.223H84.1953V105.259Z" fill="#5E85D4"/>
<path d="M138.308 105.259H111.27V125.223H138.308V105.259Z" fill="#5E85D4"/>
<path d="M43.4416 85.2959H16.4031V105.259H43.4416V85.2959Z" fill="#5E85D4"/>
<path d="M97.6611 85.2959H70.6226V105.259H97.6611V85.2959Z" fill="#5E85D4"/>
<path d="M151.81 85.2959H124.771V105.259H151.81V85.2959Z" fill="#5E85D4"/>
<path d="M84.1953 65.3325H57.1567V85.296H84.1953V65.3325Z" fill="#5E85D4"/>
<path d="M132.751 65.3325H111.27V85.296H138.308V68.6314L132.751 65.3325Z" fill="#5E85D4"/>
<path d="M97.5899 45.3687H70.5514V65.3322H97.5899V45.3687Z" fill="#5E85D4"/>
<path d="M138.308 5.9856C130.791 13.1616 120.924 16.7666 111.056 16.7666C111.056 25.9151 116.079 52.6465 138.308 64.8559C160.502 52.6805 165.56 25.9151 165.56 16.7666C155.693 16.7666 145.825 13.1616 138.308 5.9856ZM131.967 51.5582L120.389 31.1866L131.967 42.2396L156.227 19.0452L131.967 51.5582Z" fill="#E83464"/>
<path d="M164.491 64.4818H151.916V66.1823H164.491V84.4454H139.234V73.2223H137.453V84.4454H112.196V66.1823H124.842V64.4818H98.6229V46.2188H108.918V44.5183H69.7319V64.4818H29.1919V84.4454H2.15332V166H93.4218V164.3H85.1214V146.036H110.379V164.3H101.936V166H166.273V45.3685H164.491V64.4818ZM125.661 86.1458H151.026V104.409H125.697V86.1458H125.661ZM137.417 124.372H112.16V106.109H137.417V124.372ZM151.026 126.073V144.336H125.697V126.073H151.026ZM123.88 86.1458V104.409H98.5516V86.1458H123.88ZM30.9731 124.372V106.109H56.266V124.372H30.9731ZM42.5508 126.073V144.336H17.2222V126.073H42.5508ZM44.332 104.409V86.1458H69.6606V104.409H44.332ZM44.332 126.073H69.6606V144.336H44.332V126.073ZM58.0472 124.372V106.109H83.3046V124.372H58.0472ZM71.4418 104.409V86.1458H96.7704V104.409H71.4418ZM85.0858 106.109H110.343V124.372H85.0858V106.109ZM110.379 66.1823V84.4454H85.1214V66.1823H110.379ZM71.4418 46.2188H96.7704V64.4818H71.4418V46.2188ZM58.0472 66.1823H83.3046V84.4454H58.0472V66.1823ZM30.9731 66.1823H56.266V84.4454H30.9731V66.1823ZM17.2222 86.1458H42.5508V104.409H17.2222V86.1458ZM3.93452 86.1458H15.441V104.409H3.93452V86.1458ZM3.93452 106.109H29.1919V124.372H3.93452V106.109ZM3.93452 126.073H15.441V144.336H3.93452V126.073ZM29.1919 164.3H3.93452V146.036H29.1919V164.3ZM56.266 164.3H30.9731V146.036H56.266V164.3ZM83.3046 164.3H58.0472V146.036H83.3046V164.3ZM96.7704 144.336H71.4418V126.073H96.7704V144.336ZM98.5516 144.336V126.073H123.88V144.336H98.5516ZM137.417 164.3H112.16V146.036H137.417V164.3ZM164.491 164.3H139.234V146.036H164.491V164.3ZM164.491 144.336H152.807V126.073H164.491V144.336ZM164.491 124.372H139.234V106.109H164.491V124.372ZM164.491 104.409H152.807V86.1458H164.491V104.409Z" fill="#2E57AB"/>
<path d="M10.2756 24.3166C14.7642 24.3166 18.3978 20.8476 18.3978 16.5624C18.3978 12.2772 14.7286 8.84229 10.2756 8.84229C5.82258 8.84229 2.15332 12.3112 2.15332 16.5624C2.15332 20.8136 5.78696 24.3166 10.2756 24.3166ZM10.2756 10.5428C13.7667 10.5428 16.6166 13.2635 16.6166 16.5964C16.6166 19.9294 13.7667 22.6501 10.2756 22.6501C6.78443 22.6501 3.93452 19.9294 3.93452 16.5964C3.93452 13.2295 6.78443 10.5428 10.2756 10.5428Z" fill="#2E57AB"/>
<path d="M72.4038 17.4127C75.1825 17.4127 77.4268 15.2701 77.4268 12.6173C77.4268 9.96461 75.1825 7.82202 72.4038 7.82202C69.6252 7.82202 67.3809 9.96461 67.3809 12.6173C67.3809 15.2701 69.6252 17.4127 72.4038 17.4127ZM72.4038 9.5565C74.185 9.5565 75.6456 10.9509 75.6456 12.6514C75.6456 14.3518 74.185 15.7462 72.4038 15.7462C70.6226 15.7462 69.1621 14.3518 69.1621 12.6514C69.1621 10.9509 70.6226 9.5565 72.4038 9.5565Z" fill="#2E57AB"/>
<path d="M40.271 40.0291L43.1209 35.0298L48.3576 32.309L43.1209 29.5883L40.271 24.5889L37.421 29.5883L32.1843 32.309L37.421 35.0298L40.271 40.0291ZM38.7391 30.8466L40.271 28.1599L41.8028 30.8466L44.6171 32.309L41.8028 33.7714L40.271 36.4582L38.7391 33.7714L35.9248 32.309L38.7391 30.8466Z" fill="#2E57AB"/>
<path d="M10.2757 82.2345L13.8381 76.0448L20.3216 72.6439L13.8381 69.2429L10.2757 63.0532L6.71329 69.2429L0.229736 72.6439L6.71329 76.0448L10.2757 82.2345ZM8.03137 70.5013L10.2757 66.5902L12.52 70.5013L16.6167 72.6439L12.52 74.7865L10.2757 78.6976L8.03137 74.7865L3.93462 72.6439L8.03137 70.5013Z" fill="#2E57AB"/>
<path d="M98.5517 24.1804H96.7705V29.6899H98.5517V24.1804Z" fill="#2E57AB"/>
<path d="M98.5517 34.9617H96.7705V40.4712H98.5517V34.9617Z" fill="#2E57AB"/>
<path d="M94.9181 31.4929H89.147V33.1934H94.9181V31.4929Z" fill="#2E57AB"/>
<path d="M106.211 31.4929H100.44V33.1934H106.211V31.4929Z" fill="#2E57AB"/>
<path d="M44.902 46.1851H43.1208V49.8241H44.902V46.1851Z" fill="#2E57AB"/>
<path d="M44.902 53.3267H43.1208V56.9657H44.902V53.3267Z" fill="#2E57AB"/>
<path d="M42.1947 50.708H38.3829V52.4085H42.1947V50.708Z" fill="#2E57AB"/>
<path d="M49.6758 50.708H45.864V52.4085H49.6758V50.708Z" fill="#2E57AB"/>
<path d="M165.56 12.5155C156.441 12.5155 147.891 9.11453 141.479 2.99283L138.344 0L135.209 2.99283C128.761 9.14854 120.211 12.5155 111.127 12.5155H106.674V16.7666C106.674 26.6634 111.982 55.2653 136.171 68.529L138.379 69.7533L140.588 68.529C164.777 55.2653 170.085 26.6634 170.085 16.7666V12.5155H165.56ZM168.232 16.7666C168.232 26.3913 163.102 54.211 139.626 67.0666L138.308 67.7808L136.99 67.0666C113.549 54.211 108.384 26.3913 108.384 16.7666V14.2159H111.056C120.639 14.2159 129.651 10.6449 136.42 4.18316L138.308 2.38066L140.196 4.18316C146.965 10.6449 155.978 14.2159 165.56 14.2159H168.232V16.7666Z" fill="#2E57AB"/>
<path d="M138.949 5.3734L138.308 4.76123L137.667 5.3734C130.542 12.1753 121.102 15.8823 111.056 15.8823H110.165V16.7325C110.165 21.6979 111.554 30.7784 115.509 39.961C120.425 51.3881 128.155 60.2306 137.845 65.5701L138.272 65.8081L138.7 65.5701C148.39 60.2646 156.084 51.4222 161.036 39.961C164.99 30.7784 166.415 21.7319 166.415 16.7325V15.8823H165.525C155.514 15.9163 146.038 12.1753 138.949 5.3734ZM159.433 39.3488C154.731 50.2658 147.428 58.7342 138.308 63.8696C129.188 58.7342 121.885 50.2658 117.183 39.3488C113.549 30.9145 112.124 22.5822 111.982 17.6168C121.885 17.4127 131.183 13.7397 138.308 7.1759C145.468 13.7057 154.766 17.3787 164.634 17.6168C164.527 22.5822 163.102 30.8805 159.433 39.3488Z" fill="#2E57AB"/>
<path d="M116.684 26.4593L131.86 53.1907L156.975 19.5553L155.621 18.467L131.967 41.0493L116.684 26.4593ZM132.074 49.9598L124.094 35.9139L131.967 43.43L149.316 26.8674L132.074 49.9598Z" fill="#2E57AB"/>
</svg>
