<svg width="171" height="167" viewBox="0 0 171 167" fill="none" xmlns="http://www.w3.org/2000/svg">
<path d="M144.664 130.852H26.0909C21.4226 130.852 17.6189 134.727 17.6189 139.484V151.181C17.6189 155.937 21.4226 159.813 26.0909 159.813H144.664C149.332 159.813 153.136 155.937 153.136 151.181V139.484C153.136 134.727 149.332 130.852 144.664 130.852ZM71.321 149.807H56.3134H48.9134H33.9059C31.4853 149.807 29.5143 147.798 29.5143 145.332C29.5143 142.866 31.4853 140.858 33.9059 140.858H71.321C73.7415 140.858 75.7126 142.866 75.7126 145.332C75.7126 147.798 73.7415 149.807 71.321 149.807ZM102.65 149.807C100.229 149.807 98.2584 147.798 98.2584 145.332C98.2584 142.866 100.229 140.858 102.65 140.858C105.071 140.858 107.042 142.866 107.042 145.332C107.042 147.798 105.105 149.807 102.65 149.807ZM119.732 149.807C117.312 149.807 115.341 147.798 115.341 145.332C115.341 142.866 117.312 140.858 119.732 140.858C122.153 140.858 124.124 142.866 124.124 145.332C124.124 147.798 122.153 149.807 119.732 149.807ZM136.815 149.807C134.394 149.807 132.423 147.798 132.423 145.332C132.423 142.866 134.394 140.858 136.815 140.858C139.235 140.858 141.206 142.866 141.206 145.332C141.206 147.798 139.235 149.807 136.815 149.807Z" fill="#5E85D4"/>
<path d="M144.664 79.0959H26.0909C21.4226 79.0959 17.6189 82.9715 17.6189 87.7278V99.4249C17.6189 104.181 21.4226 108.057 26.0909 108.057H144.664C149.332 108.057 153.136 104.181 153.136 99.4249V87.7278C153.136 82.9362 149.332 79.0959 144.664 79.0959ZM71.321 98.0508H56.3134H48.9134H33.9059C31.4853 98.0508 29.5143 96.0426 29.5143 93.5763C29.5143 91.1101 31.4853 89.1019 33.9059 89.1019H71.321C73.7415 89.1019 75.7126 91.1101 75.7126 93.5763C75.7126 96.0426 73.7415 98.0508 71.321 98.0508ZM102.65 98.0508C100.229 98.0508 98.2584 96.0426 98.2584 93.5763C98.2584 91.1101 100.229 89.1019 102.65 89.1019C105.071 89.1019 107.042 91.1101 107.042 93.5763C107.042 96.0426 105.105 98.0508 102.65 98.0508ZM119.732 98.0508C117.312 98.0508 115.341 96.0426 115.341 93.5763C115.341 91.1101 117.312 89.1019 119.732 89.1019C122.153 89.1019 124.124 91.1101 124.124 93.5763C124.124 96.0426 122.153 98.0508 119.732 98.0508ZM136.815 98.0508C134.394 98.0508 132.423 96.0426 132.423 93.5763C132.423 91.1101 134.394 89.1019 136.815 89.1019C139.235 89.1019 141.206 91.1101 141.206 93.5763C141.206 96.0426 139.235 98.0508 136.815 98.0508Z" fill="#5E85D4"/>
<path d="M109.912 27.3403H26.0909C21.4226 27.3403 17.6189 31.2159 17.6189 35.9722V47.6692C17.6189 52.4256 21.4226 56.3011 26.0909 56.3011H121.842C117.623 51.8619 110.845 36.7121 109.912 27.3403ZM71.321 46.2952H56.3134H48.9134H33.9059C31.4853 46.2952 29.5143 44.287 29.5143 41.8207C29.5143 39.3545 31.4853 37.3462 33.9059 37.3462H71.321C73.7415 37.3462 75.7126 39.3545 75.7126 41.8207C75.7126 44.287 73.7415 46.2952 71.321 46.2952ZM102.65 46.2952C100.229 46.2952 98.2584 44.287 98.2584 41.8207C98.2584 39.3545 100.229 37.3462 102.65 37.3462C105.071 37.3462 107.042 39.3545 107.042 41.8207C107.042 44.287 105.105 46.2952 102.65 46.2952Z" fill="#5E85D4"/>
<path d="M138.82 6.23608C131.524 13.6701 121.946 17.4047 112.367 17.4047C112.367 26.8821 117.243 54.5745 138.82 67.2228C160.363 54.6097 165.274 26.8821 165.274 17.4047C155.695 17.3694 146.117 13.6701 138.82 6.23608ZM132.631 53.4471L121.392 32.3431L132.631 43.7935L156.179 19.8004L132.631 53.4471Z" fill="#E83464"/>
<path d="M154.002 147.975H158.704C164.721 147.975 169.597 143.007 169.597 136.877V102.032C169.597 95.9017 164.721 90.934 158.704 90.934H154.002V87.7278C154.002 82.4783 149.818 78.2152 144.665 78.2152H141.138V70.9221C164.479 57.1464 169.597 27.6219 169.597 17.4046V12.9654H165.275C156.422 12.9654 148.123 9.44219 141.899 3.10042L138.856 0L135.813 3.10042C129.554 9.47743 121.255 12.9654 112.437 12.9654H108.115V17.3694C108.115 27.5162 113.163 56.6532 136.02 70.5698V78.2152H34.8405V57.1464H116.275V55.3848H26.0919C21.9077 55.3848 18.4844 51.8968 18.4844 47.6338V35.9367C18.4844 31.6736 21.9077 28.1857 26.0919 28.1857H106.247V26.424H26.0919C20.9395 26.424 16.7554 30.6871 16.7554 35.9367V39.1428H12.0871C6.0703 39.1428 1.19458 44.1105 1.19458 50.2409V85.0854C1.19458 91.2158 6.0703 96.1835 12.0871 96.1835H16.79V99.3897C16.79 104.639 20.9741 108.902 26.1264 108.902H29.6536V129.971H26.0919C20.9395 129.971 16.7554 134.234 16.7554 139.484V151.181C16.7554 156.43 20.9395 160.693 26.0919 160.693H144.665C149.818 160.693 154.002 156.43 154.002 151.181V147.975ZM154.002 92.6956H158.704C163.753 92.6956 167.868 96.8882 167.868 102.032V136.877C167.868 142.02 163.753 146.213 158.704 146.213H154.002V144.451H158.704C162.819 144.451 166.139 141.034 166.139 136.877V102.032C166.139 97.8395 162.785 94.4572 158.704 94.4572H154.002V92.6956ZM154.002 96.2188H158.704C161.851 96.2188 164.41 98.826 164.41 102.032V136.877C164.41 140.083 161.851 142.69 158.704 142.69H154.002V139.484C154.002 134.234 149.818 129.971 144.665 129.971H141.138V108.902H144.665C149.818 108.902 154.002 104.639 154.002 99.3897V96.2188ZM109.774 17.3694V14.727H112.368C121.67 14.727 130.418 11.0276 136.989 4.33354L138.821 2.46624L140.654 4.33354C147.224 11.0276 155.973 14.727 165.275 14.727H167.868V17.3694C167.868 27.3401 162.889 56.1599 140.101 69.4776L138.821 70.2175L137.542 69.4776C114.754 56.1599 109.774 27.3401 109.774 17.3694ZM139.375 71.9439V78.2152H137.646V71.5916L138.787 72.261L139.375 71.9439ZM31.3825 57.1464H33.1115V78.2152H31.3825V57.1464ZM16.7554 94.4572H12.0871C7.03853 94.4572 2.92356 90.2646 2.92356 85.1207V50.2762C2.92356 45.1323 7.03853 40.9397 12.0871 40.9397H16.79V42.7013H12.0871C7.97217 42.7013 4.65254 46.1188 4.65254 50.2762V85.1207C4.65254 89.3133 8.00675 92.6956 12.0871 92.6956H16.79V94.4572H16.7554ZM16.7554 90.934H12.0871C8.9404 90.934 6.38152 88.3268 6.38152 85.1207V50.2762C6.38152 47.07 8.9404 44.4629 12.0871 44.4629H16.79V47.669C16.79 52.9186 20.9741 57.1816 26.1264 57.1816H29.6536V78.2152H26.0919C20.9395 78.2152 16.7554 82.4783 16.7554 87.7278V90.934ZM26.0919 107.176C21.9077 107.176 18.4844 103.688 18.4844 99.4249V87.7278C18.4844 83.4648 21.9077 79.9768 26.0919 79.9768H144.665C148.849 79.9768 152.273 83.4648 152.273 87.7278V99.4249C152.273 103.688 148.849 107.176 144.665 107.176H90.1678V108.938H135.951V130.006H34.8405V108.938H80.6238V107.176H26.0919ZM139.375 108.938V130.006H137.646V108.938H139.375ZM33.1115 108.938V130.006H31.3825V108.938H33.1115ZM152.273 151.181C152.273 155.444 148.849 158.932 144.665 158.932H26.0919C21.9077 158.932 18.4844 155.444 18.4844 151.181V139.484C18.4844 135.221 21.9077 131.733 26.0919 131.733H144.665C148.849 131.733 152.273 135.221 152.273 139.484V151.181Z" fill="#2E57AB"/>
<path d="M71.3209 45.414H56.3134V47.1756H71.3209C74.2256 47.1756 76.577 44.7799 76.577 41.8204C76.577 38.8609 74.2256 36.4651 71.3209 36.4651H33.9404C31.0357 36.4651 28.6843 38.8609 28.6843 41.8204C28.6843 44.7799 31.0357 47.1756 33.9404 47.1756H48.948V45.414H33.9404C32.004 45.414 30.4133 43.7934 30.4133 41.8204C30.4133 39.8474 32.004 38.2267 33.9404 38.2267H71.3209C73.2574 38.2267 74.848 39.8474 74.848 41.8204C74.848 43.7934 73.2574 45.414 71.3209 45.414Z" fill="#2E57AB"/>
<path d="M97.394 41.7852C97.394 44.7447 99.7455 47.1405 102.65 47.1405C105.555 47.1405 107.906 44.7447 107.906 41.7852C107.906 38.8257 105.555 36.4299 102.65 36.4299C99.7455 36.4299 97.394 38.8257 97.394 41.7852ZM106.212 41.7852C106.212 43.7582 104.621 45.3789 102.685 45.3789C100.748 45.3789 99.1576 43.7582 99.1576 41.7852C99.1576 39.8122 100.748 38.1915 102.685 38.1915C104.621 38.1915 106.212 39.8122 106.212 41.7852Z" fill="#2E57AB"/>
<path d="M71.3209 88.186H33.9404C31.0357 88.186 28.6843 90.5818 28.6843 93.5413C28.6843 96.5008 31.0357 98.8966 33.9404 98.8966H48.948V97.135H33.9404C32.004 97.135 30.4133 95.5143 30.4133 93.5413C30.4133 91.5683 32.004 89.9476 33.9404 89.9476H71.3209C73.2574 89.9476 74.848 91.5683 74.848 93.5413C74.848 95.5143 73.2574 97.135 71.3209 97.135H56.3134V98.8966H71.3209C74.2256 98.8966 76.577 96.5008 76.577 93.5413C76.577 90.5818 74.2256 88.186 71.3209 88.186Z" fill="#2E57AB"/>
<path d="M102.65 98.9315C105.555 98.9315 107.906 96.5357 107.906 93.5762C107.906 90.6167 105.555 88.2209 102.65 88.2209C99.7455 88.2209 97.394 90.6167 97.394 93.5762C97.394 96.5357 99.7455 98.9315 102.65 98.9315ZM102.65 89.9473C104.587 89.9473 106.177 91.568 106.177 93.541C106.177 95.514 104.587 97.1347 102.65 97.1347C100.714 97.1347 99.123 95.514 99.123 93.541C99.123 91.568 100.714 89.9473 102.65 89.9473Z" fill="#2E57AB"/>
<path d="M119.732 98.9315C122.637 98.9315 124.989 96.5357 124.989 93.5762C124.989 90.6167 122.637 88.2209 119.732 88.2209C116.828 88.2209 114.476 90.6167 114.476 93.5762C114.476 96.5357 116.828 98.9315 119.732 98.9315ZM119.732 89.9473C121.669 89.9473 123.26 91.568 123.26 93.541C123.26 95.514 121.669 97.1347 119.732 97.1347C117.796 97.1347 116.205 95.514 116.205 93.541C116.205 91.568 117.796 89.9473 119.732 89.9473Z" fill="#2E57AB"/>
<path d="M136.815 98.9315C139.719 98.9315 142.071 96.5357 142.071 93.5762C142.071 90.6167 139.719 88.2209 136.815 88.2209C133.91 88.2209 131.559 90.6167 131.559 93.5762C131.559 96.5357 133.91 98.9315 136.815 98.9315ZM136.815 89.9473C138.751 89.9473 140.342 91.568 140.342 93.541C140.342 95.514 138.751 97.1347 136.815 97.1347C134.878 97.1347 133.288 95.514 133.288 93.541C133.288 91.568 134.878 89.9473 136.815 89.9473Z" fill="#2E57AB"/>
<path d="M71.3209 139.977H33.9404C31.0357 139.977 28.6843 142.373 28.6843 145.332C28.6843 148.292 31.0357 150.688 33.9404 150.688H48.948V148.926H33.9404C32.004 148.926 30.4133 147.305 30.4133 145.332C30.4133 143.359 32.004 141.739 33.9404 141.739H71.3209C73.2574 141.739 74.848 143.359 74.848 145.332C74.848 147.305 73.2574 148.926 71.3209 148.926H56.3134V150.688H71.3209C74.2256 150.688 76.577 148.292 76.577 145.332C76.577 142.373 74.2256 139.977 71.3209 139.977Z" fill="#2E57AB"/>
<path d="M102.65 139.977C99.7455 139.977 97.394 142.373 97.394 145.332C97.394 148.292 99.7455 150.688 102.65 150.688C105.555 150.688 107.906 148.292 107.906 145.332C107.906 142.373 105.555 139.977 102.65 139.977ZM102.65 148.926C100.714 148.926 99.123 147.305 99.123 145.332C99.123 143.359 100.714 141.739 102.65 141.739C104.587 141.739 106.177 143.359 106.177 145.332C106.212 147.305 104.621 148.926 102.65 148.926Z" fill="#2E57AB"/>
<path d="M119.732 139.977C116.828 139.977 114.476 142.373 114.476 145.332C114.476 148.292 116.828 150.688 119.732 150.688C122.637 150.688 124.989 148.292 124.989 145.332C124.989 142.373 122.637 139.977 119.732 139.977ZM119.732 148.926C117.796 148.926 116.205 147.305 116.205 145.332C116.205 143.359 117.796 141.739 119.732 141.739C121.669 141.739 123.26 143.359 123.26 145.332C123.26 147.305 121.703 148.926 119.732 148.926Z" fill="#2E57AB"/>
<path d="M136.815 139.977C133.91 139.977 131.559 142.373 131.559 145.332C131.559 148.292 133.91 150.688 136.815 150.688C139.719 150.688 142.071 148.292 142.071 145.332C142.071 142.373 139.719 139.977 136.815 139.977ZM136.815 148.926C134.878 148.926 133.288 147.305 133.288 145.332C133.288 143.359 134.878 141.739 136.815 141.739C138.751 141.739 140.342 143.359 140.342 145.332C140.342 147.305 138.751 148.926 136.815 148.926Z" fill="#2E57AB"/>
<path d="M128.135 118.556H42.6199V120.318H128.135V118.556Z" fill="#2E57AB"/>
<path d="M128.135 66.8H42.6199V68.5617H128.135V66.8Z" fill="#2E57AB"/>
<path d="M15.0946 127.47C19.4516 127.47 22.9787 123.876 22.9787 119.437C22.9787 114.997 19.4516 111.404 15.0946 111.404C10.7376 111.404 7.21045 115.033 7.21045 119.437C7.21045 123.841 10.7376 127.47 15.0946 127.47ZM15.0946 113.201C18.4834 113.201 21.2498 116.019 21.2498 119.472C21.2498 122.925 18.4834 125.743 15.0946 125.743C11.7058 125.743 8.93943 122.925 8.93943 119.472C8.93943 115.984 11.7058 113.201 15.0946 113.201Z" fill="#2E57AB"/>
<path d="M8.07502 147.975L5.30866 153.154L0.225464 155.972L5.30866 158.791L8.07502 163.97L10.8414 158.791L15.9246 155.972L10.8414 153.154L8.07502 147.975ZM9.59653 157.487L8.1096 160.271L6.62268 157.487L3.8909 155.972L6.62268 154.457L8.1096 151.674L9.59653 154.457L12.3283 155.972L9.59653 157.487Z" fill="#2E57AB"/>
<path d="M89.3717 11.1684C92.0689 11.1684 94.2474 8.94873 94.2474 6.20063C94.2474 3.45253 92.0689 1.23291 89.3717 1.23291C86.6745 1.23291 84.496 3.45253 84.496 6.20063C84.496 8.94873 86.7091 11.1684 89.3717 11.1684ZM89.3717 3.02975C91.1007 3.02975 92.5184 4.47426 92.5184 6.23586C92.5184 7.99747 91.1007 9.44198 89.3717 9.44198C87.6427 9.44198 86.2249 7.99747 86.2249 6.23586C86.2249 4.47426 87.6427 3.02975 89.3717 3.02975Z" fill="#2E57AB"/>
<path d="M155.73 69.372L149.436 72.8952L155.73 76.4184L159.188 82.8306L162.646 76.4184L168.939 72.8952L162.646 69.372L159.188 62.9597L155.73 69.372ZM165.343 72.8599L161.366 75.0795L159.188 79.1312L157.009 75.0795L153.033 72.8599L157.009 70.6403L159.188 66.5886L161.366 70.6403L165.343 72.8599Z" fill="#2E57AB"/>
<path d="M162.646 150.124H160.917V155.831H162.646V150.124Z" fill="#2E57AB"/>
<path d="M162.646 161.292H160.917V167H162.646V161.292Z" fill="#2E57AB"/>
<path d="M159.118 157.699H153.517V159.46H159.118V157.699Z" fill="#2E57AB"/>
<path d="M170.08 157.699H164.478V159.46H170.08V157.699Z" fill="#2E57AB"/>
<path d="M23.6013 7.89209H21.8723V11.6619H23.6013V7.89209Z" fill="#2E57AB"/>
<path d="M23.6013 15.2908H21.8723V19.0606H23.6013V15.2908Z" fill="#2E57AB"/>
<path d="M20.9388 12.5779H17.2388V14.3395H20.9388V12.5779Z" fill="#2E57AB"/>
<path d="M28.2349 12.5779H24.5349V14.3395H28.2349V12.5779Z" fill="#2E57AB"/>
<path d="M138.82 68.2093L139.235 67.9627C148.641 62.4665 156.11 53.3062 160.917 41.433C164.755 31.9203 166.104 22.5486 166.104 17.3695V16.4887H165.239C155.488 16.4887 146.29 12.6131 139.408 5.60195L138.786 4.96777L138.163 5.60195C131.247 12.6484 122.084 16.4887 112.332 16.4887H111.468V17.3695C111.468 22.5133 112.817 31.9203 116.689 41.433C121.461 53.2709 128.965 62.4313 138.371 67.9627L138.82 68.2093ZM118.315 40.7636C114.788 32.026 113.404 23.3941 113.266 18.2503C122.879 18.0389 131.904 14.2338 138.82 7.43402C145.771 14.1986 154.796 18.0036 164.375 18.2503C164.236 23.3941 162.853 32.026 159.326 40.7636C154.762 52.073 147.673 60.8458 138.82 66.1659C129.933 60.8458 122.879 52.073 118.315 40.7636Z" fill="#2E57AB"/>
<path d="M155.591 19.1311L132.631 42.5252L117.831 27.4459L132.561 55.1383L156.94 20.2938L155.591 19.1311ZM132.734 51.7912L124.989 37.2404L132.631 45.0267L149.471 27.8687L132.734 51.7912Z" fill="#2E57AB"/>
</svg>
