<svg width="171" height="166" viewBox="0 0 171 166" fill="none" xmlns="http://www.w3.org/2000/svg">
<path d="M122.846 64.6212L125.846 56.5393H134.705L137.704 64.6212C135.716 63.5391 127.032 62.8628 122.846 64.6212Z" fill="#E83464"/>
<path d="M105.756 77.4713L101.99 69.6937L108.268 63.6069L116.289 67.259C114.057 67.9015 107.43 73.3796 105.756 77.4713Z" fill="#E83464"/>
<path d="M103.036 98.2677L94.7 95.3596V86.7704L103.036 83.8623C101.92 85.7898 101.222 94.2098 103.036 98.2677Z" fill="#E83464"/>
<path d="M116.289 114.837L108.268 118.489L101.99 112.402L105.756 104.625C106.419 106.789 112.069 113.214 116.289 114.837Z" fill="#E83464"/>
<path d="M137.704 117.475L134.705 125.557H125.846L122.846 117.475C124.869 118.557 133.554 119.233 137.704 117.475Z" fill="#E83464"/>
<path d="M154.829 104.625L158.596 112.402L152.318 118.489L144.296 114.837C146.529 114.195 153.155 108.716 154.829 104.625Z" fill="#E83464"/>
<path d="M157.55 83.8284L165.886 86.7365V95.3256L157.55 98.2338C158.631 96.3063 159.329 87.8862 157.55 83.8284Z" fill="#E83464"/>
<path d="M144.296 67.259L152.318 63.6069L158.596 69.6937L154.829 77.4713C154.167 75.3071 148.517 68.8821 144.296 67.259Z" fill="#E83464"/>
<path d="M130.275 68.2056C117.266 68.2056 106.733 78.4178 106.733 91.031C106.733 103.644 117.266 113.856 130.275 113.856C143.285 113.856 153.818 103.644 153.818 91.031C153.818 78.4178 143.285 68.2056 130.275 68.2056ZM130.275 96.8472C126.962 96.8472 124.276 94.2434 124.276 91.031C124.276 87.8185 126.962 85.2147 130.275 85.2147C133.589 85.2147 136.274 87.8185 136.274 91.031C136.274 94.2434 133.589 96.8472 130.275 96.8472Z" fill="#5E85D4"/>
<path d="M1.7854 26.1731V36.3177H169.896V26.1731H1.7854ZM11.8302 32.9362C10.8536 32.9362 10.0863 32.1922 10.0863 31.2454C10.0863 30.2986 10.8536 29.5546 11.8302 29.5546C12.8068 29.5546 13.5741 30.2986 13.5741 31.2454C13.5741 32.1922 12.7719 32.9362 11.8302 32.9362ZM21.0728 32.9362C20.0962 32.9362 19.3289 32.1922 19.3289 31.2454C19.3289 30.2986 20.0962 29.5546 21.0728 29.5546C22.0494 29.5546 22.8167 30.2986 22.8167 31.2454C22.8167 32.1922 22.0494 32.9362 21.0728 32.9362ZM30.3154 32.9362C29.3389 32.9362 28.5715 32.1922 28.5715 31.2454C28.5715 30.2986 29.3389 29.5546 30.3154 29.5546C31.292 29.5546 32.0593 30.2986 32.0593 31.2454C32.0593 32.1922 31.292 32.9362 30.3154 32.9362Z" fill="#E83464"/>
<path d="M1.7854 51.9065V130.155H38.6861V51.9065H1.7854ZM14.2716 121.532C13.2951 121.532 12.5278 120.789 12.5278 119.842C12.5278 118.895 13.2951 118.151 14.2716 118.151C15.2482 118.151 16.0155 118.895 16.0155 119.842C16.0155 120.789 15.2133 121.532 14.2716 121.532ZM14.2716 111.185H8.51681C7.54024 111.185 6.77292 110.441 6.77292 109.494C6.77292 108.547 7.54024 107.803 8.51681 107.803H14.2716C15.2482 107.803 16.0155 108.547 16.0155 109.494C16.0155 110.441 15.2133 111.185 14.2716 111.185ZM14.2716 100.837C13.2951 100.837 12.5278 100.093 12.5278 99.1467C12.5278 98.1998 13.2951 97.4559 14.2716 97.4559C15.2482 97.4559 16.0155 98.1998 16.0155 99.1467C16.0155 100.093 15.2133 100.837 14.2716 100.837ZM14.2716 90.4899C13.2951 90.4899 12.5278 89.746 12.5278 88.7991C12.5278 87.8523 13.2951 87.1084 14.2716 87.1084C15.2482 87.1084 16.0155 87.8523 16.0155 88.7991C16.0155 89.746 15.2133 90.4899 14.2716 90.4899ZM14.2716 80.1762C13.2951 80.1762 12.5278 79.4323 12.5278 78.4854C12.5278 77.5386 13.2951 76.7947 14.2716 76.7947C15.2482 76.7947 16.0155 77.5386 16.0155 78.4854C16.0155 79.3984 15.2133 80.1762 14.2716 80.1762ZM14.2716 69.8287C13.2951 69.8287 12.5278 69.0847 12.5278 68.1379C12.5278 67.1911 13.2951 66.4471 14.2716 66.4471C15.2482 66.4471 16.0155 67.1911 16.0155 68.1379C16.0155 69.0847 15.2133 69.8287 14.2716 69.8287ZM14.2716 59.4812H8.51681C7.54024 59.4812 6.77292 58.7372 6.77292 57.7904C6.77292 56.8435 7.54024 56.0996 8.51681 56.0996H14.2716C15.2482 56.0996 16.0155 56.8435 16.0155 57.7904C16.0155 58.7372 15.2133 59.4812 14.2716 59.4812Z" fill="#5E85D4"/>
<path d="M130.276 114.736C143.738 114.736 154.69 104.118 154.69 91.0649C154.69 78.0121 143.738 67.394 130.276 67.394C116.813 67.394 105.861 78.0121 105.861 91.0649C105.861 104.118 116.813 114.736 130.276 114.736ZM130.276 69.051C142.797 69.051 152.946 78.9251 152.946 91.031C152.946 103.137 142.762 113.011 130.276 113.011C117.789 113.011 107.605 103.137 107.605 91.031C107.605 78.9251 117.789 69.051 130.276 69.051Z" fill="#2E57AB"/>
<path d="M104.64 104.963L100.943 112.572L108.093 119.504L115.941 115.92C117.929 117.002 120.056 117.881 122.288 118.49L125.218 126.402H135.298L138.228 118.49C140.46 117.881 142.587 117.002 144.575 115.92L152.423 119.504L159.573 112.572L155.946 104.963C157.062 103.036 157.968 100.973 158.596 98.809L166.758 95.9685V86.1959L158.596 83.3554C157.968 81.1912 157.062 79.1284 155.946 77.201L159.643 69.5925L152.493 62.6603L144.645 66.2448C142.657 65.1627 140.53 64.2835 138.297 63.6748L135.368 55.762H125.253L122.323 63.6748C120.091 64.2835 117.964 65.1627 115.976 66.2448L108.128 62.6603L100.978 69.5925L104.675 77.201C103.559 79.1284 102.652 81.1912 102.024 83.3554L93.863 86.1959V95.9685L102.024 98.809C102.617 100.973 103.524 103.036 104.64 104.963ZM165.014 87.3456V94.7512L159.085 96.8139C159.468 94.9541 159.677 93.0266 159.677 91.0315C159.677 89.0702 159.468 87.1427 159.085 85.249L165.014 87.3456ZM108.442 117.475L103.036 112.234L105.721 106.688C107.919 109.934 110.814 112.707 114.162 114.871L108.442 117.475ZM134.112 124.712H126.474L124.346 118.963C126.264 119.335 128.253 119.538 130.31 119.538C132.368 119.538 134.321 119.335 136.274 118.963L134.112 124.712ZM157.55 112.234L152.144 117.475L146.424 114.871C149.772 112.741 152.632 109.934 154.864 106.688L157.55 112.234ZM152.144 64.6216L157.55 69.863L154.864 75.4087C152.667 72.1625 149.772 69.3896 146.424 67.2254L152.144 64.6216ZM126.474 57.3851H134.112L136.24 63.1337C134.321 62.7618 132.333 62.5589 130.275 62.5589C128.218 62.5589 126.264 62.7618 124.311 63.1337L126.474 57.3851ZM103.036 69.863L108.442 64.6216L114.162 67.2254C110.814 69.3558 107.954 72.1625 105.721 75.4087L103.036 69.863ZM130.275 64.2496C145.517 64.2496 157.934 76.2879 157.934 91.0653C157.934 105.843 145.517 117.881 130.275 117.881C115.034 117.881 102.617 105.843 102.617 91.0653C102.617 76.2541 115.034 64.2496 130.275 64.2496ZM101.501 96.8139L95.572 94.7512V87.3456L101.501 85.2828C101.118 87.1427 100.908 89.0702 100.908 91.0653C100.873 93.0266 101.083 94.9541 101.501 96.8139Z" fill="#2E57AB"/>
<path d="M130.275 97.6929C134.042 97.6929 137.146 94.7171 137.146 91.0313C137.146 87.3792 134.077 84.3696 130.275 84.3696C126.509 84.3696 123.405 87.3454 123.405 91.0313C123.439 94.7171 126.509 97.6929 130.275 97.6929ZM130.275 86.0942C133.101 86.0942 135.402 88.326 135.402 91.0651C135.402 93.8041 133.101 96.036 130.275 96.036C127.45 96.036 125.148 93.8041 125.148 91.0651C125.148 88.326 127.485 86.0942 130.275 86.0942Z" fill="#2E57AB"/>
<path d="M161.596 30.4001H134.844V32.0909H161.596V30.4001Z" fill="#2E57AB"/>
<path d="M9.21484 31.2454C9.21484 32.6318 10.4007 33.7815 11.8307 33.7815C13.2607 33.7815 14.4465 32.6318 14.4465 31.2454C14.4465 29.859 13.2607 28.7092 11.8307 28.7092C10.4007 28.7092 9.21484 29.859 9.21484 31.2454ZM12.7026 31.2454C12.7026 31.7188 12.319 32.0908 11.8307 32.0908C11.3424 32.0908 10.9587 31.7188 10.9587 31.2454C10.9587 30.772 11.3424 30.4 11.8307 30.4C12.319 30.4 12.7026 30.772 12.7026 31.2454Z" fill="#2E57AB"/>
<path d="M18.4573 31.2454C18.4573 32.6318 19.6431 33.7815 21.0731 33.7815C22.5031 33.7815 23.6889 32.6318 23.6889 31.2454C23.6889 29.859 22.5031 28.7092 21.0731 28.7092C19.6431 28.7092 18.4573 29.859 18.4573 31.2454ZM21.9451 31.2454C21.9451 31.7188 21.5614 32.0908 21.0731 32.0908C20.5848 32.0908 20.2012 31.7188 20.2012 31.2454C20.2012 30.772 20.5848 30.4 21.0731 30.4C21.5614 30.4 21.9451 30.772 21.9451 31.2454Z" fill="#2E57AB"/>
<path d="M27.7 31.2454C27.7 32.6318 28.8858 33.7815 30.3158 33.7815C31.7458 33.7815 32.9316 32.6318 32.9316 31.2454C32.9316 29.859 31.7458 28.7092 30.3158 28.7092C28.8858 28.7092 27.7 29.859 27.7 31.2454ZM31.1877 31.2454C31.1877 31.7188 30.8041 32.0908 30.3158 32.0908C29.8275 32.0908 29.4438 31.7188 29.4438 31.2454C29.4438 30.772 29.8275 30.4 30.3158 30.4C30.8041 30.4 31.1877 30.772 31.1877 31.2454Z" fill="#2E57AB"/>
<path d="M170.769 25.3276H91.2473V27.0184H169.025V35.4723H2.65771V27.0184H81.7257V25.3276H0.913818V36.3177V37.163V141.146H170.769V36.3177V25.3276ZM169.025 139.489H2.65771V131.035H37.8145H38.6865H169.025V139.489ZM169.025 129.344H39.5584V91.3354H37.8145V129.344H2.65771V52.752H37.8145V86.2969H39.5584V52.752H44.6157L47.4757 44.7715H70.8787L76.2847 52.7858H169.025V129.344ZM169.025 51.0612H77.2264L71.8204 43.0807H46.2549L43.395 51.095H38.6865H37.8145H2.65771V37.1969H169.025V51.0612Z" fill="#2E57AB"/>
<path d="M14.2718 55.2544H8.51696C7.08697 55.2544 5.90112 56.4041 5.90112 57.7906C5.90112 59.177 7.08697 60.3267 8.51696 60.3267H14.2718C15.7018 60.3267 16.8876 59.177 16.8876 57.7906C16.8876 56.4041 15.7018 55.2544 14.2718 55.2544ZM14.2718 58.6359H8.51696C8.02867 58.6359 7.64501 58.264 7.64501 57.7906C7.64501 57.3171 8.02867 56.9452 8.51696 56.9452H14.2718C14.7601 56.9452 15.1437 57.3171 15.1437 57.7906C15.1437 58.264 14.7601 58.6359 14.2718 58.6359Z" fill="#2E57AB"/>
<path d="M30.3505 56.9453H21.073V58.6361H30.3505V56.9453Z" fill="#2E57AB"/>
<path d="M30.3505 67.293H21.073V68.9837H30.3505V67.293Z" fill="#2E57AB"/>
<path d="M14.2718 65.6021C12.8419 65.6021 11.656 66.7518 11.656 68.1382C11.656 69.5246 12.8419 70.6744 14.2718 70.6744C15.7018 70.6744 16.8877 69.5246 16.8877 68.1382C16.8877 66.7518 15.7018 65.6021 14.2718 65.6021ZM14.2718 68.9836C13.7836 68.9836 13.3999 68.6116 13.3999 68.1382C13.3999 67.6648 13.7836 67.2928 14.2718 67.2928C14.7601 67.2928 15.1438 67.6648 15.1438 68.1382C15.1438 68.6116 14.7601 68.9836 14.2718 68.9836Z" fill="#2E57AB"/>
<path d="M30.3505 77.6404H21.073V79.3312H30.3505V77.6404Z" fill="#2E57AB"/>
<path d="M14.2718 75.9495C12.8419 75.9495 11.656 77.0992 11.656 78.4856C11.656 79.8721 12.8419 81.0218 14.2718 81.0218C15.7018 81.0218 16.8877 79.8721 16.8877 78.4856C16.8877 77.0992 15.7018 75.9495 14.2718 75.9495ZM14.2718 79.331C13.7836 79.331 13.3999 78.959 13.3999 78.4856C13.3999 78.0122 13.7836 77.6402 14.2718 77.6402C14.7601 77.6402 15.1438 78.0122 15.1438 78.4856C15.1438 78.959 14.7601 79.331 14.2718 79.331Z" fill="#2E57AB"/>
<path d="M30.3505 87.9541H21.073V89.6449H30.3505V87.9541Z" fill="#2E57AB"/>
<path d="M14.2718 86.2634C12.8419 86.2634 11.656 87.4132 11.656 88.7996C11.656 90.186 12.8419 91.3357 14.2718 91.3357C15.7018 91.3357 16.8877 90.186 16.8877 88.7996C16.8877 87.4132 15.7018 86.2634 14.2718 86.2634ZM14.2718 89.645C13.7836 89.645 13.3999 89.273 13.3999 88.7996C13.3999 88.3262 13.7836 87.9542 14.2718 87.9542C14.7601 87.9542 15.1438 88.3262 15.1438 88.7996C15.1438 89.273 14.7601 89.645 14.2718 89.645Z" fill="#2E57AB"/>
<path d="M30.3505 98.3015H21.073V99.9923H30.3505V98.3015Z" fill="#2E57AB"/>
<path d="M14.2718 96.6106C12.8419 96.6106 11.656 97.7603 11.656 99.1468C11.656 100.533 12.8419 101.683 14.2718 101.683C15.7018 101.683 16.8877 100.533 16.8877 99.1468C16.8877 97.7603 15.7018 96.6106 14.2718 96.6106ZM14.2718 99.9921C13.7836 99.9921 13.3999 99.6202 13.3999 99.1468C13.3999 98.6733 13.7836 98.3014 14.2718 98.3014C14.7601 98.3014 15.1438 98.6733 15.1438 99.1468C15.1438 99.6202 14.7601 99.9921 14.2718 99.9921Z" fill="#2E57AB"/>
<path d="M14.2718 106.958H8.51696C7.08697 106.958 5.90112 108.108 5.90112 109.494C5.90112 110.881 7.08697 112.031 8.51696 112.031H14.2718C15.7018 112.031 16.8876 110.881 16.8876 109.494C16.8876 108.108 15.7018 106.958 14.2718 106.958ZM14.2718 110.34H8.51696C8.02867 110.34 7.64501 109.968 7.64501 109.494C7.64501 109.021 8.02867 108.649 8.51696 108.649H14.2718C14.7601 108.649 15.1437 109.021 15.1437 109.494C15.1437 109.968 14.7601 110.34 14.2718 110.34Z" fill="#2E57AB"/>
<path d="M30.3505 108.649H21.073V110.34H30.3505V108.649Z" fill="#2E57AB"/>
<path d="M30.3505 118.996H21.073V120.687H30.3505V118.996Z" fill="#2E57AB"/>
<path d="M14.2718 117.306C12.8419 117.306 11.656 118.455 11.656 119.842C11.656 121.228 12.8419 122.378 14.2718 122.378C15.7018 122.378 16.8877 121.228 16.8877 119.842C16.8877 118.455 15.7018 117.306 14.2718 117.306ZM14.2718 120.687C13.7836 120.687 13.3999 120.315 13.3999 119.842C13.3999 119.368 13.7836 118.996 14.2718 118.996C14.7601 118.996 15.1438 119.368 15.1438 119.842C15.1438 120.315 14.7601 120.687 14.2718 120.687Z" fill="#2E57AB"/>
<path d="M55.5674 56.9453H45.3831V58.6361H55.5674V56.9453Z" fill="#2E57AB"/>
<path d="M87.1665 67.293H50.4751V68.9837H87.1665V67.293Z" fill="#2E57AB"/>
<path d="M82.9812 77.6404H50.4751V79.3312H82.9812V77.6404Z" fill="#2E57AB"/>
<path d="M90.6542 87.9541H58.5667V89.6449H90.6542V87.9541Z" fill="#2E57AB"/>
<path d="M55.5674 98.3015H45.3831V99.9923H55.5674V98.3015Z" fill="#2E57AB"/>
<path d="M79.5981 108.649H50.4751V110.34H79.5981V108.649Z" fill="#2E57AB"/>
<path d="M83.7484 118.963H58.5667V120.653H83.7484V118.963Z" fill="#2E57AB"/>
<path d="M69.4484 48.4912H48.9751V50.182H69.4484V48.4912Z" fill="#2E57AB"/>
<path d="M155.388 43.0808H87.1667V44.7716H155.388V43.0808Z" fill="#2E57AB"/>
<path d="M150.574 17.5501C154.969 17.5501 158.527 14.1009 158.527 9.84017C158.527 5.57942 154.934 2.16406 150.574 2.16406C146.215 2.16406 142.622 5.61324 142.622 9.87398C142.622 14.1347 146.18 17.5501 150.574 17.5501ZM150.574 3.85483C153.992 3.85483 156.783 6.56007 156.783 9.87398C156.783 13.1879 153.992 15.8931 150.574 15.8931C147.156 15.8931 144.366 13.1879 144.366 9.87398C144.366 6.56007 147.156 3.85483 150.574 3.85483Z" fill="#2E57AB"/>
<path d="M102.304 147.774C99.583 147.774 97.3857 149.904 97.3857 152.542C97.3857 155.179 99.583 157.31 102.304 157.31C105.024 157.31 107.221 155.179 107.221 152.542C107.221 149.904 105.024 147.774 102.304 147.774ZM102.304 155.619C100.56 155.619 99.1296 154.232 99.1296 152.542C99.1296 150.851 100.56 149.464 102.304 149.464C104.047 149.464 105.477 150.851 105.477 152.542C105.477 154.232 104.047 155.619 102.304 155.619Z" fill="#2E57AB"/>
<path d="M81.2722 15.3522L84.0625 10.3813L89.1895 7.6761L84.0625 4.97087L81.2722 0L78.482 4.97087L73.355 7.6761L78.482 10.3813L81.2722 15.3522ZM79.7376 6.18823L81.2374 3.51681L82.7371 6.18823L85.4925 7.64229L82.7371 9.09635L81.2374 11.7678L79.7376 9.09635L76.9823 7.64229L79.7376 6.18823Z" fill="#2E57AB"/>
<path d="M16.6087 146.928L13.121 153.083L6.77319 156.464L13.121 159.846L16.6087 166L20.0965 159.846L26.4443 156.464L20.0965 153.083L16.6087 146.928ZM18.806 158.561L16.6087 162.45L14.4114 158.561L10.4005 156.43L14.4114 154.3L16.6087 150.411L18.806 154.3L22.817 156.43L18.806 158.561Z" fill="#2E57AB"/>
<path d="M20.2012 4.396H18.4573V9.8741H20.2012V4.396Z" fill="#2E57AB"/>
<path d="M20.2012 15.1155H18.4573V20.5936H20.2012V15.1155Z" fill="#2E57AB"/>
<path d="M16.6436 11.6326H10.9934V13.3233H16.6436V11.6326Z" fill="#2E57AB"/>
<path d="M27.7 11.6326H22.0498V13.3233H27.7V11.6326Z" fill="#2E57AB"/>
<path d="M162.468 148.551H160.724V152.17H162.468V148.551Z" fill="#2E57AB"/>
<path d="M162.468 155.652H160.724V159.271H162.468V155.652Z" fill="#2E57AB"/>
<path d="M159.817 153.083H156.085V154.774H159.817V153.083Z" fill="#2E57AB"/>
<path d="M167.141 153.083H163.409V154.774H167.141V153.083Z" fill="#2E57AB"/>
</svg>
