<svg width="171" height="166" viewBox="0 0 171 166" fill="none" xmlns="http://www.w3.org/2000/svg">
<path d="M30.2808 0.929199V68.2436L86.0155 105.897L37.2563 72.9641V8.36314H123.23L134.775 20.7035V72.8155L141.75 68.0577V0.929199H30.2808Z" fill="#5E85D4"/>
<path d="M169.897 53.3755V160.35L130.38 80.212L169.897 53.3755Z" fill="#5E85D4"/>
<path d="M1.78638 53.3755V161.056L41.6168 80.2864L1.78638 53.3755Z" fill="#5E85D4"/>
<path d="M86.0152 24.9412C78.656 32.784 68.9949 36.724 59.3337 36.724C59.3337 46.7226 64.2515 75.938 86.0152 89.282C107.779 75.938 112.697 46.6855 112.697 36.724C103.036 36.724 93.3745 32.784 86.0152 24.9412ZM79.807 74.7486L68.4717 52.4839L79.807 64.5641L103.559 39.2515L79.807 74.7486Z" fill="#E83464"/>
<path d="M142.622 50.2163V0H29.409V50.2163H0.913818V165.963H80.6793V164.104H5.20379L44.8947 83.5947L86.0156 111.398L127.102 83.5204L166.827 164.142H91.3519V166H170.769V50.2163H142.622ZM142.622 52.0748H163.654L142.622 66.348V52.0748ZM31.1529 1.85849H140.878V67.5374L135.647 71.1057V20.2947L123.579 7.43395H89.9219V9.29243H122.847L133.903 21.0752V72.2951L86.0156 104.819L38.1284 72.4438V9.29243H81.7605V7.43395H36.3845V71.2544L31.1529 67.7232V1.85849ZM29.409 52.0748V66.5338L8.02889 52.0748H29.409ZM2.65771 55.0484L40.4652 80.6211L2.65771 157.302V55.0484ZM3.21575 164.142H2.65771V161.317L41.9301 81.6247L43.395 82.6283L3.21575 164.142ZM169.025 164.142H168.815L128.567 82.5168L130.031 81.5132L169.025 160.573V164.142ZM169.025 156.596L131.531 80.5096L169.025 55.0484V156.596ZM169.025 52.8554L86.0156 109.205L2.65771 52.8554V52.112H4.78525L86.0156 107.049L166.897 52.112H169.025V52.8554Z" fill="#2E57AB"/>
<path d="M118.626 120.281C118.626 115.598 115.069 111.806 110.674 111.806C106.279 111.806 102.722 115.598 102.722 120.281C102.722 124.964 106.279 128.756 110.674 128.756C115.069 128.756 118.626 124.964 118.626 120.281ZM104.501 120.281C104.501 116.638 107.291 113.665 110.709 113.665C114.127 113.665 116.917 116.638 116.917 120.281C116.917 123.924 114.127 126.897 110.709 126.897C107.291 126.897 104.501 123.924 104.501 120.281Z" fill="#2E57AB"/>
<path d="M55.3928 154.254C55.3928 157.154 57.5901 159.495 60.3106 159.495C63.0311 159.495 65.2284 157.154 65.2284 154.254C65.2284 151.355 63.0311 149.013 60.3106 149.013C57.5901 149.013 55.3928 151.355 55.3928 154.254ZM63.4496 154.254C63.4496 156.113 62.0196 157.637 60.2757 157.637C58.5318 157.637 57.1018 156.113 57.1018 154.254C57.1018 152.396 58.5318 150.872 60.2757 150.872C62.0196 150.872 63.4496 152.396 63.4496 154.254Z" fill="#2E57AB"/>
<path d="M40.1514 118.794L35.4429 121.545L40.1514 124.258L42.7323 129.276L45.3133 124.258L50.0218 121.508L45.3133 118.757L42.7323 113.739L40.1514 118.794ZM46.3596 121.508L43.9879 122.883L42.6975 125.411L41.407 122.883L39.0353 121.508L41.407 120.132L42.6975 117.605L43.9879 120.132L46.3596 121.508Z" fill="#2E57AB"/>
<path d="M151.83 90.7687L155.318 97.5336L158.805 90.7687L165.153 87.0517L158.805 83.3347L155.318 76.5698L151.83 83.3347L145.482 87.0517L151.83 90.7687ZM153.086 84.7472L155.283 80.4726L157.48 84.7472L161.491 87.0889L157.48 89.4305L155.283 93.7051L153.086 89.4305L149.075 87.0889L153.086 84.7472Z" fill="#2E57AB"/>
<path d="M14.9346 71.7749H13.1907V77.7964H14.9346V71.7749Z" fill="#2E57AB"/>
<path d="M14.9346 83.5576H13.1907V89.5791H14.9346V83.5576Z" fill="#2E57AB"/>
<path d="M11.377 79.7661H5.72681V81.6246H11.377V79.7661Z" fill="#2E57AB"/>
<path d="M22.4334 79.7661H16.7832V81.6246H22.4334V79.7661Z" fill="#2E57AB"/>
<path d="M142.622 145.185H140.878V149.162H142.622V145.185Z" fill="#2E57AB"/>
<path d="M142.622 152.991H140.878V156.968H142.622V152.991Z" fill="#2E57AB"/>
<path d="M139.937 150.166H136.205V152.024H139.937V150.166Z" fill="#2E57AB"/>
<path d="M147.26 150.166H143.529V152.024H147.26V150.166Z" fill="#2E57AB"/>
<path d="M54.9744 32.0774V36.7236C54.9744 47.54 60.1712 78.7997 83.8532 93.2959L86.0156 94.634L88.178 93.2959C111.86 78.7997 117.057 47.54 117.057 36.7236V32.0774H112.697C103.768 32.0774 95.3977 28.3604 89.1197 21.6699L86.0505 18.3989L82.9812 21.6699C76.6684 28.3976 68.2977 32.0774 59.4038 32.0774H54.9744ZM84.1671 22.9708L86.0156 21.0008L87.8641 22.9708C94.4909 30.0331 103.315 33.9359 112.697 33.9359H115.313V36.7236C115.313 47.2426 110.291 77.6475 87.3061 91.6976L86.0156 92.4782L84.7251 91.6976C61.7755 77.6475 56.7531 47.2426 56.7531 36.7236V33.9359H59.369C68.7162 33.9359 77.5403 30.0331 84.1671 22.9708Z" fill="#2E57AB"/>
<path d="M58.4619 35.7946V36.7239C58.4619 42.1507 59.8221 52.075 63.6936 62.1108C68.5067 74.5998 76.0752 84.264 85.562 90.0996L85.9805 90.3598L86.399 90.0996C95.8858 84.3011 103.419 74.637 108.267 62.1108C112.139 52.075 113.499 42.1878 113.499 36.7239V35.7946H112.697C102.861 35.7946 93.5838 31.706 86.6432 24.3092L86.0154 23.6401L85.3876 24.3092C78.412 31.7431 69.1694 35.7946 59.3339 35.7946H58.4619ZM86.0154 26.242C93.0258 33.3786 102.129 37.3929 111.825 37.6531C111.685 43.0799 110.29 52.1865 106.733 61.4046C102.129 73.3361 94.979 82.5913 86.0502 88.2039C77.1215 82.5913 69.9716 73.3361 65.3677 61.4046C61.7753 52.1493 60.3802 43.0427 60.2407 37.616C69.9018 37.3929 79.0049 33.3786 86.0154 26.242Z" fill="#2E57AB"/>
<path d="M104.257 39.7717L102.931 38.5823L79.7724 63.263L64.8447 47.3172L79.7027 76.5326L104.257 39.7717ZM79.8073 65.8649L96.7928 47.7632L79.9119 73.0014L72.0993 57.6503L79.8073 65.8649Z" fill="#2E57AB"/>
</svg>
