<svg width="1723" height="1090" viewBox="0 0 1723 1090" fill="none" xmlns="http://www.w3.org/2000/svg">
<path d="M353.707 183.433L357.647 136.219L369.668 162.89L353.707 183.433ZM358.876 143.397L356.037 177.446L367.53 162.625L358.876 143.397Z" fill="#C7D9FF"/>
<path d="M514.891 160.705L475.816 148.003L472.959 128.321L514.891 160.705ZM477.445 146.518L505.19 155.541L475.416 132.549L477.445 146.518Z" fill="#C7D9FF"/>
<path d="M609.809 78.6284L605.705 74.2308L606.188 70.0696L601.337 68.9158L602.539 75.4224L608.69 79.8578L609.809 78.6284Z" fill="#C7D9FF"/>
<path d="M589.608 66.5797L594.913 63.2505L591.328 59.2781L586.605 64.0639L587.879 74.0231L589.408 73.8339L589.608 66.5797Z" fill="#C7D9FF"/>
<path d="M584.567 51.7219L579.299 53.1594L577.333 55.4007L571.719 54.3415L571.209 55.9398L577.624 57.2827L587.625 55.4197L584.567 51.7219Z" fill="#C7D9FF"/>
<path d="M637.673 41.8463L630.466 35.3776L622.185 36.7205L625.479 42.1111L630.502 39.813L636.754 43.0095L637.673 41.8463Z" fill="#C7D9FF"/>
<path d="M623.942 22.5712L623.214 21.1716L614.851 23.7439L610.729 30.6665L616.071 33.0497L617.654 27.3754L623.942 22.5712Z" fill="#C7D9FF"/>
<path d="M606.033 28.2747L604.778 19.4315L601.638 12.5744L600.164 13.2176L602.221 19.0342L600.692 22.9026L601.174 27.3572L606.033 28.2747Z" fill="#C7D9FF"/>
<path d="M585.222 46.5296L584.476 45.9905C582.239 44.3425 580.723 41.84 580.259 39.0316C579.795 36.2232 580.421 33.3381 582.001 31.0091L582.101 30.8578C583.685 28.5311 586.093 26.9533 588.796 26.4709C591.498 25.9885 594.275 26.6411 596.515 28.2852L597.252 28.8243L585.222 46.5296ZM590.564 28.2096C589.193 28.2093 587.843 28.5531 586.628 29.2118C585.412 29.8704 584.368 30.8245 583.584 31.9927L583.484 32.144C582.276 33.9307 581.744 36.1171 581.989 38.2858C582.234 40.4544 583.239 42.4531 584.813 43.9002L594.695 29.3634C593.435 28.6198 592.013 28.2226 590.564 28.2096Z" fill="#C7D9FF"/>
<path d="M587.624 28.219C587.583 27.197 587.194 26.2233 586.528 25.4704C585.862 24.7174 584.961 24.2338 583.984 24.1051C583.859 24.0877 583.731 24.0998 583.611 24.1404C583.49 24.1811 583.38 24.2493 583.289 24.34C583.197 24.4308 583.126 24.5417 583.081 24.6647C583.036 24.7878 583.018 24.9197 583.029 25.0508C583.047 25.2488 583.129 25.4346 583.261 25.5786C583.393 25.7227 583.567 25.8166 583.757 25.8453C584.365 25.9143 584.928 26.2119 585.341 26.6821C585.753 27.1522 585.986 27.7627 585.995 28.3987L587.624 28.219Z" fill="#C7D9FF"/>
<path d="M618.218 65.1041L617.189 63.5531C618.629 62.5259 619.885 61.2458 620.902 59.7703L621.075 59.5054C621.955 58.2223 622.639 56.806 623.104 55.3065L624.833 55.8929C624.312 57.5807 623.545 59.1754 622.558 60.6214L622.385 60.8767C621.244 62.5273 619.833 63.9579 618.218 65.1041Z" fill="#C7D9FF"/>
<path d="M625.27 57.8224L589.163 37.4594L595.441 28.2095L603.631 26.2517L619.292 33.4019C621.214 34.4932 622.904 35.9775 624.26 37.7654C625.616 39.5534 626.61 41.608 627.181 43.8057C628.383 48.2492 627.853 53.0059 625.707 57.0468L625.27 57.8224ZM591.829 36.8162L624.524 55.2498C626.085 51.8384 626.409 47.9557 625.434 44.3164C624.938 42.3673 624.068 40.5424 622.876 38.9513C621.685 37.3602 620.196 36.0357 618.5 35.0571L603.467 28.2379L596.542 29.893L591.829 36.8162Z" fill="#C7D9FF"/>
<path d="M607.835 71.5651C605.674 71.5746 603.533 71.1371 601.536 70.2781C599.54 69.4192 597.728 68.1559 596.205 66.5619L584.248 52.9519L584.084 44.9221L590.363 35.6912L620.392 65.7485L619.728 66.4295C616.571 69.7051 612.296 71.5511 607.835 71.5651ZM586.059 52.2047L597.516 65.2661C602.894 70.8842 611.984 71.0355 617.808 65.7485L590.627 38.5853L585.923 45.5085L586.059 52.2047Z" fill="#C7D9FF"/>
<path d="M581.455 36.4185C580.485 36.6231 579.476 36.4612 578.61 35.962C577.744 35.4627 577.079 34.6588 576.732 33.6949C576.679 33.5861 576.649 33.4671 576.643 33.3455C576.637 33.2238 576.655 33.1022 576.696 32.9882C576.738 32.8743 576.801 32.7705 576.883 32.6835C576.965 32.5965 577.064 32.5281 577.173 32.4828C577.282 32.4374 577.398 32.4161 577.515 32.42C577.633 32.424 577.748 32.4532 577.853 32.5058C577.959 32.5584 578.053 32.6332 578.129 32.7256C578.206 32.818 578.263 32.9258 578.297 33.0423C578.508 33.6412 578.922 34.1393 579.462 34.4425C580.002 34.7456 580.63 34.8329 581.227 34.6878L581.455 36.4185Z" fill="#C7D9FF"/>
<path d="M1328.96 162.858L1332.9 115.644L1344.92 142.316L1328.96 162.858ZM1334.13 122.823L1331.29 156.871L1342.78 142.051L1334.13 122.823Z" fill="#C7D9FF"/>
<path d="M1490.15 140.131L1451.07 127.429L1448.21 107.747L1490.15 140.131ZM1452.7 125.944L1480.45 134.967L1450.67 111.974L1452.7 125.944Z" fill="#C7D9FF"/>
<path d="M1585.06 58.0539L1580.96 53.6562L1581.44 49.4951L1576.59 48.3413L1577.79 54.8479L1583.94 59.2833L1585.06 58.0539Z" fill="#C7D9FF"/>
<path d="M1564.86 46.0052L1570.17 42.676L1566.58 38.7036L1561.86 43.4894L1563.13 53.4486L1564.66 53.2594L1564.86 46.0052Z" fill="#C7D9FF"/>
<path d="M1559.82 31.1473L1554.55 32.5849L1552.59 34.8262L1546.97 33.767L1546.46 35.3653L1552.88 36.7082L1562.88 34.8451L1559.82 31.1473Z" fill="#C7D9FF"/>
<path d="M1612.93 21.2717L1605.72 14.8031L1597.44 16.146L1600.73 21.5366L1605.76 19.2385L1612.01 22.435L1612.93 21.2717Z" fill="#C7D9FF"/>
<path d="M1599.2 1.99674L1598.47 0.597107L1590.11 3.16942L1585.98 10.092L1591.33 12.4753L1592.91 6.80098L1599.2 1.99674Z" fill="#C7D9FF"/>
<path d="M1560.48 25.9551L1559.73 25.416C1557.49 23.768 1555.98 21.2655 1555.51 18.4571C1555.05 15.6487 1555.68 12.7636 1557.26 10.4346L1557.36 10.2833C1558.94 7.9566 1561.35 6.37876 1564.05 5.89638C1566.75 5.414 1569.53 6.06659 1571.77 7.71073L1572.51 8.24978L1560.48 25.9551ZM1565.82 7.63505C1564.45 7.63476 1563.1 7.97856 1561.88 8.63724C1560.67 9.29593 1559.62 10.25 1558.84 11.4182L1558.74 11.5695C1557.53 13.3561 1557 15.5426 1557.24 17.7112C1557.49 19.8799 1558.49 21.8786 1560.07 23.3257L1569.95 8.78889C1568.69 8.04524 1567.27 7.64812 1565.82 7.63505Z" fill="#C7D9FF"/>
<path d="M1593.47 44.5296L1592.44 42.9786C1593.88 41.9513 1595.14 40.6712 1596.16 39.1958L1596.33 38.9309C1597.21 37.6477 1597.89 36.2315 1598.36 34.732L1600.09 35.3184C1599.57 37.0062 1598.8 38.6009 1597.81 40.0469L1597.64 40.3022C1596.5 41.9528 1595.09 43.3834 1593.47 44.5296Z" fill="#C7D9FF"/>
<path d="M1600.53 37.2478L1564.42 16.8849L1570.7 7.63503L1578.89 5.67723L1594.55 12.8274C1596.47 13.9187 1598.16 15.403 1599.51 17.1909C1600.87 18.9789 1601.86 21.0335 1602.44 23.2312C1603.64 27.6747 1603.11 32.4314 1600.96 36.4723L1600.53 37.2478ZM1567.08 16.2417L1599.78 34.6753C1601.34 31.2639 1601.66 27.3812 1600.69 23.7419C1600.19 21.7927 1599.32 19.9679 1598.13 18.3768C1596.94 16.7857 1595.45 15.4612 1593.76 14.4826L1578.72 7.66338L1571.8 9.31852L1567.08 16.2417Z" fill="#C7D9FF"/>
<path d="M1583.09 50.9906C1580.93 51 1578.79 50.5626 1576.79 49.7036C1574.79 48.8446 1572.98 47.5814 1571.46 45.9873L1559.5 32.3774L1559.34 24.3476L1565.62 15.1166L1595.65 45.174L1594.98 45.8549C1591.83 49.1306 1587.55 50.9765 1583.09 50.9906ZM1561.31 31.6302L1572.77 44.6916C1578.15 50.3096 1587.24 50.461 1593.06 45.174L1565.88 18.0107L1561.18 24.934L1561.31 31.6302Z" fill="#C7D9FF"/>
<path d="M1556.71 15.844C1555.74 16.0486 1554.73 15.8867 1553.86 15.3875C1553 14.8882 1552.33 14.0843 1551.99 13.1203C1551.93 13.0116 1551.9 12.8926 1551.9 12.7709C1551.89 12.6493 1551.91 12.5277 1551.95 12.4137C1551.99 12.2998 1552.06 12.1959 1552.14 12.1089C1552.22 12.0219 1552.32 11.9536 1552.43 11.9082C1552.54 11.8629 1552.65 11.8415 1552.77 11.8455C1552.89 11.8495 1553 11.8787 1553.11 11.9313C1553.21 11.9839 1553.31 12.0587 1553.38 12.1511C1553.46 12.2434 1553.52 12.3513 1553.55 12.4678C1553.76 13.0667 1554.18 13.5648 1554.72 13.8679C1555.26 14.1711 1555.88 14.2584 1556.48 14.1133L1556.71 15.844Z" fill="#C7D9FF"/>
<path d="M911.296 406.306L915.236 359.092L927.257 385.764L911.296 406.306ZM916.465 366.271L913.625 400.319L925.118 385.499L916.465 366.271Z" fill="#C7D9FF"/>
<path d="M997.414 563.652L958.34 550.95L955.482 531.268L997.414 563.652ZM959.969 549.465L987.714 558.488L957.939 535.496L959.969 549.465Z" fill="#C7D9FF"/>
<path d="M1167.67 472.792L1163.57 468.395L1164.05 464.233L1159.2 463.08L1160.4 469.586L1166.55 474.022L1167.67 472.792Z" fill="#C7D9FF"/>
<path d="M1147.47 460.744L1152.78 457.414L1149.19 453.442L1144.47 458.228L1145.74 468.187L1147.27 467.998L1147.47 460.744Z" fill="#C7D9FF"/>
<path d="M1142.43 445.886L1137.16 447.323L1135.2 449.565L1129.58 448.505L1129.07 450.104L1135.49 451.447L1145.49 449.584L1142.43 445.886Z" fill="#C7D9FF"/>
<path d="M1195.54 436.01L1188.33 429.541L1180.05 430.884L1183.34 436.275L1188.36 433.977L1194.62 437.173L1195.54 436.01Z" fill="#C7D9FF"/>
<path d="M1181.8 416.735L1181.08 415.335L1172.71 417.908L1168.59 424.83L1173.93 427.214L1175.52 421.539L1181.8 416.735Z" fill="#C7D9FF"/>
<path d="M1163.9 422.438L1162.64 413.595L1159.5 406.738L1158.03 407.381L1160.08 413.198L1158.55 417.066L1159.04 421.521L1163.9 422.438Z" fill="#C7D9FF"/>
<path d="M1143.08 440.693L1142.34 440.154C1140.1 438.506 1138.59 436.004 1138.12 433.195C1137.66 430.387 1138.28 427.502 1139.86 425.173L1139.96 425.022C1141.55 422.695 1143.96 421.117 1146.66 420.635C1149.36 420.152 1152.14 420.805 1154.38 422.449L1155.11 422.988L1143.08 440.693ZM1148.43 422.373C1147.06 422.373 1145.71 422.717 1144.49 423.376C1143.27 424.034 1142.23 424.988 1141.45 426.157L1141.35 426.308C1140.14 428.094 1139.61 430.281 1139.85 432.45C1140.1 434.618 1141.1 436.617 1142.67 438.064L1152.56 423.527C1151.3 422.784 1149.87 422.386 1148.43 422.373Z" fill="#C7D9FF"/>
<path d="M1145.49 422.383C1145.44 421.361 1145.06 420.387 1144.39 419.634C1143.72 418.881 1142.82 418.398 1141.85 418.269C1141.72 418.252 1141.59 418.264 1141.47 418.304C1141.35 418.345 1141.24 418.413 1141.15 418.504C1141.06 418.595 1140.99 418.706 1140.94 418.829C1140.9 418.952 1140.88 419.084 1140.89 419.215C1140.91 419.413 1140.99 419.598 1141.12 419.742C1141.26 419.887 1141.43 419.98 1141.62 420.009C1142.23 420.078 1142.79 420.376 1143.2 420.846C1143.62 421.316 1143.85 421.927 1143.86 422.563L1145.49 422.383Z" fill="#C7D9FF"/>
<path d="M1176.08 459.268L1175.05 457.717C1176.49 456.69 1177.75 455.41 1178.76 453.934L1178.94 453.669C1179.82 452.386 1180.5 450.97 1180.97 449.47L1182.7 450.057C1182.17 451.745 1181.41 453.339 1180.42 454.785L1180.25 455.041C1179.11 456.691 1177.7 458.122 1176.08 459.268Z" fill="#C7D9FF"/>
<path d="M1183.13 451.986L1147.02 431.623L1153.3 422.373L1161.49 420.416L1177.15 427.566C1179.08 428.657 1180.77 430.141 1182.12 431.929C1183.48 433.717 1184.47 435.772 1185.04 437.97C1186.25 442.413 1185.72 447.17 1183.57 451.211L1183.13 451.986ZM1149.69 430.98L1182.39 449.414C1183.95 446.002 1184.27 442.12 1183.3 438.48C1182.8 436.531 1181.93 434.706 1180.74 433.115C1179.55 431.524 1178.06 430.2 1176.36 429.221L1161.33 422.402L1154.4 424.057L1149.69 430.98Z" fill="#C7D9FF"/>
<path d="M1165.7 465.729C1163.54 465.738 1161.4 465.301 1159.4 464.442C1157.4 463.583 1155.59 462.32 1154.07 460.726L1142.11 447.116L1141.95 439.086L1148.23 429.855L1178.25 459.912L1177.59 460.593C1174.43 463.869 1170.16 465.715 1165.7 465.729ZM1143.92 446.369L1155.38 459.43C1160.76 465.048 1169.85 465.199 1175.67 459.912L1148.49 432.749L1143.78 439.672L1143.92 446.369Z" fill="#C7D9FF"/>
<path d="M1139.32 430.582C1138.35 430.787 1137.34 430.625 1136.47 430.126C1135.61 429.627 1134.94 428.823 1134.59 427.859C1134.54 427.75 1134.51 427.631 1134.51 427.509C1134.5 427.388 1134.52 427.266 1134.56 427.152C1134.6 427.038 1134.66 426.934 1134.75 426.847C1134.83 426.76 1134.93 426.692 1135.04 426.647C1135.14 426.601 1135.26 426.58 1135.38 426.584C1135.49 426.588 1135.61 426.617 1135.72 426.67C1135.82 426.722 1135.92 426.797 1135.99 426.889C1136.07 426.982 1136.13 427.09 1136.16 427.206C1136.37 427.805 1136.78 428.303 1137.32 428.606C1137.86 428.909 1138.49 428.997 1139.09 428.852L1139.32 430.582Z" fill="#C7D9FF"/>
<path d="M330.562 848.116L334.502 800.902L346.523 827.573L330.562 848.116ZM335.73 808.081L332.891 842.129L344.384 827.309L335.73 808.081Z" fill="#C7D9FF"/>
<path d="M435.617 691.431L396.542 678.729L393.685 659.047L435.617 691.431ZM398.171 677.244L425.916 686.267L396.142 663.274L398.171 677.244Z" fill="#C7D9FF"/>
<path d="M171.102 937.343L166.998 932.945L167.481 928.784L162.63 927.63L163.832 934.137L169.983 938.572L171.102 937.343Z" fill="#C7D9FF"/>
<path d="M150.901 925.294L156.206 921.965L152.621 917.992L147.898 922.778L149.172 932.737L150.701 932.548L150.901 925.294Z" fill="#C7D9FF"/>
<path d="M145.86 910.436L140.592 911.874L138.626 914.115L133.012 913.056L132.502 914.654L138.917 915.997L148.918 914.134L145.86 910.436Z" fill="#C7D9FF"/>
<path d="M198.966 900.56L191.759 894.092L183.479 895.435L186.773 900.825L191.796 898.527L198.047 901.724L198.966 900.56Z" fill="#C7D9FF"/>
<path d="M185.235 881.285L184.507 879.886L176.144 882.458L172.022 889.381L177.364 891.764L178.947 886.09L185.235 881.285Z" fill="#C7D9FF"/>
<path d="M167.327 886.989L166.071 878.146L162.931 871.289L161.457 871.932L163.514 877.748L161.985 881.617L162.467 886.071L167.327 886.989Z" fill="#C7D9FF"/>
<path d="M146.515 905.244L145.769 904.705C143.532 903.057 142.016 900.554 141.552 897.746C141.088 894.937 141.714 892.052 143.294 889.723L143.394 889.572C144.978 887.245 147.386 885.667 150.089 885.185C152.791 884.703 155.568 885.355 157.808 886.999L158.545 887.538L146.515 905.244ZM151.857 886.924C150.486 886.923 149.136 887.267 147.921 887.926C146.705 888.585 145.661 889.539 144.877 890.707L144.777 890.858C143.569 892.645 143.037 894.831 143.282 897C143.527 899.169 144.532 901.167 146.106 902.614L155.988 888.078C154.728 887.334 153.306 886.937 151.857 886.924Z" fill="#C7D9FF"/>
<path d="M148.918 886.933C148.876 885.911 148.488 884.937 147.821 884.185C147.155 883.432 146.254 882.948 145.278 882.819C145.152 882.802 145.025 882.814 144.904 882.855C144.784 882.895 144.674 882.963 144.582 883.054C144.49 883.145 144.419 883.256 144.374 883.379C144.329 883.502 144.312 883.634 144.322 883.765C144.341 883.963 144.422 884.149 144.554 884.293C144.686 884.437 144.861 884.531 145.05 884.559C145.659 884.628 146.222 884.926 146.634 885.396C147.046 885.866 147.279 886.477 147.289 887.113L148.918 886.933Z" fill="#C7D9FF"/>
<path d="M179.511 923.818L178.483 922.267C179.922 921.24 181.179 919.96 182.196 918.484L182.369 918.22C183.248 916.936 183.933 915.52 184.398 914.021L186.127 914.607C185.605 916.295 184.838 917.89 183.852 919.336L183.679 919.591C182.537 921.241 181.127 922.672 179.511 923.818Z" fill="#C7D9FF"/>
<path d="M186.564 916.537L150.456 896.174L156.735 886.924L164.925 884.966L180.585 892.116C182.508 893.207 184.198 894.692 185.553 896.48C186.909 898.268 187.903 900.322 188.475 902.52C189.677 906.963 189.147 911.72 187.001 915.761L186.564 916.537ZM153.122 895.53L185.818 913.964C187.379 910.553 187.702 906.67 186.728 903.031C186.231 901.081 185.361 899.257 184.17 897.666C182.978 896.074 181.49 894.75 179.794 893.771L164.761 886.952L157.836 888.607L153.122 895.53Z" fill="#C7D9FF"/>
<path d="M169.128 930.279C166.967 930.289 164.826 929.851 162.829 928.992C160.833 928.133 159.021 926.87 157.498 925.276L145.541 911.666L145.377 903.636L151.656 894.405L181.685 924.463L181.021 925.144C177.864 928.419 173.589 930.265 169.128 930.279ZM147.352 910.919L158.809 923.98C164.187 929.598 173.277 929.75 179.101 924.463L151.92 897.299L147.216 904.223L147.352 910.919Z" fill="#C7D9FF"/>
<path d="M142.748 895.133C141.778 895.337 140.769 895.175 139.904 894.676C139.038 894.177 138.372 893.373 138.026 892.409C137.973 892.3 137.942 892.181 137.936 892.06C137.93 891.938 137.948 891.816 137.99 891.702C138.031 891.588 138.095 891.485 138.177 891.398C138.259 891.311 138.357 891.242 138.466 891.197C138.575 891.152 138.692 891.13 138.809 891.134C138.926 891.138 139.041 891.167 139.147 891.22C139.252 891.273 139.346 891.347 139.423 891.44C139.499 891.532 139.556 891.64 139.591 891.756C139.801 892.355 140.216 892.853 140.756 893.157C141.295 893.46 141.923 893.547 142.521 893.402L142.748 895.133Z" fill="#C7D9FF"/>
<path d="M0.216309 598.598L26.7784 573.326L42.1206 580.183L0.216309 598.598ZM27.1333 575.549L9.23418 592.573L37.4434 580.155L27.1333 575.549Z" fill="#C7D9FF"/>
<path d="M213.532 672.285L180.336 645.443L211.567 656.377L213.532 672.285ZM189.928 650.815L211.166 667.972L209.901 657.814L189.928 650.815Z" fill="#C7D9FF"/>
<path d="M141.399 601.851L136.813 604.84L133.309 603.582L131.389 607.895L137.24 608.027L142.245 603.119L141.399 601.851Z" fill="#C7D9FF"/>
<path d="M127.122 618.392L125.265 612.813L121.143 615.394L124.373 620.719L133.228 621.437L133.346 619.972L127.122 618.392Z" fill="#C7D9FF"/>
<path d="M113.318 620.256L113.554 625.448L115.119 627.709L113.126 632.75L114.4 633.535L116.794 627.803L117.103 618.109L113.318 620.256Z" fill="#C7D9FF"/>
<path d="M114.955 568.795L107.985 574.29L107.557 582.272L112.844 580.229L111.825 575.103L115.784 569.882L114.955 568.795Z" fill="#C7D9FF"/>
<path d="M95.6729 577.932L94.3262 578.338L94.9449 586.633L100.132 591.806L103.217 587.276L98.6212 584.713L95.6729 577.932Z" fill="#C7D9FF"/>
<path d="M97.1747 595.732L89.2852 595.221L82.7607 596.829L83.0337 598.332L88.4572 597.529L91.5056 599.694L95.4458 600.091L97.1747 595.732Z" fill="#C7D9FF"/>
<path d="M101.907 621.93C100.586 621.933 99.2789 621.651 98.0682 621.102C96.8575 620.554 95.7694 619.75 94.8726 618.743L94.7634 618.62C93.0446 616.68 92.1359 614.112 92.2366 611.477C92.3372 608.842 93.4389 606.357 95.3002 604.565L95.9736 603.922L109.068 618.657L108.395 619.301C106.627 620.994 104.311 621.933 101.907 621.93ZM95.9008 606.665C94.673 608.166 94.0157 610.083 94.0526 612.053C94.0894 614.023 94.818 615.911 96.101 617.362L96.2102 617.485C97.4996 618.931 99.254 619.836 101.142 620.029C103.03 620.223 104.92 619.691 106.456 618.535L95.9008 606.665Z" fill="#C7D9FF"/>
<path d="M93.5987 612.907C92.7016 612.747 91.7792 612.927 90.9982 613.412C90.2171 613.898 89.629 614.658 89.3401 615.555C89.301 615.655 89.2819 615.763 89.2838 615.871C89.2858 615.98 89.3089 616.087 89.3516 616.186C89.3943 616.284 89.4559 616.373 89.5325 616.447C89.6092 616.52 89.6994 616.577 89.7976 616.613C89.8959 616.65 90.0002 616.665 90.1043 616.659C90.2084 616.652 90.3102 616.624 90.4035 616.575C90.4967 616.526 90.5796 616.459 90.6471 616.376C90.7145 616.293 90.7652 616.197 90.7961 616.094C90.9753 615.541 91.3415 615.074 91.8268 614.78C92.312 614.486 92.8834 614.385 93.4349 614.496L93.5987 612.907Z" fill="#C7D9FF"/>
<path d="M129.734 592.109C129.113 590.57 128.238 589.156 127.149 587.929L126.958 587.711C126.017 586.656 124.928 585.753 123.728 585.035L124.638 583.399C125.99 584.217 127.217 585.24 128.278 586.435L128.469 586.652C129.704 588.037 130.693 589.638 131.39 591.381L129.734 592.109Z" fill="#C7D9FF"/>
<path d="M101.879 613.361L95.0175 605.634L94.8901 597.566L104.044 584.325C105.366 582.727 106.987 581.425 108.807 580.498C110.628 579.571 112.612 579.039 114.637 578.934C118.708 578.666 122.718 580.073 125.802 582.85L126.484 583.464L101.879 613.361ZM96.8193 604.849L101.824 610.524L123.909 583.663C121.279 581.61 118.028 580.603 114.746 580.826C112.972 580.925 111.236 581.394 109.641 582.207C108.046 583.019 106.626 584.158 105.464 585.555L96.7191 598.153L96.8193 604.849Z" fill="#C7D9FF"/>
<path d="M114.328 620.851L107.312 619.451L100.469 611.743L132.318 589.337L132.818 590.151C135.051 593.695 135.841 598.016 135.014 602.165C134.186 606.313 131.81 609.952 128.405 612.282L114.328 620.851ZM108.249 617.711L114 618.855L127.459 610.674C133.282 606.778 135.157 598.379 131.772 592.004L103.244 612.084L108.249 617.711Z" fill="#C7D9FF"/>
<path d="M99.5041 620.227C99.4945 621.175 99.1604 622.087 98.5616 622.801C97.9629 623.515 97.1387 623.984 96.2373 624.124C96.0345 624.159 95.8267 624.109 95.6595 623.985C95.4922 623.861 95.3793 623.673 95.3455 623.462C95.3117 623.251 95.3598 623.035 95.4793 622.861C95.5988 622.688 95.7797 622.57 95.9824 622.535C96.5386 622.448 97.0458 622.155 97.4104 621.71C97.7751 621.265 97.9725 620.698 97.9662 620.114L99.5041 620.227Z" fill="#C7D9FF"/>
<path d="M0.216309 598.598L26.7784 573.326L42.1206 580.183L0.216309 598.598ZM27.1333 575.549L9.23418 592.573L37.4434 580.155L27.1333 575.549Z" fill="#C7D9FF"/>
<path d="M213.532 672.285L180.336 645.443L211.567 656.377L213.532 672.285ZM189.928 650.815L211.166 667.972L209.901 657.814L189.928 650.815Z" fill="#C7D9FF"/>
<path d="M141.399 601.851L136.813 604.84L133.309 603.582L131.389 607.895L137.24 608.027L142.245 603.119L141.399 601.851Z" fill="#C7D9FF"/>
<path d="M127.122 618.392L125.265 612.813L121.143 615.394L124.373 620.719L133.228 621.437L133.346 619.972L127.122 618.392Z" fill="#C7D9FF"/>
<path d="M113.318 620.256L113.554 625.448L115.119 627.709L113.126 632.75L114.4 633.535L116.794 627.803L117.103 618.109L113.318 620.256Z" fill="#C7D9FF"/>
<path d="M114.955 568.795L107.985 574.29L107.557 582.272L112.844 580.229L111.825 575.103L115.784 569.882L114.955 568.795Z" fill="#C7D9FF"/>
<path d="M95.6729 577.932L94.3262 578.338L94.9449 586.633L100.132 591.806L103.217 587.276L98.6212 584.713L95.6729 577.932Z" fill="#C7D9FF"/>
<path d="M97.1747 595.732L89.2852 595.221L82.7607 596.829L83.0337 598.332L88.4572 597.529L91.5056 599.694L95.4458 600.091L97.1747 595.732Z" fill="#C7D9FF"/>
<path d="M101.907 621.93C100.586 621.933 99.2789 621.651 98.0682 621.102C96.8575 620.554 95.7694 619.75 94.8726 618.743L94.7634 618.62C93.0446 616.68 92.1359 614.112 92.2366 611.477C92.3372 608.842 93.4389 606.357 95.3002 604.565L95.9736 603.922L109.068 618.657L108.395 619.301C106.627 620.994 104.311 621.933 101.907 621.93ZM95.9008 606.665C94.673 608.166 94.0157 610.083 94.0526 612.053C94.0894 614.023 94.818 615.911 96.101 617.362L96.2102 617.485C97.4996 618.931 99.254 619.836 101.142 620.029C103.03 620.223 104.92 619.691 106.456 618.535L95.9008 606.665Z" fill="#C7D9FF"/>
<path d="M93.5987 612.907C92.7016 612.747 91.7792 612.927 90.9982 613.412C90.2171 613.898 89.629 614.658 89.3401 615.555C89.301 615.655 89.2819 615.763 89.2838 615.871C89.2858 615.98 89.3089 616.087 89.3516 616.186C89.3943 616.284 89.4559 616.373 89.5325 616.447C89.6092 616.52 89.6994 616.577 89.7976 616.613C89.8959 616.65 90.0002 616.665 90.1043 616.659C90.2084 616.652 90.3102 616.624 90.4035 616.575C90.4967 616.526 90.5796 616.459 90.6471 616.376C90.7145 616.293 90.7652 616.197 90.7961 616.094C90.9753 615.541 91.3415 615.074 91.8268 614.78C92.312 614.486 92.8834 614.385 93.4349 614.496L93.5987 612.907Z" fill="#C7D9FF"/>
<path d="M129.734 592.109C129.113 590.57 128.238 589.156 127.149 587.929L126.958 587.711C126.017 586.656 124.928 585.753 123.728 585.035L124.638 583.399C125.99 584.217 127.217 585.24 128.278 586.435L128.469 586.652C129.704 588.037 130.693 589.638 131.39 591.381L129.734 592.109Z" fill="#C7D9FF"/>
<path d="M101.879 613.361L95.0175 605.634L94.8901 597.566L104.044 584.325C105.366 582.727 106.987 581.425 108.807 580.498C110.628 579.571 112.612 579.039 114.637 578.934C118.708 578.666 122.718 580.073 125.802 582.85L126.484 583.464L101.879 613.361ZM96.8193 604.849L101.824 610.524L123.909 583.663C121.279 581.61 118.028 580.603 114.746 580.826C112.972 580.925 111.236 581.394 109.641 582.207C108.046 583.019 106.626 584.158 105.464 585.555L96.7191 598.153L96.8193 604.849Z" fill="#C7D9FF"/>
<path d="M114.328 620.851L107.312 619.451L100.469 611.743L132.318 589.337L132.818 590.151C135.051 593.695 135.841 598.016 135.014 602.165C134.186 606.313 131.81 609.952 128.405 612.282L114.328 620.851ZM108.249 617.711L114 618.855L127.459 610.674C133.282 606.778 135.157 598.379 131.772 592.004L103.244 612.084L108.249 617.711Z" fill="#C7D9FF"/>
<path d="M99.5041 620.227C99.4945 621.175 99.1604 622.087 98.5616 622.801C97.9629 623.515 97.1387 623.984 96.2373 624.124C96.0345 624.159 95.8267 624.109 95.6595 623.985C95.4922 623.861 95.3793 623.673 95.3455 623.462C95.3117 623.251 95.3598 623.035 95.4793 622.861C95.5988 622.688 95.7797 622.57 95.9824 622.535C96.5386 622.448 97.0458 622.155 97.4104 621.71C97.7751 621.265 97.9725 620.698 97.9662 620.114L99.5041 620.227Z" fill="#C7D9FF"/>
<path d="M890.255 116.722L916.817 91.4499L932.159 98.3069L890.255 116.722ZM917.172 93.6725L899.273 110.697L927.482 98.2786L917.172 93.6725Z" fill="#C7D9FF"/>
<path d="M1103.57 190.409L1070.38 163.567L1101.61 174.501L1103.57 190.409ZM1079.97 168.939L1101.2 186.096L1099.94 175.938L1079.97 168.939Z" fill="#C7D9FF"/>
<path d="M1031.44 119.975L1026.85 122.964L1023.35 121.706L1021.43 126.019L1027.28 126.151L1032.28 121.243L1031.44 119.975Z" fill="#C7D9FF"/>
<path d="M1017.16 136.516L1015.3 130.937L1011.18 133.518L1014.41 138.843L1023.27 139.561L1023.38 138.096L1017.16 136.516Z" fill="#C7D9FF"/>
<path d="M1003.36 138.38L1003.59 143.572L1005.16 145.833L1003.16 150.874L1004.44 151.659L1006.83 145.927L1007.14 136.233L1003.36 138.38Z" fill="#C7D9FF"/>
<path d="M1004.99 86.9185L998.024 92.4136L997.596 100.396L1002.88 98.3531L1001.86 93.2269L1005.82 88.0062L1004.99 86.9185Z" fill="#C7D9FF"/>
<path d="M985.711 96.0555L984.365 96.4622L984.983 104.757L990.17 109.93L993.255 105.4L988.66 102.837L985.711 96.0555Z" fill="#C7D9FF"/>
<path d="M987.213 113.856L979.324 113.345L972.799 114.953L973.072 116.456L978.496 115.652L981.544 117.818L985.484 118.215L987.213 113.856Z" fill="#C7D9FF"/>
<path d="M991.945 140.054C990.625 140.057 989.318 139.775 988.107 139.226C986.896 138.678 985.808 137.874 984.911 136.867L984.802 136.744C983.083 134.804 982.175 132.236 982.275 129.601C982.376 126.966 983.478 124.481 985.339 122.689L986.012 122.046L999.107 136.781L998.434 137.425C996.666 139.118 994.349 140.057 991.945 140.054ZM985.94 124.789C984.712 126.29 984.055 128.206 984.091 130.177C984.128 132.147 984.857 134.035 986.14 135.486L986.249 135.609C987.538 137.055 989.293 137.96 991.181 138.153C993.068 138.347 994.959 137.815 996.495 136.658L985.94 124.789Z" fill="#C7D9FF"/>
<path d="M983.637 131.031C982.74 130.871 981.818 131.051 981.037 131.536C980.255 132.022 979.667 132.782 979.378 133.679C979.339 133.779 979.32 133.887 979.322 133.995C979.324 134.104 979.347 134.211 979.39 134.31C979.433 134.408 979.494 134.497 979.571 134.571C979.648 134.644 979.738 134.701 979.836 134.737C979.934 134.774 980.039 134.789 980.143 134.783C980.247 134.776 980.349 134.748 980.442 134.699C980.535 134.65 980.618 134.583 980.685 134.5C980.753 134.417 980.804 134.321 980.834 134.218C981.014 133.665 981.38 133.198 981.865 132.904C982.35 132.61 982.922 132.509 983.473 132.62L983.637 131.031Z" fill="#C7D9FF"/>
<path d="M1019.77 110.233C1019.15 108.694 1018.28 107.279 1017.19 106.053L1017 105.835C1016.06 104.78 1014.97 103.877 1013.77 103.159L1014.68 101.523C1016.03 102.341 1017.26 103.364 1018.32 104.558L1018.51 104.776C1019.74 106.161 1020.73 107.761 1021.43 109.505L1019.77 110.233Z" fill="#C7D9FF"/>
<path d="M991.917 131.485L985.056 123.758L984.928 115.69L994.083 102.449C995.404 100.851 997.025 99.5489 998.846 98.6221C1000.67 97.6954 1002.65 97.1632 1004.67 97.058C1008.75 96.7904 1012.76 98.1967 1015.84 100.974L1016.52 101.588L991.917 131.485ZM986.858 122.973L991.862 128.648L1013.95 101.787C1011.32 99.7338 1008.07 98.7273 1004.78 98.9496C1003.01 99.0485 1001.27 99.5183 999.679 100.331C998.085 101.143 996.664 102.282 995.502 103.679L986.757 116.277L986.858 122.973Z" fill="#C7D9FF"/>
<path d="M1004.37 138.975L997.351 137.575L990.508 129.867L1022.36 107.461L1022.86 108.274C1025.09 111.819 1025.88 116.14 1025.05 120.289C1024.22 124.437 1021.85 128.076 1018.44 130.406L1004.37 138.975ZM998.288 135.835L1004.04 136.979L1017.5 128.798C1023.32 124.902 1025.2 116.503 1021.81 110.128L993.283 130.207L998.288 135.835Z" fill="#C7D9FF"/>
<path d="M989.542 138.351C989.533 139.299 989.199 140.211 988.6 140.925C988.001 141.639 987.177 142.108 986.276 142.248C986.073 142.283 985.865 142.233 985.698 142.109C985.531 141.985 985.418 141.796 985.384 141.586C985.35 141.375 985.398 141.159 985.518 140.985C985.637 140.811 985.818 140.694 986.021 140.659C986.577 140.572 987.084 140.279 987.449 139.834C987.813 139.389 988.011 138.822 988.005 138.238L989.542 138.351Z" fill="#C7D9FF"/>
<path d="M524.14 829.622L550.702 804.351L566.044 811.208L524.14 829.622ZM551.057 806.573L533.158 823.598L561.367 811.179L551.057 806.573Z" fill="#C7D9FF"/>
<path d="M737.456 903.31L704.26 876.468L735.49 887.401L737.456 903.31ZM713.851 881.84L735.09 898.997L733.825 888.839L713.851 881.84Z" fill="#C7D9FF"/>
<path d="M665.322 832.876L660.736 835.865L657.232 834.607L655.312 838.919L661.163 839.052L666.168 834.143L665.322 832.876Z" fill="#C7D9FF"/>
<path d="M651.045 849.417L649.188 843.837L645.066 846.419L648.297 851.743L657.151 852.462L657.269 850.996L651.045 849.417Z" fill="#C7D9FF"/>
<path d="M637.241 851.281L637.477 856.473L639.042 858.734L637.05 863.775L638.324 864.56L640.717 858.828L641.026 849.134L637.241 851.281Z" fill="#C7D9FF"/>
<path d="M638.879 799.819L631.908 805.314L631.48 813.297L636.767 811.254L635.748 806.128L639.707 800.907L638.879 799.819Z" fill="#C7D9FF"/>
<path d="M619.596 808.956L618.249 809.363L618.868 817.658L624.055 822.831L627.14 818.301L622.544 815.738L619.596 808.956Z" fill="#C7D9FF"/>
<path d="M621.098 826.756L613.208 826.246L606.684 827.853L606.957 829.357L612.38 828.553L615.429 830.719L619.369 831.116L621.098 826.756Z" fill="#C7D9FF"/>
<path d="M625.83 852.955C624.509 852.958 623.202 852.676 621.991 852.127C620.781 851.579 619.693 850.775 618.796 849.767L618.686 849.644C616.968 847.705 616.059 845.136 616.16 842.502C616.26 839.867 617.362 837.382 619.223 835.59L619.897 834.947L632.991 849.682L632.318 850.325C630.55 852.019 628.234 852.958 625.83 852.955ZM619.824 837.69C618.596 839.191 617.939 841.107 617.976 843.077C618.013 845.048 618.741 846.936 620.024 848.387L620.133 848.509C621.423 849.956 623.177 850.861 625.065 851.054C626.953 851.248 628.843 850.716 630.38 849.559L619.824 837.69Z" fill="#C7D9FF"/>
<path d="M617.522 843.932C616.625 843.772 615.702 843.951 614.921 844.437C614.14 844.923 613.552 845.683 613.263 846.58C613.224 846.68 613.205 846.788 613.207 846.896C613.209 847.005 613.232 847.111 613.275 847.21C613.317 847.309 613.379 847.398 613.456 847.472C613.532 847.545 613.622 847.602 613.721 847.638C613.819 847.675 613.923 847.69 614.027 847.683C614.132 847.677 614.233 847.648 614.327 847.6C614.42 847.551 614.503 847.484 614.57 847.401C614.638 847.318 614.688 847.222 614.719 847.119C614.898 846.566 615.265 846.099 615.75 845.805C616.235 845.511 616.807 845.41 617.358 845.52L617.522 843.932Z" fill="#C7D9FF"/>
<path d="M653.657 823.134C653.036 821.595 652.161 820.18 651.073 818.954L650.882 818.736C649.94 817.68 648.851 816.778 647.651 816.06L648.561 814.424C649.913 815.241 651.14 816.265 652.201 817.459L652.392 817.677C653.627 819.061 654.616 820.662 655.313 822.405L653.657 823.134Z" fill="#C7D9FF"/>
<path d="M625.802 844.386L618.941 836.659L618.813 828.591L627.968 815.35C629.289 813.752 630.91 812.45 632.731 811.523C634.551 810.596 636.535 810.064 638.56 809.959C642.632 809.691 646.642 811.097 649.725 813.874L650.408 814.489L625.802 844.386ZM620.742 835.874L625.747 841.548L647.832 814.688C645.202 812.635 641.951 811.628 638.669 811.85C636.895 811.949 635.159 812.419 633.564 813.232C631.969 814.044 630.549 815.183 629.387 816.579L620.642 829.177L620.742 835.874Z" fill="#C7D9FF"/>
<path d="M638.251 851.876L631.235 850.476L624.392 842.768L656.241 820.362L656.741 821.175C658.975 824.72 659.764 829.04 658.937 833.189C658.109 837.338 655.733 840.977 652.328 843.307L638.251 851.876ZM632.172 848.736L637.923 849.88L651.382 841.699C657.206 837.802 659.08 829.404 655.695 823.029L627.167 843.108L632.172 848.736Z" fill="#C7D9FF"/>
<path d="M623.427 851.252C623.418 852.199 623.083 853.112 622.485 853.826C621.886 854.54 621.062 855.009 620.16 855.148C619.958 855.184 619.75 855.134 619.583 855.009C619.415 854.885 619.302 854.697 619.269 854.486C619.235 854.276 619.283 854.06 619.402 853.886C619.522 853.712 619.703 853.595 619.906 853.56C620.462 853.473 620.969 853.18 621.334 852.735C621.698 852.29 621.896 851.723 621.889 851.139L623.427 851.252Z" fill="#C7D9FF"/>
<path d="M20.2056 325.523L60.2899 350.246L63.0471 346.917L57.833 337.308L89.4728 354.209L50.3712 326.242L47.4138 329.846L49.3793 335.974L20.2056 325.523Z" fill="#C7D9FF"/>
<path d="M171.701 457.863L177.662 439.164L238.257 418.65L171.701 457.863ZM179.072 440.668L174.932 453.796L221.641 426.216L179.072 440.668Z" fill="#C7D9FF"/>
<path d="M230.025 256.046L200.187 246.342L198.003 231.314L230.025 256.046ZM201.816 244.895L220.325 250.911L200.46 235.57L201.816 244.895Z" fill="#C7D9FF"/>
<path d="M214.005 111.606L209.709 68.0995L223.687 99.1405L214.005 111.606ZM212.612 79.0329L215.342 106.839L221.539 98.8662L212.612 79.0329Z" fill="#C7D9FF"/>
<path d="M144.236 65.6793L147.121 69.6986L146.302 73.0181L150.124 74.4839L149.814 69.0744L145.265 64.7998L144.236 65.6793Z" fill="#C7D9FF"/>
<path d="M159.405 77.6617L154.764 79.7801L157.267 83.3928L161.589 80.0355L161.562 71.8172L160.297 71.7983L159.405 77.6617Z" fill="#C7D9FF"/>
<path d="M161.981 90.2691L166.412 89.6827L168.223 88.075L172.673 89.5503L173.255 88.3114L168.187 86.5146L159.879 86.9307L161.981 90.2691Z" fill="#C7D9FF"/>
<path d="M117.902 92.4642L123.098 98.5073L129.95 98.3182L127.82 93.5896L123.516 94.8947L118.775 91.6225L117.902 92.4642Z" fill="#C7D9FF"/>
<path d="M127.093 109.61L127.538 110.821L134.582 109.648L138.631 104.485L134.536 101.969L132.68 106.395L127.093 109.61Z" fill="#C7D9FF"/>
<path d="M142.189 106.944L142.326 114.255L144.173 120.157L145.429 119.798L144.355 114.851L145.993 111.881L146.038 108.221L142.189 106.944Z" fill="#C7D9FF"/>
<path d="M155.638 110.472C153.476 110.476 151.393 109.631 149.805 108.107L149.14 107.464L160.897 94.166L161.571 94.8092C163.25 96.4214 164.245 98.6598 164.339 101.034C164.433 103.408 163.617 105.723 162.071 107.473L161.971 107.587C161.204 108.449 160.279 109.144 159.252 109.631C158.224 110.118 157.113 110.388 155.983 110.424L155.638 110.472ZM151.798 107.313C153.149 108.287 154.794 108.721 156.429 108.535C158.064 108.349 159.58 107.556 160.697 106.301L160.797 106.187C161.91 104.926 162.546 103.289 162.588 101.578C162.63 99.8673 162.075 98.1986 161.025 96.8805L151.798 107.313Z" fill="#C7D9FF"/>
<path d="M157.122 108.997C157.043 109.844 157.26 110.692 157.732 111.386C158.205 112.08 158.902 112.575 159.697 112.78C159.787 112.816 159.884 112.832 159.981 112.827C160.078 112.822 160.173 112.796 160.26 112.75C160.346 112.704 160.422 112.64 160.483 112.562C160.545 112.483 160.589 112.392 160.614 112.295C160.639 112.197 160.644 112.096 160.629 111.996C160.614 111.896 160.578 111.801 160.525 111.717C160.472 111.632 160.402 111.56 160.321 111.506C160.239 111.451 160.148 111.415 160.052 111.399C159.566 111.272 159.14 110.966 158.854 110.539C158.568 110.111 158.441 109.59 158.496 109.073L157.122 108.997Z" fill="#C7D9FF"/>
<path d="M131.233 83.2514L129.586 82.4476C130.19 81.1247 130.981 79.9037 131.934 78.8255L132.107 78.6364C133.209 77.3864 134.515 76.349 135.965 75.5722L136.802 77.2556C135.538 77.9279 134.401 78.8313 133.444 79.9225L133.272 80.1117C132.443 81.0451 131.756 82.1038 131.233 83.2514Z" fill="#C7D9FF"/>
<path d="M143.9 109.024L131.87 101.534C130.392 100.423 129.146 99.0121 128.207 97.3865C127.269 95.7608 126.657 93.9542 126.41 92.0758C125.901 88.2882 126.85 84.4449 129.049 81.3789L129.586 80.6223L157.103 101.307L150.888 108.315L143.9 109.024ZM129.959 83.2799C128.431 85.8152 127.819 88.8314 128.23 91.7921C128.435 93.4049 128.951 94.9582 129.746 96.359C130.542 97.7599 131.602 98.9795 132.862 99.9449L144.3 107.086L149.969 106.509L154.319 101.6L129.959 83.2799Z" fill="#C7D9FF"/>
<path d="M155.656 102.906L134.072 74.9386L134.809 74.3428C137.723 72.0427 141.389 71.0238 145.019 71.5054C146.816 71.7106 148.555 72.2925 150.13 73.2158C151.705 74.1392 153.083 75.3848 154.182 76.8775L162.536 89.239L161.844 95.8596L155.656 102.906ZM136.683 75.2886L155.793 100.002L160.142 95.0935L160.697 89.7687L152.708 77.9652C150.827 75.5403 148.149 73.9251 145.19 73.4309C142.231 72.9367 139.201 73.5984 136.683 75.2886Z" fill="#C7D9FF"/>
<path d="M162.954 103.028C163.763 102.969 164.565 103.211 165.219 103.71C165.872 104.209 166.334 104.932 166.521 105.752C166.548 105.856 166.551 105.964 166.531 106.069C166.511 106.175 166.468 106.274 166.406 106.359C166.344 106.445 166.264 106.515 166.172 106.563C166.08 106.612 165.979 106.639 165.875 106.641C165.719 106.65 165.564 106.602 165.438 106.506C165.312 106.409 165.222 106.269 165.184 106.111C165.071 105.604 164.785 105.156 164.378 104.851C163.971 104.547 163.472 104.406 162.973 104.456L162.954 103.028Z" fill="#C7D9FF"/>
<path d="M1031.23 832.586L1071.31 857.309L1074.07 853.98L1068.86 844.371L1100.5 861.272L1061.4 833.305L1058.44 836.908L1060.4 843.037L1031.23 832.586Z" fill="#C7D9FF"/>
<path d="M1119.99 1017.47L1125.95 998.772L1186.54 978.258L1119.99 1017.47ZM1127.36 1000.28L1123.22 1013.4L1169.93 985.825L1127.36 1000.28Z" fill="#C7D9FF"/>
<path d="M1070.71 965.519L1040.88 955.815L1038.69 940.787L1070.71 965.519ZM1042.5 954.368L1061.01 960.383L1041.15 945.043L1042.5 954.368Z" fill="#C7D9FF"/>
<path d="M1230.01 830.382L1225.72 786.876L1239.7 817.917L1230.01 830.382ZM1228.62 797.809L1231.35 825.616L1237.55 817.642L1228.62 797.809Z" fill="#C7D9FF"/>
<path d="M1010.22 692.412L1013.11 696.431L1012.29 699.751L1016.11 701.217L1015.8 695.807L1011.25 691.533L1010.22 692.412Z" fill="#C7D9FF"/>
<path d="M1025.39 704.394L1020.75 706.513L1023.25 710.125L1027.58 706.768L1027.55 698.55L1026.28 698.531L1025.39 704.394Z" fill="#C7D9FF"/>
<path d="M1027.97 717.002L1032.4 716.415L1034.21 714.808L1038.66 716.283L1039.24 715.044L1034.17 713.247L1025.87 713.663L1027.97 717.002Z" fill="#C7D9FF"/>
<path d="M983.888 719.197L989.084 725.24L995.936 725.051L993.806 720.322L989.502 721.627L984.761 718.355L983.888 719.197Z" fill="#C7D9FF"/>
<path d="M993.079 736.343L993.524 737.553L1000.57 736.381L1004.62 731.217L1000.52 728.702L998.666 733.127L993.079 736.343Z" fill="#C7D9FF"/>
<path d="M1008.18 733.677L1008.31 740.988L1010.16 746.89L1011.41 746.53L1010.34 741.584L1011.98 738.614L1012.02 734.954L1008.18 733.677Z" fill="#C7D9FF"/>
<path d="M1021.62 737.204C1019.46 737.208 1017.38 736.364 1015.79 734.84L1015.13 734.196L1026.88 720.899L1027.56 721.542C1029.24 723.154 1030.23 725.392 1030.33 727.766C1030.42 730.14 1029.6 732.456 1028.06 734.206L1027.96 734.319C1027.19 735.181 1026.27 735.876 1025.24 736.363C1024.21 736.85 1023.1 737.12 1021.97 737.157L1021.62 737.204ZM1017.78 734.045C1019.14 735.019 1020.78 735.454 1022.42 735.268C1024.05 735.082 1025.57 734.288 1026.68 733.033L1026.78 732.92C1027.9 731.659 1028.53 730.021 1028.57 728.311C1028.62 726.6 1028.06 724.931 1027.01 723.613L1017.78 734.045Z" fill="#C7D9FF"/>
<path d="M1023.11 735.73C1023.03 736.576 1023.25 737.424 1023.72 738.119C1024.19 738.813 1024.89 739.308 1025.68 739.512C1025.77 739.549 1025.87 739.565 1025.97 739.56C1026.06 739.555 1026.16 739.528 1026.25 739.483C1026.33 739.437 1026.41 739.373 1026.47 739.294C1026.53 739.216 1026.58 739.125 1026.6 739.028C1026.63 738.93 1026.63 738.828 1026.62 738.729C1026.6 738.629 1026.56 738.534 1026.51 738.449C1026.46 738.365 1026.39 738.293 1026.31 738.238C1026.23 738.183 1026.13 738.147 1026.04 738.132C1025.55 738.005 1025.13 737.699 1024.84 737.271C1024.55 736.844 1024.43 736.323 1024.48 735.805L1023.11 735.73Z" fill="#C7D9FF"/>
<path d="M997.219 709.984L995.572 709.18C996.176 707.857 996.967 706.636 997.92 705.558L998.093 705.369C999.195 704.119 1000.5 703.082 1001.95 702.305L1002.79 703.988C1001.52 704.66 1000.39 705.564 999.431 706.655L999.258 706.844C998.429 707.778 997.742 708.836 997.219 709.984Z" fill="#C7D9FF"/>
<path d="M1009.89 735.757L997.856 728.266C996.378 727.156 995.132 725.745 994.194 724.119C993.255 722.493 992.644 720.687 992.396 718.808C991.888 715.021 992.836 711.177 995.035 708.111L995.572 707.355L1023.09 728.039L1016.87 735.048L1009.89 735.757ZM995.945 710.012C994.418 712.548 993.805 715.564 994.216 718.525C994.421 720.137 994.937 721.691 995.733 723.092C996.529 724.492 997.588 725.712 998.848 726.677L1010.29 733.818L1015.96 733.241L1020.31 728.333L995.945 710.012Z" fill="#C7D9FF"/>
<path d="M1021.64 729.638L1000.06 701.671L1000.8 701.075C1003.71 698.775 1007.38 697.756 1011.01 698.238C1012.8 698.443 1014.54 699.025 1016.12 699.948C1017.69 700.872 1019.07 702.117 1020.17 703.61L1028.52 715.972L1027.83 722.592L1021.64 729.638ZM1002.67 702.021L1021.78 726.735L1026.13 721.826L1026.68 716.501L1018.69 704.698C1016.81 702.273 1014.14 700.658 1011.18 700.163C1008.22 699.669 1005.19 700.331 1002.67 702.021Z" fill="#C7D9FF"/>
<path d="M1028.94 729.761C1029.75 729.702 1030.55 729.944 1031.2 730.442C1031.86 730.941 1032.32 731.665 1032.51 732.484C1032.53 732.588 1032.54 732.697 1032.52 732.802C1032.5 732.907 1032.45 733.006 1032.39 733.092C1032.33 733.177 1032.25 733.247 1032.16 733.296C1032.07 733.345 1031.96 733.371 1031.86 733.373C1031.7 733.383 1031.55 733.335 1031.42 733.238C1031.3 733.141 1031.21 733.002 1031.17 732.844C1031.06 732.336 1030.77 731.888 1030.36 731.584C1029.96 731.279 1029.46 731.139 1028.96 731.189L1028.94 729.761Z" fill="#C7D9FF"/>
<path d="M1487.65 847.997L1447.57 823.274L1444.81 826.603L1450.03 836.212L1418.39 819.311L1457.49 847.278L1460.45 843.675L1458.48 837.546L1487.65 847.997Z" fill="#C7D9FF"/>
<path d="M1594.36 685.035L1588.4 703.734L1527.8 724.248L1594.36 685.035ZM1586.98 702.23L1591.13 689.102L1544.42 716.682L1586.98 702.23Z" fill="#C7D9FF"/>
<path d="M1624.65 847.098L1654.49 856.801L1656.68 871.83L1624.65 847.098ZM1652.86 858.248L1634.36 852.233L1654.22 867.574L1652.86 858.248Z" fill="#C7D9FF"/>
<path d="M1497.5 965.498L1501.8 1009L1487.82 977.964L1497.5 965.498ZM1498.9 998.071L1496.17 970.265L1489.97 978.238L1498.9 998.071Z" fill="#C7D9FF"/>
<path d="M1625.41 1088.31L1622.53 1084.29L1623.34 1080.97L1619.52 1079.5L1619.83 1084.91L1624.38 1089.19L1625.41 1088.31Z" fill="#C7D9FF"/>
<path d="M1610.24 1076.33L1614.88 1074.21L1612.38 1070.59L1608.06 1073.95L1608.08 1082.17L1609.35 1082.19L1610.24 1076.33Z" fill="#C7D9FF"/>
<path d="M1607.66 1063.72L1603.23 1064.3L1601.42 1065.91L1596.97 1064.44L1596.39 1065.68L1601.46 1067.47L1609.77 1067.06L1607.66 1063.72Z" fill="#C7D9FF"/>
<path d="M1651.74 1061.52L1646.55 1055.48L1639.7 1055.67L1641.83 1060.4L1646.13 1059.09L1650.87 1062.37L1651.74 1061.52Z" fill="#C7D9FF"/>
<path d="M1642.55 1044.38L1642.11 1043.17L1635.07 1044.34L1631.02 1049.5L1635.11 1052.02L1636.97 1047.59L1642.55 1044.38Z" fill="#C7D9FF"/>
<path d="M1627.46 1047.04L1627.32 1039.73L1625.47 1033.83L1624.22 1034.19L1625.29 1039.14L1623.65 1042.11L1623.61 1045.77L1627.46 1047.04Z" fill="#C7D9FF"/>
<path d="M1614.01 1043.52C1616.17 1043.51 1618.25 1044.36 1619.84 1045.88L1620.51 1046.52L1608.75 1059.82L1608.08 1059.18C1606.4 1057.57 1605.4 1055.33 1605.31 1052.95C1605.21 1050.58 1606.03 1048.26 1607.57 1046.51L1607.67 1046.4C1608.44 1045.54 1609.37 1044.84 1610.39 1044.36C1611.42 1043.87 1612.53 1043.6 1613.66 1043.56L1614.01 1043.52ZM1617.85 1046.67C1616.5 1045.7 1614.85 1045.27 1613.22 1045.45C1611.58 1045.64 1610.07 1046.43 1608.95 1047.69L1608.85 1047.8C1607.74 1049.06 1607.1 1050.7 1607.06 1052.41C1607.02 1054.12 1607.57 1055.79 1608.62 1057.11L1617.85 1046.67Z" fill="#C7D9FF"/>
<path d="M1612.52 1044.99C1612.6 1044.14 1612.39 1043.3 1611.91 1042.6C1611.44 1041.91 1610.74 1041.41 1609.95 1041.21C1609.86 1041.17 1609.76 1041.16 1609.67 1041.16C1609.57 1041.17 1609.47 1041.19 1609.39 1041.24C1609.3 1041.28 1609.22 1041.35 1609.16 1041.43C1609.1 1041.5 1609.06 1041.6 1609.03 1041.69C1609.01 1041.79 1609 1041.89 1609.02 1041.99C1609.03 1042.09 1609.07 1042.19 1609.12 1042.27C1609.17 1042.36 1609.24 1042.43 1609.33 1042.48C1609.41 1042.54 1609.5 1042.57 1609.59 1042.59C1610.08 1042.72 1610.51 1043.02 1610.79 1043.45C1611.08 1043.88 1611.21 1044.4 1611.15 1044.91L1612.52 1044.99Z" fill="#C7D9FF"/>
<path d="M1638.41 1070.74L1640.06 1071.54C1639.46 1072.86 1638.67 1074.08 1637.71 1075.16L1637.54 1075.35C1636.44 1076.6 1635.13 1077.64 1633.68 1078.42L1632.84 1076.73C1634.11 1076.06 1635.25 1075.16 1636.2 1074.07L1636.38 1073.88C1637.2 1072.94 1637.89 1071.88 1638.41 1070.74Z" fill="#C7D9FF"/>
<path d="M1625.75 1044.96L1637.78 1052.45C1639.26 1053.56 1640.5 1054.98 1641.44 1056.6C1642.38 1058.23 1642.99 1060.03 1643.24 1061.91C1643.75 1065.7 1642.8 1069.54 1640.6 1072.61L1640.06 1073.37L1612.54 1052.68L1618.76 1045.67L1625.75 1044.96ZM1639.69 1070.71C1641.22 1068.17 1641.83 1065.16 1641.42 1062.2C1641.21 1060.58 1640.7 1059.03 1639.9 1057.63C1639.1 1056.23 1638.05 1055.01 1636.79 1054.04L1625.35 1046.9L1619.68 1047.48L1615.33 1052.39L1639.69 1070.71Z" fill="#C7D9FF"/>
<path d="M1613.99 1051.08L1635.57 1079.05L1634.84 1079.64C1631.92 1081.94 1628.26 1082.96 1624.63 1082.48C1622.83 1082.28 1621.09 1081.7 1619.52 1080.77C1617.94 1079.85 1616.56 1078.6 1615.46 1077.11L1607.11 1064.75L1607.8 1058.13L1613.99 1051.08ZM1632.96 1078.7L1613.85 1053.99L1609.5 1058.89L1608.95 1064.22L1616.94 1076.02C1618.82 1078.45 1621.5 1080.06 1624.46 1080.56C1627.41 1081.05 1630.44 1080.39 1632.96 1078.7Z" fill="#C7D9FF"/>
<path d="M1606.69 1050.96C1605.88 1051.02 1605.08 1050.78 1604.43 1050.28C1603.77 1049.78 1603.31 1049.06 1603.12 1048.24C1603.1 1048.13 1603.1 1048.02 1603.12 1047.92C1603.14 1047.81 1603.18 1047.71 1603.24 1047.63C1603.3 1047.54 1603.38 1047.47 1603.47 1047.42C1603.57 1047.38 1603.67 1047.35 1603.77 1047.35C1603.93 1047.34 1604.08 1047.39 1604.21 1047.48C1604.33 1047.58 1604.42 1047.72 1604.46 1047.88C1604.58 1048.38 1604.86 1048.83 1605.27 1049.14C1605.68 1049.44 1606.17 1049.58 1606.67 1049.53L1606.69 1050.96Z" fill="#C7D9FF"/>
<path d="M678.792 559.423L718.876 584.146L721.634 580.816L716.419 571.207L748.059 588.109L708.958 560.141L706 563.745L707.966 569.874L678.792 559.423Z" fill="#C7D9FF"/>
<path d="M785.049 743.74L791.01 725.041L851.605 704.527L785.049 743.74ZM792.42 726.545L788.28 739.673L834.989 712.093L792.42 726.545Z" fill="#C7D9FF"/>
<path d="M378.364 434.719L348.526 425.016L346.342 409.987L378.364 434.719ZM350.155 423.568L368.664 429.584L348.799 414.243L350.155 423.568Z" fill="#C7D9FF"/>
<path d="M725.169 243.417L720.874 199.911L734.851 230.952L725.169 243.417ZM723.777 210.844L726.507 238.65L732.704 230.677L723.777 210.844Z" fill="#C7D9FF"/>
<path d="M577.683 400.285L580.568 404.305L579.749 407.624L583.571 409.09L583.261 403.681L578.711 399.406L577.683 400.285Z" fill="#C7D9FF"/>
<path d="M592.852 412.268L588.211 414.386L590.714 417.999L595.036 414.642L595.009 406.423L593.744 406.404L592.852 412.268Z" fill="#C7D9FF"/>
<path d="M595.428 424.875L599.859 424.289L601.67 422.681L606.12 424.156L606.702 422.917L601.634 421.121L593.326 421.537L595.428 424.875Z" fill="#C7D9FF"/>
<path d="M551.348 427.07L556.544 433.113L563.396 432.924L561.267 428.196L556.963 429.501L552.222 426.229L551.348 427.07Z" fill="#C7D9FF"/>
<path d="M560.54 444.216L560.985 445.427L568.029 444.254L572.078 439.091L567.983 436.575L566.127 441.001L560.54 444.216Z" fill="#C7D9FF"/>
<path d="M575.636 441.55L575.772 448.861L577.619 454.763L578.875 454.404L577.801 449.457L579.439 446.487L579.485 442.827L575.636 441.55Z" fill="#C7D9FF"/>
<path d="M589.085 445.078C586.923 445.082 584.84 444.237 583.252 442.713L582.587 442.07L594.344 428.772L595.018 429.415C596.697 431.027 597.692 433.266 597.786 435.64C597.88 438.014 597.064 440.329 595.518 442.079L595.418 442.193C594.651 443.055 593.726 443.75 592.699 444.237C591.671 444.724 590.56 444.994 589.43 445.03L589.085 445.078ZM585.245 441.919C586.596 442.893 588.241 443.327 589.876 443.141C591.511 442.955 593.027 442.162 594.144 440.907L594.244 440.793C595.357 439.532 595.994 437.895 596.035 436.184C596.077 434.473 595.522 432.805 594.472 431.486L585.245 441.919Z" fill="#C7D9FF"/>
<path d="M590.569 443.603C590.49 444.45 590.707 445.298 591.179 445.992C591.652 446.687 592.349 447.181 593.144 447.386C593.234 447.422 593.331 447.438 593.428 447.433C593.525 447.428 593.62 447.402 593.707 447.356C593.793 447.31 593.869 447.246 593.93 447.168C593.992 447.089 594.036 446.999 594.061 446.901C594.086 446.804 594.091 446.702 594.076 446.602C594.061 446.502 594.025 446.407 593.972 446.323C593.919 446.238 593.85 446.166 593.768 446.112C593.686 446.057 593.595 446.021 593.499 446.005C593.013 445.878 592.587 445.573 592.301 445.145C592.015 444.717 591.888 444.196 591.943 443.679L590.569 443.603Z" fill="#C7D9FF"/>
<path d="M564.68 417.857L563.033 417.054C563.636 415.731 564.428 414.51 565.38 413.431L565.553 413.242C566.655 411.992 567.962 410.955 569.412 410.178L570.249 411.862C568.985 412.534 567.847 413.437 566.891 414.529L566.718 414.718C565.89 415.651 565.203 416.71 564.68 417.857Z" fill="#C7D9FF"/>
<path d="M577.347 443.631L565.317 436.14C563.839 435.029 562.593 433.618 561.654 431.992C560.716 430.367 560.104 428.56 559.857 426.682C559.348 422.894 560.297 419.051 562.496 415.985L563.033 415.228L590.55 435.913L584.335 442.921L577.347 443.631ZM563.406 417.886C561.878 420.421 561.266 423.437 561.677 426.398C561.882 428.011 562.398 429.564 563.193 430.965C563.989 432.366 565.049 433.585 566.309 434.551L577.747 441.692L583.416 441.115L587.766 436.206L563.406 417.886Z" fill="#C7D9FF"/>
<path d="M589.103 437.512L567.519 409.545L568.256 408.949C571.17 406.649 574.836 405.63 578.466 406.111C580.263 406.317 582.002 406.898 583.577 407.822C585.152 408.745 586.53 409.991 587.629 411.484L595.983 423.845L595.291 430.466L589.103 437.512ZM570.13 409.895L589.24 434.608L593.589 429.7L594.144 424.375L586.155 412.571C584.274 410.146 581.596 408.531 578.637 408.037C575.678 407.543 572.648 408.204 570.13 409.895Z" fill="#C7D9FF"/>
<path d="M596.401 437.634C597.21 437.576 598.013 437.817 598.666 438.316C599.319 438.815 599.781 439.538 599.968 440.358C599.995 440.462 599.998 440.57 599.978 440.675C599.958 440.781 599.915 440.88 599.853 440.965C599.791 441.051 599.711 441.121 599.619 441.169C599.527 441.218 599.426 441.245 599.322 441.247C599.166 441.256 599.011 441.208 598.885 441.112C598.759 441.015 598.669 440.875 598.631 440.717C598.518 440.21 598.232 439.762 597.825 439.457C597.418 439.153 596.919 439.012 596.42 439.062L596.401 437.634Z" fill="#C7D9FF"/>
<path d="M1282.67 669.702L1306.69 628.444L1303.46 625.606L1294.12 630.973L1310.54 598.406L1283.37 638.653L1286.87 641.697L1292.83 639.674L1282.67 669.702Z" fill="#C7D9FF"/>
<path d="M1622.71 359.376L1604.54 353.241L1584.61 290.871L1622.71 359.376ZM1606 351.79L1618.76 356.051L1591.96 307.974L1606 351.79Z" fill="#C7D9FF"/>
<path d="M1722.69 468.052L1713.26 498.764L1698.66 501.012L1722.69 468.052ZM1711.86 497.087L1717.7 478.037L1702.8 498.483L1711.86 497.087Z" fill="#C7D9FF"/>
<path d="M1418.57 300.837L1376.3 305.258L1406.46 290.871L1418.57 300.837ZM1386.93 302.27L1413.94 299.46L1406.2 293.082L1386.93 302.27Z" fill="#C7D9FF"/>
<path d="M1421.34 503.746L1425.25 500.777L1428.47 501.62L1429.9 497.686L1424.64 498.004L1420.49 502.687L1421.34 503.746Z" fill="#C7D9FF"/>
<path d="M1432.99 488.132L1435.04 492.909L1438.55 490.333L1435.29 485.884L1427.31 485.912L1427.29 487.214L1432.99 488.132Z" fill="#C7D9FF"/>
<path d="M1445.23 485.481L1444.66 480.92L1443.1 479.056L1444.54 474.476L1443.33 473.876L1441.59 479.093L1441.99 487.645L1445.23 485.481Z" fill="#C7D9FF"/>
<path d="M1447.37 530.852L1453.24 525.504L1453.05 518.451L1448.46 520.643L1449.73 525.073L1446.55 529.953L1447.37 530.852Z" fill="#C7D9FF"/>
<path d="M1464.03 521.392L1465.2 520.933L1464.06 513.683L1459.05 509.516L1456.6 513.73L1460.9 515.641L1464.03 521.392Z" fill="#C7D9FF"/>
<path d="M1461.44 505.853L1468.54 505.713L1474.27 503.811L1473.92 502.519L1469.12 503.624L1466.23 501.938L1462.68 501.891L1461.44 505.853Z" fill="#C7D9FF"/>
<path d="M1464.86 492.01C1464.87 494.235 1464.05 496.38 1462.57 498.014L1461.94 498.698L1449.02 486.596L1449.65 485.903C1451.21 484.175 1453.39 483.15 1455.69 483.054C1458 482.957 1460.25 483.797 1461.95 485.388L1462.06 485.491C1462.9 486.281 1463.57 487.232 1464.05 488.29C1464.52 489.349 1464.78 490.492 1464.82 491.654L1464.86 492.01ZM1461.79 495.963C1462.74 494.571 1463.16 492.878 1462.98 491.195C1462.8 489.512 1462.03 487.952 1460.81 486.803L1460.7 486.7C1459.47 485.554 1457.88 484.899 1456.22 484.856C1454.56 484.813 1452.94 485.385 1451.66 486.465L1461.79 495.963Z" fill="#C7D9FF"/>
<path d="M1463.43 490.483C1464.25 490.564 1465.08 490.341 1465.75 489.854C1466.43 489.368 1466.91 488.65 1467.11 487.833C1467.14 487.739 1467.16 487.64 1467.15 487.54C1467.15 487.44 1467.12 487.342 1467.08 487.253C1467.03 487.164 1466.97 487.086 1466.89 487.023C1466.82 486.96 1466.73 486.914 1466.63 486.888C1466.54 486.863 1466.44 486.857 1466.34 486.873C1466.25 486.889 1466.15 486.925 1466.07 486.98C1465.99 487.035 1465.92 487.106 1465.87 487.19C1465.81 487.274 1465.78 487.369 1465.76 487.467C1465.64 487.968 1465.34 488.405 1464.93 488.7C1464.51 488.994 1464.01 489.125 1463.5 489.069L1463.43 490.483Z" fill="#C7D9FF"/>
<path d="M1438.42 517.13L1437.64 518.825C1436.35 518.204 1435.16 517.39 1434.12 516.409L1433.93 516.231C1432.72 515.097 1431.71 513.752 1430.96 512.26L1432.59 511.398C1433.25 512.699 1434.12 513.87 1435.18 514.854L1435.37 515.032C1436.27 515.885 1437.3 516.592 1438.42 517.13Z" fill="#C7D9FF"/>
<path d="M1463.46 504.093L1456.18 516.475C1455.1 517.996 1453.73 519.279 1452.15 520.245C1450.57 521.211 1448.81 521.84 1446.99 522.094C1443.31 522.618 1439.58 521.642 1436.6 519.378L1435.86 518.826L1455.96 490.502L1462.77 496.899L1463.46 504.093ZM1438.44 518.442C1440.91 520.014 1443.84 520.645 1446.71 520.221C1448.28 520.01 1449.79 519.479 1451.15 518.66C1452.51 517.841 1453.7 516.751 1454.64 515.454L1461.57 503.68L1461.01 497.845L1456.24 493.368L1438.44 518.442Z" fill="#C7D9FF"/>
<path d="M1457.51 491.991L1430.34 514.208L1429.76 513.449C1427.53 510.45 1426.54 506.676 1427.01 502.94C1427.2 501.09 1427.77 499.3 1428.67 497.679C1429.56 496.058 1430.77 494.639 1432.22 493.508L1444.23 484.91L1450.67 485.622L1457.51 491.991ZM1430.68 511.52L1454.69 491.851L1449.92 487.373L1444.75 486.802L1433.28 495.026C1430.93 496.962 1429.36 499.718 1428.88 502.764C1428.4 505.81 1429.04 508.929 1430.68 511.52Z" fill="#C7D9FF"/>
<path d="M1457.63 484.479C1457.57 483.647 1457.81 482.821 1458.29 482.149C1458.78 481.476 1459.48 481.001 1460.28 480.808C1460.38 480.781 1460.48 480.778 1460.59 480.798C1460.69 480.819 1460.78 480.863 1460.87 480.927C1460.95 480.991 1461.02 481.073 1461.07 481.168C1461.11 481.262 1461.14 481.367 1461.14 481.473C1461.15 481.634 1461.1 481.793 1461.01 481.923C1460.92 482.053 1460.78 482.146 1460.63 482.185C1460.13 482.301 1459.7 482.595 1459.4 483.014C1459.11 483.433 1458.97 483.947 1459.02 484.461L1457.63 484.479Z" fill="#C7D9FF"/>
</svg>
