<svg width="670" height="699" viewBox="0 0 670 699" fill="none" xmlns="http://www.w3.org/2000/svg">
<g clip-path="url(#clip0)">
<path d="M670 695.226H0V699H670V695.226Z" fill="#D9DEE2"/>
<path fill-rule="evenodd" clip-rule="evenodd" d="M569.33 180.867C523.46 180.633 421.102 180.867 421.102 180.867C413.052 180.867 406.952 177.033 406.952 172.311H578.39C578.39 172.311 576.797 180.919 569.33 180.867Z" fill="#2E57AB"/>
<path d="M421.119 248.232L406.325 225.849L358.462 195.006L345.956 190.05L298.215 223.18L298.998 250.936C298.998 250.936 325.01 259.345 332.859 261.823C365.319 297.388 402.922 288.422 435.887 296.518C442.231 291.405 444.816 289.44 455.555 274.875C458.862 268.692 470.088 240.771 473.517 234.067C461.281 232.884 457.461 229.345 448.863 221.71L433.198 231.936L421.119 248.232Z" fill="#2E57AB"/>
<g style="mix-blend-mode:overlay" opacity="0.23">
<path d="M408.205 247.884L418.387 252.353L421.102 248.684L409.902 230.997L412.678 243.267L408.205 247.884Z" fill="#212430"/>
</g>
<g style="mix-blend-mode:overlay" opacity="0.23">
<path d="M336.653 249.684L343.633 249.049L347.183 239.797L349.281 253.423L344.538 253.927L336.653 249.684Z" fill="#212430"/>
</g>
<path d="M464.057 180.919L462.786 193.511L460.01 202.945L439.882 227.693C440.9 235.597 450.551 257.632 462.134 260.84C469.522 245.075 479.626 228.11 482.819 221.015C483.777 218.884 496.073 204.215 496.073 204.215L538.472 189.789L547.827 180.919H537.645L490.26 183.476L482.323 180.937L464.057 180.919Z" fill="#E83464"/>
<g style="mix-blend-mode:overlay" opacity="0.23">
<path d="M438.115 269.562L450.577 251.44L469.609 221.293L459.471 248.64L450.803 260.136L438.115 269.562Z" fill="#212430"/>
</g>
<g style="mix-blend-mode:overlay" opacity="0.35">
<path d="M422.103 283.97L431.98 287.283L441.901 278.136L430.805 283.223L422.103 283.97Z" fill="#212430"/>
</g>
<g style="mix-blend-mode:overlay" opacity="0.23">
<path d="M309.92 232.528L308.371 225.145L311.016 222.258L314.68 229.389L309.92 232.528Z" fill="#212430"/>
</g>
<path opacity="0.23" d="M466.215 185.267L473.517 187.276L470.828 189.354L465.066 194.685L466.807 190.215L466.215 185.267Z" fill="#6E2430"/>
<g style="mix-blend-mode:overlay" opacity="0.35">
<path d="M364.989 258.292L377.581 271.518L387.067 272.084L378.66 267.31L364.989 258.292Z" fill="#212430"/>
</g>
<path d="M161.091 194.78C169.001 191.354 188.582 181.293 188.582 181.293L225.349 168.25L248.672 163.902C248.672 163.902 268.966 166.511 278.191 167.589C291.732 174.589 314.401 174.224 346.026 190.024L359.41 208.693C373.534 232.501 342.571 266.579 342.571 266.579L323.835 296.649L300.904 339.318C300.904 339.318 311.033 381.865 317.291 411.395C304.646 417.717 199.103 419.412 199.103 419.412L202.862 417.534L197.545 413.038L192.271 388.804L202.819 327.709L177.912 273.327L172.769 263.849C170.341 235.806 157.662 223.171 161.091 194.78Z" fill="#2E57AB"/>
<path d="M101.662 250.493C111.539 238.641 119.067 232.328 122.478 228.371C123.009 225.215 125.176 220.736 125.707 218.102C131.798 208.676 143.172 200.989 150.021 195.189C152.919 194.571 156.217 195.189 164.65 193.615C176.511 188.345 203.054 175.52 209.45 173.615C206.03 203.258 191.793 233.658 180.732 258.936L175.511 261.545L172.308 286.84L146.679 309.301L155.164 335.031C151.762 343.431 164.415 356.309 160.516 364.596L126.96 352.17C126.96 352.17 104.821 341.109 86.3716 324.779C85.571 314.353 92.5677 274.197 101.662 250.493Z" fill="#2E57AB"/>
<path d="M236.071 405.873L232.468 384.343L306.178 371.621C306.178 371.621 325.949 435.351 333.068 467.742C332.756 484.923 331.524 502.075 329.378 519.124C331.876 534.393 345.695 548.689 351.709 571.576C349.176 577.828 351.465 608.905 346.191 610.584C335.809 613.888 316.899 594.854 305.977 589.358C302.026 578.054 301.539 563.776 301.504 563.541C299.92 554.584 299.99 541.802 296.431 529.924C291.418 516.489 274.814 488.837 267.434 474.09C260.324 459.873 244.808 415.273 244.808 415.273L236.071 405.873Z" fill="#2E57AB"/>
<path d="M132.529 556.837C136.219 546.628 151.736 515.689 151.736 515.689C153.974 501.644 154.877 487.418 154.433 473.203C158.384 460.568 163.379 444.073 167.879 433.699L194.934 366.448L242.702 382.604L255.582 415.864C255.582 415.864 238.177 448.038 214.993 486.177C205.255 502.211 201.174 508.846 190.218 526.176C183.344 537.313 178.94 549.793 177.303 562.776C175.232 576.854 169.654 592.801 169.654 592.801C156.217 593.593 141.963 590.523 125.533 587.958C127.116 576.949 129.788 564.41 132.529 556.837Z" fill="#2E57AB"/>
<path d="M220.285 118.972L218.152 168.859L209.72 174.128L256.495 195.798L300.712 176.146L286.815 169.607L277.695 132.633L220.285 118.972Z" fill="#E9AD69"/>
<path opacity="0.85" d="M220.058 116.494L218.483 144.146L243.738 170.946L280.697 167.607L285.44 164.972V150.755L253.989 134.911L220.058 116.494Z" fill="#D29149"/>
<path d="M219.71 95.9206C219.754 96.9814 220.023 99.451 218.135 100.051C218.838 103.465 219.777 106.827 220.946 110.112C225.985 124.329 226.55 126.964 229.648 136.329C234.87 144.929 234.165 152.407 236.671 157.024C238.542 157.346 249.725 162.094 254.72 162.676C266.094 162.485 282.002 160.781 287.293 159.398C287.981 159.068 291.183 156.789 297.118 153.233C298.502 148.659 298.302 141.781 299.485 134.268C296.405 130.033 294.351 127.164 291.148 122.964C289.338 119.894 288.233 116.659 286.971 114.268C287.076 111.66 287.354 109.173 287.232 105.312C285.709 101.703 281.88 94.1641 279.975 89.7641L275.989 72.3035C275.989 72.3035 275.179 66.9296 275.597 66.2166C253.458 61.808 224.279 67.5296 219.71 95.9206Z" fill="#EBBF85"/>
<path d="M278.687 94.8858L280.41 98.4249L279.409 101.842L275.127 104.381L271.15 105.625L268.696 100.451L268.522 93.8163L278.687 94.8858Z" fill="#D9A164"/>
<path d="M261.943 31.3997C261.804 35.2518 262.039 42.4604 252.64 45.4169C237.402 50.2081 229.222 55.9385 221.381 59.8341C216.777 63.317 212.451 67.1517 208.441 71.3035C207.657 81.286 212.548 86.0859 212.548 86.0859C212.914 90.9554 216.786 97.2423 219.171 105.042C221.068 104.451 225.08 104.416 225.027 103.355C225.349 95.2684 224.035 89.3642 227.351 82.9295C230.962 81.7729 235.183 80.0512 242.102 79.7991C251.726 81.1208 263.275 85.6425 277.468 74.7383C286.963 63.0254 293.341 38.0431 261.943 31.3997Z" fill="#4B2460"/>
<path d="M212.522 102.999C213.392 98.1727 217.23 99.1118 218.753 99.677C219.864 100.039 220.868 100.67 221.676 101.513C222.483 102.357 223.07 103.387 223.383 104.512C224.001 106.251 224.966 108.86 224.436 110.599L224 122.138L219.745 121.155C219.745 121.155 212.07 105.451 212.522 102.999Z" fill="#EBBF85"/>
<g style="mix-blend-mode:overlay" opacity="0.16">
<path d="M332.729 187.206L326.741 184.528L251.048 253.206L183.621 184.128L169.393 191.241L260.803 320.492L341.823 189.572L332.729 187.206Z" fill="white"/>
</g>
<path d="M279.905 92.7815L271.072 88.6598L268.165 93.5728L279.679 95.1989L279.905 92.7815Z" fill="#3D332D"/>
<path d="M242.206 120.59L261.221 124.477L276.998 121.964L283.299 115.503C283.299 115.503 284.387 130.92 281.671 134.972C278.391 139.868 266.486 143.016 258.915 138.529C253.806 135.494 242.206 120.59 242.206 120.59Z" fill="white"/>
<path d="M260.29 114.225L273.648 112.677L270.115 117.486L266.642 118.894L260.29 114.225Z" fill="#D29149"/>
<path d="M251.639 94.1815L258.236 94.4163L258.253 101.825L255.399 108.894L243.007 106.842L239.395 103.738L239.143 98.3641L251.639 94.1815Z" fill="#D9A164"/>
<path d="M249.368 99.0684L255.799 98.6162L256.948 100.564L242.859 103.72L249.368 99.0684Z" fill="#483331"/>
<path d="M240.013 95.5466L255.529 88.9989L257.983 94.5119L240.187 99.0683L240.013 95.5466Z" fill="#3D332D"/>
<path d="M269.723 98.1727L273.865 97.364L278.852 99.7814L269.088 99.8857L269.723 98.1727Z" fill="#483331"/>
<path d="M223.748 109.868C222.765 107.633 216.325 102.755 216.325 102.755L216.403 107.216L220.171 116.972L221.912 114.607L225.471 117.764C225.471 117.764 221.573 111.407 223.748 109.868Z" fill="#D9A164"/>
<path d="M268.627 147.389L278.904 146.598L276.528 149.763L272.969 150.155L268.627 147.389Z" fill="#D9A164"/>
<path d="M310.59 179.302L256.974 205.015L204.185 175.45L198.25 178.215L256.974 223.989C256.974 223.989 317.447 183.398 317.708 182.076L310.59 179.302Z" fill="#E83464"/>
<path d="M210.721 305.614L256.391 331.17L297.684 309.022C297.684 309.022 321.729 243.249 332.276 224.815C309.737 216.519 295.108 212.05 295.108 212.05L257.766 233.458L223.652 209.754C223.652 209.754 193.342 218.971 181.089 222.797C189.504 245.44 210.721 305.614 210.721 305.614Z" fill="#E83464"/>
<g style="mix-blend-mode:overlay" opacity="0.39">
<path d="M336.488 242.527L332.433 255.301L318.735 273.736L262.596 268.997L292.045 280.466L315.541 286.901C317.301 286.905 319.026 286.412 320.517 285.48C322.009 284.548 323.207 283.214 323.974 281.631L336.105 256.884L336.488 242.527Z" fill="#262935"/>
</g>
<g style="mix-blend-mode:overlay" opacity="0.39">
<path d="M162.735 237.997L175.972 255.579L184.674 261.901L236.071 268.223L243.442 263.745L239.761 271.118L212.339 275.597L194.743 278.884C191.262 278.97 183.082 276.118 177.547 273.753L169.114 253.475L162.735 237.997Z" fill="#262935"/>
</g>
<g style="mix-blend-mode:overlay" opacity="0.23">
<path d="M244.538 435.812C245.591 436.203 230.614 410.899 223.583 404.073C213.486 394.335 202.768 385.261 191.497 376.908L196.188 367.769L248.637 403.056L252.814 419.995L244.538 435.812Z" fill="#212430"/>
</g>
<g style="mix-blend-mode:overlay" opacity="0.23">
<path d="M252.475 434.777C259.776 427.716 282.585 402.656 293.594 395.404C297.571 392.795 310.999 385.926 310.999 385.926L306.256 370.517L263.44 407.282L247.671 425.63L252.475 434.777Z" fill="#212430"/>
</g>
<path d="M219.388 99.5988C219.388 99.5988 246.166 89.225 262.422 87.825C273.604 86.8511 280.906 89.112 280.906 89.112L286.475 101.355C286.475 101.355 284.787 107.338 279.757 107.66C276.755 107.842 271.194 104.251 267.574 104.407C264.65 104.538 261.865 110.007 250.917 111.26C246.514 111.764 238.273 107.138 234.53 106.094C231.459 105.225 223.809 105.668 223.809 105.668L219.388 99.5988Z" fill="#2E57AB"/>
<path d="M237.942 99.4945C237.942 96.3293 249.681 94.7728 249.681 94.7728C249.681 94.7728 259.036 94.4946 259.863 97.0945C260.733 99.8336 255.869 104.103 253.45 104.677C248.785 105.764 237.951 103.416 237.942 99.4945Z" fill="#EBBF85"/>
<path d="M268.6 97.3206C269.096 98.851 273.352 100.468 275.345 101.173C280.758 103.077 283.447 99.9466 282.855 97.6162C282.376 95.7467 281.167 95.0945 279.914 94.5032C277.705 93.4927 275.226 93.2331 272.856 93.7641C270.271 94.5032 268.035 95.651 268.6 97.3206Z" fill="#EBBF85"/>
<path d="M242.337 102.294L248.724 97.4857L257.557 98.2075L242.337 102.294Z" fill="#4B2460"/>
<path d="M271.194 98.0162L276.668 95.6423L281.672 98.4075L271.194 98.0162Z" fill="#4B2460"/>
<path d="M255.434 129.172C255.721 129.277 266.512 129.938 266.512 129.938L280.523 127.494L272.047 131.033L262.813 130.964L255.434 129.172Z" fill="#D4CCD4"/>
<path d="M280.183 113.781L284.569 113.425L286.414 119.146L282.942 115.686L280.183 113.781Z" fill="#D9A164"/>
<path d="M241.971 127.129L236.21 118.946L249.455 115.581L242.58 120.199L241.971 127.129Z" fill="#D9A164"/>
<g style="mix-blend-mode:overlay" opacity="0.23">
<path d="M154.372 302.379L146.462 309.483L139.082 311.066L135.392 300.005L140.666 304.744L154.372 302.379Z" fill="#212430"/>
</g>
<g style="mix-blend-mode:overlay" opacity="0.25">
<path d="M238.185 184.128L192.715 190.058L226.716 180.572L238.185 184.128Z" fill="#212430"/>
</g>
<g style="mix-blend-mode:overlay" opacity="0.25">
<path d="M290.182 227.928L266.86 221.997L259.35 224.762L290.182 227.928Z" fill="#212430"/>
</g>
<path d="M223.618 145.729L227.569 164.294L228.36 148.885L223.618 145.729Z" fill="#D29149"/>
<path d="M239.83 166.667L250.499 185.624L249.064 168.667L239.83 166.667Z" fill="#D29149"/>
<path d="M198.65 352.413L197.066 366.239L192.324 374.534L186.789 387.178L176.511 385.595L164.389 375.848L157.514 371.639L120.964 351.23C121.521 342.483 143.32 329.057 152.014 325.892L163.675 347.422L172.769 355.717L180.079 356.509L192.733 350.778L198.65 352.413Z" fill="#E83464"/>
<g style="mix-blend-mode:overlay" opacity="0.35">
<path d="M95.8573 307.379L93.2204 321.074L101.662 325.813L97.4411 318.97L95.8573 307.379Z" fill="#212430"/>
</g>
<g style="mix-blend-mode:overlay" opacity="0.45">
<path d="M292.95 329.839L273.979 307.718L243.929 306.953C243.929 306.953 222.582 324.344 223.374 326.7C229.744 325.1 250.256 315.648 250.256 315.648L267.661 318.022L292.95 329.839Z" fill="#212430"/>
</g>
<g style="mix-blend-mode:overlay" opacity="0.23">
<path d="M279.296 335.822L270.994 336.213L256.365 329.892L258.349 337.005C258.349 337.005 269.81 341.352 272.186 341.352C274.442 339.367 276.816 337.52 279.296 335.822Z" fill="#212430"/>
</g>
<g style="mix-blend-mode:overlay" opacity="0.23">
<path d="M234.574 332.605L247.488 333.796L255.399 328.396L254.337 335.77C254.337 335.77 244.852 339.996 242.476 339.996C239.317 339.196 234.574 332.605 234.574 332.605Z" fill="#212430"/>
</g>
<g style="mix-blend-mode:overlay" opacity="0.23">
<path d="M307.196 523.141L316.681 526.828L321.424 520.646L322.477 528.941C322.499 530.323 322.229 531.694 321.684 532.964C321.14 534.235 320.334 535.377 319.318 536.315C317.325 534.332 307.196 523.141 307.196 523.141Z" fill="#212430"/>
</g>
<g style="mix-blend-mode:overlay" opacity="0.23">
<path d="M155.895 521.559L161.221 525.437L171.238 524.341L161.221 535.932C161.221 535.932 155.425 536.984 152.867 533.115C154.033 530.428 155.895 521.559 155.895 521.559Z" fill="#212430"/>
</g>
<g style="mix-blend-mode:overlay" opacity="0.23">
<path d="M316.194 510.289L323.052 509.107L332.015 494.89L329.404 510.159C329.315 513.55 328.783 516.915 327.82 520.168C325.819 518.194 316.194 510.289 316.194 510.289Z" fill="#212430"/>
</g>
<g style="mix-blend-mode:overlay" opacity="0.23">
<path d="M151.605 500.55L156.478 507.507L165.442 506.855C165.442 506.855 157.531 513.811 152.789 517.515C150.813 515.559 151.605 500.55 151.605 500.55Z" fill="#212430"/>
</g>
<g style="mix-blend-mode:overlay" opacity="0.4">
<path d="M109.503 322.996L123.688 340.848L153.354 359.343L135.714 343.874L126.951 337.796L109.503 322.996Z" fill="#212430"/>
</g>
<g style="mix-blend-mode:overlay" opacity="0.25">
<path d="M147.524 208.624L154.372 203.884L155.956 206.519L158.454 199.076L151.474 201.25L147.524 208.624Z" fill="#212430"/>
</g>
<g style="mix-blend-mode:overlay" opacity="0.23">
<path d="M256.321 347.091L277.138 353.674L263.962 355.526L256.321 347.091Z" fill="#212430"/>
</g>
<g style="mix-blend-mode:overlay" opacity="0.23">
<path d="M239.761 353.596L253.684 347.752L250.308 355.839L239.761 353.596Z" fill="#212430"/>
</g>
<g style="mix-blend-mode:overlay" opacity="0.23">
<path d="M204.507 481.629L186.589 501.916L175.189 510.42L194.36 508.359L229.944 453.455L204.507 481.629Z" fill="#212430"/>
</g>
<g style="mix-blend-mode:overlay" opacity="0.23">
<path d="M280.549 485.846C289.643 499.672 297.545 505.594 297.545 505.594H307.831L296.231 518.768L289.269 505.202C289.269 505.202 283.699 493.35 280.549 485.846Z" fill="#212430"/>
</g>
<path d="M307.561 368.013C307.561 368.013 267.452 365.943 256.365 365.404C234.757 364.448 194.299 367.378 194.299 367.378C193.406 369.949 192.745 372.594 192.324 375.282C223.818 386.813 248.463 429.273 248.463 429.273L254.79 427.16C254.79 427.16 271.324 410.256 285.57 396.56C303.088 379.7 310.137 380.413 310.137 380.413L307.561 368.013Z" fill="#E83464"/>
<path d="M254.52 37.443C254.52 37.443 260.046 41.0864 256.26 45.556C252.475 50.0255 265.041 44.8777 265.041 44.8777C265.041 44.8777 264.014 35.0778 254.52 37.443Z" fill="#4B2460"/>
<path opacity="0.52" d="M247.149 47.7124C247.149 47.7124 253.772 46.0777 255.321 44.2864C259.959 42.3038 262.692 46.0864 264.658 46.6516C270.706 48.3907 269.593 44.9994 271.307 45.0429C276.572 45.182 274.788 49.2255 276.772 49.5994C278.904 49.9994 284.839 49.295 284.839 49.295C284.839 49.295 286.101 61.1384 283.264 62.9905C281.376 64.2166 277.677 61.3992 274.344 64.2166C272.604 65.6687 271.855 60.5905 265.485 62.5383C263.449 63.1557 263.501 55.6428 261.456 55.0602C259.646 54.5558 256.53 57.0514 254.738 56.4515C252.945 55.8515 247.149 47.7124 247.149 47.7124Z" fill="#535251"/>
<g opacity="0.36">
<path opacity="0.36" d="M228.204 81.8512L227.734 81.2164L252.37 62.7297C265.18 53.1646 269.175 43.1995 264.554 32.3909L265.285 32.0779C270.054 43.2777 265.972 53.5124 252.823 63.3818L228.204 81.8512Z" fill="#6B6460"/>
</g>
<g opacity="0.63">
<path opacity="0.63" d="M262.961 81.2947C262.853 81.2936 262.75 81.2499 262.674 81.173C262.602 81.0984 262.561 80.9986 262.561 80.8947C262.561 80.7909 262.602 80.6911 262.674 80.6165C262.935 80.3556 289.025 54.4081 275.032 37.4344C274.998 37.3944 274.973 37.3483 274.958 37.2987C274.943 37.2491 274.937 37.197 274.942 37.1453C274.947 37.0937 274.962 37.0434 274.986 36.9976C275.011 36.9517 275.044 36.911 275.084 36.8779C275.124 36.8448 275.17 36.8198 275.22 36.8045C275.269 36.7892 275.321 36.7839 275.373 36.7887C275.425 36.7936 275.475 36.8085 275.521 36.8328C275.567 36.857 275.608 36.8901 275.641 36.9301C290.095 54.469 263.457 80.9121 263.222 81.1817C263.151 81.2487 263.059 81.2887 262.961 81.2947Z" fill="#6B6460"/>
</g>
<path d="M231.241 120.294L235.018 127.642L238.977 135.546L232.555 131.085L231.241 120.294Z" fill="#D9A164"/>
<path d="M267.861 159.589L272.49 163.833L283.664 162.485L285.596 156.894L267.861 159.589Z" fill="#EBBF85"/>
<path d="M275.641 158.05L277.564 155.998L278.591 159.468L277.825 160.876L275.641 158.05Z" fill="#D9A164"/>
<path d="M351.709 571.567C353.684 602.001 358.914 652.2 360.742 658.748C361.725 662.305 366.007 669.131 369.044 672.974C371.15 675.644 390.234 690.096 390.234 690.096V695.226H337.419C336.782 691.896 336.38 688.526 336.218 685.139C336.418 680 338.603 671.591 336.619 662.531C334.008 652.174 331.093 645.54 326.341 638.427C323.339 631.122 309.345 608.41 309.345 608.41C309.345 608.41 306.334 595.879 304.202 584.975C316.855 580.74 342.223 575.254 351.709 571.567Z" fill="#E83464"/>
<g style="mix-blend-mode:overlay" opacity="0.23">
<path d="M363.065 211.684L359.75 204.91L355.886 204.258L357.383 212.128L363.065 211.684Z" fill="#212430"/>
</g>
<path d="M106.17 668.235C110.173 661.948 113.262 644.47 113.262 644.47C121.373 593.236 123.609 589.74 128.352 563.271C134.94 566.958 172.534 588.488 172.534 588.488L163.832 610.923C163.832 610.923 138.647 646.079 132.425 662.705C127.151 676.8 129.51 684.296 129.51 684.296V694.2H76.5117L77.704 687.452C77.704 687.452 99.521 678.687 106.17 668.235Z" fill="#E83464"/>
<path opacity="0.23" d="M186.528 359.526L192.846 363.213L197.127 364.378L198.119 357.943L190.218 360.048L186.528 359.526Z" fill="#6E2430"/>
<g style="mix-blend-mode:overlay" opacity="0.35">
<path d="M129.066 246.023L115.89 258.658L114.306 283.414L120.633 263.666L129.066 246.023Z" fill="#212430"/>
</g>
<path opacity="0.23" d="M340.639 676.8L338.394 688.974L347.749 687.661C347.749 687.661 348.106 687.139 344.581 682.922C343.022 681.05 341.698 678.994 340.639 676.8Z" fill="#6E2430"/>
<g style="mix-blend-mode:overlay" opacity="0.23">
<path d="M258.41 429.751C258.41 429.751 274.222 461.751 281.341 472.02C276.598 459.777 263.153 424.195 263.153 424.195L258.41 429.751Z" fill="#212430"/>
</g>
<path d="M582.453 172.363C521.084 171.981 449.62 172.363 395.186 172.363C391.287 172.363 391.531 165.407 395.021 165.485C464.057 166.911 579.364 164.05 579.364 164.05C589.468 164.041 584.673 172.372 582.453 172.363Z" fill="#7C8AC4"/>
<path d="M121.982 104.251L109.459 89.1032L143.042 82.6077L121.982 104.251ZM114.272 90.825L122.104 100.39L135.34 86.7641L114.272 90.825Z" fill="#B4C5CD"/>
<path d="M538.968 335.961L528.464 322.118L550.02 321.613L538.968 335.961ZM533.633 324.605L538.985 331.665L544.615 324.344L533.633 324.605Z" fill="#B4C5CD"/>
<path d="M405.429 584.471L388.668 561.375H405.429V584.471ZM393.785 563.984L402.818 576.436V563.984H393.785Z" fill="#B4C5CD"/>
<path d="M49.4124 472.551L39.7962 451.073L52.4234 456.02L51.4662 458.455L44.7914 455.838L51.7969 471.49L49.4124 472.551Z" fill="#B4C5CD"/>
<path d="M498.945 352.074H496.334V353.378H498.945V352.074Z" fill="#B4C5CD"/>
<path d="M498.945 346.839H496.334V344.23H498.945V346.839ZM498.945 339.013H496.334V336.405H498.945V339.013ZM498.945 331.187H496.334V328.579H498.945V331.187ZM498.945 323.361H496.334V320.753H498.945V323.361ZM498.945 315.535H496.334V312.927H498.945V315.535ZM498.945 307.709H496.334V305.101H498.945V307.709ZM498.945 299.883H496.334V297.275H498.945V299.883ZM498.945 292.057H496.334V289.449H498.945V292.057ZM498.945 284.231H496.334V281.623H498.945V284.231ZM498.945 276.405H496.334V273.797H498.945V276.405ZM498.945 268.579H496.334V265.971H498.945V268.579ZM498.945 260.753H496.334V258.145H498.945V260.753ZM498.945 252.927H496.334V250.319H498.945V252.927ZM498.945 245.101H496.334V242.493H498.945V245.101ZM498.945 237.275H496.334V234.667H498.945V237.275ZM498.945 229.449H496.334V226.841H498.945V229.449ZM498.945 221.623H496.334V219.015H498.945V221.623Z" fill="#B4C5CD"/>
<path d="M498.945 212.032H496.334V213.337H498.945V212.032Z" fill="#B4C5CD"/>
<path d="M152.675 404.151C151.805 404.151 150.935 404.151 150.065 404.151L150.126 401.543C150.996 401.543 151.866 401.543 152.736 401.543L152.675 404.151ZM157.949 404.056L157.853 401.447C158.724 401.447 159.594 401.378 160.464 401.325L160.621 403.934L157.949 404.056ZM144.756 403.908C143.869 403.856 142.998 403.795 142.145 403.725L142.354 401.117C143.207 401.186 144.077 401.247 144.965 401.299L144.756 403.908ZM136.863 403.195C135.993 403.091 135.123 402.978 134.252 402.856L134.609 400.247C135.479 400.369 136.35 400.482 137.22 400.578L136.863 403.195ZM129.031 402.03C128.161 401.873 127.29 401.708 126.42 401.534L126.934 398.978C127.804 399.143 128.631 399.308 129.483 399.456L129.031 402.03ZM121.277 400.395L118.719 399.752L119.38 397.23C120.25 397.447 121.051 397.656 121.895 397.856L121.277 400.395ZM113.645 398.308C112.775 398.056 111.957 397.786 111.121 397.517L111.931 395.039C112.757 395.308 113.575 395.569 114.402 395.812L113.645 398.308ZM106.144 395.786L103.672 394.839L104.629 392.413C105.439 392.734 106.239 393.039 107.049 393.334L106.144 395.786ZM98.8074 392.821C98.0068 392.465 97.1974 392.108 96.4055 391.734L97.502 389.369C98.2765 389.734 99.0684 390.082 99.8604 390.43L98.8074 392.821ZM91.6627 389.43C90.8795 389.03 90.0962 388.63 89.3217 388.213L90.5575 385.908C91.3146 386.317 92.0804 386.717 92.8462 387.108L91.6627 389.43ZM84.7007 385.639L82.4381 384.282L83.8044 382.056C84.5441 382.508 85.2751 382.926 86.0235 383.387L84.7007 385.639ZM77.9999 381.439C77.2689 380.952 76.5466 380.456 75.8243 379.952L77.3211 377.813C78.026 378.308 78.7396 378.795 79.4532 379.274L77.9999 381.439ZM71.5601 376.856C70.8639 376.326 70.1677 375.795 69.4802 375.247L71.0988 373.195C71.7689 373.734 72.4564 374.256 73.1352 374.778L71.5601 376.856ZM65.4075 371.908C64.7374 371.343 64.076 370.761 63.4233 370.169L65.1638 368.213C65.8078 368.787 66.4517 369.352 67.1131 369.908L65.4075 371.908ZM59.5507 366.613C58.9154 366.004 58.2889 365.387 57.671 364.769L59.5159 362.926C60.1251 363.535 60.743 364.135 61.3608 364.726L59.5507 366.613ZM54.016 360.978C53.4242 360.335 52.8324 359.691 52.2755 359.03L54.2248 357.291C54.7992 357.935 55.3735 358.569 55.9653 359.196L54.016 360.978ZM48.7945 355.039C48.2376 354.361 47.6893 353.674 47.1411 352.987L49.1948 351.37C49.7228 352.048 50.2623 352.717 50.8135 353.378L48.7945 355.039ZM43.9647 348.796C43.4425 348.091 42.9378 347.378 42.433 346.657L44.6348 345.213C45.1308 345.917 45.6268 346.613 46.1316 347.309L43.9647 348.796ZM39.509 342.291C39.0391 341.552 38.5692 340.813 38.1079 340.074L40.3358 338.7C40.7883 339.439 41.206 340.161 41.702 340.883L39.509 342.291ZM35.445 335.544C35.0186 334.778 34.5747 334.005 34.1744 333.231L36.5502 331.996C36.9505 332.752 37.3682 333.509 37.7946 334.257L35.445 335.544ZM31.7726 328.544C31.3897 327.752 31.0155 326.961 30.6499 326.161L33.0692 325.066C33.426 325.848 33.8002 326.622 34.1744 327.396L31.7726 328.544ZM28.5266 321.344C28.1872 320.535 27.8565 319.718 27.5345 318.9L29.9625 317.944C30.2757 318.744 30.5977 319.544 30.9284 320.335L28.5266 321.344ZM25.6896 313.961C25.4024 313.135 25.1239 312.3 24.8193 311.466L27.2995 310.648C27.5693 311.474 27.8478 312.283 28.1698 313.1L25.6896 313.961ZM23.3051 306.431C23.0614 305.561 22.8265 304.735 22.6089 303.883L25.1326 303.222C25.3502 304.092 25.5764 304.883 25.8114 305.709L23.3051 306.431ZM21.3558 298.761C21.173 297.892 20.9903 297.022 20.8162 296.153L23.3747 295.64C23.5401 296.509 23.7228 297.327 23.9056 298.162L21.3558 298.761ZM19.8676 291.005C19.7284 290.136 19.5979 289.266 19.476 288.396L22.0868 288.031C22.2086 288.883 22.3391 289.736 22.4784 290.588L19.8676 291.005ZM18.8408 283.179C18.7537 282.31 18.6754 281.44 18.6058 280.57L21.2165 280.362C21.2861 281.231 21.3645 282.101 21.4515 282.927L18.8408 283.179ZM18.2751 275.292C18.2751 274.423 18.2142 273.553 18.1881 272.684L20.7988 272.631C20.7988 273.501 20.851 274.37 20.8858 275.24L18.2751 275.292ZM20.7901 267.466H18.1794C18.1794 266.597 18.1794 265.727 18.249 264.858L20.8597 264.953C20.8858 265.701 20.8858 266.562 20.8858 267.423L20.7901 267.466ZM21.1382 259.727L18.5275 259.536C18.5971 258.666 18.6667 257.797 18.7537 256.927L21.3645 257.171C21.3383 257.971 21.2687 258.823 21.1991 259.684L21.1382 259.727ZM21.9475 252.023L19.3368 251.675C19.4586 250.806 19.5805 249.936 19.711 249.066L22.3217 249.466C22.2521 250.275 22.1303 251.127 22.0084 251.979L21.9475 252.023ZM23.2703 244.345L20.7118 243.84C20.8771 242.971 21.0512 242.101 21.2426 241.232L23.7924 241.78C23.5952 242.632 23.4211 243.487 23.2703 244.345ZM25.0108 236.78L22.4871 236.136C22.7046 235.267 22.9309 234.441 23.1659 233.588L25.6809 234.284C25.4111 235.11 25.237 235.945 24.976 236.771L25.0108 236.78ZM27.1603 229.336L24.6714 228.545C24.9412 227.675 25.2196 226.875 25.5416 226.041L28.0131 226.91C27.6824 227.704 27.3865 228.51 27.1255 229.328L27.1603 229.336ZM29.771 222.032L27.3343 221.093C27.6476 220.276 27.9783 219.458 28.309 218.649L30.7283 219.632C30.328 220.423 30.0147 221.223 29.7014 222.023L29.771 222.032ZM32.7733 214.893L30.3976 213.815C30.7631 213.015 31.1286 212.223 31.5115 211.432L33.8698 212.554C33.426 213.319 33.0692 214.102 32.7037 214.884L32.7733 214.893ZM36.1934 207.937L33.8785 206.719C34.2876 205.945 34.7053 205.171 35.1317 204.406L37.4204 205.667C36.9563 206.415 36.5241 207.171 36.1238 207.937H36.1934ZM40.0051 201.198L37.7772 199.85C38.2298 199.093 38.691 198.354 39.1609 197.606L41.3713 199.006C40.8405 199.728 40.388 200.458 39.9354 201.198H40.0051ZM44.217 194.702L42.0675 193.215C42.5636 192.493 43.0683 191.78 43.5818 191.067L45.7052 192.589C45.154 193.285 44.6348 193.989 44.1474 194.702H44.217ZM48.7336 188.459L46.6798 186.85C47.2194 186.163 47.7589 185.476 48.3159 184.798L50.3435 186.441C49.7953 187.111 49.2557 187.824 48.7336 188.459ZM53.6766 182.502L51.7185 180.763C52.2987 180.114 52.8789 179.462 53.459 178.806L55.391 180.546C54.8253 181.215 54.2335 181.85 53.6679 182.502H53.6766ZM58.959 176.833L57.0966 175.007L58.1496 173.911C58.4194 173.641 58.6892 173.372 58.9677 173.111L60.7865 174.98L59.9858 175.763L58.959 176.833ZM64.572 171.485L62.8315 169.546C63.4871 168.966 64.1485 168.386 64.8157 167.807L66.5562 169.781C65.8513 170.328 65.2073 170.902 64.5633 171.485H64.572ZM70.4897 166.468L68.8623 164.424C69.5498 163.876 70.246 163.337 70.9422 162.798L72.526 164.868C71.8385 165.389 71.1598 165.928 70.4897 166.468ZM76.6945 161.798L75.189 159.668C75.9026 159.163 76.6336 158.659 77.3559 158.172L78.8179 160.328L76.6945 161.798ZM83.1604 157.511L81.8028 155.302C82.5512 154.833 83.3083 154.381 84.0568 153.929L85.3969 156.172C84.6224 156.607 83.8827 157.059 83.1517 157.511H83.1604ZM89.8613 153.615L88.6081 151.302L90.9404 150.068L92.1413 152.389C91.3755 152.798 90.6184 153.207 89.8526 153.615H89.8613ZM96.8232 150.137L95.718 147.772C96.5099 147.398 97.3106 147.033 98.1112 146.676L99.1729 149.059C98.3374 149.389 97.5629 149.755 96.7797 150.12L96.8232 150.137ZM204.733 148.198C203.933 147.859 203.141 147.529 202.34 147.207L203.324 144.79C204.133 145.111 204.942 145.45 205.752 145.798L204.733 148.198ZM103.968 147.05L103.002 144.624C103.811 144.303 104.638 143.981 105.456 143.676L106.378 146.111C105.5 146.398 104.699 146.711 103.898 147.033L103.968 147.05ZM197.51 145.363C196.701 145.076 195.892 144.79 195.074 144.494L195.944 142.016L198.433 142.885L197.51 145.363ZM111.182 144.346L110.312 141.868C111.182 141.59 111.983 141.32 112.827 141.059L113.601 143.555C112.818 143.833 112 144.103 111.182 144.346ZM190.078 142.92L187.59 142.216L188.277 139.703L190.809 140.416L190.078 142.92ZM118.605 142.111L117.935 139.598C118.806 139.372 119.632 139.146 120.485 138.937L121.112 141.468L118.605 142.111ZM182.577 140.963C181.707 140.763 180.897 140.581 180.053 140.407L180.593 137.85L183.16 138.416L182.577 140.963ZM126.185 140.355L125.663 137.798L128.274 137.285L128.752 139.894L126.185 140.355ZM175.006 139.485C174.136 139.337 173.309 139.207 172.456 139.077L172.839 136.468C173.709 136.601 174.579 136.74 175.45 136.885L175.006 139.485ZM133.826 139.024L133.452 136.416L136.062 136.059L136.384 138.668C135.497 138.763 134.644 138.885 133.791 139.007L133.826 139.024ZM167.33 138.416C166.46 138.32 165.59 138.233 164.72 138.164L164.946 135.555C165.816 135.633 166.686 135.72 167.557 135.816L167.33 138.416ZM141.528 138.129L141.301 135.52C142.172 135.442 143.042 135.372 143.912 135.32L144.086 137.929C143.207 137.972 142.354 138.033 141.493 138.111L141.528 138.129ZM159.603 137.798L156.992 137.694L157.07 135.085L159.681 135.19L159.603 137.798ZM149.264 137.685L149.194 135.077L151.805 135.024V137.633L149.264 137.685Z" fill="#B4C5CD"/>
<path d="M529.256 665.583L527.063 664.183L531.875 656.661L538.585 659.844L543.388 648.357L554.493 652.861L558.33 644.844L564.353 647.853L563.178 650.183L559.54 648.366L555.781 656.209L544.798 651.748L539.934 663.374L532.832 660L529.256 665.583Z" fill="#B4C5CD"/>
<path d="M323.156 13.5042C321.819 13.5042 320.511 13.108 319.399 12.3655C318.287 11.6231 317.421 10.5679 316.909 9.33335C316.397 8.09877 316.263 6.74028 316.524 5.42966C316.785 4.11904 317.429 2.91516 318.375 1.97025C319.32 1.02535 320.525 0.381858 321.837 0.121159C323.148 -0.13954 324.508 -0.00573956 325.744 0.505639C326.979 1.01702 328.035 1.88301 328.778 2.9941C329.521 4.10519 329.918 5.41148 329.918 6.74778C329.915 8.53899 329.202 10.2562 327.935 11.5228C326.667 12.7893 324.949 13.5019 323.156 13.5042ZM323.156 2.6087C322.335 2.6087 321.532 2.85218 320.849 3.30833C320.166 3.76448 319.634 4.41279 319.32 5.1712C319.006 5.92961 318.924 6.76404 319.085 7.56886C319.246 8.37369 319.642 9.11274 320.224 9.69247C320.805 10.2722 321.546 10.6665 322.351 10.8256C323.157 10.9847 323.992 10.9013 324.751 10.586C325.509 10.2707 326.157 9.73776 326.612 9.05452C327.067 8.37128 327.309 7.5685 327.307 6.74778C327.305 5.64922 326.866 4.59645 326.088 3.82047C325.31 3.0445 324.255 2.60869 323.156 2.6087Z" fill="#B4C5CD"/>
<path d="M407.274 376.604L405.429 374.778L407.274 372.926L409.119 374.761L407.274 376.604ZM401.721 371.091L399.868 369.248L401.704 367.395L403.558 369.239L401.721 371.091ZM396.161 365.569L394.316 363.735L396.152 361.883L398.006 363.717L396.161 365.569ZM390.609 360.056L388.764 358.256L390.609 356.404L392.453 358.248L390.609 360.056ZM385.056 354.535L383.203 352.7L385.039 350.848L386.893 352.683L385.056 354.535ZM379.495 349.022L377.685 347.178L379.522 345.326L381.375 347.17L379.495 349.022ZM373.952 343.474L372.098 341.639L373.943 339.787L375.797 341.631L373.952 343.474ZM368.4 337.961L366.546 336.118L368.391 334.274L370.236 336.109L368.4 337.961ZM362.839 332.439L360.994 330.605L362.83 328.752L364.684 330.596L362.839 332.439ZM357.287 326.952L355.433 325.109L357.278 323.266L359.132 325.1L357.287 326.952ZM351.735 321.431L349.881 319.596L351.726 317.744L353.571 319.587L351.735 321.431ZM346.183 315.918L344.329 314.074L346.165 312.231L348.019 314.066L346.183 315.918ZM340.622 310.431L338.777 308.596L340.613 306.744L342.467 308.588L340.622 310.431ZM335.044 304.883L333.19 303.04L335.035 301.196L336.88 303.031L335.044 304.883Z" fill="#B4C5CD"/>
<path d="M69.6194 638.001L63.4233 629.696L55.4432 635.314V625.297L47.785 629.853L46.4536 627.61L58.0539 620.714V630.288L63.9977 626.105L71.708 636.444L69.6194 638.001Z" fill="#B4C5CD"/>
<path d="M410.807 675.992L409.458 673.766L411.686 672.409L413.043 674.644L410.807 675.992ZM417.508 671.939L416.15 669.705L418.387 668.357L419.736 670.583L417.508 671.939ZM424.2 667.879L422.851 665.644L425.079 664.296L426.436 666.522L424.2 667.879ZM430.901 663.818L429.543 661.592L431.78 660.235L433.137 662.47L430.901 663.818ZM437.602 659.766L436.244 657.531L438.481 656.183L439.829 658.409L437.602 659.766ZM444.294 655.705L442.954 653.47L445.181 652.122L446.539 654.348L444.294 655.705ZM450.995 651.644L449.637 649.418L451.874 648.062L453.223 650.296L450.995 651.644ZM457.687 647.592L456.338 645.357L458.566 644.009L459.923 646.235L457.687 647.592ZM464.388 643.531L463.03 641.296L465.267 639.949L466.616 642.175L464.388 643.531ZM471.08 639.47L469.731 637.244L471.959 635.888L473.316 638.123L471.08 639.47ZM477.781 635.418L476.423 633.183L478.66 631.836L480.009 634.062L477.781 635.418ZM484.482 631.357L483.124 629.123L485.352 627.775L486.709 630.001L484.482 631.357ZM491.174 627.297L489.825 625.071L492.053 623.714L493.41 625.949L491.174 627.297ZM497.875 623.244L496.517 621.01L498.754 619.662L500.102 621.888L497.875 623.244ZM504.567 619.184L503.218 616.949L505.446 615.601L506.803 617.836L504.567 619.184ZM511.268 615.123L509.91 612.897L512.147 611.54L513.496 613.775L511.268 615.123ZM517.96 611.071L516.611 608.836L518.839 607.488L520.196 609.714L517.96 611.071ZM524.661 607.01L523.303 604.784L525.54 603.471L526.889 605.697L524.661 607.01ZM531.353 602.949L529.978 600.723L532.206 599.367L533.563 601.601L531.353 602.949ZM538.054 598.897L536.696 596.662L538.933 595.314L540.29 597.54L538.054 598.897ZM544.755 594.836L543.397 592.61L545.642 591.297L546.991 593.523L544.755 594.836ZM551.447 590.775L550.098 588.549L552.326 587.193L553.683 589.427L551.447 590.775ZM558.148 586.723L556.79 584.488L559.027 583.141L560.376 585.367L558.148 586.723ZM564.84 582.662L563.491 580.436L565.719 579.08L567.076 581.306L564.84 582.662ZM571.541 578.602L570.183 576.376L572.42 575.019L573.769 577.254L571.541 578.602ZM578.233 574.549L576.884 572.315L579.112 570.967L580.469 573.193L578.233 574.549ZM584.934 570.489L583.576 568.263L585.813 566.906L587.17 569.132L584.934 570.489ZM591.635 566.428L590.277 564.202L592.514 562.845L593.862 565.08L591.635 566.428ZM598.327 562.376L596.987 560.141L599.214 558.793L600.572 561.019L598.327 562.376ZM598.579 557.715L596.63 555.976L598.37 554.028L600.311 555.767L598.579 557.715ZM592.749 552.498L590.799 550.758L592.54 548.819L594.489 550.558L592.749 552.498ZM586.909 547.28L584.969 545.541L586.709 543.602L588.658 545.341L586.909 547.28ZM581.079 542.063L579.138 540.324L580.878 538.376L582.819 540.115L581.079 542.063ZM575.248 536.846L573.307 535.106L575.048 533.167L576.988 534.906L575.248 536.846ZM569.417 531.628L567.477 529.889L569.217 527.95L571.158 529.689L569.417 531.628ZM563.587 526.411L561.637 524.672L563.378 522.724L565.318 524.463L563.587 526.411ZM557.756 521.194L555.807 519.455L557.547 517.507L559.497 519.246L557.756 521.194ZM551.917 515.976L549.976 514.237L551.717 512.298L553.666 514.037L551.917 515.976ZM546.086 510.759L544.146 509.02L545.886 507.081L547.827 508.82L546.086 510.759ZM540.256 505.542L538.315 503.803L540.055 501.855L541.996 503.594L540.256 505.542Z" fill="#B4C5CD"/>
<path d="M447.646 31.1934V86.1646L496.19 116.913L453.722 90.0195V37.2642H528.604L538.659 47.3417V89.8981L544.734 86.0128V31.1934H447.646Z" fill="#2E57AB"/>
<path d="M569.25 74.0231V161.382L534.831 95.9387L569.25 74.0231Z" fill="#2E57AB"/>
<path d="M422.827 74.0231V161.959L457.519 95.9994L422.827 74.0231Z" fill="#2E57AB"/>
<path d="M496.19 50.802C489.78 57.2067 481.366 60.4242 472.951 60.4242C472.951 68.5895 477.234 92.4478 496.19 103.345C515.146 92.4478 519.429 68.5591 519.429 60.4242C511.015 60.4242 502.6 57.2067 496.19 50.802ZM490.783 91.4764L480.91 73.2944L490.783 83.1594L511.47 62.4883L490.783 91.4764Z" fill="#E83464"/>
<path d="M545.494 71.4428V30.4344H446.887V71.4428H422.068V165.965H491.542V164.448H425.804L460.375 98.7007L496.19 121.406L531.976 98.64L566.576 164.478H500.838V165.996H570.009V71.4428H545.494ZM545.494 72.9605H563.812L545.494 84.6164V72.9605ZM448.406 31.9522H543.975V85.5878L539.418 88.5018V47.0078L528.908 36.5053H499.593V38.023H528.27L537.899 47.6452V89.4731L496.19 116.033L454.481 89.5945V38.023H492.484V36.5053H452.962V88.6232L448.406 85.7395V31.9522ZM446.887 72.9605V84.7682L428.265 72.9605H446.887ZM423.587 75.3888L456.517 96.2724L423.587 158.893V75.3888ZM424.073 164.478H423.587V162.171L457.792 97.092L459.068 97.9115L424.073 164.478ZM568.49 164.478H568.308L533.252 97.8204L534.527 97.0009L568.49 161.564V164.478ZM568.49 158.316L535.834 96.1813L568.49 75.3888V158.316ZM568.49 73.5979L496.19 119.615L423.587 73.5979V72.9908H425.44L496.19 117.854L566.637 72.9908H568.49V73.5979Z" fill="#5E85D4"/>
<path d="M524.594 128.66C524.594 124.835 521.495 121.739 517.668 121.739C513.84 121.739 510.741 124.835 510.741 128.66C510.741 132.485 513.84 135.581 517.668 135.581C521.495 135.581 524.594 132.485 524.594 128.66ZM512.291 128.66C512.291 125.685 514.721 123.257 517.698 123.257C520.675 123.257 523.105 125.685 523.105 128.66C523.105 131.635 520.675 134.063 517.698 134.063C514.721 134.063 512.291 131.635 512.291 128.66Z" fill="#5E85D4"/>
<path d="M469.518 156.403C469.518 158.771 471.432 160.683 473.802 160.683C476.171 160.683 478.085 158.771 478.085 156.403C478.085 154.036 476.171 152.124 473.802 152.124C471.432 152.124 469.518 154.036 469.518 156.403ZM476.536 156.403C476.536 157.921 475.29 159.166 473.771 159.166C472.252 159.166 471.007 157.921 471.007 156.403C471.007 154.886 472.252 153.641 473.771 153.641C475.29 153.641 476.536 154.886 476.536 156.403Z" fill="#5E85D4"/>
<path d="M456.243 127.446L452.142 129.692L456.243 131.908L458.491 136.006L460.739 131.908L464.84 129.662L460.739 127.415L458.491 123.318L456.243 127.446ZM461.65 129.662L459.585 130.785L458.461 132.849L457.337 130.785L455.271 129.662L457.337 128.538L458.461 126.474L459.585 128.538L461.65 129.662Z" fill="#5E85D4"/>
<path d="M553.514 104.559L556.552 110.083L559.589 104.559L565.118 101.523L559.589 98.4881L556.552 92.9636L553.514 98.4881L547.985 101.523L553.514 104.559ZM554.607 99.6415L556.521 96.1508L558.435 99.6415L561.929 101.554L558.435 103.466L556.521 106.957L554.607 103.466L551.114 101.554L554.607 99.6415Z" fill="#5E85D4"/>
<path d="M434.28 89.0479H432.761V93.9652H434.28V89.0479Z" fill="#5E85D4"/>
<path d="M434.28 98.67H432.761V103.587H434.28V98.67Z" fill="#5E85D4"/>
<path d="M431.181 95.574H426.26V97.0917H431.181V95.574Z" fill="#5E85D4"/>
<path d="M440.811 95.574H435.89V97.0917H440.811V95.574Z" fill="#5E85D4"/>
<path d="M545.494 148.997H543.975V152.245H545.494V148.997Z" fill="#5E85D4"/>
<path d="M545.494 155.372H543.975V158.619H545.494V155.372Z" fill="#5E85D4"/>
<path d="M543.155 153.064H539.904V154.582H543.155V153.064Z" fill="#5E85D4"/>
<path d="M549.534 153.064H546.284V154.582H549.534V153.064Z" fill="#5E85D4"/>
<path d="M469.154 56.6299V60.4241C469.154 69.2572 473.68 94.785 494.307 106.623L496.19 107.716L498.074 106.623C518.701 94.785 523.227 69.2572 523.227 60.4241V56.6299H519.43C511.653 56.6299 504.362 53.5945 498.894 48.1308L496.221 45.4596L493.547 48.1308C488.049 53.6248 480.758 56.6299 473.012 56.6299H469.154ZM494.58 49.1931L496.19 47.5844L497.8 49.1931C503.572 54.9604 511.258 58.1476 519.43 58.1476H521.708V60.4241C521.708 69.0143 517.333 93.844 497.314 105.318L496.19 105.955L495.066 105.318C475.078 93.844 470.703 69.0143 470.703 60.4241V58.1476H472.981C481.123 58.1476 488.808 54.9604 494.58 49.1931Z" fill="#5E85D4"/>
<path d="M472.192 59.6653V60.4241C472.192 64.8558 473.376 72.9604 476.748 81.156C480.941 91.3549 487.533 99.247 495.795 104.013L496.16 104.225L496.524 104.013C504.787 99.2773 511.349 91.3853 515.572 81.156C518.944 72.9604 520.128 64.8862 520.128 60.4241V59.6653H519.43C510.863 59.6653 502.782 56.3263 496.737 50.2859L496.19 49.7395L495.644 50.2859C489.568 56.3567 481.518 59.6653 472.951 59.6653H472.192ZM496.19 51.8643C502.296 57.6923 510.225 60.9705 518.67 61.183C518.549 65.6147 517.333 73.0514 514.235 80.5792C510.225 90.3229 503.998 97.881 496.221 102.464C488.444 97.881 482.216 90.3229 478.207 80.5792C475.078 73.0211 473.862 65.5843 473.741 61.1526C482.156 60.9705 490.084 57.6923 496.19 51.8643Z" fill="#5E85D4"/>
<path d="M512.078 62.9131L510.924 61.9418L490.753 82.0969L477.751 69.075L490.692 92.9333L512.078 62.9131ZM490.783 84.2217L505.577 69.4392L490.874 90.0496L484.069 77.5134L490.783 84.2217Z" fill="#5E85D4"/>
<g opacity="0.3">
<path opacity="0.3" d="M242.983 254.728L252.665 260.305H277.266V254.728H242.983Z" fill="white"/>
<path opacity="0.3" d="M254.906 268.46C250.974 270.371 247.441 272.98 244.472 276.119V262.455L254.906 268.46ZM240.007 291.891C241.762 285.808 245.295 280.472 250.008 276.476L258.932 291.891H264.094L253.627 273.823C257.143 271.606 261.125 270.055 265.393 269.351L240 254.728V291.891" fill="white"/>
<path opacity="0.3" d="M270.216 270.409L277.266 270.405V275.979H256.61L255.661 274.34C259.966 271.901 264.928 270.483 270.216 270.409Z" fill="white"/>
<path opacity="0.3" d="M262.602 286.317L265.833 291.891H277.27V286.317H262.602Z" fill="white"/>
</g>
<path d="M243.713 254L253.395 259.574H277.996V254H243.713Z" fill="white"/>
<path d="M255.636 267.729C251.705 269.64 248.171 272.248 245.203 275.387V261.723L255.636 267.729ZM240.737 291.16C242.492 285.076 246.026 279.74 250.739 275.744L259.663 291.16H264.828L254.361 273.092C257.877 270.875 261.859 269.324 266.127 268.62L240.731 254V291.16" fill="white"/>
<path d="M270.947 269.681L277.996 269.677V275.251H257.34L256.391 273.612C260.697 271.174 265.659 269.752 270.947 269.681Z" fill="white"/>
<path d="M263.333 285.586L266.563 291.16H278V285.586H263.333Z" fill="white"/>
</g>
<defs>
<clipPath id="clip0">
<rect width="670" height="699" fill="white"/>
</clipPath>
</defs>
</svg>
